<?xml version="1.0" encoding="utf-8"?>
<!-- Generator: Adobe Illustrator 27.5.0, SVG Export Plug-In . SVG Version: 6.00 Build 0)  -->
<svg version="1.1" id="Calque_1" xmlns="http://www.w3.org/2000/svg" xmlns:xlink="http://www.w3.org/1999/xlink" x="0px" y="0px"
	 viewBox="0 0 530.5 557.2" style="enable-background:new 0 0 530.5 557.2;" xml:space="preserve">
<style type="text/css">
	.st0{fill:#DAE9FD;}
	.st1{fill:#D9E9FD;}
	.st2{fill:#FCFDFF;}
	.st3{fill:#F9FCFF;}
	.st4{fill:#DCEAFD;}
	.st5{fill:#3D8DF4;}
	.st6{fill:#FFFFFF;}
</style>
<path class="st0" d="M362.5,348.9c0.4-1,0.8-1.9,1.1-2.9c0.6,0.5,1.2,1,1.8,1.6C364.5,348,363.5,348.4,362.5,348.9z"/>
<path class="st1" d="M340.6,187.9c0.7-0.2,1.4-0.4,2.1-0.6C342,187.5,341.3,187.7,340.6,187.9z"/>
<path class="st2" d="M228.6,190c-0.3,0.7-0.6,1.3-0.8,2C228,191.4,228.3,190.7,228.6,190z"/>
<path class="st3" d="M263.6,135.2c-0.4,0.3-0.7,0.6-1,0.8C262.9,135.7,263.2,135.5,263.6,135.2z"/>
<path class="st2" d="M234.6,170.9c-0.2,0.4-0.5,0.7-0.8,1C234.1,171.6,234.3,171.3,234.6,170.9z"/>
<path class="st2" d="M232.6,175.9c-0.2,0.4-0.5,0.7-0.7,1C232.1,176.6,232.3,176.3,232.6,175.9z"/>
<path class="st4" d="M160.7,348c0.3,0.3,0.6,0.6,0.9,0.9C161.3,348.6,161,348.3,160.7,348z"/>
<path class="st5" d="M224.6,349.2c0.3,0.3,0.6,0.6,0.9,0.8C225.1,349.8,224.9,349.5,224.6,349.2z"/>
<path class="st5" d="M305.8,350c0.3-0.3,0.6-0.6,0.9-0.8C306.3,349.5,306,349.8,305.8,350z"/>
<path class="st6" d="M226.3,267.1c3.2,1.6,5.9,2.9,8.5,4.2c20.9,10.3,32.9,27.6,37.1,50c6.1,32.8-1.5,62.1-25.1,86.5
	c-12.9,13.4-28.9,21.5-47.2,24.2c-14.6,2.1-29.4,3.7-44.1,3.8c-44.4,0.5-88.8,0.1-133.2,0.3c-5.3,0-6.5-1.6-6.5-6.6
	c0.1-100.6,0.1-201.2,0-301.7c0-5.2,1.5-6.5,6.6-6.5c47.6,0.2,95.2,0,142.7,0.2c18.2,0.1,36.4,1.8,53.3,9.4
	c31.9,14.3,45.5,40.2,45.2,74.2c-0.2,20.6-6.2,38.8-22.8,52.2C236.5,260.7,231.6,263.5,226.3,267.1z M88.4,339.1
	c0,12.4,0,24.7,0,37.1c0,2.8,0,5.1,4,5.1c25.8-0.4,51.7,0.2,77.5-1.1c22-1.1,34.3-14,37.2-35.7c3.4-25.3-8.3-41.3-33.4-45.6
	c-4-0.7-8.2-1.2-12.3-1.2c-22.7-0.2-45.3-0.1-68-0.3c-4,0-5.1,1.4-5,5.2C88.5,314.7,88.4,326.9,88.4,339.1z M88.9,174.7
	c0,24.7,0,47.5,0,70.7c21.5,0,42.4,0,63.3,0c4.3,0,8.6-0.3,12.9-0.7c2.6-0.2,5.2-0.6,7.7-1.2c10.3-2.7,20-6.4,25-17
	c10.6-22.5-0.5-45.8-25.1-48.1C145.2,175.7,117.3,175.8,88.9,174.7z"/>
<path class="st6" d="M518.4,361c-1.7,12-7.1,21.7-13.9,30.8c-18.6,24.9-44.1,37.5-74.5,41c-33.5,3.9-64.4-2.7-92.1-22.6
	c-16.9-12.2-28.1-28.3-33.5-48.4c-9.3-34.2-9.3-68.4,3.3-101.6c13.9-36.6,41.9-57,79.9-63.6c21.7-3.7,43.3-2.1,64.4,4.7
	c35.5,11.5,55.5,37.2,65.1,72c5,18.2,4.6,37,4.5,56.5c-54.5,0-108.7,0-163.7,0c0.5,16.8,4.4,31.5,16.6,42.6
	c17.7,16.1,49.5,18.5,69.2,5c4.9-3.4,8.3-8.9,12.7-13.3c1.5-1.6,3.7-3.6,5.6-3.6c18-0.3,35.9-0.1,53.9-0.1
	C516.4,360.4,517.1,360.7,518.4,361z M359.6,290.9c33.6,0,66.8,0,99.9,0c1.1-23.8-16.9-46-47.1-47.6
	C379.2,241.6,361.6,265.1,359.6,290.9z"/>
<path class="st6" d="M472.3,165.9c-31.5,0-62,0-92.5,0c-9.7,0-19.5,0.1-29.2-0.2c-1.5,0-4.3-2-4.4-3.1c-0.4-9.1-0.2-18.3-0.2-27.9
	c42.2,0,84,0,126.2,0C472.3,144.9,472.3,155.2,472.3,165.9z"/>
</svg>
