<?xml version="1.0" encoding="UTF-8"?>
<svg id="Calque_1" data-name="Calque 1" xmlns="http://www.w3.org/2000/svg" viewBox="0 0 428.95 470.58">
  <defs>
    <style>
      .cls-1 {
        fill: #fbbc05;
      }

      .cls-1, .cls-2, .cls-3, .cls-4, .cls-5, .cls-6, .cls-7 {
        stroke-width: 0px;
      }

      .cls-2 {
        fill: #fed803;
      }

      .cls-3 {
        fill: #4386f4;
      }

      .cls-4 {
        fill: #36a854;
      }

      .cls-5 {
        fill: #ea4435;
      }

      .cls-6 {
        fill: #d7ecda;
      }

      .cls-7 {
        fill: #fdeec0;
      }
    </style>
  </defs>
  <path class="cls-5" d="M308.88,25.43c2.58,1.76,5.17,3.5,7.73,5.29,6.39,4.48,12.37,9.46,18.07,14.82-.02.75-.65,1.04-1.06,1.45-15.69,15.71-31.38,31.41-47.08,47.11-1.72,1.72-1.87,1.71-3.6.15-4.7-4.25-9.79-7.95-15.26-11.16-6-3.52-12.27-6.4-18.9-8.5-2.8-.89-5.59-1.77-8.5-2.24-.55-.09-.89-.67-1.49-.53-.43-.43-.96-.42-1.51-.35-.28-.03-.56-.07-.84-.1-.14-.22-.32-.33-.58-.2-.32-.04-.63-.09-.95-.13-.12-.18-.27-.22-.44-.06-.3-.02-.6-.04-.89-.06-.13-.19-.29-.3-.53-.17-.31-.05-.63-.09-.94-.14-.45-.24-.9-.36-1.39-.11-.29-.02-.57-.04-.86-.07-.29-.33-.64-.36-1.03-.21-.32-.02-.63-.05-.95-.07-.45-.19-.92-.23-1.4-.1-.62-.02-1.23-.04-1.85-.05-.6-.36-1.24-.45-1.91-.22-2.98-.23-5.95-.22-8.93-.02-.68-.21-1.33-.2-1.93.22-.61.02-1.21.05-1.82.07-.48-.12-.94-.09-1.4.1-.32.02-.63.05-.95.07-.39-.15-.74-.15-1.04.19-.44.04-.87.08-1.31.12-.15.02-.31.04-.46.07-.32.03-.63.05-.95.08-.38-.13-.71-.07-.99.24-.77.1-1.54.2-2.3.3-.5-.1-.95.02-1.38.28-.32.06-.64.12-.96.17-.24-.12-.4-.01-.53.18-3.02.76-6.07,1.45-9.06,2.31-6.93,1.99-13.47,4.96-19.76,8.43-6.31,3.48-12.14,7.66-17.59,12.4-9.32,8.09-16.88,17.56-22.96,28.26-2.99,5.26-5.43,10.75-7.48,16.42-.21.58-.44,1.16-.67,1.74-1.75-1.29-3.53-2.54-5.25-3.87-5.54-4.31-11.03-8.68-16.58-12.98-4.87-3.78-9.8-7.46-14.66-11.24-6.83-5.31-13.63-10.68-20.43-16.03-.45-.36-.92-.58-1.49-.56,1.4-3.33,3.46-6.3,5.17-9.46,2.34-4.33,5.2-8.32,7.91-12.42,2.38-3.61,5.04-7,7.74-10.35,4.44-5.51,9.1-10.84,14.27-15.68,4.06-3.79,8.23-7.45,12.57-10.93,4.59-3.68,9.38-7.07,14.27-10.31,4.97-3.3,10.29-5.99,15.61-8.68,1.66-.84,3.32-1.69,4.97-2.53.33.05.56-.12.75-.36,1.53-.53,2.98-1.2,4.41-1.96.26.04.45-.07.57-.3.67-.02,1.23-.34,1.79-.68.34.06.56-.12.75-.35.23-.09.46-.18.7-.27,0,0,.22.01.22.01l.14-.17c.18-.05.36-.11.54-.16.34.07.56-.12.75-.35.22-.07.45-.15.67-.22.22.09.33-.03.42-.21,1.18-.2,2.25-.73,3.33-1.2.22.09.35-.02.45-.2.37,0,.7-.07.98-.32.19.09.31,0,.39-.16.39,0,.74-.09,1.04-.35,0,0,.2.03.2.03l.14-.16c.4,0,.76-.09,1.07-.35,0,0,.2.04.2.04l.15-.15c.39,0,.75-.08,1.05-.34,0,0,.21.03.21.03,0,0,.15-.16.15-.16.34-.09.67-.18,1.01-.26.22.09.35-.02.45-.2.32-.07.63-.15.95-.22.24.08.39-.03.52-.22.52.01,1.01-.07,1.43-.4,0,0,.2.05.2.05l.16-.15c.33-.08.65-.15.98-.23.23.08.39-.02.51-.21.5.02.98-.05,1.4-.35.2.13.32.02.43-.14.16.05.31.03.44-.07.53.07.99-.06,1.4-.41.16-.03.32-.05.48-.08.52.08.99-.04,1.4-.39.52.04,1.03,0,1.48-.32.2.13.33.02.44-.14.16.05.3.03.44-.06.55.05,1.07.03,1.5-.38.28-.04.57-.07.85-.11.54.06,1.05.04,1.47-.37.29-.04.59-.08.88-.11.54.06,1.07.07,1.49-.35.28-.04.56-.07.84-.11.15-.02.3-.04.45-.06.37.05.72.03,1.03-.2.2.14.32.03.43-.13.3-.03.6-.06.91-.09.15-.02.3-.04.45-.07.37.04.72.02,1.04-.2.2.15.32.03.43-.12.3-.02.6-.05.9-.07.15-.02.3-.04.46-.05.33-.04.67-.08,1-.12.36.12.66.04.92-.22.3-.02.6-.04.91-.06.3-.03.61-.07.91-.1.34-.03.68-.07,1.02-.1.35.13.64.02.9-.22.46-.02.93-.04,1.39-.06.3-.03.61-.06.91-.09.51.06,1.02.08,1.51-.14.34.16.62.05.88-.18.62-.02,1.24-.05,1.86-.07.31-.02.61-.04.92-.06.82.04,1.65.12,2.45-.16.63.25,1.23.15,1.8-.18,1.56.1,3.12.12,4.68-.07.15,0,.3,0,.46,0,3.6.02,7.2.05,10.81.07.73.36,1.49.42,2.27.21.96.26,1.93.2,2.91.17.31.01.61.03.92.04.47.02.95.03,1.42.05.42.25.85.39,1.34.22.64.22,1.29.23,1.95.16.15.01.3.02.46.04.44.03.88.06,1.32.1.28.31.61.33.97.18.49.06.98.12,1.48.17.15.01.31.02.46.03.29.02.58.05.87.07.12.17.26.29.47.14.47.24.98.24,1.49.19.15.02.3.04.46.06.29.02.58.05.87.07.12.17.26.29.48.15.34.05.68.11,1.02.16.15.02.3.04.45.06.3.03.6.06.91.09.11.16.23.27.43.13.31.22.67.24,1.03.2.15.02.3.04.45.06.28.04.56.07.84.11.13.19.29.3.53.2.61.09,1.22.17,1.83.26.12.18.27.3.51.19.59.22,1.19.32,1.82.28.13.19.29.3.53.2.45.21.92.29,1.41.24.11.16.23.27.43.13.46.29.97.33,1.49.33,0,0,.16.15.16.15l.2-.05c.57.38,1.21.41,1.87.41.13.21.3.33.56.24.31.06.63.13.94.19.1.16.22.27.42.15.43.3.92.36,1.43.33.11.17.25.28.46.18.91.34,1.79.76,2.79.78.12.19.28.3.52.22.32.07.63.15.95.22.1.17.23.28.44.19,1.24.5,2.45,1.08,3.8,1.21.09.15.2.27.4.16.33.11.67.21,1,.32.09.17.21.28.42.19,5.21,2.04,10.42,4.05,15.48,6.45,5.48,2.61,10.79,5.52,15.98,8.66.4.24.82.43,1.23.64,0,0,.05.09.05.09,0,0-.02-.07-.02-.07Z"/>
  <path class="cls-4" d="M120.19,208.1c2.06,5.86,4.54,11.54,7.49,17.02,4.19,7.77,9.29,14.88,15.26,21.39,9.1,9.92,19.65,17.88,31.78,23.69,9.5,4.56,19.44,7.71,29.96,8.86.18.22.41.28.67.17,1.18.1,2.37.2,3.55.29.18.22.41.28.67.17,8.79.62,17.55.42,26.27-.93.27.1.49.04.68-.18.71-.09,1.43-.18,2.14-.27.27.08.5.02.68-.2,1.34-.25,2.68-.49,4.02-.74.27.08.5.02.68-.2,2.8-.56,5.48-1.52,8.2-2.33,3.37-1,6.64-2.2,9.83-3.63,4.59-2.05,9.07-4.34,13.25-7.16.46-.31.94-.5,1.43-.69,1.03.24,1.76.99,2.55,1.6,6.23,4.83,12.45,9.69,18.67,14.53,11.84,9.2,23.68,18.39,35.51,27.59-2.35,2.93-5.45,5.05-8.31,7.4-4.14,3.4-8.5,6.52-13.06,9.36-6.63,4.13-13.49,7.78-20.63,10.96-8.3,3.71-16.84,6.62-25.64,8.84-3.78.95-7.53,2.17-11.37,2.72-4.01.57-8.01,1.29-12.04,1.69-.27-.11-.49-.05-.68.17-10.03.97-20.08,1.45-30.16,1.09-3.74-.13-7.48-.41-11.22-.62-.18-.22-.41-.28-.67-.17-2.28-.25-4.56-.51-6.84-.76-.18-.22-.41-.28-.68-.18-3.48-.53-7.02-.8-10.42-1.67-3.95-1-7.98-1.66-11.87-2.88-5.33-1.67-10.63-3.42-15.83-5.47-5.15-2.03-10.25-4.19-15.13-6.78-5.16-2.75-10.32-5.54-15.19-8.83-3.77-2.55-7.56-5.06-11.16-7.84-8.83-6.81-17.05-14.26-24.46-22.61-3.31-3.73-6.51-7.55-9.48-11.55-3.35-4.51-6.47-9.19-9.43-13.98-2.47-4-4.65-8.13-6.87-12.25-.1-.19-.05-.46-.07-.69,5.37-4.16,10.74-8.32,16.11-12.49,13.93-10.82,27.86-21.65,41.79-32.47Z"/>
  <path class="cls-3" d="M333.49,307.09c-11.84-9.2-23.68-18.39-35.51-27.59-6.23-4.84-12.44-9.7-18.67-14.53-.79-.61-1.52-1.36-2.55-1.6,1.79-1.8,4.04-3,5.96-4.65,2.41-2.07,4.86-4.08,7.13-6.31,5.21-5.13,9.45-10.97,13.11-17.3,3.64-6.3,5.91-13.09,8.01-19.97.41-1.35.47-2.8.69-4.22-.97-.29-1.92-.16-2.85-.16-29.25,0-58.5,0-87.75,0-3.36,0-2.96.38-2.97-3.04-.01-20.73,0-41.46,0-62.2,0-2.73-.28-2.57,2.48-2.57,53.12,0,106.23,0,159.35,0,2.59,0,2.65,0,3.08,2.52.51,3,.9,6.02,1.34,9.04-.08.26-.01.47.19.65.57,7.13,1.24,14.26,1.22,21.43-.21,1.72-.2,3.44,0,5.17-.09,3.55-.18,7.09-.27,10.64-.31.32-.34.7-.2,1.1-.09,1.66-.18,3.33-.27,4.99-.2.18-.27.39-.19.65-.48,5.45-1.39,10.85-2.14,16.27-.21.17-.29.37-.21.63-1.43,6.98-3.06,13.91-5.15,20.74-3.07,10.04-7.07,19.68-11.92,28.98-4.25,8.16-9.24,15.84-14.88,23.1-4.36,5.61-9.09,10.89-14.18,15.84-.89.87-1.79,1.73-2.84,2.41Z"/>
  <path class="cls-1" d="M120.19,208.1c-13.93,10.82-27.86,21.65-41.79,32.47-5.37,4.17-10.74,8.33-16.11,12.49-1.63-2.68-3.05-5.46-4.28-8.35-1.22-2.87-2.51-5.71-3.57-8.63-1.37-3.77-2.82-7.53-3.9-11.39-.83-2.96-1.69-5.92-2.38-8.93-.95-4.13-1.6-8.32-2.31-12.49-1.79-10.49-2.59-21.08-2.36-31.73.23-10.4,1.45-20.7,3.32-30.94.7-3.84,1.7-7.59,2.55-11.39,1.07-4.8,2.72-9.44,4.46-14.04,2.38-6.28,4.87-12.52,8.02-18.46.57-.02,1.04.2,1.49.56,6.8,5.35,13.6,10.72,20.43,16.03,4.86,3.78,9.8,7.47,14.66,11.24,5.55,4.3,11.04,8.67,16.58,12.98,1.71,1.33,3.5,2.58,5.25,3.87-2.37,7.32-4.06,14.8-4.91,22.45-1.06,9.61-.65,19.17,1.01,28.7.92,5.27,2.38,10.41,3.83,15.55Z"/>
  <path class="cls-2" d="M206.99,431.41c.97-3.29,2.01-6.56,3.09-9.82,1.51-4.52,2.94-9.06,4.46-13.75.54.51.61,1.1.78,1.63,2.32,7.07,4.63,14.14,6.96,21.21.08.26.24.49.36.73,0,.21.1.32.32.28,2.92.02,5.83.06,8.75.06,5.28,0,10.57,0,15.85,0l.04.35c-5.1,3.7-10.21,7.4-15.31,11.1-1.25.91-2.5,1.81-3.75,2.73-1.03.76-1.03.77-.62,2.02,2.2,6.77,4.41,13.53,6.59,20.3.21.66.67,1.3.41,2.06l.02-.03c-.73-.04-1.15-.61-1.67-.99-5.79-4.18-11.56-8.38-17.34-12.58-1.27-.93-1.04-.87-2.24,0-6.08,4.44-12.16,8.87-18.23,13.33-.33.24-.7.28-1.11.5.17-.89.47-1.68.7-2.48,1.45-5.05,3.3-9.98,4.84-15.01.51-1.65,1.05-3.28,1.58-4.92.46-1.41.44-1.39-.71-2.23-5.35-3.9-10.67-7.82-16.04-11.69-.97-.7-1.99-1.33-3-2.22.57-.36,1.17-.22,1.71-.22,7.14-.01,14.29,0,21.43-.01.61,0,1.21-.04,1.82-.07.22.04.31-.07.31-.27Z"/>
  <path class="cls-2" d="M388.43,431.41c2.15-6.62,4.3-13.23,6.43-19.85.33-1.02.57-2.06.85-3.09.34-.24.66-.07.97.07.41,2.21,1.31,4.27,2,6.4,1.64,5.11,3.31,10.21,4.98,15.31.49,1.5.5,1.51,2.04,1.51,7.19,0,14.39,0,21.58,0h1.66c.08.52-.25.75-.57.95-2.39,1.51-4.6,3.29-6.89,4.94-2.73,1.96-5.46,3.93-8.19,5.9-1.23.89-2.45,1.8-3.69,2.68-.48.34-.52.7-.33,1.26.86,2.59,1.64,5.21,2.49,7.81,1.58,4.84,3.18,9.67,4.77,14.51.07.21.15.42-.09.73-.97-.35-1.8-1.03-2.62-1.66-5.32-4.09-10.7-8.1-16.16-12-1.45-1.03-1.07-1.15-2.65,0-5.86,4.26-11.72,8.52-17.59,12.78-.45.32-.93.59-1.39.89l.06-.13-.13-.07c1.34-5.04,3.07-9.96,4.67-14.92.82-2.56,1.64-5.11,2.49-7.66.26-.76.15-1.32-.54-1.76-2.9-1.84-5.59-3.97-8.38-5.96-3.33-2.38-6.64-4.79-9.96-7.19-.3-.22-.68-.39-.61-1.02.56-.02,1.14-.07,1.72-.07,6.97,0,13.95,0,20.92,0,.61,0,1.22-.04,1.82-.05.22.04.36-.04.35-.28Z"/>
  <path class="cls-2" d="M12.39,470.38c1-4.41,2.78-8.57,4.05-12.9.93-3.18,2.03-6.31,3.1-9.45.28-.83.32-1.34-.56-1.96-3.58-2.5-7.06-5.12-10.59-7.69-2.6-1.89-5.21-3.76-7.8-5.65-.21-.15-.36-.4-.58-.66.56-.52,1.19-.31,1.74-.31,7.02-.02,14.04-.01,21.06-.01.61,0,1.21-.04,1.82-.06.22.04.33-.05.31-.28,2.51-7.79,5.03-15.57,7.57-23.45.53.35.63.74.76,1.15,2.21,6.88,4.43,13.76,6.65,20.64q.65,2,2.71,2c7.19,0,14.39,0,21.58,0,.42,0,.86-.12,1.34.15-.8,1.02-1.9,1.66-2.88,2.35-3.22,2.27-6.38,4.61-9.56,6.93-2.03,1.48-4.08,2.96-6.13,4.41-1.9,1.35-1.54.9-.96,2.76,1.71,5.49,3.56,10.94,5.34,16.41.6,1.86,1.16,3.73,1.8,5.79-1.42-.28-2.16-1.36-3.14-2.01-.39-.26-.71-.68-1.11-.97-4.97-3.61-9.93-7.23-14.91-10.83-1.34-.96-.97-1.01-2.37.02-5.76,4.21-11.52,8.42-17.28,12.63-.57.42-1.19.78-1.78,1.17v-.16s-.16-.03-.16-.03Z"/>
  <path class="cls-2" d="M144.32,470.54c-.81-.33-1.49-.81-2.17-1.37-1.4-1.17-2.91-2.2-4.38-3.28-4.21-3.06-8.42-6.12-12.63-9.17-1.12-.81-1.13-.82-2.25,0-5.87,4.26-11.73,8.52-17.6,12.78-.44.32-.89.63-1.53,1.08,0-.73.05-1.22.24-1.79,2.08-6.32,4.08-12.67,6.16-18.98.17-.51.2-1.04.41-1.56.55-1.32.37-1.82-.74-2.55-3.34-2.18-6.46-4.67-9.7-6.97-2.85-2.02-5.6-4.18-8.53-6.1-.18-.12-.3-.31-.5-.52.53-.55,1.16-.33,1.7-.33,7.2-.02,14.39-.01,21.59-.01.39,0,.77,0,1.16,0,.46,0,.7-.22.79-.67.43-2.33,1.37-4.51,2.05-6.77,1.35-4.47,2.83-8.9,4.34-13.32.31-.89.21-1.96,1-2.68.17-.04.34-.08.51-.12.77,3.19,1.97,6.25,2.97,9.37,1.34,4.16,2.68,8.33,4.03,12.49.55,1.69.55,1.69,2.4,1.69,7.02,0,14.04,0,21.07,0,.61,0,1.21,0,1.96,0-.31.7-.82,1.01-1.35,1.39-3.01,2.15-5.98,4.36-8.97,6.54-1.93,1.4-3.87,2.78-5.8,4.17-.98.7-1.91,1.48-2.93,2.09-.79.47-.87,1.02-.61,1.8.76,2.28,1.45,4.58,2.22,6.85,1.77,5.24,3.28,10.56,5.19,15.76l-.15.05.04.15Z"/>
  <path class="cls-2" d="M297.7,431.41c2.51-7.78,5.03-15.57,7.56-23.4.58.32.64.73.78,1.15,2.19,6.78,4.41,13.55,6.59,20.32.9,2.79.53,2.25,3.14,2.26,7.47.03,14.95.01,22.63.01-.95,1.18-2.12,1.84-3.17,2.62-2.18,1.63-4.42,3.18-6.63,4.77-2.91,2.1-5.8,4.22-8.7,6.33-.36.26-.71.52-1.07.77-.42.29-.53.62-.34,1.13.31.82.52,1.68.79,2.51,1.75,5.37,3.52,10.73,5.26,16.1.48,1.48.88,2.98,1.34,4.54-1.12-.04-1.4-.98-2.06-1.42-1.61-1.08-3.15-2.26-4.72-3.39-4.03-2.93-8.06-5.86-12.09-8.78q-1.42-1.03-2.93.05c-5.74,4.16-11.47,8.32-17.21,12.48-.43.31-.78.79-1.43.79-.02-.17-.08-.34-.04-.48.63-1.99,1.08-4.04,1.8-5.98.9-2.43,1.67-4.89,2.49-7.34.57-1.72,1.22-3.42,1.54-5.24.21-1.2.85-2.34,1.33-3.49.31-.74.13-1.21-.52-1.68-2.89-2.05-5.65-4.3-8.63-6.19-3.38-2.14-6.44-4.7-9.78-6.89-.34-.22-.77-.45-.75-1.21.57,0,1.15,0,1.73,0,6.98,0,13.95,0,20.93,0,.61,0,1.22-.04,1.82-.05.22.04.34-.05.32-.28Z"/>
  <path class="cls-7" d="M230.71,70.49c.49-.24.94-.13,1.39.11-.5.46-.97.42-1.39-.11Z"/>
  <path class="cls-7" d="M211.85,69.97c.6-.42,1.26-.43,1.93-.22-.6.46-1.27.3-1.93.22Z"/>
  <path class="cls-7" d="M222.72,69.77c.67-.23,1.3-.15,1.91.22-.65.09-1.31.21-1.91-.22Z"/>
  <path class="cls-7" d="M199.26,71.5c.42-.26.88-.38,1.38-.28-.42.26-.82.66-1.38.28Z"/>
  <path class="cls-7" d="M208.64,70.14c.45-.19.92-.23,1.4-.1-.43.52-.89.56-1.4.1Z"/>
  <path class="cls-7" d="M226.47,70.04c.48-.12.94-.09,1.4.1-.5.46-.97.41-1.4-.1Z"/>
  <path class="cls-7" d="M237.27,71.46c.54-.06,1.08-.08,1.51.35-.56.11-1.1.16-1.51-.35Z"/>
  <path class="cls-7" d="M234.46,70.97c.17-.16.32-.12.44.06-.18.24-.32.18-.44-.06Z"/>
  <path class="cls-7" d="M202.94,70.91c.27-.31.61-.37.99-.24-.27.31-.62.33-.99.24Z"/>
  <path class="cls-7" d="M228.82,70.21c.39-.15.74-.12,1.03.21-.38.1-.74.1-1.03-.21Z"/>
  <path class="cls-7" d="M206.65,70.41c.3-.34.65-.34,1.04-.19-.3.31-.66.3-1.04.19Z"/>
  <path class="cls-7" d="M204.88,70.59c.15-.02.31-.04.46-.07-.12.23-.27.29-.46.07Z"/>
  <path class="cls-7" d="M233.04,70.74c.24-.13.39-.02.53.17-.21.06-.39,0-.53-.17Z"/>
  <path class="cls-7" d="M235.85,71.16c.26-.13.44-.02.58.2-.24.07-.43,0-.58-.2Z"/>
  <path class="cls-7" d="M197.78,71.85c.13-.19.29-.3.53-.18-.14.18-.31.24-.53.18Z"/>
  <path class="cls-6" d="M244.03,277.18c-.18.22-.41.28-.68.2.18-.23.4-.29.68-.2Z"/>
  <path class="cls-6" d="M239.34,278.12c-.18.22-.41.28-.68.2.18-.23.4-.29.68-.2Z"/>
  <path class="cls-6" d="M236.52,278.59c-.18.22-.41.28-.68.18.18-.22.41-.28.68-.18Z"/>
  <path class="cls-6" d="M205.35,279.23c-.27.11-.49.04-.67-.17.26-.1.49-.04.67.17Z"/>
  <path class="cls-6" d="M209.58,279.69c-.27.11-.49.05-.67-.17.26-.1.49-.04.67.17Z"/>
  <path class="cls-6" d="M192.19,347.6c.27-.1.49-.04.68.18-.27.1-.49.04-.68-.18Z"/>
  <path class="cls-6" d="M241.76,348.25c.18-.22.41-.28.68-.17-.18.21-.41.27-.68.17Z"/>
  <path class="cls-6" d="M199.7,348.54c.27-.11.49-.04.67.17-.26.1-.49.04-.67-.17Z"/>
</svg>