<?xml version="1.0" encoding="utf-8"?>
<!-- Generator: Adobe Illustrator 27.5.0, SVG Export Plug-In . SVG Version: 6.00 Build 0)  -->
<svg version="1.1" id="Calque_1" xmlns="http://www.w3.org/2000/svg" xmlns:xlink="http://www.w3.org/1999/xlink" x="0px" y="0px"
	 viewBox="0 0 450.78 470.5" style="enable-background:new 0 0 450.78 470.5;" xml:space="preserve">
<style type="text/css">
	.st0{fill:#FFFFFF;}
</style>
<g>
	<path class="st0" d="M225.62,452.55c-30.82-0.64-61.66-0.94-92.46-2.01c-25.48-0.88-49.91-6.43-71.53-20.73
		c-27.96-18.49-44.11-44.98-49.65-77.67c-2.49-14.72-3.87-29.8-3.92-44.72c-0.18-55.48,0.09-110.98,0.85-166.45
		c0.32-23.4,5.5-46.01,17.54-66.43c18.24-30.92,45.94-48.37,80.8-54.88c24.04-4.49,48.43-4.19,72.75-4.26
		c39.17-0.1,78.33-0.09,117.5,0.37c19.81,0.23,39.66,1.05,58.91,6.69c46.83,13.73,74.21,45.26,83.22,92.64
		c2.78,14.64,3.9,29.79,3.95,44.71c0.19,55.32-0.03,110.64-0.84,165.95c-0.38,25.65-6.26,50.27-20.69,72.02
		c-19.96,30.09-48.78,46.71-84.09,50.56c-25.6,2.79-51.53,2.68-77.32,3.56c-11.65,0.4-23.33,0.07-35,0.07
		C225.62,452.17,225.62,452.36,225.62,452.55z M226.2,53.71c-0.01,0.29-0.02,0.58-0.02,0.87c-13.83,0-27.67-0.14-41.5,0.03
		c-23.98,0.31-48.08-0.57-71.75,4.09c-29.9,5.88-50.97,22.78-59.44,52.57c-3.46,12.18-5.19,25.19-5.49,37.88
		c-0.97,40.97-1.18,81.97-1.13,122.96c0.02,20.31,0.66,40.66,2.07,60.92c1.36,19.44,7.08,37.52,20.75,52.36
		c15.41,16.74,35.28,23.6,57.09,25.08c21.26,1.44,42.62,2.16,63.93,2.05c44.65-0.23,89.31-0.74,133.94-2.09
		c18.56-0.56,36-6.29,50.65-18.65c18.31-15.44,25.82-36.1,27.41-59.03c1.45-20.92,2.16-41.95,2.05-62.92
		c-0.24-45.14-0.68-90.3-2.13-135.41c-0.62-19.43-6.92-37.53-20.51-52.43c-15.34-16.82-35.19-24.02-57.01-25.19
		C292.17,55.03,259.17,54.67,226.2,53.71z"/>
	<path class="st0" d="M225.85,121.51c62.12,0.02,112.14,50.12,112.08,112.26c-0.07,62.08-50.25,112.06-112.41,111.94
		c-61.86-0.12-111.79-50.14-111.82-112.02C113.66,171.57,163.73,121.5,225.85,121.51z M225.71,160.72
		c-40.04,0.06-72.79,32.83-72.81,72.86c-0.01,40.02,32.73,72.85,72.76,72.93c40.23,0.08,73.18-32.9,73.06-73.13
		C298.61,193.36,265.75,160.66,225.71,160.72z"/>
	<path class="st0" d="M368.72,117.16c-0.12,14.23-11.95,26-26.2,26.04c-14.44,0.05-26.45-12.03-26.28-26.43
		c0.17-14.51,12.27-26.32,26.67-26.04C357.14,91.02,368.83,102.99,368.72,117.16z"/>
</g>
</svg>
