<?xml version="1.0" encoding="utf-8"?>
<!-- Generator: Adobe Illustrator 27.5.0, SVG Export Plug-In . SVG Version: 6.00 Build 0)  -->
<svg version="1.1" id="Calque_1" xmlns="http://www.w3.org/2000/svg" xmlns:xlink="http://www.w3.org/1999/xlink" x="0px" y="0px"
	 viewBox="0 0 595.28 616.71" style="enable-background:new 0 0 595.28 616.71;" xml:space="preserve">
<style type="text/css">
	.st0{fill:#FFFFFF;}
</style>
<path class="st0" d="M298.11,13.28c53.32,0,106.65-0.24,159.97,0.13c19.31,0.13,38.7,1.11,57.09,8.22
	c44.11,17.05,68.59,49.59,74.61,96.02c1.81,14,2.15,28.26,2.17,42.4c0.15,98.82,0.17,197.64-0.09,296.46
	c-0.05,21.13-0.42,42.33-6.76,62.88c-13.65,44.23-52.88,76.08-99.05,79.6c-16.26,1.24-32.61,1.98-48.92,2.01
	c-96.32,0.16-192.64,0.16-288.96-0.08c-19.96-0.05-39.99-0.45-59.5-5.88C42.85,582.28,9.51,542.17,6.02,494.72
	c-1.22-16.6-1.94-33.28-1.97-49.92C3.89,349.65,3.9,254.5,4.12,159.34c0.05-20.63,0.26-41.34,5.89-61.5
	c12.72-45.62,52.01-78.63,99.21-82.69c15.09-1.3,30.27-1.98,45.42-2.06C202.46,12.84,250.28,13,298.11,13
	C298.11,13.09,298.11,13.19,298.11,13.28z M311.19,485.26c0-2.24,0-4.21,0-6.17c0-39.49-0.05-78.97,0.02-118.46
	c0.04-22,11.79-40.39,30.17-46.07c18.4-5.69,36.08-4.75,50.6,9.83c8.89,8.93,11.3,20.49,11.3,32.66c0,40.82-0.06,81.64-0.09,122.45
	c0,1.79,0,3.59,0,5.69c24.03,0,47.56,0,71.2,0c0.13-1.19,0.29-2,0.29-2.81c0-50.31,0.45-100.64-0.23-150.94
	c-0.31-22.52-8.7-43.12-24.23-59.36c-36.67-38.34-104.73-34.72-139.03,6.54c-1.07,1.29-2.21,2.52-3.32,3.78
	c-0.38-0.18-0.76-0.36-1.14-0.55c0-10.56,0-21.12,0-31.56c-22.49,0-44.4,0-66.48,0c0,78.47,0,156.54,0,234.97
	C263.88,485.26,287.28,485.26,311.19,485.26z M126.89,485.24c24.39,0,48.28,0,72.31,0c0-78.56,0-156.74,0-234.99
	c-24.27,0-48.17,0-72.31,0C126.89,328.65,126.89,406.71,126.89,485.24z M121.26,172.6c-0.21,23.16,18.42,42.05,41.69,42.25
	c22.76,0.2,41.81-18.62,41.97-41.48c0.16-22.96-18.42-42-41.2-42.23C140.45,130.91,121.47,149.44,121.26,172.6z"/>
</svg>
