<?xml version="1.0" encoding="utf-8"?>
<!-- Generator: Adobe Illustrator 27.5.0, SVG Export Plug-In . SVG Version: 6.00 Build 0)  -->
<svg version="1.1" id="Calque_1" xmlns="http://www.w3.org/2000/svg" xmlns:xlink="http://www.w3.org/1999/xlink" x="0px" y="0px"
	 viewBox="0 0 394.17 554.82" style="enable-background:new 0 0 394.17 554.82;" xml:space="preserve">
<path d="M184.72,36.27c9.33,0,18.67,0,28,0c-2.01,0.13-4.02,0.27-6.13,0.41c0.26,0.07,0.44,0.14,0.63,0.17
	c0.74,0.08,1.49,0.21,2.23,0.22c8.25,0.1,16.32,1.54,24.31,3.41c14.01,3.28,27.28,8.48,39.84,15.54c15,8.42,28.22,19.04,39.58,31.93
	c11.32,12.85,20.2,27.24,26.48,43.21c2.69,6.83,4.94,13.79,6.5,20.94c1.65,7.56,2.69,15.22,3.21,22.97
	c0.56,8.31,0.29,16.56-0.6,24.81c-1.47,13.62-5.03,26.71-10.29,39.33c-3.69,8.86-8.46,17.15-13.58,25.25
	c-5.62,8.9-11.13,17.87-16.67,26.82c-6.66,10.76-13.31,21.52-19.97,32.28c-5.89,9.52-11.76,19.05-17.66,28.57
	c-6.47,10.43-13,20.83-19.45,31.28c-9.92,16.08-19.78,32.2-29.71,48.27c-5.77,9.35-11.63,18.64-17.44,27.97
	c-1.98,3.17-3.92,6.36-5.91,9.57c-0.13-0.15-0.26-0.26-0.34-0.39c-9.94-15.87-19.89-31.74-29.77-47.64
	c-0.91-1.47-1.77-1.96-3.57-1.7c-9.3,1.36-18.65,2.38-27.95,3.81c-13.84,2.13-27.35,5.67-40.54,10.37c-6.59,2.35-13,5.14-18.92,8.92
	c-1.69,1.08-3.22,2.42-5.14,3.87c2.2,1.64,4.01,3.17,5.99,4.43c6.71,4.27,14.08,7.13,21.57,9.68c10.73,3.65,21.75,6.16,32.88,8.21
	c11.43,2.11,22.95,3.54,34.55,4.26c9.02,0.56,18.05,1.08,27.08,1.15c9.7,0.07,19.41-0.27,29.1-0.72c7.15-0.33,14.3-0.9,21.4-1.79
	c8.25-1.04,16.47-2.37,24.64-3.92c13.17-2.5,26.11-5.87,38.48-11.2c5.02-2.17,9.92-4.53,14.25-7.92c0.86-0.68,1.63-1.47,2.71-2.46
	c-3.11-1.98-5.84-3.99-8.8-5.54c-9.83-5.16-20.26-8.85-30.94-11.8c-8.4-2.32-16.85-4.45-25.67-5.74c0.2-0.46,0.33-0.93,0.58-1.32
	c8.2-12.74,16.42-25.46,24.64-38.19c1.34-2.08,1.34-2.08,3.74-1.52c15.26,3.56,30.19,8.13,44.32,15.03
	c10.02,4.89,19.32,10.86,26.86,19.21c7.29,8.06,12.2,17.18,12.23,28.43c0.01,3.58,0.18,7.16-0.62,10.69
	c-2.28,10.14-7.63,18.44-15.26,25.36c-6.83,6.21-14.56,11.06-22.84,15.09c-10.66,5.17-21.76,9.12-33.16,12.27
	c-12.77,3.53-25.75,6.05-38.85,7.87c-7.91,1.1-15.88,1.81-23.83,2.58c-12.41,1.21-24.85,1.58-37.31,1.7
	c-4.54,0.04-9.08-0.1-13.61-0.26c-6.58-0.23-13.16-0.35-19.72-0.87c-8.59-0.68-17.15-1.66-25.72-2.59
	c-9.98-1.08-19.83-2.89-29.63-5.02c-13.96-3.04-27.66-6.97-40.75-12.76c-8.34-3.69-16.58-7.57-23.69-13.44
	c-4.37-3.6-8.81-7.11-12.23-11.72c-4.01-5.41-7.23-11.22-8.56-17.86c-0.6-3.03-0.59-6.2-0.64-9.31c-0.05-2.61-0.06-5.28,0.38-7.84
	c1.05-6.09,3.8-11.5,7.39-16.48c6.2-8.6,14.3-15.11,23.27-20.53c15.04-9.09,31.39-14.98,48.36-19.3c9.52-2.43,19.14-4.31,28.88-5.62
	c3.13-0.42,6.26-0.75,9.57-1.15c-0.25-0.43-0.41-0.75-0.6-1.05c-4.54-7.08-9.09-14.15-13.62-21.23
	c-11.9-18.58-23.78-37.16-35.69-55.73c-7.19-11.21-14.33-22.45-21.62-33.6c-6.09-9.33-11.39-19.02-15.31-29.49
	c-5.63-15.03-8.75-30.54-9.27-46.54c-0.4-12.16,0.88-24.21,3.6-36.07c2.94-12.84,7.57-25.04,13.88-36.63
	c10.41-19.14,24.38-35.21,41.81-48.24c17.46-13.05,36.84-22.1,58.17-26.73c6.12-1.33,12.38-2.05,18.59-2.93
	c2.19-0.31,4.44-0.24,6.66-0.35c0-0.07,0-0.13,0-0.2C187.89,36.56,186.3,36.41,184.72,36.27z M197.09,230.16
	c6.16-0.09,11.34-0.6,16.42-1.81c15.83-3.79,28.6-12.31,38.03-25.52c9.03-12.65,12.66-26.85,11.02-42.38
	c-1.09-10.33-4.54-19.77-10.48-28.24c-7.78-11.1-18.06-19.13-30.76-23.95c-8.9-3.38-18.12-4.43-27.6-3.83
	c-5.43,0.35-10.75,1.22-15.91,2.9c-10.25,3.33-19.15,8.88-26.6,16.65c-14.27,14.88-19.74,32.69-16.88,52.96
	c1.51,10.75,5.95,20.43,12.86,28.84C160.32,221.79,177.46,229.6,197.09,230.16z"/>
<path d="M24.22,441.52c0.14,2.7,0.33,5.39,0.4,8.09c0.02,0.88-0.26,1.77-0.4,2.66C24.22,448.68,24.22,445.1,24.22,441.52z"/>
</svg>
