<?xml version="1.0" encoding="utf-8"?>
<!-- Generator: Adobe Illustrator 27.5.0, SVG Export Plug-In . SVG Version: 6.00 Build 0)  -->
<svg version="1.1" id="Calque_1" xmlns="http://www.w3.org/2000/svg" xmlns:xlink="http://www.w3.org/1999/xlink" x="0px" y="0px"
	 viewBox="0 0 223.28 169" style="enable-background:new 0 0 223.28 169;" xml:space="preserve">
<style type="text/css">
	.st0{fill:#FFFFFF;}
</style>
<g>
	<path class="st0" d="M210.23,46.31c0.03,0.43,0.07,0.71,0.07,0.98c0.02,32.79,0.04,65.58,0.04,98.36c0,1.12,0,2.27-0.26,3.35
		c-0.89,3.64-4.14,6.15-7.96,6.19c-3.21,0.03-6.42-0.05-9.62-0.05c-53.49,0-106.99,0-160.48,0c-3.5,0-7,0.08-10.5,0.06
		c-5.37-0.02-8.75-3.24-8.77-8.58c-0.07-18.91-0.07-37.83-0.09-56.74c-0.01-13.12,0-26.25,0-39.37c0-1.33,0-2.66,0-4.11
		c0.28,0.09,0.45,0.1,0.55,0.18c17.43,13.13,34.85,26.27,52.27,39.4c12.97,9.77,25.95,19.54,38.92,29.31
		c2.18,1.65,4.38,3.17,7.32,3.03c1.8-0.09,3.46-0.55,4.9-1.62c6.41-4.78,12.8-9.58,19.19-14.38c16.94-12.74,33.88-25.48,50.82-38.22
		C194.45,58.22,202.25,52.33,210.23,46.31z"/>
	<path class="st0" d="M111.37,11.76c30.12,0,60.25,0,90.37,0c5.04,0,8.34,3.17,8.56,8.26c0.17,3.84,0.16,3.83-2.9,6.13
		c-21.57,16.22-43.13,32.45-64.69,48.67c-10.15,7.64-20.3,15.28-30.43,22.94c-0.58,0.44-0.95,0.43-1.51,0
		C90.61,82.57,70.45,67.39,50.29,52.21c-12.21-9.19-24.42-18.38-36.61-27.6c-0.47-0.36-0.85-1.11-0.91-1.71
		c-0.12-1.32-0.09-2.67,0.03-3.99c0.37-3.95,4.08-7.25,8.44-7.23c30.04,0.11,60.08,0.06,90.12,0.06
		C111.37,11.74,111.37,11.75,111.37,11.76z"/>
</g>
</svg>
