<?xml version="1.0" encoding="utf-8"?>
<!-- Generator: Adobe Illustrator 27.5.0, SVG Export Plug-In . SVG Version: 6.00 Build 0)  -->
<svg version="1.1" id="Calque_1" xmlns="http://www.w3.org/2000/svg" xmlns:xlink="http://www.w3.org/1999/xlink" x="0px" y="0px"
	 viewBox="0 0 215.2 304.36" style="enable-background:new 0 0 215.2 304.36;" xml:space="preserve">
<path d="M23.78,152.4c0-37.05,0-74.1,0-111.15c0-20.38,12.17-32.48,32.65-32.48c34.3,0,68.6-0.01,102.9,0
	c19.65,0.01,31.99,12.35,31.99,32.02c0.01,74.48,0.01,148.95,0,223.43c0,19.62-12.38,31.92-32.09,31.93
	c-34.55,0.01-69.1,0.01-103.65,0c-19.38-0.01-31.8-12.44-31.81-31.84C23.78,227,23.78,189.7,23.78,152.4z M179.5,152.56
	c0-37.67,0.02-75.34-0.01-113.02c-0.01-11.58-7.37-18.88-18.96-18.93c-5.11-0.02-10.23,0.06-15.34-0.04
	c-1.92-0.04-3.07,0.37-4.04,2.32c-3.25,6.53-8.84,9.62-16.04,9.67c-11.72,0.08-23.45,0.09-35.17,0c-7.2-0.06-12.57-3.29-16.15-9.66
	c-0.61-1.09-2.31-2.13-3.56-2.19c-4.98-0.25-9.97-0.11-14.96-0.1c-12.59,0.02-19.63,7.1-19.64,19.76
	c-0.01,74.72-0.01,149.44,0,224.16c0,12.39,7.38,19.76,19.77,19.76c34.67,0.01,69.35,0.01,104.02,0c12.89,0,20.07-7.24,20.07-20.22
	C179.5,226.9,179.5,189.73,179.5,152.56z"/>
<path d="M119.46,260.38c-0.06,6.47-5.55,11.86-12,11.8c-6.46-0.06-11.86-5.57-11.79-12.02c0.06-6.51,5.5-11.85,12-11.79
	C114.13,248.43,119.52,253.91,119.46,260.38z"/>
</svg>
