<?xml version="1.0" encoding="utf-8"?>
<!-- Generator: Adobe Illustrator 27.5.0, SVG Export Plug-In . SVG Version: 6.00 Build 0)  -->
<svg version="1.1" id="Calque_1" xmlns="http://www.w3.org/2000/svg" xmlns:xlink="http://www.w3.org/1999/xlink" x="0px" y="0px"
	 viewBox="0 0 530.5 557.2" style="enable-background:new 0 0 530.5 557.2;" xml:space="preserve">
<style type="text/css">
	.st0{fill:#FFFFFF;}
</style>
<path class="st0" d="M163.1,503.8C62.8,463.1-14.8,341.2,21.8,208C59.9,69.5,206.1-8.6,342.9,35.4C478.8,79.1,551.8,227,502.3,360.6
	c-50.9,137.5-195.6,189.9-308.4,154.6c25.9-35.9,30.9-79.1,42.9-120.6c2.7,3.1,4.7,5.8,7.1,8.1c18.9,17.9,41.6,23.9,66.9,21.1
	c51.8-5.8,85.3-36.1,106.2-81.9c15.3-33.5,21.4-69.3,17-105.7c-5.8-48.4-32.2-83.9-74.2-107.8c-32.1-18.2-67.1-23.4-103.6-20.5
	c-31.3,2.5-60.8,10.7-87.4,27.7c-41.2,26.4-66.7,63.5-73.7,112.2c-3.8,27-0.3,53.4,12.6,77.9c8,15.4,19.8,27,35.7,34.3
	c8.8,4,13.4,1.8,16-7.6c0.2-0.9,0.4-1.8,0.7-2.6c5.3-13.8,5.1-25.7-5.4-38.3c-11.1-13.4-12.1-31.1-10.7-48.1
	c3.2-40.4,20.9-72.5,55.6-94.2c26-16.3,54.7-20.5,84.8-17.5c18.1,1.8,35,7,50.1,17.4c22.9,15.8,35.3,38.3,37.4,65.5
	c2.7,34-2.3,67-17,98.1c-6.1,12.9-14,24.5-25.1,33.6c-14.7,12-31.2,17.4-50,12.1c-19.8-5.6-31.6-24.6-26.6-44.5
	c5.3-21.3,12.5-42.2,17.8-63.5c2.6-10.5,4.5-21.8,3.9-32.5c-1.6-27.4-26.7-41.1-51.3-28.7c-16.8,8.5-25,23.5-29.1,41
	c-4.5,19-2.4,37.6,4,55.9c0.9,2.7,1.1,6,0.5,8.8c-10.6,45.7-21.9,91.2-31.9,137c-3.2,14.8-2.8,30.5-4,45.7
	C163,499.7,163.1,501.7,163.1,503.8z"/>
</svg>
