<?xml version="1.0" encoding="utf-8"?>
<!-- Generator: Adobe Illustrator 27.5.0, SVG Export Plug-In . SVG Version: 6.00 Build 0)  -->
<svg version="1.1" id="Calque_1" xmlns="http://www.w3.org/2000/svg" xmlns:xlink="http://www.w3.org/1999/xlink" x="0px" y="0px"
	 viewBox="0 0 530.5 557.2" style="enable-background:new 0 0 530.5 557.2;" xml:space="preserve">
<style type="text/css">
	.st0{fill:#FFFFFF;}
</style>
<path d="M405.8,177c-1.1,20.3-2,36.4-3,52.6c-0.4,6.6,0.5,8.3,6.9,7.6c7.3-0.8,14.6-2.6,21.4-5.3c10.5-4,20-2.8,29,3.1
	c11.1,7.2,12.4,20.1,2.2,28.3c-6.3,5.1-14.1,8.7-21.6,12.3c-8,3.8-16.8,6-24.6,10.1c-9.7,5-12.6,12.5-8.3,22.4
	c16.6,38.4,42,68.5,81.5,84.8c6.3,2.6,13.1,4,19.8,5.6c4.8,1.2,9.2,2.6,10.9,7.7c1.8,5.4,0.2,10.5-3.8,13.9c-4.6,4-9.7,8.2-15.3,10
	c-14.6,4.7-29.6,8.3-44.5,11.8c-3.6,0.9-5.3,2.4-6,5.7c-1.4,5.8-2.7,11.7-4.3,17.4c-2.2,8-6.1,10.9-14.3,10.2
	c-11.4-1-22.7-2.8-34-3.7c-19.4-1.5-36.9,3.4-52.6,15.3c-7.1,5.4-14.4,10.4-22,15.1c-40.1,24.4-79.9,23.7-119.3-1.7
	c-6.7-4.3-13.4-8.7-19.7-13.6c-19.1-15-41.1-17-64-14.3c-6.6,0.8-13.2,2.3-19.8,3.4c-8.9,1.4-14.3-2-16.7-10.6
	c-1.6-5.8-2.9-11.6-4.3-17.4c-0.8-3.3-2.4-4.8-6.1-5.7c-14.1-3.2-28.3-6.4-42-10.8c-6.2-2-11.8-6.2-17-10.3
	c-4.2-3.4-6.3-8.4-4.6-14.2c1.7-5.8,6.4-7.3,11.6-8.3c30.4-5.9,54.6-22.4,73.6-46.1c9.7-12.2,17.9-26,25.3-39.8
	c7.5-13.9,3.8-22.6-10.7-29.3c-5.7-2.7-12-4.1-17.8-6.7c-7.7-3.5-15.8-6.7-22.5-11.8c-12.6-9.5-10.9-23.7,3-31.2
	c7.9-4.3,16-5.3,24.5-1.3c7.6,3.6,15.6,5.7,24.2,5.1c5-0.4,6.7-2.1,6.4-7.4c-1-21.7-1.8-43.5-2.2-65.3
	c-1.1-57.4,40.6-102,82.8-116.6c45.4-15.8,90.4-14.7,133,9.2c31.5,17.7,52.6,44.5,60.6,80.1C405.1,151.4,404.9,166.4,405.8,177z
	 M20.6,410.5c2.4,5.2,7.3,8,12.3,9.5c14.2,4.2,28.6,8.1,43.1,11.1c7.4,1.5,11.9,4.8,13.7,11.9c1.4,5.3,2.8,10.5,3.7,15.9
	c0.9,5.2,3.1,6.9,8.5,5.6c6.3-1.6,12.8-2.5,19.3-3.3c24.9-2.8,48.5,0.4,69.2,16.2c6.3,4.8,13,9.3,19.7,13.6
	c36.5,23.6,73.2,23.8,109.8,0.3c7-4.5,13.9-9.2,20.6-14.2c16.7-12.5,35.6-17.8,56.2-16.6c9.9,0.6,19.8,2.1,29.7,3.3
	c9.1,1.2,9,1.3,11.1-7.5c1.2-4.9,2.3-9.9,3.7-14.8c1.7-6,5.5-9.5,12-10.2c4.7-0.5,9.4-1.1,13.9-2.5c11.6-3.4,23.2-7,34.6-11.1
	c3.3-1.2,5.8-4.5,8.8-7c-10.5-3.4-19.9-5.6-28.6-9.4c-40.5-18-67-49.4-84-89.4c-6.4-15.2-1.2-28.5,13.6-36.3
	c7.9-4.2,16.9-6.5,25.1-10.2c6.5-3,13-6.3,18.8-10.5c4.5-3.3,3.8-7.5-0.9-10.7c-5.7-3.9-11.8-5-18.6-2.4c-5.9,2.2-11.9,4.4-18,5.9
	c-7.2,1.7-14.4,0.8-21.1-2.9c-3.6-2-5.7-4.5-5.2-9.1c0.9-8.5,1.2-17,1.7-25.5c1.1-22.1,2.9-44.4-1.1-66.3c-6-33.2-25-58.3-53.4-75.4
	c-39.9-24-83.1-26.3-125.8-10.1c-46.6,17.7-74.6,52.1-76.3,103.6c-0.8,23.9,1.2,47.9,2,71.8c0.3,7.6-0.7,9.5-7.7,12.3
	c-3,1.2-6.3,1.9-9.5,2.2c-10.2,1-19.8-1.8-29-6c-5-2.3-9.5-1.8-14.1,0.5c-7.6,3.8-8.6,9.3-1.5,13.9c6.3,4.1,13.4,6.9,20.4,10
	c7.6,3.4,15.8,5.7,22.9,9.8c13.8,7.9,18.6,20.7,12.4,35.4c-17.3,40.7-44.3,72.6-85.9,90.3C38.5,405.7,29.6,407.7,20.6,410.5z"/>
<path class="st0" d="M20.6,410.5c9-2.8,17.9-4.9,26.1-8.4c41.5-17.7,68.6-49.6,85.9-90.3c6.2-14.6,1.4-27.4-12.4-35.4
	c-7.2-4.1-15.3-6.4-22.9-9.8c-6.9-3.1-14.1-5.9-20.4-10c-7-4.7-6.1-10.1,1.5-13.9c4.6-2.3,9.1-2.8,14.1-0.5c9.1,4.2,18.7,7,29,6
	c3.2-0.3,6.5-1,9.5-2.2c7-2.7,8-4.7,7.7-12.3c-0.8-23.9-2.8-47.9-2-71.8c1.7-51.5,29.6-86,76.3-103.6
	c42.6-16.2,85.9-13.9,125.8,10.1c28.4,17.1,47.4,42.2,53.4,75.4c4,21.9,2.2,44.2,1.1,66.3c-0.4,8.5-0.8,17.1-1.7,25.5
	c-0.5,4.6,1.6,7.1,5.2,9.1c6.7,3.7,13.9,4.6,21.1,2.9c6.1-1.4,12.1-3.6,18-5.9c6.7-2.6,12.9-1.5,18.6,2.4c4.7,3.2,5.4,7.5,0.9,10.7
	c-5.8,4.2-12.3,7.6-18.8,10.5c-8.2,3.7-17.2,6-25.1,10.2c-14.8,7.8-20,21.2-13.6,36.3c17,40,43.5,71.4,84,89.4
	c8.7,3.9,18.2,6,28.6,9.4c-3,2.5-5.6,5.8-8.8,7c-11.4,4.1-23,7.7-34.6,11.1c-4.5,1.3-9.2,1.9-13.9,2.5c-6.4,0.7-10.3,4.2-12,10.2
	c-1.4,4.9-2.6,9.8-3.7,14.8c-2.1,8.8-2,8.7-11.1,7.5c-9.9-1.3-19.8-2.8-29.7-3.3c-20.6-1.2-39.5,4.1-56.2,16.6
	c-6.7,5-13.6,9.7-20.6,14.2c-36.6,23.5-73.3,23.3-109.8-0.3c-6.7-4.3-13.4-8.8-19.7-13.6c-20.7-15.8-44.2-19-69.2-16.2
	c-6.5,0.7-13,1.7-19.3,3.3c-5.3,1.3-7.6-0.4-8.5-5.6c-0.9-5.4-2.4-10.6-3.7-15.9c-1.8-7.1-6.3-10.4-13.7-11.9
	c-14.5-3-28.8-6.9-43.1-11.1C27.9,418.5,23,415.8,20.6,410.5z"/>
</svg>
