<?xml version="1.0" encoding="utf-8"?>
<!-- Generator: Adobe Illustrator 27.5.0, SVG Export Plug-In . SVG Version: 6.00 Build 0)  -->
<svg version="1.1" id="Calque_1" xmlns="http://www.w3.org/2000/svg" xmlns:xlink="http://www.w3.org/1999/xlink" x="0px" y="0px"
	 viewBox="0 0 530.5 557.2" style="enable-background:new 0 0 530.5 557.2;" xml:space="preserve">
<style type="text/css">
	.st0{fill:#FFFFFF;}
</style>
<path class="st0" d="M506.2,198.7c-2,4.8-2,10-2.7,15c-1.5,11.3-3.4,22.5-5.1,33.7c-0.5,3.4-0.2,7.1-0.8,10.2
	c-0.8,3.9-2.2,7.9-2.3,11.9c-0.1,6.1-3.2,11.7-2.8,17.8c-1.7,9.6-3.4,19.3-5.1,28.9c-1.7,9.8-3.3,19.5-5,29.3
	c-1.9,11.5-3.8,23.1-5.8,34.6c-1.9,10.9-3.9,21.7-5.8,32.5c-0.6,3.3-0.9,6.7-1.3,10.1c-1.4,7.9-3.3,15.8-4.7,23.7
	c-2.6,14.8-4.7,29.8-11.8,43.4c-6.8,13.1-16.6,19.2-30.1,17.9c-9.2-0.9-17.7-4.3-25.8-8.8c-13.3-7.4-25.1-17-37.8-25.3
	c-6.9-4.5-13.9-9-20.9-13.4c-9.9-6.8-19.8-13.7-29.7-20.5c-18.6-12.6-37.3-25.1-55.9-37.8c-5.5-3.7-10.8-7.7-14.7-13
	c-8.3-11.4-8.2-15.8-0.8-27.9c3.3-5.3,8-9.6,12.2-14.2c11.1-10.5,22.4-20.9,33.4-31.5c9-8.6,18.6-16.6,26.9-26.1
	c1.6,0.1,2.3-1.2,3.3-2.1c11-10.6,22-21.3,33-31.9c0.8-0.7,1.5-1.5,2.3-2.2c12.6-10.5,24-22.3,35.1-34.4c1.4-1.1,2.7-2.3,3.6-3.9
	c1.6-1.1,2.7-2.6,3.6-4.3c1-0.7,1.7-1.6,1.6-2.9c0.1-2.5,0.8-5.2-1.6-7.2c-2.2-3.1-5.3-1.4-8.1-1.6c-2.5-0.1-4.3,1.4-6.3,2.7
	c-1.4,0.5-2.8,1.2-3.8,2.4c-1.4,0.2-2.4,1.2-3.4,2c-1.5,0.5-2.8,1.2-3.8,2.4c-1.5,0.9-3.1,1.7-4.6,2.7c-20.9,13.7-41.7,27.5-62.7,41
	c-17.4,11.2-34.2,23.2-51.2,35.1c-3.8,2.3-7.7,4.4-11.3,6.9c-11.8,8.4-24,16.2-35.9,24.4c-14.5,9.9-28.8,19.8-45.8,25.1
	c-6.7,1-13.5,2.9-20.3,1.9c-11.8-1.7-23.5-4.3-35-7.4c-20.6-5.4-40.7-12.5-61.1-18.7c-3.5-1.1-6.8-3-10-4.8
	c-10.4-6-16.7-14.4-5.1-26.3c11.1-8.9,24.2-13.9,37.1-19.5c80.2-34.6,160.4-69.1,240.6-103.9c42.6-18.5,85.7-35.7,128.8-53.1
	c0.8-0.3,1.8,0.1,2.3-1c6.3-2.2,12.6-4.4,18.8-6.6c6.1-2.2,12.3-4.4,18.4-6.3c7.3-2.2,15.2-3.7,23-3.2c4.5,0.3,9.3,0.5,13.2,2.8
	c4.3,2.6,7.3,6.6,8.7,11.5c1.8,9.7,2.2,19.2,0.4,29.1c-1.8,10.1-2.3,20.5-3.5,30.7C508.7,178.9,506.7,188.7,506.2,198.7z"/>
</svg>
