<?xml version="1.0" encoding="utf-8"?>
<!-- Generator: Adobe Illustrator 27.5.0, SVG Export Plug-In . SVG Version: 6.00 Build 0)  -->
<svg version="1.1" id="Calque_1" xmlns="http://www.w3.org/2000/svg" xmlns:xlink="http://www.w3.org/1999/xlink" x="0px" y="0px"
	 viewBox="0 0 530.5 557.2" style="enable-background:new 0 0 530.5 557.2;" xml:space="preserve">
<style type="text/css">
	.st0{fill:#FFFFFF;}
</style>
<path class="st0" d="M238.6,315.4c-26.3-5.7-48.5,1-65.9,20.5c-17.2,19.3-21.5,41.9-14.3,67.7c-9.9-7.8-16.4-16.8-21.2-27.1
	c-0.5,0.3-1,0.6-1.5,0.9c3.5,5.7,6.1,12.2,10.7,16.8c8.8,9,16,19,23.2,29.3c11.8,16.9,29,26.4,49.7,26.9c25.7,0.7,44.9-11.5,58.5-33
	c7.6-12,9.8-25.2,9.9-39c0-102.9,0-205.8,0-308.7c0-2.4,0-4.8,0-7.3c26.5,0,52.4,0,78.6,0c0.7,31.1,10.8,58.2,33.4,79.2
	c22,20.4,48.1,32.5,79,32.1c0,25.6,0,50.5,0,76.5c-42.3,3.7-79.1-9.2-113-36c0,3.4,0,5.4,0,7.4c0,52.7,0.3,105.3-0.1,158
	c-0.4,58.7-27.2,102.4-78.1,130.7C224.2,545.4,140.4,525.8,100,466c-17.3-25.5-26.9-54-27.5-85.7c-1.2-69.3,49.8-133.5,121.3-146.5
	c12.8-2.3,26.1-2.3,39.1-3.3c4.3-0.4,6,1.1,6,5.8c-0.2,24.6-0.1,49.2-0.1,73.8C238.9,311.6,238.7,313.2,238.6,315.4z"/>
</svg>
