<?xml version="1.0" encoding="UTF-8"?>
<svg id="Calque_1" data-name="Calque 1" xmlns="http://www.w3.org/2000/svg" version="1.1" viewBox="0 0 470.5 470.5">
  <defs>
    <style>
      .cls-1 {
        fill: #000;
        stroke-width: 0px;
      }
    </style>
  </defs>
  <path class="cls-1" d="M469.4,124.3c-11.3,12.4-21,23.7-31.5,34.2-5.3,5.3-4.5,8.7.2,13.7,27.5,29.5,37.6,65,29.8,103.9-7.7,38.3-30.8,66.7-67,82.5-46.4,20.3-88.9,11.6-128.2-20.1-12.3,13.4-24.7,26.8-37.6,40.7-12.9-13.9-25-27-37.8-40.8-30.1,25.7-64.1,35.7-102.4,28.7-26.8-4.9-49.2-18.4-66.8-39.2-38.7-45.6-38.3-115.2,10.3-162.4-12.2-13.6-24.5-27.3-37.3-41.5,23.8,0,45.9-.4,68,.2,10.4.3,19.2-2.2,28-7.7,33.3-20.6,69.6-32.9,108.4-37.7,43.6-5.4,85.7,1.3,126.3,17.3,14.3,5.6,28.1,13,41.6,20.5,8.4,4.7,16.5,7.9,26.4,7.5,21-.8,42.1-.8,63.2-1,1.3,0,2.7.5,6.2,1.3ZM353,172.1c-43.2.1-79,37.1-80,76.6-1.1,45.7,33.1,82.5,77.1,83.1,45.3.6,81.9-33.4,82.6-76.7.7-45.8-34.3-82.3-79.7-83ZM118.5,172.2c-44.2-.6-79.9,34.4-80.5,78.9-.6,44.3,33.6,79.9,77.5,80.6,44,.7,81.1-34.1,81.8-76.8.8-48.4-37-81.2-78.8-82.8ZM234.2,238.6c6.4-23.4,14.4-45.4,30.6-63.6,16-18,35.2-31.8,58.9-40.8-34.9-23.5-146-23.2-177.1-.6,46.4,20.6,80.3,51.5,87.6,105.1Z"/>
  <path class="cls-1" d="M393.6,253.6c-.4,22.5-18.8,40.4-41.1,40.1-23.6-.3-41.4-19.2-41-43.2.4-21.7,21.1-40.7,43.7-40.1,20.7.5,38.8,20.9,38.4,43.2Z"/>
  <path class="cls-1" d="M159.3,252.7c-.1,21.8-19.9,41.1-42.1,41.1-22.6,0-41.5-19.1-41.1-41.5.3-22.4,19.8-42.1,41.3-42,21.9.2,42,20.5,41.9,42.3Z"/>
</svg>