<?xml version="1.0" encoding="utf-8"?>
<!-- Generator: Adobe Illustrator 27.5.0, SVG Export Plug-In . SVG Version: 6.00 Build 0)  -->
<svg version="1.1" id="Calque_1" xmlns="http://www.w3.org/2000/svg" xmlns:xlink="http://www.w3.org/1999/xlink" x="0px" y="0px"
	 viewBox="0 0 530.5 557.2" style="enable-background:new 0 0 530.5 557.2;" xml:space="preserve">
<style type="text/css">
	.st0{fill:#FFFFFF;}
</style>
<path class="st0" d="M502.5,527.3c-10.1,0-19.8,0-29.5,0c-35.1,0-70.3-0.1-105.4,0.1c-4.6,0-7.2-1.1-9.9-5.3
	c-7.5-12-15.8-23.4-23.8-35.1c-19.6-28.6-39.3-57.2-58.9-85.7c-13.8-20.1-27.7-40.1-41.5-60.2c-1.6-2.3-3.2-4.7-5.1-7.6
	c-2.6,2.7-5.1,5.1-7.4,7.8c-17.5,20.3-34.9,40.7-52.4,61c-10.5,12.2-20.9,24.4-31.4,36.5c-14.2,16.5-28.5,33-42.8,49.5
	c-7.6,8.9-15.1,17.9-22.7,26.8c-3.1,3.6-6.3,7.2-9.6,10.7c-0.7,0.7-1.8,1.4-2.7,1.4c-12.5,0.1-25,0.1-38.3,0.1
	c1.7-1.9,3.2-3.3,4.5-4.9c13.1-15.3,26.1-30.6,39.2-45.8c19.3-22.5,38.8-45,58.1-67.5c17.5-20.4,35-40.9,52.5-61.4
	c10.4-12.1,20.8-24.2,31.3-36.3c3.4-4,3.5-4,0.5-8.4c-23.7-34.4-47.5-68.8-71.2-103.3c-15.4-22.3-30.7-44.7-46-67.1
	C69.6,103,49.1,73.4,28.6,43.7c-2.2-3.1-4.3-6.3-6.6-9.6c0.4-0.2,0.9-0.5,1.3-0.5c44.6,0,89.2,0,133.8,0c4.2,0,6.7,1.1,9.2,5
	c6.7,10.7,14.1,21,21.3,31.4c13,18.9,25.9,37.7,38.9,56.5c11.4,16.5,22.9,32.8,34.2,49.3c9.1,13.2,18.1,26.5,27.4,40.2
	c1.1-0.9,2.2-1.5,2.9-2.4c12.8-15,25.5-30,38.3-44.9c9.7-11.3,19.5-22.6,29.2-33.8c15.3-17.7,30.6-35.4,45.9-53.1
	c12.6-14.6,25-29.3,37.5-43.9c2.2-2.6,4.7-4.2,8.4-4.1c9.8,0.3,19.6,0.2,29.4,0.2c1.7,0,3.3-0.2,6-0.3
	c-60.2,70.1-119.9,139.5-179.5,208.8C371.7,337.3,437,432.2,502.5,527.3z M443.4,496.1c-7.7-11.2-15-21.7-22.3-32.3
	c-17.7-25.8-35.4-51.6-53.1-77.3c-18.1-26.3-36.3-52.5-54.3-78.8c-19.7-28.6-39.4-57.3-59.1-86c-15.7-22.8-31.5-45.5-47.1-68.3
	c-16.6-24.1-33.1-48.2-49.6-72.3c-3.2-4.6-6.4-9.2-9.4-14.1c-1.1-1.8-2.2-2.5-4.3-2.5c-19.9,0.1-39.8,0-59.7,0
	c-0.9,0-1.8,0.2-3.2,0.3c0.7,1.2,1.1,2.1,1.6,2.8c3.7,5.4,7.5,10.9,11.2,16.3c14.2,20.5,28.4,40.9,42.4,61.4
	c25.4,36.9,50.6,73.9,76,110.8c20.3,29.5,40.7,59,61.1,88.5c26.1,37.9,52.3,75.8,78.4,113.7c8.1,11.7,16.3,23.4,24.3,35.2
	c1.5,2.2,3.3,2.9,5.9,2.9c18.7-0.1,37.5-0.1,56.2-0.1C439.9,496.4,441.3,496.2,443.4,496.1z"/>
</svg>
