<?xml version="1.0" encoding="UTF-8"?>
<svg id="Calque_1" data-name="Calque 1" xmlns="http://www.w3.org/2000/svg" version="1.1" viewBox="0 0 470.5 470.5">
  <defs>
    <style>
      .cls-1 {
        fill: #000;
        stroke-width: 0px;
      }
    </style>
  </defs>
  <path class="cls-1" d="M234.4,469C105.4,468.8,1.1,363.9,1.5,234.8,1.8,105.5,106.3,1.3,235.3,1.5c129.8.2,233.8,104.5,233.7,234.3-.1,129.5-104.8,233.5-234.7,233.3ZM235.7,25.8c-115.7-.1-209.9,94.1-209.9,209.9,0,114.8,94.3,208.8,210,209.1,114.2.3,209.3-94.8,209.1-209.1-.2-115.6-94.1-209.8-209.1-209.9Z"/>
  <path class="cls-1" d="M165.8,282v-93.4h137.8c3.7,31,3.5,61.9.2,93.4h-137.9Z"/>
  <path class="cls-1" d="M300.4,163.1h-131.9c5.7-20.2,10-39.6,17-58,5-13.3,12.4-26.2,21-37.5,16.4-21.8,40.5-21.5,57.8-.3,19.4,23.8,27.3,52.5,33.7,81.7,1,4.5,1.6,9,2.4,14.2Z"/>
  <path class="cls-1" d="M170,307.4h130.7c-6.8,35.4-14.3,70-38.2,97.8-16.7,19.5-39.2,18.6-55.8-1.4-18.1-21.8-26-48-32.5-74.9-1.6-6.7-2.7-13.5-4.2-21.5Z"/>
  <path class="cls-1" d="M140.8,188.1v94.4c-7.2,0-14.9,0-22.6,0-17.6,0-35.3-.3-52.9.2-6.3.2-8.3-2.1-9.6-8-5.8-26.7-5.8-53.4.5-79.9.6-2.5,3.3-6.3,5.1-6.4,26.5-.4,53.1-.3,79.6-.3Z"/>
  <path class="cls-1" d="M329.7,188.1c15.9,0,32,0,48.1,0,9.8,0,19.7-.3,29.5.3,2.4.2,6.3,3,6.8,5.3,6.8,27.7,6.8,55.6,0,83.3-.5,2-2.8,5.2-4.4,5.2-26.8.3-53.6.2-80.1.2v-94.3Z"/>
  <path class="cls-1" d="M288.6,59c54.7,18.4,92.5,52.3,116.1,104h-79.1c-6.7-35.7-15.1-71.2-37-104Z"/>
  <path class="cls-1" d="M65.8,307.3h79.3c6.6,36.1,15.2,71.4,36.8,104.1-54.6-18.2-92.3-52.2-116.1-104.1Z"/>
  <path class="cls-1" d="M67.1,163.1c11-41.3,71-95.4,113.8-102.5-20.6,31.3-29.3,66.4-35.7,102.5h-78Z"/>
  <path class="cls-1" d="M326.4,307.4h76.9c-13.2,43.6-66.3,92.3-111.1,102,6.7-15.8,14.8-32.1,20.6-49.1,5.8-17.1,9.2-35.1,13.7-52.8Z"/>
</svg>