<?xml version="1.0" encoding="utf-8"?>
<!-- Generator: Adobe Illustrator 27.5.0, SVG Export Plug-In . SVG Version: 6.00 Build 0)  -->
<svg version="1.1" id="Calque_1" xmlns="http://www.w3.org/2000/svg" xmlns:xlink="http://www.w3.org/1999/xlink" x="0px" y="0px"
	 viewBox="0 0 1223.63 921.83" style="enable-background:new 0 0 1223.63 921.83;" xml:space="preserve">
<style type="text/css">
	.st0{fill:#FFFFFF;}
</style>
<path class="st0" d="M170.36,901.08c4.93-18.86,9.44-36.66,14.23-54.38c13.71-50.69,27.37-101.37,41.45-151.94
	c3.79-13.6,2.04-25.79-4.36-38.25c-90.41-176.41-54.43-388.8,89.93-524.8C381.14,66.19,464.44,27.68,559.23,16.35
	C721.29-3.04,854.19,53.12,957.94,177.51c55.63,66.71,85.98,145.11,94.31,231.75c8.99,93.52-9.26,181.59-55.72,263.07
	c-52.89,92.74-129.49,158.82-230.11,195.5c-103.94,37.88-208.05,36.59-311.62-2.16c-12.37-4.63-24.38-10.3-36.34-15.93
	c-11.42-5.38-22.77-6.61-35.18-3.36c-69.05,18.14-138.19,35.89-207.33,53.75C174.63,900.49,173.24,900.6,170.36,901.08z
	 M270.87,800.59c4.24-0.57,6.08-0.61,7.81-1.07c36.2-9.4,72.61-18.09,108.47-28.6c17.39-5.11,31.75-2.72,47.44,5.88
	c104.87,57.43,214.07,64.12,323.13,16.75c128.9-56,204.12-156.25,222.78-296.21c11.17-83.8-5.45-163.59-50.78-234.84
	c-81.42-128-199.15-188.64-351.05-176.32c-104.37,8.47-189.6,56.45-254.79,138.14c-93.74,117.46-106.25,275.31-33.14,407.82
	c13.32,24.13,15.59,47.83,7.06,74.04C287.92,736.61,280.15,767.73,270.87,800.59z"/>
<path class="st0" d="M736.07,665.22c-47.44-2.34-88.84-15.87-127.79-37.02c-89.14-48.39-154.46-120.32-201.99-208.8
	c-28.83-53.66-19.02-113.88,22.9-155.51c14.05-13.94,43.06-19,60.22-9.71c3.97,2.16,7.6,6.54,9.44,10.76
	c12.55,29.12,24.83,58.36,36.68,87.8c4.88,12.1-1.97,22.13-8.47,31.44c-5.61,8.04-12.17,15.41-18.54,22.9
	c-7.29,8.53-8.26,17.36-2.5,27.08c35.05,59.2,83.94,102.55,147.7,128.72c16.39,6.72,21.43,4.88,33.07-9.28
	c9.12-11.1,17.91-22.45,27.17-33.41c10.53-12.48,14.59-13.28,29.14-6.33c26.24,12.55,52.34,25.38,78.63,37.82
	c10.4,4.9,14.87,11.92,14.37,24.01c-1.73,43.01-33.46,78.01-80.28,86.93C748.39,664,740.86,664.61,736.07,665.22z"/>
</svg>
