<?xml version="1.0" encoding="utf-8"?>
<!-- Generator: Adobe Illustrator 27.5.0, SVG Export Plug-In . SVG Version: 6.00 Build 0)  -->
<svg version="1.1" id="Calque_1" xmlns="http://www.w3.org/2000/svg" xmlns:xlink="http://www.w3.org/1999/xlink" x="0px" y="0px"
	 viewBox="0 0 530.5 557.2" style="enable-background:new 0 0 530.5 557.2;" xml:space="preserve">
<style type="text/css">
	.st0{fill:#FFFFFF;}
</style>
<path class="st0" d="M520.2,227.8c0,22.4,0,44.8,0,67.2c-0.2-0.3-0.4-0.7-0.8-1.3c-0.1,1-0.1,1.8-0.2,2.6c-1,16.6-1.8,33.3-3.1,49.9
	c-1.1,14-2.8,27.9-6.1,41.5c-5.5,22.1-19.5,36.4-40.3,44.6c-9.3,3.6-19.1,4.7-29,5.6c-16.2,1.5-32.4,2.8-48.6,3.9
	c-9.8,0.7-19.6,0.8-29.3,1.1c-21.6,0.6-43.1,1.6-64.7,1.7c-41.8,0.4-83.6,0.2-125.5-1.6c-22.5-1-45.1-1.9-67.6-3.7
	c-12.2-1-24.3-2.1-36.2-5c-20.7-5.1-35.8-17.2-44.7-36.7c-5.4-11.9-6.9-24.7-8.4-37.5c-1.6-13.8-2.7-27.7-3.7-41.6
	c-1.5-21.9-2.1-43.7-1.6-65.7c0.6-25.4,1.8-50.7,4.7-76c1.4-11.8,2.6-23.6,6.3-34.9c7.4-22.8,22.7-37.8,45.9-43.7
	c10.2-2.6,20.9-3.7,31.4-4.7c16.9-1.5,33.9-2.6,50.9-3.4c17.1-0.8,34.2-1.3,51.3-1.5c32.8-0.4,65.6-1,98.3-0.5
	c31.4,0.4,62.9,1.9,94.3,2.9c20.3,0.7,40.6,2.3,60.7,5.5c13.9,2.2,26.4,7.4,36.9,17.1c12,11.1,18,25.3,20.9,40.9
	c4.1,22.1,5.6,44.6,6.6,67c0.2,3.9,0.4,7.9,0.5,11.8c0.1,0,0.2,0,0.2,0C519.7,231.8,519.9,229.8,520.2,227.8z M347.5,266.7
	c-44.7-25.8-88.7-51.2-133.2-76.8c0,51.4,0,102.2,0,153.5C258.8,317.7,302.9,292.4,347.5,266.7z"/>
</svg>
