<?xml version="1.0" encoding="UTF-8"?>
<svg id="AdobeStock_4058991_Image" data-name="AdobeStock_4058991 Image" xmlns="http://www.w3.org/2000/svg" viewBox="0 0 122.67 77.32">
  <defs>
    <style>
      .cls-1 {
        fill: #fff;
        stroke-width: 0px;
      }
    </style>
  </defs>
  <path class="cls-1" d="M109.97,77.32H12.69C5.69,77.32,0,71.63,0,64.63V12.69C0,5.69,5.69,0,12.69,0h97.28c7,0,12.69,5.69,12.69,12.69v51.93c0,7-5.69,12.69-12.69,12.69ZM12.69,1.75C6.66,1.75,1.75,6.66,1.75,12.69v51.93c0,6.04,4.91,10.95,10.95,10.95h97.28c6.04,0,10.95-4.91,10.95-10.95V12.69c0-6.04-4.91-10.95-10.95-10.95H12.69Z"/>
  <g>
    <path class="cls-1" d="M43.79,39.53c-1.2-1.63-1.61-3.45-1.23-5.44.28-1.43,1.06-2.58,2.11-3.57.3-.28.6-.55.9-.82-.01-.02-.02-.04-.03-.06-.13-.15-.25-.3-.38-.44-1.03-1.16-2.25-2-3.8-2.3-1.2-.23-2.37-.13-3.54.21-.78.23-1.55.49-2.33.72-.55.16-1.12.23-1.69.08-.4-.1-.81-.19-1.2-.3-.95-.28-1.9-.56-2.89-.66-1.99-.2-3.69.4-5.08,1.87-1.33,1.41-2.04,3.12-2.33,5.02-.33,2.15-.16,4.27.42,6.36.65,2.35,1.72,4.51,3.11,6.5.56.8,1.2,1.52,2.01,2.07.81.55,1.69.85,2.66.61.62-.15,1.22-.37,1.82-.6.79-.29,1.57-.54,2.43-.52.69.02,1.35.18,2,.38.63.2,1.26.4,1.9.59,1.27.37,2.4.06,3.41-.76.3-.24.59-.5.84-.78,1.38-1.51,2.39-3.26,3.17-5.15.13-.32.24-.66.37-1-.14-.05-.25-.09-.36-.14-.96-.39-1.67-1.07-2.28-1.88Z"/>
    <path class="cls-1" d="M35.94,26.93c.73-.29,1.33-.78,1.86-1.35,1.19-1.25,1.87-2.73,1.99-4.45.02-.32-.03-.64-.04-.98-3.75.77-5.7,3.26-5.79,7.11.01,0,.02.02.03.02.66-.05,1.33-.1,1.95-.35Z"/>
    <path class="cls-1" d="M66.86,26.3c-1.46-1.32-3.77-2.05-6.91-2.05-2.56,0-4.57.22-6.11.48v24.36h3.18v-9.87c.73.18,1.61.22,2.56.22,3.11,0,5.85-.91,7.53-2.71,1.24-1.28,1.9-3.04,1.9-5.27s-.8-3.99-2.16-5.16ZM59.66,36.87c-1.06,0-1.94-.07-2.63-.26v-9.58c.55-.15,1.61-.26,3-.26,3.51,0,5.81,1.57,5.81,4.83s-2.34,5.27-6.18,5.27Z"/>
    <path class="cls-1" d="M83.13,38.22c0-3.55-1.32-7.24-6.73-7.24-2.23,0-4.35.62-5.81,1.57l.73,2.12c1.24-.8,2.96-1.32,4.61-1.32,3.62,0,4.02,2.63,4.02,4.1v.37c-6.84-.04-10.64,2.3-10.64,6.58,0,2.56,1.83,5.08,5.41,5.08,2.52,0,4.43-1.24,5.41-2.63h.11l.26,2.23h2.93c-.22-1.21-.29-2.71-.29-4.24v-6.62ZM80.02,43.13c0,.33-.07.69-.18,1.02-.51,1.5-1.97,2.96-4.28,2.96-1.65,0-3.04-.99-3.04-3.07,0-3.44,3.99-4.06,7.5-3.99v3.07Z"/>
    <path class="cls-1" d="M97.14,31.39l-3.51,10.39c-.44,1.28-.8,2.63-1.13,3.69h-.07c-.29-1.06-.73-2.45-1.13-3.62l-3.88-10.46h-3.51l6.55,16.31c.15.4.22.66.22.84s-.11.44-.26.77c-.73,1.65-1.83,2.89-2.71,3.58-.95.8-2.01,1.32-2.82,1.57l.8,2.71c.8-.15,2.38-.69,3.95-2.08,2.19-1.9,3.77-5.01,6.07-11.08l4.83-12.62h-3.4Z"/>
  </g>
</svg>