<?xml version="1.0" encoding="UTF-8"?>
<svg id="AdobeStock_4058991_Image" data-name="AdobeStock_4058991 Image" xmlns="http://www.w3.org/2000/svg" viewBox="0 0 122.67 77.32">
  <defs>
    <style>
      .cls-1 {
        fill: #000;
      }

      .cls-1, .cls-2 {
        stroke-width: 0px;
      }

      .cls-2 {
        fill: #fff;
      }
    </style>
  </defs>
  <rect class="cls-2" x=".03" y=".35" width="122.6" height="76.63" rx="11.98" ry="11.98"/>
  <g>
    <g>
      <path class="cls-1" d="M28.51,40.54c-.3,1.22-2.36.56-3.03.4l.54-2.17c.67.17,2.81.5,2.49,1.77Z"/>
      <path class="cls-1" d="M28.81,37.37c-.28,1.11-1.99.55-2.55.41l.49-1.97c.56.14,2.35.4,2.06,1.56Z"/>
      <path class="cls-1" d="M28.97,29.96c-4.81-1.2-9.68,1.73-10.87,6.54-1.2,4.81,1.73,9.68,6.53,10.88,4.81,1.2,9.68-1.73,10.88-6.53,1.2-4.81-1.73-9.68-6.54-10.88ZM30.76,37.38c-.13.87-.61,1.3-1.26,1.45.88.46,1.33,1.17.9,2.39-.53,1.52-1.79,1.65-3.47,1.33l-.41,1.63-.98-.25.4-1.61c-.26-.06-.52-.13-.79-.2l-.4,1.62-.98-.25.41-1.64c-.23-.06-.46-.12-.7-.18l-1.28-.32.49-1.13s.73.19.72.18c.28.07.4-.11.45-.23l.64-2.58s.07.02.1.03c-.04-.02-.07-.03-.1-.03l.46-1.84c.01-.21-.06-.47-.46-.57.02-.01-.72-.18-.72-.18l.26-1.05,1.36.34h0c.2.06.41.1.63.15l.4-1.62.98.25-.4,1.59c.26.06.53.12.79.19l.39-1.57.98.25-.4,1.62c1.24.43,2.15,1.07,1.97,2.26Z"/>
    </g>
    <path class="cls-1" d="M49.16,38.09c-.17-.59-.43-1.1-.77-1.54-.35-.44-.79-.79-1.32-1.04-.53-.26-1.16-.39-1.88-.39-.35,0-.67.04-.98.11-.3.08-.61.18-.91.32l1.41-5.86-3.52.55-3.93,16.51c.44.21.91.38,1.4.5.49.12.96.21,1.4.27.44.06.83.09,1.17.1.34,0,.58.01.72.01,1.06,0,2.04-.2,2.95-.6.91-.4,1.7-.94,2.36-1.63.67-.69,1.19-1.5,1.58-2.43.39-.93.58-1.92.58-2.96,0-.68-.08-1.32-.25-1.91ZM45.75,41.95c-.2.55-.47,1.03-.81,1.47-.34.43-.75.78-1.22,1.03-.47.26-.97.39-1.5.39-.17,0-.3,0-.41,0s-.2,0-.27-.01c-.07,0-.15-.02-.21-.03-.07-.01-.15-.03-.24-.05l1.5-6.22c.27-.24.58-.4.92-.48.34-.07.61-.11.83-.11.65,0,1.1.21,1.34.61.24.41.36.98.36,1.7,0,.59-.1,1.16-.3,1.7Z"/>
    <path class="cls-1" d="M56.46,30.34c-.38-.28-.8-.42-1.27-.42-.32,0-.62.06-.9.18-.28.12-.53.29-.74.49-.21.21-.38.45-.51.73-.13.28-.19.58-.19.9,0,.58.19,1.01.57,1.28.38.28.8.42,1.27.42.32,0,.62-.06.9-.18.28-.12.53-.28.74-.49.21-.21.38-.45.51-.73.13-.28.19-.58.19-.9,0-.57-.19-1-.57-1.28ZM52.53,35.37l-2.84,11.95h3.36l2.86-11.95h-3.38Z"/>
    <path class="cls-1" d="M58.86,32.39l3.52-.55-.86,3.52h3.77l-.68,2.77h-3.75l-1,4.18c-.09.35-.14.67-.16.98-.02.3.02.56.11.78.09.22.25.39.49.51.23.12.57.18,1.01.18.36,0,.72-.03,1.06-.1.34-.07.68-.16,1.03-.28l.25,2.59c-.45.17-.95.31-1.48.43-.53.12-1.16.18-1.89.18-1.04,0-1.85-.15-2.43-.46-.58-.31-.98-.74-1.23-1.27-.24-.54-.35-1.15-.32-1.85.03-.7.14-1.43.32-2.2l2.23-9.4h0Z"/>
    <path class="cls-1" d="M65.14,42.55c0-1.03.17-2,.5-2.91.33-.91.81-1.7,1.43-2.39.62-.68,1.37-1.22,2.26-1.61.88-.39,1.87-.59,2.96-.59.68,0,1.29.06,1.83.19.54.13,1.03.3,1.47.51l-1.16,2.64c-.3-.12-.62-.23-.94-.33-.33-.1-.72-.15-1.19-.15-1.12,0-2.01.39-2.67,1.16-.66.77-.99,1.81-.99,3.11,0,.77.17,1.4.5,1.87.33.48.95.72,1.84.72.44,0,.87-.05,1.27-.14.41-.09.77-.21,1.09-.34l.25,2.7c-.43.16-.89.31-1.41.44-.52.13-1.13.19-1.84.19-.94,0-1.73-.14-2.38-.41-.65-.27-1.19-.64-1.61-1.1-.43-.46-.73-1-.92-1.63-.19-.62-.29-1.27-.29-1.95Z"/>
    <path class="cls-1" d="M86.5,37.99c-.2-.6-.49-1.12-.87-1.56-.39-.44-.88-.78-1.48-1.02-.6-.24-1.29-.36-2.08-.36-1.07,0-2.03.23-2.86.69-.83.46-1.54,1.06-2.11,1.79-.58.73-1.01,1.54-1.31,2.45-.3.91-.44,1.82-.44,2.73,0,.72.1,1.39.29,1.99.2.6.49,1.12.87,1.55.39.44.87.78,1.46,1.02.59.24,1.29.36,2.09.36,1.1,0,2.08-.23,2.92-.69.84-.46,1.54-1.06,2.1-1.78.56-.73.99-1.55,1.27-2.45.29-.91.43-1.82.43-2.73,0-.73-.1-1.39-.3-1.99ZM83.25,41.81c-.13.52-.32,1-.58,1.44-.26.44-.58.8-.95,1.09-.38.29-.82.43-1.32.43-.64,0-1.07-.21-1.32-.64-.24-.43-.36-1.02-.36-1.77,0-.47.06-.96.19-1.49.13-.52.32-1,.58-1.44.26-.44.57-.8.95-1.09.38-.29.82-.43,1.32-.43.64,0,1.08.21,1.32.64.24.42.36,1.02.36,1.77,0,.47-.06.97-.19,1.49Z"/>
    <path class="cls-1" d="M93.87,30.34c-.38-.28-.8-.42-1.27-.42-.32,0-.62.06-.9.18-.28.12-.53.29-.74.49-.21.21-.38.45-.51.73-.13.28-.19.58-.19.9,0,.58.19,1.01.57,1.28.38.28.8.42,1.27.42.32,0,.62-.06.9-.18.28-.12.52-.28.74-.49.21-.21.38-.45.51-.73.13-.28.19-.58.19-.9,0-.57-.19-1-.57-1.28ZM89.94,35.37l-2.84,11.95h3.36l2.86-11.95h-3.39Z"/>
    <path class="cls-1" d="M95.74,35.91c.25-.07.54-.16.85-.26.31-.1.66-.19,1.05-.27.38-.08.82-.15,1.29-.21.48-.05,1.02-.08,1.62-.08,1.77,0,3,.52,3.67,1.55.67,1.03.79,2.44.35,4.22l-1.55,6.45h-3.38l1.5-6.31c.09-.39.16-.78.22-1.15.05-.37.05-.69-.01-.98-.06-.28-.2-.51-.42-.68-.22-.17-.56-.26-1.01-.26s-.88.05-1.34.14l-2.2,9.24h-3.38l2.75-11.4Z"/>
  </g>
</svg>