<?xml version="1.0" encoding="UTF-8"?>
<svg id="Calque_1" data-name="Calque 1" xmlns="http://www.w3.org/2000/svg" version="1.1" viewBox="0 0 177.6 182.1">
  <defs>
    <style>
      .cls-1 {
        fill: #886239;
      }

      .cls-1, .cls-2, .cls-3, .cls-4, .cls-5 {
        stroke-width: 0px;
      }

      .cls-2 {
        fill: #654117;
      }

      .cls-2, .cls-3, .cls-4, .cls-5 {
        fill-rule: evenodd;
      }

      .cls-3 {
        fill: #f8ba81;
      }

      .cls-4 {
        fill: #a77a4c;
      }

      .cls-5 {
        fill: #c19369;
      }
    </style>
  </defs>
  <g id="bronze">
    <path id="Mask" class="cls-1" d="M28.9,58.7v64.9l60.1,33.1,60.1-33.1V58.7l-60.1-33.1L28.9,58.7ZM89,0l81.9,45.5v91l-81.9,45.5L7.1,136.6V45.6L89,0Z"/>
    <polygon id="Path" class="cls-4" points="7.1 45.6 29.5 58.4 28.9 58.7 28.9 123.5 29.1 123.6 7.1 136.6 7.1 45.6"/>
    <polygon id="Path-2" data-name="Path" class="cls-4" points="89 0 170.9 45.6 149.1 58.7 89 25.6 89 0"/>
    <polygon id="Path-3" data-name="Path" class="cls-2" points="148.7 123.7 170.9 136.6 89 182.1 89 156.6 148.7 123.7"/>
    <polygon id="Path-4" data-name="Path" class="cls-5" points="89 0 89 25.6 28.9 58.7 7.1 46 7.1 45.6 89 0"/>
    <path id="Shape" class="cls-3" d="M149.1,58.7l.6,64.8,21.1,13.1-22-11.7-59.1,31.8-.7,25.5-.7-25.5-59.4-33.1,60.1,32.5,59.1-32.5.9-64.8ZM89,0L9.3,46.2l19.7,12.5-20.5-10.9-1.3,88.8V45.6L89,0Z"/>
  </g>
</svg>