<?xml version="1.0" encoding="UTF-8"?>
<svg id="Layer_1" data-name="Layer 1" xmlns="http://www.w3.org/2000/svg" viewBox="0 0 911 386">
  <defs>
    <style>
      .cls-1 {
        fill: #22b473;
      }

      .cls-1, .cls-2, .cls-3 {
        stroke-width: 0px;
      }

      .cls-2 {
        fill-rule: evenodd;
      }

      .cls-2, .cls-3 {
        fill: #fff;
      }
    </style>
  </defs>
  <rect class="cls-1" width="911" height="386" rx="38.64" ry="38.64"/>
  <g>
    <path class="cls-3" d="M69.77,70.26v-6.06h19.43v26.35c0,4.65-1.18,8.14-3.54,10.46-2.36,2.32-5.39,3.49-9.09,3.49-4.65,0-8.61-1.64-11.89-4.92l3.83-5.32c2.59,2.48,5.12,3.72,7.6,3.72,1.75,0,3.25-.59,4.49-1.77,1.24-1.18,1.86-2.95,1.86-5.32v-20.63h-12.69Z"/>
    <path class="cls-3" d="M127.32,91.76h-23.84c.15,2.21,1.16,3.99,3.03,5.34,1.87,1.35,4,2.03,6.4,2.03,3.81,0,6.71-1.2,8.69-3.6l3.66,4c-3.28,3.39-7.54,5.09-12.8,5.09-4.27,0-7.9-1.42-10.89-4.26-2.99-2.84-4.49-6.65-4.49-11.43s1.52-8.58,4.57-11.4c3.05-2.82,6.64-4.23,10.77-4.23s7.65,1.25,10.55,3.74c2.9,2.5,4.34,5.94,4.34,10.32v4.4ZM103.49,86.73h17.43c0-2.55-.8-4.52-2.4-5.89-1.6-1.37-3.57-2.06-5.92-2.06s-4.45.71-6.32,2.14-2.8,3.36-2.8,5.8Z"/>
    <path class="cls-3" d="M165.96,79.75c-3.16,0-5.54,1.03-7.14,3.09s-2.4,4.82-2.4,8.29v13.03h-6.4v-30.41h6.4v6.12c1.03-1.9,2.43-3.47,4.2-4.69,1.77-1.22,3.65-1.85,5.63-1.89l.06,6.46h-.34Z"/>
    <path class="cls-3" d="M201,91.76h-23.84c.15,2.21,1.16,3.99,3.03,5.34,1.87,1.35,4,2.03,6.4,2.03,3.81,0,6.71-1.2,8.69-3.6l3.66,4c-3.28,3.39-7.54,5.09-12.8,5.09-4.27,0-7.9-1.42-10.89-4.26-2.99-2.84-4.49-6.65-4.49-11.43s1.52-8.58,4.57-11.4c3.05-2.82,6.64-4.23,10.78-4.23s7.65,1.25,10.55,3.74c2.9,2.5,4.34,5.94,4.34,10.32v4.4ZM177.17,86.73h17.43c0-2.55-.8-4.52-2.4-5.89-1.6-1.37-3.57-2.06-5.92-2.06s-4.45.71-6.32,2.14-2.8,3.36-2.8,5.8ZM191.63,69.86h-5.83l-6.97-5.49,6.75-2.8,6.06,8.29Z"/>
    <path class="cls-3" d="M236.15,73.75v26.52c0,5.37-1.46,9.4-4.37,12.09s-6.66,4.03-11.23,4.03-8.71-1.43-12.4-4.29l3.03-4.86c2.97,2.25,5.97,3.37,9,3.37s5.43-.78,7.2-2.34c1.77-1.56,2.66-4.06,2.66-7.49v-3.89c-.95,1.79-2.32,3.22-4.09,4.29-1.77,1.07-3.76,1.6-5.97,1.6-4.04,0-7.35-1.41-9.95-4.23-2.59-2.82-3.89-6.33-3.89-10.52s1.3-7.7,3.89-10.52c2.59-2.82,5.9-4.23,9.92-4.23s7.29,1.66,9.8,4.97v-4.52h6.4ZM212.43,87.78c0,2.5.77,4.65,2.31,6.46,1.54,1.81,3.62,2.71,6.23,2.71s4.72-.88,6.34-2.63c1.62-1.75,2.43-3.93,2.43-6.54s-.82-4.82-2.46-6.63c-1.64-1.81-3.75-2.71-6.34-2.71s-4.66.93-6.2,2.8c-1.54,1.87-2.31,4.05-2.31,6.54Z"/>
    <path class="cls-3" d="M251.82,104.16h-6.4v-42.41h6.4v42.41Z"/>
    <path class="cls-3" d="M289.37,91.76h-23.84c.15,2.21,1.16,3.99,3.03,5.34,1.87,1.35,4,2.03,6.4,2.03,3.81,0,6.71-1.2,8.69-3.6l3.66,4c-3.28,3.39-7.54,5.09-12.8,5.09-4.27,0-7.9-1.42-10.89-4.26-2.99-2.84-4.49-6.65-4.49-11.43s1.52-8.58,4.57-11.4c3.05-2.82,6.64-4.23,10.78-4.23s7.65,1.25,10.55,3.74c2.9,2.5,4.34,5.94,4.34,10.32v4.4ZM265.53,86.73h17.43c0-2.55-.8-4.52-2.4-5.89-1.6-1.37-3.57-2.06-5.92-2.06s-4.45.71-6.32,2.14-2.8,3.36-2.8,5.8Z"/>
    <path class="cls-3" d="M344.53,88.9c0,9.49-6.57,15.66-15.49,15.66-3.89,0-7.32-1.31-9.77-4.12v14.8h-7.14v-41.61h6.8v4c2.4-2.92,5.94-4.34,10.12-4.34,8.92,0,15.49,6.17,15.49,15.6ZM337.27,88.9c0-5.83-3.89-9.55-9.03-9.55s-9.09,3.72-9.09,9.55,3.94,9.55,9.09,9.55,9.03-3.72,9.03-9.55Z"/>
    <path class="cls-3" d="M376.48,86.27v17.89h-6.75v-3.72c-1.71,2.63-5.03,4.12-9.6,4.12-6.97,0-11.38-3.83-11.38-9.15s3.43-9.09,12.69-9.09h7.89v-.46c0-4.17-2.52-6.63-7.6-6.63-3.43,0-6.97,1.14-9.26,3.03l-2.8-5.2c3.26-2.51,8-3.77,12.92-3.77,8.8,0,13.89,4.17,13.89,12.98ZM369.33,94.61v-3.54h-7.37c-4.86,0-6.17,1.83-6.17,4.06,0,2.57,2.17,4.23,5.83,4.23s6.52-1.6,7.72-4.74Z"/>
    <path class="cls-3" d="M403.29,73.29v6.8c-.63-.11-1.14-.17-1.66-.17-5.43,0-8.86,3.2-8.86,9.43v14.8h-7.14v-30.52h6.8v4.46c2.06-3.2,5.77-4.8,10.86-4.8Z"/>
    <path class="cls-3" d="M422.89,88.9c0-9.15,6.86-15.6,16.52-15.6,5.94,0,10.69,2.46,13.03,7.09l-5.49,3.2c-1.83-2.92-4.57-4.23-7.6-4.23-5.26,0-9.26,3.66-9.26,9.55s4,9.55,9.26,9.55c3.03,0,5.77-1.31,7.6-4.23l5.49,3.2c-2.34,4.57-7.09,7.15-13.03,7.15-9.66,0-16.52-6.52-16.52-15.66Z"/>
    <path class="cls-3" d="M484.16,86.27v17.89h-6.74v-3.72c-1.71,2.63-5.03,4.12-9.6,4.12-6.97,0-11.37-3.83-11.37-9.15s3.43-9.09,12.69-9.09h7.89v-.46c0-4.17-2.52-6.63-7.6-6.63-3.43,0-6.97,1.14-9.26,3.03l-2.8-5.2c3.26-2.51,8-3.77,12.92-3.77,8.8,0,13.89,4.17,13.89,12.98ZM477.02,94.61v-3.54h-7.37c-4.86,0-6.17,1.83-6.17,4.06,0,2.57,2.17,4.23,5.83,4.23s6.52-1.6,7.72-4.74Z"/>
    <path class="cls-3" d="M510.97,73.29v6.8c-.63-.11-1.14-.17-1.66-.17-5.43,0-8.86,3.2-8.86,9.43v14.8h-7.14v-30.52h6.8v4.46c2.06-3.2,5.77-4.8,10.86-4.8Z"/>
    <path class="cls-3" d="M536.52,102.5c-1.71,1.37-4.29,2.06-6.86,2.06-6.69,0-10.52-3.54-10.52-10.29v-14.69h-5.03v-5.72h5.03v-6.97h7.14v6.97h8.17v5.72h-8.17v14.52c0,2.97,1.49,4.57,4.23,4.57,1.49,0,2.92-.4,4-1.26l2,5.09Z"/>
    <path class="cls-3" d="M569.96,91.18h-23.95c.86,4.46,4.57,7.32,9.89,7.32,3.43,0,6.12-1.09,8.29-3.31l3.83,4.4c-2.74,3.26-7.03,4.97-12.29,4.97-10.23,0-16.86-6.57-16.86-15.66s6.69-15.6,15.78-15.6,15.43,6.23,15.43,15.78c0,.57-.06,1.43-.11,2.11ZM545.95,86.44h17.32c-.57-4.4-3.95-7.43-8.63-7.43s-8,2.97-8.69,7.43Z"/>
  </g>
  <g>
    <path class="cls-3" d="M76.33,358.11l-3.55-5.09c-.22.02-.45.02-.67.02h-3.92v5.06h-3.23v-17.38h7.15c4.57,0,7.4,2.33,7.4,6.18,0,2.63-1.34,4.57-3.7,5.49l4,5.71h-3.48ZM71.96,343.46h-3.77v6.93h3.77c2.83,0,4.29-1.29,4.29-3.48s-1.46-3.45-4.29-3.45Z"/>
    <path class="cls-3" d="M95.22,352.47h-10.4c.37,1.94,1.99,3.18,4.29,3.18,1.49,0,2.66-.47,3.6-1.44l1.66,1.91c-1.19,1.42-3.05,2.16-5.34,2.16-4.44,0-7.32-2.86-7.32-6.8s2.9-6.78,6.85-6.78,6.7,2.71,6.7,6.85c0,.25-.02.62-.05.92ZM84.79,350.41h7.52c-.25-1.91-1.71-3.23-3.75-3.23s-3.48,1.29-3.77,3.23Z"/>
    <path class="cls-3" d="M97.16,351.48c0-3.97,2.98-6.78,7.17-6.78,2.58,0,4.64,1.07,5.66,3.08l-2.38,1.39c-.79-1.27-1.99-1.84-3.3-1.84-2.28,0-4.02,1.59-4.02,4.15s1.74,4.15,4.02,4.15c1.32,0,2.51-.57,3.3-1.84l2.38,1.39c-1.02,1.99-3.08,3.1-5.66,3.1-4.2,0-7.17-2.83-7.17-6.8Z"/>
    <path class="cls-3" d="M111.39,351.48c0-3.97,2.98-6.78,7.05-6.78s7.08,2.81,7.08,6.78-2.95,6.8-7.08,6.8-7.05-2.83-7.05-6.8ZM122.39,351.48c0-2.53-1.69-4.15-3.95-4.15s-3.92,1.61-3.92,4.15,1.69,4.15,3.92,4.15,3.95-1.61,3.95-4.15Z"/>
    <path class="cls-3" d="M150.67,350.51v7.6h-3.1v-7.2c0-2.36-1.09-3.5-2.98-3.5-2.04,0-3.45,1.34-3.45,3.97v6.73h-3.1v-7.2c0-2.36-1.09-3.5-2.98-3.5-2.06,0-3.45,1.34-3.45,3.97v6.73h-3.1v-13.26h2.95v1.69c.99-1.19,2.53-1.84,4.34-1.84,1.94,0,3.55.72,4.47,2.21,1.07-1.37,2.85-2.21,4.96-2.21,3.2,0,5.44,1.81,5.44,5.81Z"/>
    <path class="cls-3" d="M176.82,350.51v7.6h-3.1v-7.2c0-2.36-1.09-3.5-2.98-3.5-2.04,0-3.45,1.34-3.45,3.97v6.73h-3.1v-7.2c0-2.36-1.09-3.5-2.98-3.5-2.06,0-3.45,1.34-3.45,3.97v6.73h-3.1v-13.26h2.95v1.69c.99-1.19,2.53-1.84,4.34-1.84,1.94,0,3.55.72,4.47,2.21,1.07-1.37,2.85-2.21,4.96-2.21,3.2,0,5.44,1.81,5.44,5.81Z"/>
    <path class="cls-3" d="M191.89,350.34v7.77h-2.93v-1.61c-.74,1.14-2.18,1.79-4.17,1.79-3.03,0-4.94-1.66-4.94-3.97s1.49-3.95,5.51-3.95h3.43v-.2c0-1.81-1.09-2.88-3.3-2.88-1.49,0-3.03.5-4.02,1.32l-1.22-2.26c1.42-1.09,3.48-1.64,5.61-1.64,3.82,0,6.03,1.81,6.03,5.64ZM188.79,353.96v-1.54h-3.2c-2.11,0-2.68.79-2.68,1.76,0,1.12.94,1.84,2.53,1.84s2.83-.7,3.35-2.06Z"/>
    <path class="cls-3" d="M208.93,350.51v7.6h-3.1v-7.2c0-2.36-1.17-3.5-3.15-3.5-2.21,0-3.7,1.34-3.7,4v6.7h-3.1v-13.26h2.95v1.71c1.02-1.22,2.63-1.86,4.57-1.86,3.18,0,5.54,1.81,5.54,5.81Z"/>
    <path class="cls-3" d="M225.98,339.69v18.42h-2.98v-1.71c-1.04,1.27-2.58,1.89-4.39,1.89-3.85,0-6.7-2.68-6.7-6.8s2.86-6.78,6.7-6.78c1.71,0,3.23.57,4.27,1.79v-6.8h3.1ZM222.93,351.48c0-2.53-1.71-4.15-3.95-4.15s-3.95,1.61-3.95,4.15,1.71,4.15,3.95,4.15,3.95-1.61,3.95-4.15Z"/>
    <path class="cls-3" d="M242.47,352.47h-10.4c.37,1.94,1.99,3.18,4.29,3.18,1.49,0,2.66-.47,3.6-1.44l1.66,1.91c-1.19,1.42-3.05,2.16-5.34,2.16-4.44,0-7.32-2.86-7.32-6.8s2.9-6.78,6.85-6.78,6.7,2.71,6.7,6.85c0,.25-.02.62-.05.92ZM232.05,350.41h7.52c-.25-1.91-1.71-3.23-3.75-3.23s-3.48,1.29-3.77,3.23ZM236.34,343.04h-2.68l3.35-3.4h3.65l-4.32,3.4Z"/>
    <path class="cls-3" d="M266.43,351.48c0,4.12-2.86,6.8-6.73,6.8-1.69,0-3.18-.57-4.25-1.79v6.43h-3.1v-18.07h2.95v1.74c1.04-1.27,2.58-1.89,4.39-1.89,3.87,0,6.73,2.68,6.73,6.78ZM263.28,351.48c0-2.53-1.69-4.15-3.92-4.15s-3.95,1.61-3.95,4.15,1.71,4.15,3.95,4.15,3.92-1.61,3.92-4.15Z"/>
    <path class="cls-3" d="M268.3,351.48c0-3.97,2.98-6.78,7.05-6.78s7.08,2.81,7.08,6.78-2.95,6.8-7.08,6.8-7.05-2.83-7.05-6.8ZM279.3,351.48c0-2.53-1.69-4.15-3.95-4.15s-3.92,1.61-3.92,4.15,1.69,4.15,3.92,4.15,3.95-1.61,3.95-4.15Z"/>
    <path class="cls-3" d="M298.24,344.85v13.26h-2.96v-1.69c-.99,1.22-2.56,1.86-4.27,1.86-3.4,0-5.71-1.86-5.71-5.86v-7.57h3.1v7.15c0,2.41,1.14,3.55,3.1,3.55,2.16,0,3.62-1.34,3.62-4v-6.7h3.1Z"/>
    <path class="cls-3" d="M309.99,344.7v2.95c-.27-.05-.5-.07-.72-.07-2.36,0-3.85,1.39-3.85,4.1v6.43h-3.1v-13.26h2.95v1.94c.89-1.39,2.51-2.09,4.72-2.09Z"/>
    <path class="cls-3" d="M332.59,339.69v18.42h-2.98v-1.71c-1.04,1.27-2.58,1.89-4.39,1.89-3.85,0-6.7-2.68-6.7-6.8s2.86-6.78,6.7-6.78c1.71,0,3.23.57,4.27,1.79v-6.8h3.1ZM329.53,351.48c0-2.53-1.71-4.15-3.95-4.15s-3.95,1.61-3.95,4.15,1.71,4.15,3.95,4.15,3.95-1.61,3.95-4.15Z"/>
    <path class="cls-3" d="M349.08,352.47h-10.4c.37,1.94,1.99,3.18,4.29,3.18,1.49,0,2.66-.47,3.6-1.44l1.66,1.91c-1.19,1.42-3.05,2.16-5.34,2.16-4.44,0-7.32-2.86-7.32-6.8s2.9-6.78,6.85-6.78,6.7,2.71,6.7,6.85c0,.25-.02.62-.05.92ZM338.65,350.41h7.52c-.25-1.91-1.71-3.23-3.75-3.23s-3.48,1.29-3.77,3.23Z"/>
    <path class="cls-3" d="M350.59,356.79l1.19-2.36c1.17.77,2.95,1.32,4.62,1.32,1.96,0,2.78-.55,2.78-1.46,0-2.53-8.19-.15-8.19-5.44,0-2.51,2.26-4.15,5.83-4.15,1.76,0,3.77.42,4.96,1.14l-1.19,2.36c-1.27-.75-2.53-.99-3.8-.99-1.89,0-2.78.62-2.78,1.49,0,2.68,8.19.3,8.19,5.49,0,2.48-2.28,4.1-6.01,4.1-2.21,0-4.42-.65-5.61-1.49Z"/>
    <path class="cls-3" d="M371.75,339.69h3.1v18.42h-3.1v-18.42Z"/>
    <path class="cls-3" d="M378.5,340.8c0-1.04.84-1.86,1.99-1.86s1.99.77,1.99,1.79c0,1.09-.82,1.94-1.99,1.94s-1.99-.82-1.99-1.86ZM378.92,344.85h3.1v13.26h-3.1v-13.26Z"/>
    <path class="cls-3" d="M398.51,344.85l-5.69,13.26h-3.2l-5.68-13.26h3.23l4.12,9.83,4.25-9.83h2.98Z"/>
    <path class="cls-3" d="M408.12,344.7v2.95c-.27-.05-.5-.07-.72-.07-2.36,0-3.85,1.39-3.85,4.1v6.43h-3.1v-13.26h2.95v1.94c.89-1.39,2.51-2.09,4.72-2.09Z"/>
    <path class="cls-3" d="M421.78,350.34v7.77h-2.93v-1.61c-.74,1.14-2.18,1.79-4.17,1.79-3.03,0-4.94-1.66-4.94-3.97s1.49-3.95,5.51-3.95h3.43v-.2c0-1.81-1.09-2.88-3.3-2.88-1.49,0-3.03.5-4.02,1.32l-1.22-2.26c1.42-1.09,3.48-1.64,5.61-1.64,3.82,0,6.03,1.81,6.03,5.64ZM418.68,353.96v-1.54h-3.2c-2.11,0-2.68.79-2.68,1.76,0,1.12.94,1.84,2.53,1.84s2.83-.7,3.35-2.06Z"/>
    <path class="cls-3" d="M425.33,340.8c0-1.04.84-1.86,1.99-1.86s1.99.77,1.99,1.79c0,1.09-.82,1.94-1.99,1.94s-1.99-.82-1.99-1.86ZM425.76,344.85h3.1v13.26h-3.1v-13.26Z"/>
    <path class="cls-3" d="M431.42,356.79l1.19-2.36c1.17.77,2.95,1.32,4.62,1.32,1.96,0,2.78-.55,2.78-1.46,0-2.53-8.19-.15-8.19-5.44,0-2.51,2.26-4.15,5.83-4.15,1.76,0,3.77.42,4.96,1.14l-1.19,2.36c-1.27-.75-2.53-.99-3.8-.99-1.89,0-2.78.62-2.78,1.49,0,2.68,8.19.3,8.19,5.49,0,2.48-2.28,4.1-6.01,4.1-2.21,0-4.42-.65-5.61-1.49Z"/>
    <path class="cls-3" d="M444.63,351.48c0-3.97,2.98-6.78,7.05-6.78s7.08,2.81,7.08,6.78-2.95,6.8-7.08,6.8-7.05-2.83-7.05-6.8ZM455.63,351.48c0-2.53-1.69-4.15-3.95-4.15s-3.92,1.61-3.92,4.15,1.69,4.15,3.92,4.15,3.95-1.61,3.95-4.15Z"/>
    <path class="cls-3" d="M474.79,350.51v7.6h-3.1v-7.2c0-2.36-1.17-3.5-3.15-3.5-2.21,0-3.7,1.34-3.7,4v6.7h-3.1v-13.26h2.95v1.71c1.02-1.22,2.63-1.86,4.57-1.86,3.18,0,5.54,1.81,5.54,5.81Z"/>
    <path class="cls-3" d="M477.23,356.79l1.19-2.36c1.17.77,2.95,1.32,4.62,1.32,1.96,0,2.78-.55,2.78-1.46,0-2.53-8.19-.15-8.19-5.44,0-2.51,2.26-4.15,5.83-4.15,1.76,0,3.77.42,4.96,1.14l-1.19,2.36c-1.27-.75-2.53-.99-3.8-.99-1.89,0-2.78.62-2.78,1.49,0,2.68,8.19.3,8.19,5.49,0,2.48-2.28,4.1-6.01,4.1-2.21,0-4.42-.65-5.61-1.49Z"/>
    <path class="cls-3" d="M506.06,344.7v2.95c-.27-.05-.5-.07-.72-.07-2.36,0-3.85,1.39-3.85,4.1v6.43h-3.1v-13.26h2.95v1.94c.89-1.39,2.51-2.09,4.72-2.09Z"/>
    <path class="cls-3" d="M519.72,350.34v7.77h-2.93v-1.61c-.74,1.14-2.18,1.79-4.17,1.79-3.03,0-4.94-1.66-4.94-3.97s1.49-3.95,5.51-3.95h3.43v-.2c0-1.81-1.09-2.88-3.3-2.88-1.49,0-3.03.5-4.02,1.32l-1.22-2.26c1.42-1.09,3.48-1.64,5.61-1.64,3.82,0,6.03,1.81,6.03,5.64ZM516.61,353.96v-1.54h-3.2c-2.11,0-2.68.79-2.68,1.76,0,1.12.94,1.84,2.53,1.84s2.83-.7,3.35-2.06Z"/>
    <path class="cls-3" d="M537.77,351.48c0,4.12-2.86,6.8-6.73,6.8-1.69,0-3.18-.57-4.25-1.79v6.43h-3.1v-18.07h2.95v1.74c1.04-1.27,2.58-1.89,4.39-1.89,3.87,0,6.73,2.68,6.73,6.78ZM534.62,351.48c0-2.53-1.69-4.15-3.92-4.15s-3.95,1.61-3.95,4.15,1.71,4.15,3.95,4.15,3.92-1.61,3.92-4.15Z"/>
    <path class="cls-3" d="M540.3,340.8c0-1.04.84-1.86,1.99-1.86s1.99.77,1.99,1.79c0,1.09-.82,1.94-1.99,1.94s-1.99-.82-1.99-1.86ZM540.73,344.85h3.1v13.26h-3.1v-13.26Z"/>
    <path class="cls-3" d="M560.89,339.69v18.42h-2.98v-1.71c-1.04,1.27-2.58,1.89-4.39,1.89-3.85,0-6.7-2.68-6.7-6.8s2.86-6.78,6.7-6.78c1.71,0,3.23.57,4.27,1.79v-6.8h3.1ZM557.83,351.48c0-2.53-1.71-4.15-3.95-4.15s-3.95,1.61-3.95,4.15,1.71,4.15,3.95,4.15,3.95-1.61,3.95-4.15Z"/>
    <path class="cls-3" d="M577.38,352.47h-10.4c.37,1.94,1.99,3.18,4.29,3.18,1.49,0,2.66-.47,3.6-1.44l1.66,1.91c-1.19,1.42-3.05,2.16-5.34,2.16-4.44,0-7.32-2.86-7.32-6.8s2.9-6.78,6.85-6.78,6.7,2.71,6.7,6.85c0,.25-.02.62-.05.92ZM566.95,350.41h7.52c-.25-1.91-1.71-3.23-3.75-3.23s-3.48,1.29-3.77,3.23Z"/>
    <path class="cls-3" d="M578.89,356.79l1.19-2.36c1.17.77,2.95,1.32,4.62,1.32,1.96,0,2.78-.55,2.78-1.46,0-2.53-8.19-.15-8.19-5.44,0-2.51,2.26-4.15,5.83-4.15,1.76,0,3.77.42,4.96,1.14l-1.19,2.36c-1.27-.75-2.53-.99-3.8-.99-1.89,0-2.78.62-2.78,1.49,0,2.68,8.19.3,8.19,5.49,0,2.48-2.28,4.1-6.01,4.1-2.21,0-4.42-.65-5.61-1.49Z"/>
  </g>
  <g>
    <path class="cls-3" d="M172.59,311.85h-97.28c-7,0-12.69-5.69-12.69-12.69v-51.93c0-7,5.69-12.69,12.69-12.69h97.28c7,0,12.69,5.69,12.69,12.69v51.93c0,7-5.69,12.69-12.69,12.69ZM75.32,236.27c-6.04,0-10.95,4.91-10.95,10.95v51.93c0,6.04,4.91,10.95,10.95,10.95h97.28c6.04,0,10.95-4.91,10.95-10.95v-51.93c0-6.04-4.91-10.95-10.95-10.95h-97.28Z"/>
    <g id="shape">
      <g id="shape-2" data-name="shape">
        <path id="path4163" class="cls-3" d="M123.53,259.7l-5.78,27.03h-6.99l5.78-27.03h6.99ZM152.95,277.16l3.68-10.15,2.12,10.15h-5.8ZM160.76,286.73h6.47l-5.65-27.03h-5.96c-1.34,0-2.48.78-2.98,1.98l-10.49,25.05h7.34l1.46-4.04h8.97s.85,4.04.85,4.04ZM142.5,277.91c.03-7.13-9.86-7.53-9.79-10.72.02-.97.94-2,2.96-2.26,1-.13,3.76-.23,6.9,1.21l1.22-5.73c-1.68-.61-3.85-1.19-6.54-1.19-6.91,0-11.78,3.67-11.81,8.93-.04,3.89,3.47,6.06,6.12,7.36,2.73,1.32,3.64,2.17,3.63,3.36-.02,1.81-2.18,2.62-4.18,2.65-3.52.05-5.56-.95-7.18-1.71l-1.27,5.93c1.64.75,4.65,1.4,7.77,1.43,7.35,0,12.15-3.63,12.18-9.25M113.54,259.7l-11.33,27.03h-7.39l-5.58-21.57c-.34-1.33-.63-1.81-1.66-2.37-1.68-.91-4.46-1.77-6.9-2.3l.16-.78h11.9c1.52,0,2.88,1.01,3.23,2.75l2.95,15.64,7.27-18.4h7.35Z"/>
      </g>
    </g>
  </g>
  <g>
    <path class="cls-3" d="M333.13,311.85h-97.28c-7,0-12.69-5.69-12.69-12.69v-51.93c0-7,5.69-12.69,12.69-12.69h97.28c7,0,12.69,5.69,12.69,12.69v51.93c0,7-5.69,12.69-12.69,12.69ZM235.85,236.27c-6.04,0-10.95,4.91-10.95,10.95v51.93c0,6.04,4.91,10.95,10.95,10.95h97.28c6.04,0,10.95-4.91,10.95-10.95v-51.93c0-6.04-4.91-10.95-10.95-10.95h-97.28Z"/>
    <g>
      <path class="cls-3" d="M282.85,288.23c.14.13.3.25.45.37-2.93,1.95-6.46,3.09-10.25,3.09-10.22,0-18.51-8.29-18.51-18.51s8.29-18.51,18.51-18.51c3.79,0,7.31,1.14,10.25,3.09-.15.12-.3.24-.45.37-4.36,3.79-6.86,9.28-6.86,15.04s2.5,11.25,6.86,15.04Z"/>
      <path class="cls-3" d="M295.93,254.68c-3.79,0-7.31,1.14-10.25,3.09.15.12.3.24.45.37,4.36,3.79,6.86,9.28,6.86,15.04s-2.5,11.25-6.86,15.04c-.14.13-.3.25-.45.37,2.93,1.95,6.46,3.09,10.25,3.09,10.22,0,18.51-8.29,18.51-18.51s-8.29-18.51-18.51-18.51Z"/>
      <path class="cls-3" d="M284.49,258.64c-.24.19-.47.38-.7.58-3.9,3.39-6.37,8.39-6.37,13.96s2.47,10.57,6.37,13.96c.23.2.46.39.7.58.24-.19.47-.38.7-.58,3.9-3.39,6.37-8.39,6.37-13.96s-2.47-10.57-6.37-13.96c-.23-.2-.46-.39-.7-.58"/>
    </g>
  </g>
  <g>
    <path class="cls-3" d="M493.66,311.85h-97.28c-7,0-12.69-5.69-12.69-12.69v-51.93c0-7,5.69-12.69,12.69-12.69h97.28c7,0,12.69,5.69,12.69,12.69v51.93c0,7-5.69,12.69-12.69,12.69ZM396.38,236.27c-6.04,0-10.95,4.91-10.95,10.95v51.93c0,6.04,4.91,10.95,10.95,10.95h97.28c6.04,0,10.95-4.91,10.95-10.95v-51.93c0-6.04-4.91-10.95-10.95-10.95h-97.28Z"/>
    <g>
      <path class="cls-3" d="M427.48,274.05c-1.2-1.63-1.61-3.45-1.23-5.44.28-1.43,1.06-2.58,2.11-3.57.3-.28.6-.55.9-.82-.01-.02-.02-.04-.03-.06-.13-.15-.25-.3-.38-.44-1.03-1.16-2.25-2-3.8-2.3-1.2-.23-2.37-.13-3.54.21-.78.23-1.55.49-2.33.72-.55.16-1.12.23-1.69.08-.4-.1-.81-.19-1.2-.3-.95-.28-1.9-.56-2.89-.66-1.99-.2-3.69.4-5.08,1.87-1.33,1.41-2.04,3.12-2.33,5.02-.33,2.15-.16,4.27.42,6.36.65,2.35,1.72,4.51,3.11,6.5.56.8,1.2,1.52,2.01,2.07.81.55,1.69.85,2.66.61.62-.15,1.22-.37,1.82-.6.79-.29,1.57-.54,2.43-.52.69.02,1.35.18,2,.38.63.2,1.26.4,1.9.59,1.27.37,2.4.06,3.41-.76.3-.24.59-.5.84-.78,1.38-1.51,2.39-3.26,3.17-5.15.13-.32.24-.66.37-1-.14-.05-.25-.09-.36-.14-.96-.39-1.67-1.07-2.28-1.88Z"/>
      <path class="cls-3" d="M419.62,261.46c.73-.29,1.33-.78,1.86-1.35,1.19-1.25,1.87-2.73,1.99-4.45.02-.32-.03-.64-.04-.98-3.75.77-5.7,3.26-5.79,7.11.01,0,.02.02.03.02.66-.05,1.33-.1,1.95-.35Z"/>
      <path class="cls-3" d="M450.55,260.82c-1.46-1.32-3.77-2.05-6.91-2.05-2.56,0-4.57.22-6.11.48v24.36h3.18v-9.87c.73.18,1.61.22,2.56.22,3.11,0,5.85-.91,7.53-2.71,1.24-1.28,1.9-3.04,1.9-5.27s-.8-3.99-2.16-5.16ZM443.34,271.39c-1.06,0-1.94-.07-2.63-.26v-9.58c.55-.15,1.61-.26,3-.26,3.51,0,5.81,1.57,5.81,4.83s-2.34,5.27-6.18,5.27Z"/>
      <path class="cls-3" d="M466.82,272.75c0-3.55-1.32-7.24-6.73-7.24-2.23,0-4.35.62-5.81,1.57l.73,2.12c1.24-.8,2.96-1.32,4.61-1.32,3.62,0,4.02,2.63,4.02,4.1v.37c-6.84-.04-10.64,2.3-10.64,6.58,0,2.56,1.83,5.08,5.41,5.08,2.52,0,4.43-1.24,5.41-2.63h.11l.26,2.23h2.93c-.22-1.21-.29-2.71-.29-4.24v-6.62ZM463.71,277.65c0,.33-.07.69-.18,1.02-.51,1.5-1.97,2.96-4.28,2.96-1.65,0-3.04-.99-3.04-3.07,0-3.44,3.99-4.06,7.5-3.99v3.07Z"/>
      <path class="cls-3" d="M480.82,265.91l-3.51,10.39c-.44,1.28-.8,2.63-1.13,3.69h-.07c-.29-1.06-.73-2.45-1.13-3.62l-3.88-10.46h-3.51l6.55,16.31c.15.4.22.66.22.84s-.11.44-.26.77c-.73,1.65-1.83,2.89-2.71,3.58-.95.8-2.01,1.32-2.82,1.57l.8,2.71c.8-.15,2.38-.69,3.95-2.08,2.19-1.9,3.77-5.01,6.07-11.08l4.83-12.62h-3.4Z"/>
    </g>
  </g>
  <g>
    <path class="cls-3" d="M654.19,311.85h-97.28c-7,0-12.69-5.69-12.69-12.69v-51.93c0-7,5.69-12.69,12.69-12.69h97.28c7,0,12.69,5.69,12.69,12.69v51.93c0,7-5.69,12.69-12.69,12.69ZM556.91,236.27c-6.04,0-10.95,4.91-10.95,10.95v51.93c0,6.04,4.91,10.95,10.95,10.95h97.28c6.04,0,10.95-4.91,10.95-10.95v-51.93c0-6.04-4.91-10.95-10.95-10.95h-97.28Z"/>
    <g>
      <path class="cls-2" d="M572.27,261.27c2.92,0,5.61,1.58,5.24,5.53-.44,4.68-2.96,7.28-6.92,7.3h-3.46c-.5,0-.74.41-.87,1.24l-.67,4.26c-.1.64-.43.96-.92.96h-3.22c-.51,0-.69-.33-.58-1.06l2.66-17.07c.13-.84.45-1.15,1.02-1.15h7.71ZM567.02,270.41h2.62c1.64-.06,2.73-1.2,2.84-3.25.07-1.27-.79-2.17-2.15-2.17h-2.47s-.85,5.41-.85,5.41h0ZM586.27,279.25c.29-.27.59-.41.55-.08l-.1.79c-.05.41.11.63.49.63h2.86c.48,0,.72-.2.84-.94l1.76-11.07c.09-.56-.05-.83-.47-.83h-3.15c-.28,0-.42.16-.5.59l-.12.68c-.06.36-.22.42-.37.06-.53-1.26-1.9-1.83-3.81-1.79-4.42.09-7.39,3.44-7.71,7.74-.25,3.32,2.14,5.93,5.27,5.93,2.28,0,3.3-.68,4.44-1.72h0ZM583.88,277.55c-1.9,0-3.23-1.52-2.95-3.37.28-1.86,2.05-3.37,3.95-3.37s3.23,1.52,2.95,3.37c-.28,1.86-2.05,3.37-3.95,3.37h0ZM598.28,267.72h-2.89c-.6,0-.84.44-.65,1l3.6,10.55-3.55,5.02c-.3.42-.07.8.35.8h3.26c.49,0,.72-.12.97-.48l11.08-15.9c.34-.49.18-1-.38-1h-3.08c-.53,0-.74.21-1.05.65l-4.62,6.71-2.06-6.72c-.13-.41-.43-.63-.99-.63Z"/>
      <path class="cls-2" d="M621.99,261.27c2.92,0,5.61,1.58,5.24,5.53-.44,4.68-2.96,7.28-6.92,7.3h-3.46c-.5,0-.74.41-.87,1.24l-.67,4.26c-.1.64-.43.96-.92.96h-3.22c-.51,0-.69-.33-.58-1.06l2.66-17.07c.13-.84.45-1.15,1.02-1.15h7.71ZM616.74,270.41h2.62c1.64-.06,2.73-1.2,2.84-3.25.07-1.27-.79-2.17-2.15-2.17h-2.47s-.85,5.41-.85,5.41h0ZM636,279.25c.29-.27.59-.41.55-.08l-.1.79c-.05.41.11.63.49.63h2.86c.48,0,.72-.2.84-.94l1.76-11.07c.09-.56-.05-.83-.47-.83h-3.15c-.28,0-.42.16-.5.59l-.12.68c-.06.36-.22.42-.37.06-.53-1.26-1.9-1.83-3.81-1.79-4.42.09-7.39,3.44-7.71,7.74-.25,3.32,2.14,5.93,5.27,5.93,2.28,0,3.3-.68,4.44-1.72h0ZM633.6,277.55c-1.9,0-3.23-1.52-2.95-3.37.28-1.86,2.05-3.37,3.95-3.37s3.23,1.52,2.95,3.37c-.28,1.86-2.05,3.37-3.95,3.37h0ZM646.8,280.62h-3.3c-.26,0-.44-.21-.41-.46l2.91-18.39c.04-.25.29-.46.55-.46h3.3c.26,0,.44.21.41.46l-2.91,18.39c-.04.25-.29.46-.55.46Z"/>
    </g>
  </g>
  <path class="cls-3" d="M808.19,311.85h-97.28c-7,0-12.69-5.69-12.69-12.69v-51.93c0-7,5.69-12.69,12.69-12.69h97.28c7,0,12.69,5.69,12.69,12.69v51.93c0,7-5.69,12.69-12.69,12.69ZM710.91,236.27c-6.04,0-10.95,4.91-10.95,10.95v51.93c0,6.04,4.91,10.95,10.95,10.95h97.28c6.04,0,10.95-4.91,10.95-10.95v-51.93c0-6.04-4.91-10.95-10.95-10.95h-97.28Z"/>
  <path class="cls-3" d="M733.88,270.8c0-.63.52-.87,1.37-.87,1.23,0,2.78.37,4.01,1.03v-3.8c-1.34-.53-2.67-.74-4.01-.74-3.28,0-5.47,1.71-5.47,4.58,0,4.46,6.14,3.75,6.14,5.68,0,.74-.65.99-1.55.99-1.34,0-3.06-.55-4.41-1.29v3.85c1.5.65,3.02.92,4.41.92,3.36,0,5.68-1.67,5.68-4.56-.02-4.82-6.18-3.96-6.18-5.77ZM744.81,263.19l-3.95.84-.02,12.95c0,2.39,1.79,4.16,4.19,4.16,1.33,0,2.3-.24,2.83-.53v-3.28c-.52.21-3.07.95-3.07-1.44v-5.74h3.07v-3.44h-3.07l.02-3.51ZM752.89,267.89l-.26-1.2h-3.49v14.15h4.04v-9.59c.95-1.25,2.57-1.02,3.07-.84v-3.72c-.52-.19-2.41-.55-3.36,1.2ZM757.24,266.7h4.06v14.15h-4.06v-14.15ZM757.24,265.47l4.06-.87v-3.28l-4.06.86v3.3ZM769.74,266.42c-1.58,0-2.6.74-3.17,1.26l-.21-1h-3.56v18.85l4.04-.86.02-4.58c.58.42,1.44,1.02,2.86,1.02,2.89,0,5.53-2.33,5.53-7.45-.02-4.69-2.68-7.24-5.51-7.24ZM768.77,277.56c-.95,0-1.52-.34-1.91-.76l-.02-6c.42-.47,1-.79,1.92-.79,1.47,0,2.49,1.65,2.49,3.77s-1,3.78-2.49,3.78ZM788,273.83c0-4.14-2.01-7.41-5.84-7.41s-6.18,3.27-6.18,7.37c0,4.87,2.75,7.33,6.69,7.33,1.92,0,3.38-.44,4.48-1.05v-3.23c-1.1.55-2.36.89-3.96.89s-2.96-.55-3.14-2.46h7.91c0-.21.03-1.05.03-1.44ZM780.01,272.29c0-1.83,1.12-2.59,2.13-2.59s2.04.76,2.04,2.59h-4.17Z"/>
</svg>