<?xml version="1.0" encoding="UTF-8"?>
<svg id="Layer_1" data-name="Layer 1" xmlns="http://www.w3.org/2000/svg" xmlns:xlink="http://www.w3.org/1999/xlink" viewBox="0 0 911 386">
  <defs>
    <style>
      .cls-1 {
        fill: url(#Dégradé_sans_nom_2);
      }

      .cls-1, .cls-2 {
        stroke-width: 0px;
      }

      .cls-3 {
        fill: none;
        stroke: #fff;
        stroke-miterlimit: 10;
        stroke-width: 3.73px;
      }

      .cls-2 {
        fill: #fff;
      }
    </style>
    <radialGradient id="Dégradé_sans_nom_2" data-name="Dégradé sans nom 2" cx="95.79" cy="-66.63" fx="95.79" fy="-66.63" r="1866.02" gradientTransform="translate(0 -24.46) scale(1 .82)" gradientUnits="userSpaceOnUse">
      <stop offset="0" stop-color="#6a747e"/>
      <stop offset="1" stop-color="#95a7c0"/>
    </radialGradient>
  </defs>
  <rect class="cls-1" width="911" height="386" rx="38.64" ry="38.64"/>
  <g>
    <path class="cls-2" d="M69.48,70.26v-6.06h19.43v26.35c0,4.65-1.18,8.14-3.54,10.46-2.36,2.32-5.39,3.49-9.09,3.49-4.65,0-8.61-1.64-11.89-4.92l3.83-5.32c2.59,2.48,5.12,3.72,7.6,3.72,1.75,0,3.25-.59,4.49-1.77,1.24-1.18,1.86-2.95,1.86-5.32v-20.63h-12.69Z"/>
    <path class="cls-2" d="M98.29,70.67c-1.03-.61-1.54-1.51-1.54-2.72s.34-2.13,1.03-2.8c.69-.67,1.54-1,2.57-1s1.9.32,2.6.97c.71.65,1.06,1.5,1.06,2.54s-.34,2.07-1.03,3.06l-3.37,4.86h-3.49l2.17-4.92Z"/>
    <path class="cls-2" d="M134.58,104.16h-5.83v-4.06c-2.52,3.01-5.89,4.52-10.12,4.52-3.16,0-5.78-.89-7.86-2.69-2.08-1.79-3.12-4.18-3.12-7.17s1.1-5.23,3.32-6.72c2.21-1.49,5.2-2.23,8.97-2.23h8.29v-1.14c0-4.04-2.25-6.06-6.75-6.06-2.82,0-5.75,1.03-8.8,3.09l-2.86-4c3.7-2.93,7.89-4.4,12.58-4.4,3.58,0,6.51.91,8.77,2.71,2.27,1.81,3.4,4.66,3.4,8.55v19.61ZM128.18,92.84v-2.57h-7.2c-4.61,0-6.92,1.45-6.92,4.34,0,1.49.57,2.62,1.71,3.4,1.14.78,2.73,1.17,4.77,1.17s3.82-.57,5.34-1.71c1.52-1.14,2.29-2.69,2.29-4.63Z"/>
    <path class="cls-2" d="M143.9,67.69c-.8-.8-1.2-1.75-1.2-2.86s.4-2.06,1.2-2.86c.8-.8,1.75-1.2,2.86-1.2s2.06.4,2.86,1.2c.8.8,1.2,1.75,1.2,2.86s-.4,2.06-1.2,2.86-1.75,1.2-2.86,1.2-2.06-.4-2.86-1.2ZM149.9,104.16h-6.4v-30.41h6.4v30.41Z"/>
    <path class="cls-2" d="M177.17,100.27c-2.86-2.9-4.29-6.71-4.29-11.43s1.47-8.5,4.4-11.32c2.93-2.82,6.43-4.23,10.49-4.23s7.33,1.71,9.8,5.14v-16.69h6.4v42.41h-6.4v-4.57c-2.36,3.35-5.81,5.03-10.35,5.03-3.85,0-7.2-1.45-10.06-4.34ZM179.28,89.1c0,2.92.93,5.29,2.8,7.12s4.06,2.74,6.57,2.74,4.65-.92,6.4-2.77c1.75-1.85,2.63-4.22,2.63-7.12s-.88-5.32-2.63-7.26c-1.75-1.94-3.91-2.92-6.46-2.92s-4.74.97-6.57,2.92-2.74,4.37-2.74,7.29Z"/>
    <path class="cls-2" d="M241.53,91.76h-23.84c.15,2.21,1.16,3.99,3.03,5.34,1.87,1.35,4,2.03,6.4,2.03,3.81,0,6.71-1.2,8.69-3.6l3.66,4c-3.28,3.39-7.54,5.09-12.8,5.09-4.27,0-7.9-1.42-10.89-4.26-2.99-2.84-4.49-6.65-4.49-11.43s1.52-8.58,4.57-11.4c3.05-2.82,6.64-4.23,10.78-4.23s7.65,1.25,10.55,3.74c2.9,2.5,4.34,5.94,4.34,10.32v4.4ZM217.69,86.73h17.43c0-2.55-.8-4.52-2.4-5.89-1.6-1.37-3.57-2.06-5.92-2.06s-4.45.71-6.32,2.14-2.8,3.36-2.8,5.8Z"/>
    <path class="cls-2" d="M270.22,95.07c0,2.9-1.05,5.21-3.14,6.94-2.1,1.73-4.78,2.6-8.06,2.6-2.21,0-4.51-.4-6.89-1.2-2.38-.8-4.49-1.92-6.32-3.37l3.09-4.97c3.54,2.67,6.97,4,10.29,4,1.45,0,2.59-.33,3.43-1,.84-.67,1.26-1.51,1.26-2.54,0-1.52-2.02-2.9-6.06-4.12-.31-.12-.53-.19-.69-.23-6.33-1.71-9.49-4.57-9.49-8.57,0-2.82,1.09-5.08,3.29-6.77,2.19-1.7,5.04-2.54,8.54-2.54s6.82,1.03,9.95,3.09l-2.4,4.74c-2.48-1.64-5.16-2.46-8.06-2.46-1.52,0-2.76.28-3.72.83-.95.55-1.43,1.38-1.43,2.49,0,.99.5,1.71,1.49,2.17.69.34,1.65.67,2.89.97,1.24.31,2.33.61,3.29.92.95.3,1.88.65,2.77,1.03.89.38,1.86.92,2.89,1.6,2.06,1.37,3.09,3.51,3.09,6.4Z"/>
    <path class="cls-2" d="M325.72,88.9c0,9.49-6.57,15.66-15.49,15.66-3.89,0-7.32-1.31-9.77-4.12v14.8h-7.14v-41.61h6.8v4c2.4-2.92,5.94-4.34,10.12-4.34,8.92,0,15.49,6.17,15.49,15.6ZM318.46,88.9c0-5.83-3.89-9.55-9.03-9.55s-9.09,3.72-9.09,9.55,3.94,9.55,9.09,9.55,9.03-3.72,9.03-9.55Z"/>
    <path class="cls-2" d="M350.19,73.29v6.8c-.63-.11-1.14-.17-1.66-.17-5.43,0-8.86,3.2-8.86,9.43v14.8h-7.14v-30.52h6.8v4.46c2.06-3.2,5.77-4.8,10.86-4.8Z"/>
    <path class="cls-2" d="M355.27,64.32c0-2.4,1.94-4.29,4.57-4.29s4.57,1.77,4.57,4.12c0,2.52-1.89,4.46-4.57,4.46s-4.57-1.89-4.57-4.29ZM356.25,73.64h7.14v30.52h-7.14v-30.52Z"/>
    <path class="cls-2" d="M401.34,73.64l-13.09,30.52h-7.37l-13.09-30.52h7.43l9.49,22.64,9.77-22.64h6.86Z"/>
    <path class="cls-2" d="M404.83,64.32c0-2.4,1.94-4.29,4.57-4.29s4.57,1.77,4.57,4.12c0,2.52-1.89,4.46-4.57,4.46s-4.57-1.89-4.57-4.29ZM405.8,73.64h7.14v30.52h-7.14v-30.52Z"/>
    <path class="cls-2" d="M422.32,61.75h7.14v42.41h-7.14v-42.41Z"/>
    <path class="cls-2" d="M467.42,91.18h-23.95c.86,4.46,4.57,7.32,9.89,7.32,3.43,0,6.11-1.09,8.29-3.31l3.83,4.4c-2.74,3.26-7.03,4.97-12.29,4.97-10.23,0-16.86-6.57-16.86-15.66s6.69-15.6,15.78-15.6,15.43,6.23,15.43,15.78c0,.57-.06,1.43-.12,2.11ZM450.55,69.46l-9.95-7.83h8.4l7.72,7.83h-6.17ZM443.41,86.44h17.32c-.57-4.4-3.94-7.43-8.63-7.43s-8,2.97-8.69,7.43Z"/>
    <path class="cls-2" d="M504.68,73.64v25.89c0,11.09-5.77,16.12-16.46,16.12-5.72,0-11.38-1.49-14.86-4.34l3.2-5.37c2.69,2.23,7.03,3.66,11.26,3.66,6.74,0,9.72-3.09,9.72-9.26v-1.6c-2.52,2.74-6.12,4.06-10.23,4.06-8.75,0-15.43-5.94-15.43-14.8s6.69-14.69,15.43-14.69c4.29,0,8.06,1.37,10.57,4.4v-4.06h6.8ZM497.65,87.98c0-5.14-3.89-8.63-9.26-8.63s-9.32,3.49-9.32,8.63,3.89,8.75,9.32,8.75,9.26-3.54,9.26-8.75Z"/>
    <path class="cls-2" d="M542.64,91.18h-23.95c.86,4.46,4.57,7.32,9.89,7.32,3.43,0,6.12-1.09,8.29-3.31l3.83,4.4c-2.74,3.26-7.03,4.97-12.29,4.97-10.23,0-16.86-6.57-16.86-15.66s6.69-15.6,15.78-15.6,15.43,6.23,15.43,15.78c0,.57-.06,1.43-.12,2.11ZM518.63,86.44h17.32c-.57-4.4-3.94-7.43-8.63-7.43s-8,2.97-8.69,7.43Z"/>
    <path class="cls-2" d="M546.12,101.13l2.74-5.43c2.69,1.77,6.8,3.03,10.63,3.03,4.52,0,6.4-1.26,6.4-3.37,0-5.83-18.86-.34-18.86-12.52,0-5.77,5.2-9.55,13.43-9.55,4.06,0,8.69.97,11.43,2.63l-2.74,5.43c-2.91-1.71-5.83-2.29-8.74-2.29-4.34,0-6.4,1.43-6.4,3.43,0,6.17,18.86.69,18.86,12.63,0,5.72-5.26,9.43-13.83,9.43-5.09,0-10.17-1.49-12.92-3.43Z"/>
  </g>
  <g>
    <path class="cls-2" d="M76.33,358.11l-3.55-5.09c-.22.02-.45.02-.67.02h-3.92v5.06h-3.23v-17.38h7.15c4.57,0,7.4,2.33,7.4,6.18,0,2.63-1.34,4.57-3.7,5.49l4,5.71h-3.48ZM71.96,343.46h-3.77v6.93h3.77c2.83,0,4.29-1.29,4.29-3.48s-1.46-3.45-4.29-3.45Z"/>
    <path class="cls-2" d="M95.22,352.47h-10.4c.37,1.94,1.99,3.18,4.29,3.18,1.49,0,2.66-.47,3.6-1.44l1.66,1.91c-1.19,1.42-3.05,2.16-5.34,2.16-4.44,0-7.32-2.86-7.32-6.8s2.9-6.78,6.85-6.78,6.7,2.71,6.7,6.85c0,.25-.02.62-.05.92ZM84.79,350.41h7.52c-.25-1.91-1.71-3.23-3.75-3.23s-3.48,1.29-3.77,3.23Z"/>
    <path class="cls-2" d="M97.16,351.48c0-3.97,2.98-6.78,7.17-6.78,2.58,0,4.64,1.07,5.66,3.08l-2.38,1.39c-.79-1.27-1.99-1.84-3.3-1.84-2.28,0-4.02,1.59-4.02,4.15s1.74,4.15,4.02,4.15c1.32,0,2.51-.57,3.3-1.84l2.38,1.39c-1.02,1.99-3.08,3.1-5.66,3.1-4.2,0-7.17-2.83-7.17-6.8Z"/>
    <path class="cls-2" d="M111.39,351.48c0-3.97,2.98-6.78,7.05-6.78s7.08,2.81,7.08,6.78-2.95,6.8-7.08,6.8-7.05-2.83-7.05-6.8ZM122.39,351.48c0-2.53-1.69-4.15-3.95-4.15s-3.92,1.61-3.92,4.15,1.69,4.15,3.92,4.15,3.95-1.61,3.95-4.15Z"/>
    <path class="cls-2" d="M150.67,350.51v7.6h-3.1v-7.2c0-2.36-1.09-3.5-2.98-3.5-2.04,0-3.45,1.34-3.45,3.97v6.73h-3.1v-7.2c0-2.36-1.09-3.5-2.98-3.5-2.06,0-3.45,1.34-3.45,3.97v6.73h-3.1v-13.26h2.95v1.69c.99-1.19,2.53-1.84,4.34-1.84,1.94,0,3.55.72,4.47,2.21,1.07-1.37,2.85-2.21,4.96-2.21,3.2,0,5.44,1.81,5.44,5.81Z"/>
    <path class="cls-2" d="M176.82,350.51v7.6h-3.1v-7.2c0-2.36-1.09-3.5-2.98-3.5-2.04,0-3.45,1.34-3.45,3.97v6.73h-3.1v-7.2c0-2.36-1.09-3.5-2.98-3.5-2.06,0-3.45,1.34-3.45,3.97v6.73h-3.1v-13.26h2.95v1.69c.99-1.19,2.53-1.84,4.34-1.84,1.94,0,3.55.72,4.47,2.21,1.07-1.37,2.85-2.21,4.96-2.21,3.2,0,5.44,1.81,5.44,5.81Z"/>
    <path class="cls-2" d="M191.89,350.34v7.77h-2.93v-1.61c-.74,1.14-2.18,1.79-4.17,1.79-3.03,0-4.94-1.66-4.94-3.97s1.49-3.95,5.51-3.95h3.43v-.2c0-1.81-1.09-2.88-3.3-2.88-1.49,0-3.03.5-4.02,1.32l-1.22-2.26c1.42-1.09,3.48-1.64,5.61-1.64,3.82,0,6.03,1.81,6.03,5.64ZM188.79,353.96v-1.54h-3.2c-2.11,0-2.68.79-2.68,1.76,0,1.12.94,1.84,2.53,1.84s2.83-.7,3.35-2.06Z"/>
    <path class="cls-2" d="M208.93,350.51v7.6h-3.1v-7.2c0-2.36-1.17-3.5-3.15-3.5-2.21,0-3.7,1.34-3.7,4v6.7h-3.1v-13.26h2.95v1.71c1.02-1.22,2.63-1.86,4.57-1.86,3.18,0,5.54,1.81,5.54,5.81Z"/>
    <path class="cls-2" d="M225.98,339.69v18.42h-2.98v-1.71c-1.04,1.27-2.58,1.89-4.39,1.89-3.85,0-6.7-2.68-6.7-6.8s2.86-6.78,6.7-6.78c1.71,0,3.23.57,4.27,1.79v-6.8h3.1ZM222.93,351.48c0-2.53-1.71-4.15-3.95-4.15s-3.95,1.61-3.95,4.15,1.71,4.15,3.95,4.15,3.95-1.61,3.95-4.15Z"/>
    <path class="cls-2" d="M242.47,352.47h-10.4c.37,1.94,1.99,3.18,4.29,3.18,1.49,0,2.66-.47,3.6-1.44l1.66,1.91c-1.19,1.42-3.05,2.16-5.34,2.16-4.44,0-7.32-2.86-7.32-6.8s2.9-6.78,6.85-6.78,6.7,2.71,6.7,6.85c0,.25-.02.62-.05.92ZM232.05,350.41h7.52c-.25-1.91-1.71-3.23-3.75-3.23s-3.48,1.29-3.77,3.23ZM236.34,343.04h-2.68l3.35-3.4h3.65l-4.32,3.4Z"/>
    <path class="cls-2" d="M266.43,351.48c0,4.12-2.86,6.8-6.73,6.8-1.69,0-3.18-.57-4.25-1.79v6.43h-3.1v-18.07h2.95v1.74c1.04-1.27,2.58-1.89,4.39-1.89,3.87,0,6.73,2.68,6.73,6.78ZM263.28,351.48c0-2.53-1.69-4.15-3.92-4.15s-3.95,1.61-3.95,4.15,1.71,4.15,3.95,4.15,3.92-1.61,3.92-4.15Z"/>
    <path class="cls-2" d="M268.3,351.48c0-3.97,2.98-6.78,7.05-6.78s7.08,2.81,7.08,6.78-2.95,6.8-7.08,6.8-7.05-2.83-7.05-6.8ZM279.3,351.48c0-2.53-1.69-4.15-3.95-4.15s-3.92,1.61-3.92,4.15,1.69,4.15,3.92,4.15,3.95-1.61,3.95-4.15Z"/>
    <path class="cls-2" d="M298.24,344.85v13.26h-2.96v-1.69c-.99,1.22-2.56,1.86-4.27,1.86-3.4,0-5.71-1.86-5.71-5.86v-7.57h3.1v7.15c0,2.41,1.14,3.55,3.1,3.55,2.16,0,3.62-1.34,3.62-4v-6.7h3.1Z"/>
    <path class="cls-2" d="M309.99,344.7v2.95c-.27-.05-.5-.07-.72-.07-2.36,0-3.85,1.39-3.85,4.1v6.43h-3.1v-13.26h2.95v1.94c.89-1.39,2.51-2.09,4.72-2.09Z"/>
    <path class="cls-2" d="M319.6,339.69h3.1v18.42h-3.1v-18.42Z"/>
    <path class="cls-2" d="M339.19,352.47h-10.4c.37,1.94,1.99,3.18,4.29,3.18,1.49,0,2.66-.47,3.6-1.44l1.66,1.91c-1.19,1.42-3.05,2.16-5.34,2.16-4.44,0-7.32-2.86-7.32-6.8s2.9-6.78,6.85-6.78,6.7,2.71,6.7,6.85c0,.25-.02.62-.05.92ZM328.76,350.41h7.52c-.25-1.91-1.71-3.23-3.75-3.23s-3.48,1.29-3.77,3.23Z"/>
    <path class="cls-2" d="M340.71,356.79l1.19-2.36c1.17.77,2.95,1.32,4.62,1.32,1.96,0,2.78-.55,2.78-1.46,0-2.53-8.19-.15-8.19-5.44,0-2.51,2.26-4.15,5.83-4.15,1.76,0,3.77.42,4.96,1.14l-1.19,2.36c-1.27-.75-2.53-.99-3.8-.99-1.89,0-2.78.62-2.78,1.49,0,2.68,8.19.3,8.19,5.49,0,2.48-2.28,4.1-6.01,4.1-2.21,0-4.42-.65-5.61-1.49Z"/>
    <path class="cls-2" d="M375.94,351.48c0,4.12-2.86,6.8-6.73,6.8-1.69,0-3.18-.57-4.25-1.79v6.43h-3.1v-18.07h2.95v1.74c1.04-1.27,2.58-1.89,4.39-1.89,3.87,0,6.73,2.68,6.73,6.78ZM372.79,351.48c0-2.53-1.69-4.15-3.92-4.15s-3.95,1.61-3.95,4.15,1.71,4.15,3.95,4.15,3.92-1.61,3.92-4.15Z"/>
    <path class="cls-2" d="M389.82,350.34v7.77h-2.93v-1.61c-.74,1.14-2.18,1.79-4.17,1.79-3.03,0-4.94-1.66-4.94-3.97s1.49-3.95,5.51-3.95h3.43v-.2c0-1.81-1.09-2.88-3.3-2.88-1.49,0-3.03.5-4.02,1.32l-1.22-2.26c1.42-1.09,3.48-1.64,5.61-1.64,3.82,0,6.03,1.81,6.03,5.64ZM386.72,353.96v-1.54h-3.2c-2.11,0-2.68.79-2.68,1.76,0,1.12.94,1.84,2.53,1.84s2.83-.7,3.35-2.06Z"/>
    <path class="cls-2" d="M401.47,344.7v2.95c-.27-.05-.5-.07-.72-.07-2.36,0-3.85,1.39-3.85,4.1v6.43h-3.1v-13.26h2.95v1.94c.89-1.39,2.51-2.09,4.72-2.09Z"/>
    <path class="cls-2" d="M412.57,357.39c-.75.6-1.86.89-2.98.89-2.9,0-4.57-1.54-4.57-4.47v-6.38h-2.18v-2.48h2.18v-3.03h3.1v3.03h3.55v2.48h-3.55v6.31c0,1.29.65,1.99,1.84,1.99.65,0,1.27-.17,1.74-.55l.87,2.21Z"/>
    <path class="cls-2" d="M427.1,352.47h-10.4c.37,1.94,1.99,3.18,4.29,3.18,1.49,0,2.66-.47,3.6-1.44l1.66,1.91c-1.19,1.42-3.05,2.16-5.34,2.16-4.44,0-7.32-2.86-7.32-6.8s2.9-6.78,6.85-6.78,6.7,2.71,6.7,6.85c0,.25-.02.62-.05.92ZM416.67,350.41h7.52c-.25-1.91-1.71-3.23-3.75-3.23s-3.48,1.29-3.77,3.23Z"/>
    <path class="cls-2" d="M443.19,350.51v7.6h-3.1v-7.2c0-2.36-1.17-3.5-3.15-3.5-2.21,0-3.7,1.34-3.7,4v6.7h-3.1v-13.26h2.95v1.71c1.02-1.22,2.63-1.86,4.57-1.86,3.18,0,5.54,1.81,5.54,5.81Z"/>
    <path class="cls-2" d="M458.23,350.34v7.77h-2.93v-1.61c-.74,1.14-2.18,1.79-4.17,1.79-3.03,0-4.94-1.66-4.94-3.97s1.49-3.95,5.51-3.95h3.43v-.2c0-1.81-1.09-2.88-3.3-2.88-1.49,0-3.03.5-4.02,1.32l-1.22-2.26c1.42-1.09,3.48-1.64,5.61-1.64,3.82,0,6.03,1.81,6.03,5.64ZM455.13,353.96v-1.54h-3.2c-2.11,0-2.68.79-2.68,1.76,0,1.12.94,1.84,2.53,1.84s2.83-.7,3.35-2.06Z"/>
    <path class="cls-2" d="M461.79,340.8c0-1.04.84-1.86,1.99-1.86s1.99.77,1.99,1.79c0,1.09-.82,1.94-1.99,1.94s-1.99-.82-1.99-1.86ZM462.21,344.85h3.1v13.26h-3.1v-13.26Z"/>
    <path class="cls-2" d="M477.06,344.7v2.95c-.27-.05-.5-.07-.72-.07-2.36,0-3.85,1.39-3.85,4.1v6.43h-3.1v-13.26h2.95v1.94c.89-1.39,2.51-2.09,4.72-2.09Z"/>
    <path class="cls-2" d="M491.98,352.47h-10.4c.37,1.94,1.99,3.18,4.29,3.18,1.49,0,2.66-.47,3.6-1.44l1.66,1.91c-1.19,1.42-3.05,2.16-5.34,2.16-4.44,0-7.32-2.86-7.32-6.8s2.9-6.78,6.85-6.78,6.7,2.71,6.7,6.85c0,.25-.02.62-.05.92ZM481.55,350.41h7.52c-.25-1.91-1.71-3.23-3.75-3.23s-3.48,1.29-3.77,3.23Z"/>
    <path class="cls-2" d="M493.5,356.79l1.19-2.36c1.17.77,2.95,1.32,4.62,1.32,1.96,0,2.78-.55,2.78-1.46,0-2.53-8.19-.15-8.19-5.44,0-2.51,2.26-4.15,5.83-4.15,1.76,0,3.77.42,4.96,1.14l-1.19,2.36c-1.27-.75-2.53-.99-3.8-.99-1.89,0-2.78.62-2.78,1.49,0,2.68,8.19.3,8.19,5.49,0,2.48-2.28,4.1-6.01,4.1-2.21,0-4.42-.65-5.61-1.49Z"/>
  </g>
  <g>
    <path class="cls-2" d="M72.95,140.11h-3.28l-6.98-17.36h3.28l5.34,12.96,5.34-12.96h3.28l-6.98,17.36Z"/>
    <path class="cls-2" d="M92,138.33c-1.32,1.32-2.98,1.97-4.97,1.97s-3.64-.66-4.97-1.97c-1.33-1.32-1.99-2.93-1.99-4.83s.66-3.51,1.99-4.83c1.32-1.32,2.98-1.97,4.97-1.97s3.64.66,4.97,1.97c1.32,1.32,1.99,2.93,1.99,4.83s-.66,3.51-1.99,4.83ZM84.04,136.62c.79.8,1.78,1.21,2.99,1.21s2.21-.4,2.99-1.21c.79-.8,1.18-1.84,1.18-3.12s-.39-2.31-1.18-3.12c-.79-.8-1.78-1.2-2.99-1.2s-2.21.4-2.99,1.2-1.18,1.84-1.18,3.12.39,2.31,1.18,3.12Z"/>
    <path class="cls-2" d="M106.38,134.05v-7.15h2.78v13.21h-2.78v-2.41c-.45.81-1.06,1.45-1.85,1.91-.79.46-1.63.7-2.54.7-1.49,0-2.69-.46-3.61-1.37s-1.38-2.23-1.38-3.95v-8.1h2.78v7.25c0,2.43,1.01,3.65,3.03,3.65.96,0,1.8-.32,2.51-.96.71-.64,1.07-1.57,1.07-2.79Z"/>
    <path class="cls-2" d="M122.59,136.16c0,1.26-.46,2.26-1.37,3.02-.91.75-2.08,1.13-3.5,1.13-.96,0-1.96-.17-2.99-.52-1.04-.35-1.95-.83-2.74-1.46l1.34-2.16c1.54,1.16,3.03,1.74,4.47,1.74.63,0,1.13-.14,1.49-.43.36-.29.55-.66.55-1.11,0-.66-.88-1.26-2.63-1.79-.13-.05-.23-.08-.3-.1-2.75-.75-4.12-1.99-4.12-3.72,0-1.23.48-2.21,1.43-2.94.95-.74,2.19-1.11,3.71-1.11s2.96.45,4.32,1.34l-1.04,2.06c-1.08-.71-2.24-1.07-3.5-1.07-.66,0-1.2.12-1.61.36-.41.24-.62.6-.62,1.08,0,.43.21.75.65.94.3.15.72.29,1.25.42.54.13,1.01.26,1.43.4.41.13.82.28,1.21.45.39.17.81.4,1.25.7.89.6,1.34,1.52,1.34,2.78Z"/>
    <path class="cls-2" d="M133.56,138.42c-1.24-1.26-1.86-2.91-1.86-4.97s.64-3.69,1.91-4.92c1.27-1.23,2.79-1.84,4.56-1.84s3.18.75,4.26,2.23v-7.25h2.78v18.42h-2.78v-1.99c-1.03,1.46-2.52,2.18-4.5,2.18-1.67,0-3.13-.63-4.37-1.89ZM134.48,133.56c0,1.27.41,2.3,1.22,3.09.81.79,1.76,1.19,2.86,1.19s2.02-.4,2.78-1.2,1.14-1.83,1.14-3.09-.38-2.31-1.14-3.15c-.76-.84-1.7-1.27-2.81-1.27s-2.06.42-2.86,1.27c-.79.84-1.19,1.9-1.19,3.17Z"/>
    <path class="cls-2" d="M149.41,124.26c-.35-.35-.52-.76-.52-1.24s.17-.89.52-1.24.76-.52,1.24-.52.89.17,1.24.52.52.76.52,1.24-.17.89-.52,1.24-.76.52-1.24.52-.89-.17-1.24-.52ZM152.02,140.11h-2.78v-13.21h2.78v13.21Z"/>
    <path class="cls-2" d="M165.45,136.16c0,1.26-.46,2.26-1.37,3.02-.91.75-2.08,1.13-3.5,1.13-.96,0-1.96-.17-2.99-.52-1.04-.35-1.95-.83-2.74-1.46l1.34-2.16c1.54,1.16,3.03,1.74,4.47,1.74.63,0,1.13-.14,1.49-.43.36-.29.55-.66.55-1.11,0-.66-.88-1.26-2.63-1.79-.13-.05-.23-.08-.3-.1-2.75-.75-4.12-1.99-4.12-3.72,0-1.23.48-2.21,1.43-2.94.95-.74,2.19-1.11,3.71-1.11s2.96.45,4.32,1.34l-1.04,2.06c-1.08-.71-2.24-1.07-3.5-1.07-.66,0-1.2.12-1.61.36-.41.24-.62.6-.62,1.08,0,.43.21.75.65.94.3.15.72.29,1.25.42.54.13,1.01.26,1.43.4.41.13.82.28,1.21.45.39.17.81.4,1.25.7.89.6,1.34,1.52,1.34,2.78Z"/>
    <path class="cls-2" d="M175.68,126.7c1.77,0,3.29.61,4.54,1.84,1.26,1.22,1.89,2.86,1.89,4.89s-.62,3.69-1.87,4.97c-1.25,1.28-2.71,1.91-4.37,1.91s-3.16-.73-4.48-2.18v6.8h-2.78v-18.03h2.78v2.31c1.09-1.67,2.52-2.51,4.3-2.51ZM171.33,133.53c0,1.26.38,2.29,1.14,3.09.76.8,1.69,1.21,2.78,1.21s2.04-.4,2.86-1.19c.81-.79,1.22-1.83,1.22-3.09s-.4-2.32-1.19-3.15-1.75-1.25-2.86-1.25-2.04.42-2.81,1.25-1.14,1.88-1.14,3.14Z"/>
    <path class="cls-2" d="M196.34,138.33c-1.32,1.32-2.98,1.97-4.97,1.97s-3.64-.66-4.97-1.97c-1.33-1.32-1.99-2.93-1.99-4.83s.66-3.51,1.99-4.83c1.32-1.32,2.98-1.97,4.97-1.97s3.64.66,4.97,1.97c1.32,1.32,1.99,2.93,1.99,4.83s-.66,3.51-1.99,4.83ZM188.38,136.62c.79.8,1.78,1.21,2.99,1.21s2.21-.4,2.99-1.21c.79-.8,1.18-1.84,1.18-3.12s-.39-2.31-1.18-3.12c-.79-.8-1.78-1.2-2.99-1.2s-2.21.4-2.99,1.2-1.18,1.84-1.18,3.12.39,2.31,1.18,3.12Z"/>
    <path class="cls-2" d="M210.89,136.16c0,1.26-.46,2.26-1.37,3.02-.91.75-2.08,1.13-3.5,1.13-.96,0-1.96-.17-2.99-.52-1.04-.35-1.95-.83-2.74-1.46l1.34-2.16c1.54,1.16,3.03,1.74,4.47,1.74.63,0,1.13-.14,1.49-.43.36-.29.55-.66.55-1.11,0-.66-.88-1.26-2.63-1.79-.13-.05-.23-.08-.3-.1-2.75-.75-4.12-1.99-4.12-3.72,0-1.23.48-2.21,1.43-2.94.95-.74,2.19-1.11,3.71-1.11s2.96.45,4.32,1.34l-1.04,2.06c-1.08-.71-2.24-1.07-3.5-1.07-.66,0-1.2.12-1.61.36-.41.24-.62.6-.62,1.08,0,.43.21.75.65.94.3.15.72.29,1.25.42.54.13,1.01.26,1.43.4.41.13.82.28,1.21.45.39.17.81.4,1.25.7.89.6,1.34,1.52,1.34,2.78Z"/>
    <path class="cls-2" d="M226.33,134.72h-10.35c.07.96.5,1.73,1.32,2.32.81.59,1.74.88,2.78.88,1.66,0,2.91-.52,3.77-1.56l1.59,1.74c-1.42,1.47-3.28,2.21-5.56,2.21-1.85,0-3.43-.62-4.73-1.85s-1.95-2.89-1.95-4.97.66-3.73,1.99-4.95c1.32-1.23,2.88-1.84,4.68-1.84s3.32.54,4.58,1.63c1.26,1.08,1.89,2.58,1.89,4.48v1.91ZM215.98,132.53h7.57c0-1.11-.35-1.96-1.04-2.56-.7-.6-1.55-.89-2.57-.89s-1.93.31-2.74.93c-.81.62-1.22,1.46-1.22,2.52Z"/>
    <path class="cls-2" d="M228.97,129.33v-2.38h10.33v2.51l-7.42,8.25h7.82v2.41h-11.22v-2.71l7.23-8.07h-6.73Z"/>
    <path class="cls-2" d="M250.65,138.42c-1.24-1.26-1.86-2.91-1.86-4.97s.64-3.69,1.91-4.92c1.27-1.23,2.79-1.84,4.56-1.84s3.18.75,4.26,2.23v-7.25h2.78v18.42h-2.78v-1.99c-1.03,1.46-2.52,2.18-4.5,2.18-1.67,0-3.13-.63-4.37-1.89ZM251.56,133.56c0,1.27.41,2.3,1.22,3.09.81.79,1.76,1.19,2.86,1.19s2.02-.4,2.78-1.2,1.14-1.83,1.14-3.09-.38-2.31-1.14-3.15c-.76-.84-1.7-1.27-2.81-1.27s-2.06.42-2.86,1.27c-.79.84-1.19,1.9-1.19,3.17Z"/>
    <path class="cls-2" d="M266.12,125.55c-.45-.26-.67-.66-.67-1.18s.15-.93.45-1.22c.3-.29.67-.43,1.12-.43s.82.14,1.13.42c.31.28.46.65.46,1.1s-.15.9-.45,1.33l-1.46,2.11h-1.51l.94-2.14Z"/>
    <path class="cls-2" d="M280.94,134.05v-7.15h2.78v13.21h-2.78v-2.41c-.45.81-1.06,1.45-1.85,1.91-.79.46-1.63.7-2.54.7-1.49,0-2.69-.46-3.61-1.37s-1.38-2.23-1.38-3.95v-8.1h2.78v7.25c0,2.43,1.01,3.65,3.03,3.65.96,0,1.8-.32,2.51-.96.71-.64,1.07-1.57,1.07-2.79Z"/>
    <path class="cls-2" d="M290.53,132.96v7.15h-2.78v-13.21h2.78v2.41c.45-.81,1.06-1.45,1.85-1.91.79-.46,1.63-.7,2.54-.7,1.49,0,2.69.46,3.61,1.37.92.91,1.38,2.23,1.38,3.95v8.09h-2.78v-7.25c0-2.43-1.01-3.65-3.03-3.65-.96,0-1.8.32-2.51.96-.71.64-1.07,1.57-1.07,2.79Z"/>
    <path class="cls-2" d="M309.52,133.48c0-3.97,2.98-6.78,7.17-6.78,2.58,0,4.64,1.07,5.66,3.08l-2.38,1.39c-.79-1.27-1.99-1.84-3.3-1.84-2.28,0-4.02,1.59-4.02,4.15s1.74,4.15,4.02,4.15c1.32,0,2.51-.57,3.3-1.84l2.38,1.39c-1.02,1.99-3.08,3.1-5.66,3.1-4.2,0-7.17-2.83-7.17-6.8Z"/>
    <path class="cls-2" d="M323.75,133.48c0-3.97,2.98-6.78,7.05-6.78s7.08,2.81,7.08,6.78-2.95,6.8-7.08,6.8-7.05-2.83-7.05-6.8ZM334.75,133.48c0-2.53-1.69-4.15-3.95-4.15s-3.92,1.61-3.92,4.15,1.69,4.15,3.92,4.15,3.95-1.61,3.95-4.15Z"/>
    <path class="cls-2" d="M353.84,121.69v18.42h-2.98v-1.71c-1.04,1.27-2.58,1.89-4.39,1.89-3.85,0-6.7-2.68-6.7-6.8s2.86-6.78,6.7-6.78c1.71,0,3.23.57,4.27,1.79v-6.8h3.1ZM350.79,133.48c0-2.53-1.71-4.15-3.95-4.15s-3.95,1.61-3.95,4.15,1.71,4.15,3.95,4.15,3.95-1.61,3.95-4.15Z"/>
    <path class="cls-2" d="M370.33,134.47h-10.4c.37,1.94,1.99,3.18,4.29,3.18,1.49,0,2.66-.47,3.6-1.44l1.66,1.91c-1.19,1.42-3.05,2.16-5.34,2.16-4.44,0-7.32-2.86-7.32-6.8s2.9-6.78,6.85-6.78,6.7,2.71,6.7,6.85c0,.25-.02.62-.05.92ZM359.9,132.41h7.52c-.25-1.91-1.71-3.23-3.75-3.23s-3.48,1.29-3.77,3.23Z"/>
    <path class="cls-2" d="M394.29,133.48c0,4.12-2.86,6.8-6.73,6.8-1.69,0-3.18-.57-4.25-1.79v6.43h-3.1v-18.07h2.95v1.74c1.04-1.27,2.58-1.89,4.39-1.89,3.87,0,6.73,2.68,6.73,6.78ZM391.14,133.48c0-2.53-1.69-4.15-3.92-4.15s-3.95,1.61-3.95,4.15,1.71,4.15,3.95,4.15,3.92-1.61,3.92-4.15Z"/>
    <path class="cls-2" d="M404.92,126.7v2.95c-.27-.05-.5-.07-.72-.07-2.36,0-3.85,1.39-3.85,4.1v6.43h-3.1v-13.26h2.95v1.94c.89-1.39,2.51-2.09,4.72-2.09Z"/>
    <path class="cls-2" d="M406.34,133.48c0-3.97,2.98-6.78,7.05-6.78s7.08,2.81,7.08,6.78-2.95,6.8-7.08,6.8-7.05-2.83-7.05-6.8ZM417.34,133.48c0-2.53-1.69-4.15-3.95-4.15s-3.92,1.61-3.92,4.15,1.69,4.15,3.92,4.15,3.95-1.61,3.95-4.15Z"/>
    <path class="cls-2" d="M445.62,132.51v7.6h-3.1v-7.2c0-2.36-1.09-3.5-2.98-3.5-2.04,0-3.45,1.34-3.45,3.97v6.73h-3.1v-7.2c0-2.36-1.09-3.5-2.98-3.5-2.06,0-3.45,1.34-3.45,3.97v6.73h-3.1v-13.26h2.95v1.69c.99-1.19,2.53-1.84,4.34-1.84,1.94,0,3.55.72,4.47,2.21,1.07-1.37,2.85-2.21,4.96-2.21,3.2,0,5.44,1.81,5.44,5.81Z"/>
    <path class="cls-2" d="M448.63,133.48c0-3.97,2.98-6.78,7.05-6.78s7.08,2.81,7.08,6.78-2.95,6.8-7.08,6.8-7.05-2.83-7.05-6.8ZM459.62,133.48c0-2.53-1.69-4.15-3.95-4.15s-3.92,1.61-3.92,4.15,1.69,4.15,3.92,4.15,3.95-1.61,3.95-4.15Z"/>
  </g>
  <rect class="cls-3" x="75" y="193" width="602" height="101" rx="15.68" ry="15.68"/>
  <g>
    <path class="cls-2" d="M140.13,243.17l6.52,3.6-2.23,3.89-6.63-3.89.06,7.37h-4.34l.06-7.32-6.57,3.83-2.29-3.89,6.57-3.6-6.57-3.6,2.29-3.94,6.57,3.89-.06-7.32h4.34l-.06,7.37,6.63-3.94,2.23,3.94-6.52,3.6Z"/>
    <path class="cls-2" d="M165.05,243.17l6.52,3.6-2.23,3.89-6.63-3.89.06,7.37h-4.34l.06-7.32-6.57,3.83-2.29-3.89,6.57-3.6-6.57-3.6,2.29-3.94,6.57,3.89-.06-7.32h4.34l-.06,7.37,6.63-3.94,2.23,3.94-6.52,3.6Z"/>
    <path class="cls-2" d="M189.97,243.17l6.52,3.6-2.23,3.89-6.63-3.89.06,7.37h-4.34l.06-7.32-6.57,3.83-2.29-3.89,6.57-3.6-6.57-3.6,2.29-3.94,6.57,3.89-.06-7.32h4.34l-.06,7.37,6.63-3.94,2.23,3.94-6.52,3.6Z"/>
    <path class="cls-2" d="M214.89,243.17l6.52,3.6-2.23,3.89-6.63-3.89.06,7.37h-4.34l.06-7.32-6.57,3.83-2.29-3.89,6.57-3.6-6.57-3.6,2.29-3.94,6.57,3.89-.06-7.32h4.34l-.06,7.37,6.63-3.94,2.23,3.94-6.52,3.6Z"/>
    <path class="cls-2" d="M239.81,243.17l6.52,3.6-2.23,3.89-6.63-3.89.06,7.37h-4.34l.06-7.32-6.57,3.83-2.29-3.89,6.57-3.6-6.57-3.6,2.29-3.94,6.57,3.89-.06-7.32h4.34l-.06,7.37,6.63-3.94,2.23,3.94-6.52,3.6Z"/>
    <path class="cls-2" d="M264.73,243.17l6.52,3.6-2.23,3.89-6.63-3.89.06,7.37h-4.34l.06-7.32-6.57,3.83-2.29-3.89,6.57-3.6-6.57-3.6,2.29-3.94,6.57,3.89-.06-7.32h4.34l-.06,7.37,6.63-3.94,2.23,3.94-6.52,3.6Z"/>
    <path class="cls-2" d="M289.65,243.17l6.52,3.6-2.23,3.89-6.63-3.89.06,7.37h-4.34l.06-7.32-6.57,3.83-2.29-3.89,6.57-3.6-6.57-3.6,2.29-3.94,6.57,3.89-.06-7.32h4.34l-.06,7.37,6.63-3.94,2.23,3.94-6.52,3.6Z"/>
    <path class="cls-2" d="M299.65,255.74h15.72v5.94h-15.72v-5.94Z"/>
    <path class="cls-2" d="M334.29,243.17l6.52,3.6-2.23,3.89-6.63-3.89.06,7.37h-4.34l.06-7.32-6.57,3.83-2.29-3.89,6.57-3.6-6.57-3.6,2.29-3.94,6.57,3.89-.06-7.32h4.34l-.06,7.37,6.63-3.94,2.23,3.94-6.52,3.6Z"/>
    <path class="cls-2" d="M359.21,243.17l6.52,3.6-2.23,3.89-6.63-3.89.06,7.37h-4.34l.06-7.32-6.57,3.83-2.29-3.89,6.57-3.6-6.57-3.6,2.29-3.94,6.57,3.89-.06-7.32h4.34l-.06,7.37,6.63-3.94,2.23,3.94-6.52,3.6Z"/>
    <path class="cls-2" d="M384.13,243.17l6.52,3.6-2.23,3.89-6.63-3.89.06,7.37h-4.34l.06-7.32-6.57,3.83-2.29-3.89,6.57-3.6-6.57-3.6,2.29-3.94,6.57,3.89-.06-7.32h4.34l-.06,7.37,6.63-3.94,2.23,3.94-6.52,3.6Z"/>
    <path class="cls-2" d="M409.05,243.17l6.52,3.6-2.23,3.89-6.63-3.89.06,7.37h-4.34l.06-7.32-6.57,3.83-2.29-3.89,6.57-3.6-6.57-3.6,2.29-3.94,6.57,3.89-.06-7.32h4.34l-.06,7.37,6.63-3.94,2.23,3.94-6.52,3.6Z"/>
    <path class="cls-2" d="M433.97,243.17l6.52,3.6-2.23,3.89-6.63-3.89.06,7.37h-4.34l.06-7.32-6.57,3.83-2.29-3.89,6.57-3.6-6.57-3.6,2.29-3.94,6.57,3.89-.06-7.32h4.34l-.06,7.37,6.63-3.94,2.23,3.94-6.52,3.6Z"/>
    <path class="cls-2" d="M443.97,255.74h15.72v5.94h-15.72v-5.94Z"/>
    <path class="cls-2" d="M478.61,243.17l6.52,3.6-2.23,3.89-6.63-3.89.06,7.37h-4.34l.06-7.32-6.57,3.83-2.29-3.89,6.57-3.6-6.57-3.6,2.29-3.94,6.57,3.89-.06-7.32h4.34l-.06,7.37,6.63-3.94,2.23,3.94-6.52,3.6Z"/>
    <path class="cls-2" d="M503.53,243.17l6.52,3.6-2.23,3.89-6.63-3.89.06,7.37h-4.34l.06-7.32-6.57,3.83-2.29-3.89,6.57-3.6-6.57-3.6,2.29-3.94,6.57,3.89-.06-7.32h4.34l-.06,7.37,6.63-3.94,2.23,3.94-6.52,3.6Z"/>
    <path class="cls-2" d="M528.45,243.17l6.52,3.6-2.23,3.89-6.63-3.89.06,7.37h-4.34l.06-7.32-6.57,3.83-2.29-3.89,6.57-3.6-6.57-3.6,2.29-3.94,6.57,3.89-.06-7.32h4.34l-.06,7.37,6.63-3.94,2.23,3.94-6.52,3.6Z"/>
    <path class="cls-2" d="M553.37,243.17l6.52,3.6-2.23,3.89-6.63-3.89.06,7.37h-4.34l.06-7.32-6.57,3.83-2.29-3.89,6.57-3.6-6.57-3.6,2.29-3.94,6.57,3.89-.06-7.32h4.34l-.06,7.37,6.63-3.94,2.23,3.94-6.52,3.6Z"/>
  </g>
</svg>