<?xml version="1.0" encoding="UTF-8"?>
<svg id="AdobeStock_4058991_Image" data-name="AdobeStock_4058991 Image" xmlns="http://www.w3.org/2000/svg" viewBox="0 0 605.73 104.73">
  <defs>
    <style>
      .cls-1 {
        fill: none;
        stroke: #fff;
        stroke-miterlimit: 10;
        stroke-width: 3.73px;
      }

      .cls-2 {
        fill: #fff;
        stroke-width: 0px;
      }
    </style>
  </defs>
  <rect class="cls-1" x="1.87" y="1.87" width="602" height="101" rx="15.68" ry="15.68"/>
  <g>
    <path class="cls-2" d="M100.7,52.03l6.52,3.6-2.23,3.89-6.63-3.89.06,7.38h-4.34l.06-7.32-6.57,3.83-2.29-3.89,6.57-3.6-6.57-3.6,2.29-3.94,6.57,3.89-.06-7.32h4.34l-.06,7.37,6.63-3.94,2.23,3.94-6.52,3.6Z"/>
    <path class="cls-2" d="M125.62,52.03l6.52,3.6-2.23,3.89-6.63-3.89.06,7.38h-4.34l.06-7.32-6.57,3.83-2.29-3.89,6.57-3.6-6.57-3.6,2.29-3.94,6.57,3.89-.06-7.32h4.34l-.06,7.37,6.63-3.94,2.23,3.94-6.52,3.6Z"/>
    <path class="cls-2" d="M150.54,52.03l6.52,3.6-2.23,3.89-6.63-3.89.06,7.38h-4.34l.06-7.32-6.57,3.83-2.29-3.89,6.57-3.6-6.57-3.6,2.29-3.94,6.57,3.89-.06-7.32h4.34l-.06,7.37,6.63-3.94,2.23,3.94-6.52,3.6Z"/>
    <path class="cls-2" d="M175.46,52.03l6.52,3.6-2.23,3.89-6.63-3.89.06,7.38h-4.34l.06-7.32-6.57,3.83-2.29-3.89,6.57-3.6-6.57-3.6,2.29-3.94,6.57,3.89-.06-7.32h4.34l-.06,7.37,6.63-3.94,2.23,3.94-6.52,3.6Z"/>
    <path class="cls-2" d="M200.38,52.03l6.52,3.6-2.23,3.89-6.63-3.89.06,7.38h-4.34l.06-7.32-6.57,3.83-2.29-3.89,6.57-3.6-6.57-3.6,2.29-3.94,6.57,3.89-.06-7.32h4.34l-.06,7.37,6.63-3.94,2.23,3.94-6.52,3.6Z"/>
    <path class="cls-2" d="M225.3,52.03l6.52,3.6-2.23,3.89-6.63-3.89.06,7.38h-4.34l.06-7.32-6.57,3.83-2.29-3.89,6.57-3.6-6.57-3.6,2.29-3.94,6.57,3.89-.06-7.32h4.34l-.06,7.37,6.63-3.94,2.23,3.94-6.52,3.6Z"/>
    <path class="cls-2" d="M250.22,52.03l6.52,3.6-2.23,3.89-6.63-3.89.06,7.38h-4.34l.06-7.32-6.57,3.83-2.29-3.89,6.57-3.6-6.57-3.6,2.29-3.94,6.57,3.89-.06-7.32h4.34l-.06,7.37,6.63-3.94,2.23,3.94-6.52,3.6Z"/>
    <path class="cls-2" d="M260.23,64.61h15.72v5.95h-15.72v-5.95Z"/>
    <path class="cls-2" d="M294.86,52.03l6.52,3.6-2.23,3.89-6.63-3.89.06,7.38h-4.34l.06-7.32-6.57,3.83-2.29-3.89,6.57-3.6-6.57-3.6,2.29-3.94,6.57,3.89-.06-7.32h4.34l-.06,7.37,6.63-3.94,2.23,3.94-6.52,3.6Z"/>
    <path class="cls-2" d="M319.78,52.03l6.52,3.6-2.23,3.89-6.63-3.89.06,7.38h-4.34l.06-7.32-6.57,3.83-2.29-3.89,6.57-3.6-6.57-3.6,2.29-3.94,6.57,3.89-.06-7.32h4.34l-.06,7.37,6.63-3.94,2.23,3.94-6.52,3.6Z"/>
    <path class="cls-2" d="M344.7,52.03l6.52,3.6-2.23,3.89-6.63-3.89.06,7.38h-4.34l.06-7.32-6.57,3.83-2.29-3.89,6.57-3.6-6.57-3.6,2.29-3.94,6.57,3.89-.06-7.32h4.34l-.06,7.37,6.63-3.94,2.23,3.94-6.52,3.6Z"/>
    <path class="cls-2" d="M369.62,52.03l6.52,3.6-2.23,3.89-6.63-3.89.06,7.38h-4.34l.06-7.32-6.57,3.83-2.29-3.89,6.57-3.6-6.57-3.6,2.29-3.94,6.57,3.89-.06-7.32h4.34l-.06,7.37,6.63-3.94,2.23,3.94-6.52,3.6Z"/>
    <path class="cls-2" d="M394.54,52.03l6.52,3.6-2.23,3.89-6.63-3.89.06,7.38h-4.34l.06-7.32-6.57,3.83-2.29-3.89,6.57-3.6-6.57-3.6,2.29-3.94,6.57,3.89-.06-7.32h4.34l-.06,7.37,6.63-3.94,2.23,3.94-6.52,3.6Z"/>
    <path class="cls-2" d="M404.55,64.61h15.72v5.95h-15.72v-5.95Z"/>
    <path class="cls-2" d="M439.19,52.03l6.52,3.6-2.23,3.89-6.63-3.89.06,7.38h-4.34l.06-7.32-6.57,3.83-2.29-3.89,6.57-3.6-6.57-3.6,2.29-3.94,6.57,3.89-.06-7.32h4.34l-.06,7.37,6.63-3.94,2.23,3.94-6.52,3.6Z"/>
    <path class="cls-2" d="M464.11,52.03l6.52,3.6-2.23,3.89-6.63-3.89.06,7.38h-4.34l.06-7.32-6.57,3.83-2.29-3.89,6.57-3.6-6.57-3.6,2.29-3.94,6.57,3.89-.06-7.32h4.34l-.06,7.37,6.63-3.94,2.23,3.94-6.52,3.6Z"/>
    <path class="cls-2" d="M489.03,52.03l6.52,3.6-2.23,3.89-6.63-3.89.06,7.38h-4.34l.06-7.32-6.57,3.83-2.29-3.89,6.57-3.6-6.57-3.6,2.29-3.94,6.57,3.89-.06-7.32h4.34l-.06,7.37,6.63-3.94,2.23,3.94-6.52,3.6Z"/>
    <path class="cls-2" d="M513.95,52.03l6.52,3.6-2.23,3.89-6.63-3.89.06,7.38h-4.34l.06-7.32-6.57,3.83-2.29-3.89,6.57-3.6-6.57-3.6,2.29-3.94,6.57,3.89-.06-7.32h4.34l-.06,7.37,6.63-3.94,2.23,3.94-6.52,3.6Z"/>
  </g>
</svg>