<?xml version="1.0" encoding="UTF-8"?>
<svg id="Layer_1" data-name="Layer 1" xmlns="http://www.w3.org/2000/svg" viewBox="0 0 911 386">
  <defs>
    <style>
      .cls-1 {
        fill: #22b473;
      }

      .cls-1, .cls-2, .cls-3 {
        stroke-width: 0px;
      }

      .cls-2 {
        fill: #000;
      }

      .cls-3 {
        fill: #fff;
      }
    </style>
  </defs>
  <rect class="cls-1" width="911" height="386" rx="38.64" ry="38.64"/>
  <g>
    <path class="cls-3" d="M69.77,70.26v-6.06h19.43v26.35c0,4.65-1.18,8.14-3.54,10.46-2.36,2.32-5.39,3.49-9.09,3.49-4.65,0-8.61-1.64-11.89-4.92l3.83-5.32c2.59,2.48,5.12,3.72,7.6,3.72,1.75,0,3.25-.59,4.49-1.77,1.24-1.18,1.86-2.95,1.86-5.32v-20.63h-12.69Z"/>
    <path class="cls-3" d="M127.32,91.76h-23.84c.15,2.21,1.16,3.99,3.03,5.34,1.87,1.35,4,2.03,6.4,2.03,3.81,0,6.71-1.2,8.69-3.6l3.66,4c-3.28,3.39-7.54,5.09-12.8,5.09-4.27,0-7.9-1.42-10.89-4.26-2.99-2.84-4.49-6.65-4.49-11.43s1.52-8.58,4.57-11.4c3.05-2.82,6.64-4.23,10.77-4.23s7.65,1.25,10.55,3.74c2.9,2.5,4.34,5.94,4.34,10.32v4.4ZM103.49,86.73h17.43c0-2.55-.8-4.52-2.4-5.89-1.6-1.37-3.57-2.06-5.92-2.06s-4.45.71-6.32,2.14-2.8,3.36-2.8,5.8Z"/>
    <path class="cls-3" d="M171.68,95.07c0,2.9-1.05,5.21-3.14,6.94-2.1,1.73-4.78,2.6-8.06,2.6-2.21,0-4.51-.4-6.89-1.2-2.38-.8-4.49-1.92-6.32-3.37l3.09-4.97c3.54,2.67,6.97,4,10.29,4,1.45,0,2.59-.33,3.43-1,.84-.67,1.26-1.51,1.26-2.54,0-1.52-2.02-2.9-6.06-4.12-.31-.12-.53-.19-.69-.23-6.33-1.71-9.49-4.57-9.49-8.57,0-2.82,1.09-5.08,3.29-6.77,2.19-1.7,5.04-2.54,8.54-2.54s6.82,1.03,9.95,3.09l-2.4,4.74c-2.48-1.64-5.16-2.46-8.06-2.46-1.52,0-2.76.28-3.72.83-.95.55-1.43,1.38-1.43,2.49,0,.99.5,1.71,1.49,2.17.69.34,1.65.67,2.89.97,1.24.31,2.33.61,3.29.92.95.3,1.88.65,2.77,1.03.89.38,1.86.92,2.89,1.6,2.06,1.37,3.09,3.51,3.09,6.4Z"/>
    <path class="cls-3" d="M200.2,90.21v-16.46h6.4v30.41h-6.4v-5.54c-1.03,1.87-2.45,3.33-4.26,4.4-1.81,1.07-3.76,1.6-5.86,1.6-3.43,0-6.2-1.05-8.32-3.14-2.11-2.09-3.17-5.12-3.17-9.09v-18.63h6.4v16.69c0,5.6,2.32,8.4,6.97,8.4,2.21,0,4.13-.73,5.77-2.2,1.64-1.47,2.46-3.61,2.46-6.43Z"/>
    <path class="cls-3" d="M216.26,67.69c-.8-.8-1.2-1.75-1.2-2.86s.4-2.06,1.2-2.86c.8-.8,1.75-1.2,2.86-1.2s2.06.4,2.86,1.2c.8.8,1.2,1.75,1.2,2.86s-.4,2.06-1.2,2.86-1.75,1.2-2.86,1.2-2.06-.4-2.86-1.2ZM222.27,104.16h-6.4v-30.41h6.4v30.41Z"/>
    <path class="cls-3" d="M253.19,95.07c0,2.9-1.05,5.21-3.14,6.94-2.1,1.73-4.78,2.6-8.06,2.6-2.21,0-4.51-.4-6.89-1.2-2.38-.8-4.49-1.92-6.32-3.37l3.09-4.97c3.54,2.67,6.97,4,10.29,4,1.45,0,2.59-.33,3.43-1,.84-.67,1.26-1.51,1.26-2.54,0-1.52-2.02-2.9-6.06-4.12-.31-.12-.53-.19-.69-.23-6.33-1.71-9.49-4.57-9.49-8.57,0-2.82,1.09-5.08,3.29-6.77,2.19-1.7,5.04-2.54,8.54-2.54s6.82,1.03,9.95,3.09l-2.4,4.74c-2.48-1.64-5.16-2.46-8.06-2.46-1.52,0-2.76.28-3.72.83-.95.55-1.43,1.38-1.43,2.49,0,.99.5,1.71,1.49,2.17.69.34,1.65.67,2.89.97,1.24.31,2.33.61,3.29.92.95.3,1.88.65,2.77,1.03.89.38,1.86.92,2.89,1.6,2.06,1.37,3.09,3.51,3.09,6.4Z"/>
    <path class="cls-3" d="M306.23,86.67v17.49h-7.14v-16.58c0-5.43-2.69-8.06-7.26-8.06-5.09,0-8.52,3.09-8.52,9.2v15.43h-7.14v-42.41h7.14v15.43c2.34-2.51,5.94-3.89,10.17-3.89,7.32,0,12.75,4.17,12.75,13.38Z"/>
    <path class="cls-3" d="M314.35,64.32c0-2.4,1.94-4.29,4.57-4.29s4.57,1.77,4.57,4.12c0,2.52-1.89,4.46-4.57,4.46s-4.57-1.89-4.57-4.29ZM315.32,73.64h7.14v30.52h-7.14v-30.52Z"/>
    <path class="cls-3" d="M362.13,73.64v25.89c0,11.09-5.77,16.12-16.46,16.12-5.72,0-11.38-1.49-14.86-4.34l3.2-5.37c2.69,2.23,7.03,3.66,11.26,3.66,6.75,0,9.72-3.09,9.72-9.26v-1.6c-2.52,2.74-6.12,4.06-10.23,4.06-8.75,0-15.43-5.94-15.43-14.8s6.69-14.69,15.43-14.69c4.29,0,8.06,1.37,10.57,4.4v-4.06h6.8ZM355.1,87.98c0-5.14-3.89-8.63-9.26-8.63s-9.32,3.49-9.32,8.63,3.89,8.75,9.32,8.75,9.26-3.54,9.26-8.75Z"/>
    <path class="cls-3" d="M401.57,86.67v17.49h-7.14v-16.58c0-5.43-2.69-8.06-7.26-8.06-5.09,0-8.52,3.09-8.52,9.2v15.43h-7.14v-42.41h7.14v15.43c2.34-2.51,5.94-3.89,10.17-3.89,7.32,0,12.75,4.17,12.75,13.38Z"/>
    <path class="cls-3" d="M409.11,85.3h15.72v5.94h-15.72v-5.94Z"/>
    <path class="cls-3" d="M451.58,102.5c-1.71,1.37-4.29,2.06-6.86,2.06-6.69,0-10.52-3.54-10.52-10.29v-14.69h-5.03v-5.72h5.03v-6.97h7.14v6.97h8.17v5.72h-8.17v14.52c0,2.97,1.49,4.57,4.23,4.57,1.49,0,2.92-.4,4-1.26l2,5.09Z"/>
    <path class="cls-3" d="M485.02,91.18h-23.95c.86,4.46,4.57,7.32,9.89,7.32,3.43,0,6.12-1.09,8.29-3.31l3.83,4.4c-2.74,3.26-7.03,4.97-12.29,4.97-10.23,0-16.86-6.57-16.86-15.66s6.69-15.6,15.78-15.6,15.43,6.23,15.43,15.78c0,.57-.06,1.43-.12,2.11ZM461.02,86.44h17.32c-.57-4.4-3.94-7.43-8.63-7.43s-8,2.97-8.69,7.43Z"/>
    <path class="cls-3" d="M489.48,88.9c0-9.15,6.86-15.6,16.52-15.6,5.94,0,10.69,2.46,13.03,7.09l-5.49,3.2c-1.83-2.92-4.57-4.23-7.6-4.23-5.26,0-9.26,3.66-9.26,9.55s4,9.55,9.26,9.55c3.03,0,5.77-1.31,7.6-4.23l5.49,3.2c-2.34,4.57-7.09,7.15-13.03,7.15-9.66,0-16.52-6.52-16.52-15.66Z"/>
    <path class="cls-3" d="M554.99,86.67v17.49h-7.14v-16.58c0-5.43-2.69-8.06-7.26-8.06-5.09,0-8.52,3.09-8.52,9.2v15.43h-7.14v-42.41h7.14v15.43c2.34-2.51,5.95-3.89,10.18-3.89,7.32,0,12.75,4.17,12.75,13.38Z"/>
  </g>
  <g>
    <path class="cls-3" d="M76.33,358.11l-3.55-5.09c-.22.02-.45.02-.67.02h-3.92v5.06h-3.23v-17.38h7.15c4.57,0,7.4,2.33,7.4,6.18,0,2.63-1.34,4.57-3.7,5.49l4,5.71h-3.48ZM71.96,343.46h-3.77v6.93h3.77c2.83,0,4.29-1.29,4.29-3.48s-1.46-3.45-4.29-3.45Z"/>
    <path class="cls-3" d="M95.22,352.47h-10.4c.37,1.94,1.99,3.18,4.29,3.18,1.49,0,2.66-.47,3.6-1.44l1.66,1.91c-1.19,1.42-3.05,2.16-5.34,2.16-4.44,0-7.32-2.86-7.32-6.8s2.9-6.78,6.85-6.78,6.7,2.71,6.7,6.85c0,.25-.02.62-.05.92ZM84.79,350.41h7.52c-.25-1.91-1.71-3.23-3.75-3.23s-3.48,1.29-3.77,3.23Z"/>
    <path class="cls-3" d="M97.16,351.48c0-3.97,2.98-6.78,7.17-6.78,2.58,0,4.64,1.07,5.66,3.08l-2.38,1.39c-.79-1.27-1.99-1.84-3.3-1.84-2.28,0-4.02,1.59-4.02,4.15s1.74,4.15,4.02,4.15c1.32,0,2.51-.57,3.3-1.84l2.38,1.39c-1.02,1.99-3.08,3.1-5.66,3.1-4.2,0-7.17-2.83-7.17-6.8Z"/>
    <path class="cls-3" d="M111.39,351.48c0-3.97,2.98-6.78,7.05-6.78s7.08,2.81,7.08,6.78-2.95,6.8-7.08,6.8-7.05-2.83-7.05-6.8ZM122.39,351.48c0-2.53-1.69-4.15-3.95-4.15s-3.92,1.61-3.92,4.15,1.69,4.15,3.92,4.15,3.95-1.61,3.95-4.15Z"/>
    <path class="cls-3" d="M150.67,350.51v7.6h-3.1v-7.2c0-2.36-1.09-3.5-2.98-3.5-2.04,0-3.45,1.34-3.45,3.97v6.73h-3.1v-7.2c0-2.36-1.09-3.5-2.98-3.5-2.06,0-3.45,1.34-3.45,3.97v6.73h-3.1v-13.26h2.95v1.69c.99-1.19,2.53-1.84,4.34-1.84,1.94,0,3.55.72,4.47,2.21,1.07-1.37,2.85-2.21,4.96-2.21,3.2,0,5.44,1.81,5.44,5.81Z"/>
    <path class="cls-3" d="M176.82,350.51v7.6h-3.1v-7.2c0-2.36-1.09-3.5-2.98-3.5-2.04,0-3.45,1.34-3.45,3.97v6.73h-3.1v-7.2c0-2.36-1.09-3.5-2.98-3.5-2.06,0-3.45,1.34-3.45,3.97v6.73h-3.1v-13.26h2.95v1.69c.99-1.19,2.53-1.84,4.34-1.84,1.94,0,3.55.72,4.47,2.21,1.07-1.37,2.85-2.21,4.96-2.21,3.2,0,5.44,1.81,5.44,5.81Z"/>
    <path class="cls-3" d="M191.89,350.34v7.77h-2.93v-1.61c-.74,1.14-2.18,1.79-4.17,1.79-3.03,0-4.94-1.66-4.94-3.97s1.49-3.95,5.51-3.95h3.43v-.2c0-1.81-1.09-2.88-3.3-2.88-1.49,0-3.03.5-4.02,1.32l-1.22-2.26c1.42-1.09,3.48-1.64,5.61-1.64,3.82,0,6.03,1.81,6.03,5.64ZM188.79,353.96v-1.54h-3.2c-2.11,0-2.68.79-2.68,1.76,0,1.12.94,1.84,2.53,1.84s2.83-.7,3.35-2.06Z"/>
    <path class="cls-3" d="M208.93,350.51v7.6h-3.1v-7.2c0-2.36-1.17-3.5-3.15-3.5-2.21,0-3.7,1.34-3.7,4v6.7h-3.1v-13.26h2.95v1.71c1.02-1.22,2.63-1.86,4.57-1.86,3.18,0,5.54,1.81,5.54,5.81Z"/>
    <path class="cls-3" d="M225.98,339.69v18.42h-2.98v-1.71c-1.04,1.27-2.58,1.89-4.39,1.89-3.85,0-6.7-2.68-6.7-6.8s2.86-6.78,6.7-6.78c1.71,0,3.23.57,4.27,1.79v-6.8h3.1ZM222.93,351.48c0-2.53-1.71-4.15-3.95-4.15s-3.95,1.61-3.95,4.15,1.71,4.15,3.95,4.15,3.95-1.61,3.95-4.15Z"/>
    <path class="cls-3" d="M242.47,352.47h-10.4c.37,1.94,1.99,3.18,4.29,3.18,1.49,0,2.66-.47,3.6-1.44l1.66,1.91c-1.19,1.42-3.05,2.16-5.34,2.16-4.44,0-7.32-2.86-7.32-6.8s2.9-6.78,6.85-6.78,6.7,2.71,6.7,6.85c0,.25-.02.62-.05.92ZM232.05,350.41h7.52c-.25-1.91-1.71-3.23-3.75-3.23s-3.48,1.29-3.77,3.23ZM236.34,343.04h-2.68l3.35-3.4h3.65l-4.32,3.4Z"/>
    <path class="cls-3" d="M266.43,351.48c0,4.12-2.86,6.8-6.73,6.8-1.69,0-3.18-.57-4.25-1.79v6.43h-3.1v-18.07h2.95v1.74c1.04-1.27,2.58-1.89,4.39-1.89,3.87,0,6.73,2.68,6.73,6.78ZM263.28,351.48c0-2.53-1.69-4.15-3.92-4.15s-3.95,1.61-3.95,4.15,1.71,4.15,3.95,4.15,3.92-1.61,3.92-4.15Z"/>
    <path class="cls-3" d="M268.3,351.48c0-3.97,2.98-6.78,7.05-6.78s7.08,2.81,7.08,6.78-2.95,6.8-7.08,6.8-7.05-2.83-7.05-6.8ZM279.3,351.48c0-2.53-1.69-4.15-3.95-4.15s-3.92,1.61-3.92,4.15,1.69,4.15,3.92,4.15,3.95-1.61,3.95-4.15Z"/>
    <path class="cls-3" d="M298.24,344.85v13.26h-2.96v-1.69c-.99,1.22-2.56,1.86-4.27,1.86-3.4,0-5.71-1.86-5.71-5.86v-7.57h3.1v7.15c0,2.41,1.14,3.55,3.1,3.55,2.16,0,3.62-1.34,3.62-4v-6.7h3.1Z"/>
    <path class="cls-3" d="M309.99,344.7v2.95c-.27-.05-.5-.07-.72-.07-2.36,0-3.85,1.39-3.85,4.1v6.43h-3.1v-13.26h2.95v1.94c.89-1.39,2.51-2.09,4.72-2.09Z"/>
    <path class="cls-3" d="M332.59,339.69v18.42h-2.98v-1.71c-1.04,1.27-2.58,1.89-4.39,1.89-3.85,0-6.7-2.68-6.7-6.8s2.86-6.78,6.7-6.78c1.71,0,3.23.57,4.27,1.79v-6.8h3.1ZM329.53,351.48c0-2.53-1.71-4.15-3.95-4.15s-3.95,1.61-3.95,4.15,1.71,4.15,3.95,4.15,3.95-1.61,3.95-4.15Z"/>
    <path class="cls-3" d="M349.08,352.47h-10.4c.37,1.94,1.99,3.18,4.29,3.18,1.49,0,2.66-.47,3.6-1.44l1.66,1.91c-1.19,1.42-3.05,2.16-5.34,2.16-4.44,0-7.32-2.86-7.32-6.8s2.9-6.78,6.85-6.78,6.7,2.71,6.7,6.85c0,.25-.02.62-.05.92ZM338.65,350.41h7.52c-.25-1.91-1.71-3.23-3.75-3.23s-3.48,1.29-3.77,3.23Z"/>
    <path class="cls-3" d="M350.59,356.79l1.19-2.36c1.17.77,2.95,1.32,4.62,1.32,1.96,0,2.78-.55,2.78-1.46,0-2.53-8.19-.15-8.19-5.44,0-2.51,2.26-4.15,5.83-4.15,1.76,0,3.77.42,4.96,1.14l-1.19,2.36c-1.27-.75-2.53-.99-3.8-.99-1.89,0-2.78.62-2.78,1.49,0,2.68,8.19.3,8.19,5.49,0,2.48-2.28,4.1-6.01,4.1-2.21,0-4.42-.65-5.61-1.49Z"/>
    <path class="cls-3" d="M371.75,339.69h3.1v18.42h-3.1v-18.42Z"/>
    <path class="cls-3" d="M378.5,340.8c0-1.04.84-1.86,1.99-1.86s1.99.77,1.99,1.79c0,1.09-.82,1.94-1.99,1.94s-1.99-.82-1.99-1.86ZM378.92,344.85h3.1v13.26h-3.1v-13.26Z"/>
    <path class="cls-3" d="M398.51,344.85l-5.69,13.26h-3.2l-5.68-13.26h3.23l4.12,9.83,4.25-9.83h2.98Z"/>
    <path class="cls-3" d="M408.12,344.7v2.95c-.27-.05-.5-.07-.72-.07-2.36,0-3.85,1.39-3.85,4.1v6.43h-3.1v-13.26h2.95v1.94c.89-1.39,2.51-2.09,4.72-2.09Z"/>
    <path class="cls-3" d="M421.78,350.34v7.77h-2.93v-1.61c-.74,1.14-2.18,1.79-4.17,1.79-3.03,0-4.94-1.66-4.94-3.97s1.49-3.95,5.51-3.95h3.43v-.2c0-1.81-1.09-2.88-3.3-2.88-1.49,0-3.03.5-4.02,1.32l-1.22-2.26c1.42-1.09,3.48-1.64,5.61-1.64,3.82,0,6.03,1.81,6.03,5.64ZM418.68,353.96v-1.54h-3.2c-2.11,0-2.68.79-2.68,1.76,0,1.12.94,1.84,2.53,1.84s2.83-.7,3.35-2.06Z"/>
    <path class="cls-3" d="M425.33,340.8c0-1.04.84-1.86,1.99-1.86s1.99.77,1.99,1.79c0,1.09-.82,1.94-1.99,1.94s-1.99-.82-1.99-1.86ZM425.76,344.85h3.1v13.26h-3.1v-13.26Z"/>
    <path class="cls-3" d="M431.42,356.79l1.19-2.36c1.17.77,2.95,1.32,4.62,1.32,1.96,0,2.78-.55,2.78-1.46,0-2.53-8.19-.15-8.19-5.44,0-2.51,2.26-4.15,5.83-4.15,1.76,0,3.77.42,4.96,1.14l-1.19,2.36c-1.27-.75-2.53-.99-3.8-.99-1.89,0-2.78.62-2.78,1.49,0,2.68,8.19.3,8.19,5.49,0,2.48-2.28,4.1-6.01,4.1-2.21,0-4.42-.65-5.61-1.49Z"/>
    <path class="cls-3" d="M444.63,351.48c0-3.97,2.98-6.78,7.05-6.78s7.08,2.81,7.08,6.78-2.95,6.8-7.08,6.8-7.05-2.83-7.05-6.8ZM455.63,351.48c0-2.53-1.69-4.15-3.95-4.15s-3.92,1.61-3.92,4.15,1.69,4.15,3.92,4.15,3.95-1.61,3.95-4.15Z"/>
    <path class="cls-3" d="M474.79,350.51v7.6h-3.1v-7.2c0-2.36-1.17-3.5-3.15-3.5-2.21,0-3.7,1.34-3.7,4v6.7h-3.1v-13.26h2.95v1.71c1.02-1.22,2.63-1.86,4.57-1.86,3.18,0,5.54,1.81,5.54,5.81Z"/>
    <path class="cls-3" d="M477.23,356.79l1.19-2.36c1.17.77,2.95,1.32,4.62,1.32,1.96,0,2.78-.55,2.78-1.46,0-2.53-8.19-.15-8.19-5.44,0-2.51,2.26-4.15,5.83-4.15,1.76,0,3.77.42,4.96,1.14l-1.19,2.36c-1.27-.75-2.53-.99-3.8-.99-1.89,0-2.78.62-2.78,1.49,0,2.68,8.19.3,8.19,5.49,0,2.48-2.28,4.1-6.01,4.1-2.21,0-4.42-.65-5.61-1.49Z"/>
    <path class="cls-3" d="M511.22,344.85v13.26h-2.95v-1.69c-.99,1.22-2.56,1.86-4.27,1.86-3.4,0-5.71-1.86-5.71-5.86v-7.57h3.1v7.15c0,2.41,1.14,3.55,3.1,3.55,2.16,0,3.62-1.34,3.62-4v-6.7h3.1Z"/>
    <path class="cls-3" d="M515.3,339.69h3.1v18.42h-3.1v-18.42Z"/>
    <path class="cls-3" d="M531.09,357.39c-.75.6-1.86.89-2.98.89-2.9,0-4.57-1.54-4.57-4.47v-6.38h-2.18v-2.48h2.18v-3.03h3.1v3.03h3.55v2.48h-3.55v6.31c0,1.29.64,1.99,1.84,1.99.65,0,1.27-.17,1.74-.55l.87,2.21Z"/>
    <path class="cls-3" d="M541.32,344.7v2.95c-.27-.05-.5-.07-.72-.07-2.36,0-3.85,1.39-3.85,4.1v6.43h-3.1v-13.26h2.95v1.94c.89-1.39,2.51-2.09,4.72-2.09Z"/>
    <path class="cls-3" d="M554.98,350.34v7.77h-2.93v-1.61c-.74,1.14-2.18,1.79-4.17,1.79-3.03,0-4.94-1.66-4.94-3.97s1.49-3.95,5.51-3.95h3.43v-.2c0-1.81-1.09-2.88-3.3-2.88-1.49,0-3.03.5-4.02,1.32l-1.22-2.26c1.42-1.09,3.48-1.64,5.61-1.64,3.82,0,6.03,1.81,6.03,5.64ZM551.87,353.96v-1.54h-3.2c-2.11,0-2.68.79-2.68,1.76,0,1.12.94,1.84,2.53,1.84s2.83-.7,3.35-2.06Z"/>
    <path class="cls-3" d="M558.28,349.91h6.83v2.58h-6.83v-2.58Z"/>
    <path class="cls-3" d="M576.18,344.7v2.95c-.27-.05-.5-.07-.72-.07-2.36,0-3.85,1.39-3.85,4.1v6.43h-3.1v-13.26h2.95v1.94c.89-1.39,2.51-2.09,4.72-2.09Z"/>
    <path class="cls-3" d="M589.84,350.34v7.77h-2.93v-1.61c-.74,1.14-2.18,1.79-4.17,1.79-3.03,0-4.94-1.66-4.94-3.97s1.49-3.95,5.51-3.95h3.43v-.2c0-1.81-1.09-2.88-3.3-2.88-1.49,0-3.03.5-4.02,1.32l-1.22-2.26c1.42-1.09,3.48-1.64,5.61-1.64,3.82,0,6.03,1.81,6.03,5.64ZM586.74,353.96v-1.54h-3.2c-2.11,0-2.68.79-2.68,1.76,0,1.12.94,1.84,2.53,1.84s2.83-.7,3.35-2.06Z"/>
    <path class="cls-3" d="M607.89,351.48c0,4.12-2.86,6.8-6.73,6.8-1.69,0-3.18-.57-4.25-1.79v6.43h-3.1v-18.07h2.95v1.74c1.04-1.27,2.58-1.89,4.39-1.89,3.87,0,6.73,2.68,6.73,6.78ZM604.74,351.48c0-2.53-1.69-4.15-3.92-4.15s-3.95,1.61-3.95,4.15,1.71,4.15,3.95,4.15,3.92-1.61,3.92-4.15Z"/>
    <path class="cls-3" d="M610.43,340.8c0-1.04.84-1.86,1.99-1.86s1.99.77,1.99,1.79c0,1.09-.82,1.94-1.99,1.94s-1.99-.82-1.99-1.86ZM610.85,344.85h3.1v13.26h-3.1v-13.26Z"/>
    <path class="cls-3" d="M631.01,339.69v18.42h-2.98v-1.71c-1.04,1.27-2.58,1.89-4.39,1.89-3.85,0-6.7-2.68-6.7-6.8s2.86-6.78,6.7-6.78c1.71,0,3.23.57,4.27,1.79v-6.8h3.1ZM627.96,351.48c0-2.53-1.71-4.15-3.95-4.15s-3.95,1.61-3.95,4.15,1.71,4.15,3.95,4.15,3.95-1.61,3.95-4.15Z"/>
    <path class="cls-3" d="M647.5,352.47h-10.4c.37,1.94,1.99,3.18,4.29,3.18,1.49,0,2.66-.47,3.6-1.44l1.66,1.91c-1.19,1.42-3.05,2.16-5.34,2.16-4.44,0-7.32-2.86-7.32-6.8s2.9-6.78,6.85-6.78,6.7,2.71,6.7,6.85c0,.25-.02.62-.05.92ZM637.07,350.41h7.52c-.25-1.91-1.71-3.23-3.75-3.23s-3.48,1.29-3.77,3.23Z"/>
    <path class="cls-3" d="M649.02,356.79l1.19-2.36c1.17.77,2.95,1.32,4.62,1.32,1.96,0,2.78-.55,2.78-1.46,0-2.53-8.19-.15-8.19-5.44,0-2.51,2.26-4.15,5.83-4.15,1.76,0,3.77.42,4.96,1.14l-1.19,2.36c-1.27-.75-2.53-.99-3.8-.99-1.89,0-2.78.62-2.78,1.49,0,2.68,8.19.3,8.19,5.49,0,2.48-2.28,4.1-6.01,4.1-2.21,0-4.42-.65-5.61-1.49Z"/>
  </g>
  <g>
    <rect class="cls-3" x="62.62" y="240.03" width="122.6" height="76.63" rx="11.98" ry="11.98"/>
    <g>
      <g>
        <path class="cls-2" d="M91.1,280.22c-.3,1.22-2.36.56-3.03.4l.54-2.17c.67.17,2.81.5,2.49,1.77Z"/>
        <path class="cls-2" d="M91.4,277.05c-.28,1.11-1.99.55-2.55.41l.49-1.97c.56.14,2.35.4,2.06,1.56Z"/>
        <path class="cls-2" d="M91.56,269.64c-4.81-1.2-9.68,1.73-10.87,6.54-1.2,4.81,1.73,9.68,6.53,10.88,4.81,1.2,9.68-1.73,10.88-6.53,1.2-4.81-1.73-9.68-6.54-10.88ZM93.35,277.07c-.13.87-.61,1.3-1.26,1.45.88.46,1.33,1.17.9,2.39-.53,1.52-1.79,1.65-3.47,1.33l-.41,1.63-.98-.25.4-1.61c-.26-.06-.52-.13-.79-.2l-.4,1.62-.98-.25.41-1.64c-.23-.06-.46-.12-.7-.18l-1.28-.32.49-1.13s.73.19.72.18c.28.07.4-.11.45-.23l.64-2.58s.07.02.1.03c-.04-.02-.07-.03-.1-.03l.46-1.84c.01-.21-.06-.47-.46-.57.02-.01-.72-.18-.72-.18l.26-1.05,1.36.34h0c.2.06.41.1.63.15l.4-1.62.98.25-.4,1.59c.26.06.53.12.79.19l.39-1.57.98.25-.4,1.62c1.24.43,2.15,1.07,1.97,2.26Z"/>
      </g>
      <path class="cls-2" d="M111.75,277.78c-.17-.59-.43-1.1-.77-1.54-.35-.44-.79-.79-1.32-1.04-.53-.26-1.16-.39-1.88-.39-.35,0-.67.04-.98.11-.3.08-.61.18-.91.32l1.41-5.86-3.52.55-3.93,16.51c.44.21.91.38,1.4.5.49.12.96.21,1.4.27.44.06.83.09,1.17.1.34,0,.58.01.72.01,1.06,0,2.04-.2,2.95-.6.91-.4,1.7-.94,2.36-1.63.67-.69,1.19-1.5,1.58-2.43.39-.93.58-1.92.58-2.96,0-.68-.08-1.32-.25-1.91ZM108.34,281.64c-.2.55-.47,1.03-.81,1.47-.34.43-.75.78-1.22,1.03-.47.26-.97.39-1.5.39-.17,0-.3,0-.41,0s-.2,0-.27-.01c-.07,0-.15-.02-.21-.03-.07-.01-.15-.03-.24-.05l1.5-6.22c.27-.24.58-.4.92-.48.34-.07.61-.11.83-.11.65,0,1.1.21,1.34.61.24.41.36.98.36,1.7,0,.59-.1,1.16-.3,1.7Z"/>
      <path class="cls-2" d="M119.05,270.02c-.38-.28-.8-.42-1.27-.42-.32,0-.62.06-.9.18-.28.12-.53.29-.74.49-.21.21-.38.45-.51.73-.13.28-.19.58-.19.9,0,.58.19,1.01.57,1.28.38.28.8.42,1.27.42.32,0,.62-.06.9-.18.28-.12.53-.28.74-.49.21-.21.38-.45.51-.73.13-.28.19-.58.19-.9,0-.57-.19-1-.57-1.28ZM115.12,275.05l-2.84,11.95h3.36l2.86-11.95h-3.38Z"/>
      <path class="cls-2" d="M121.45,272.08l3.52-.55-.86,3.52h3.77l-.68,2.77h-3.75l-1,4.18c-.09.35-.14.67-.16.98-.02.3.02.56.11.78.09.22.25.39.49.51.23.12.57.18,1.01.18.36,0,.72-.03,1.06-.1.34-.07.68-.16,1.03-.28l.25,2.59c-.45.17-.95.31-1.48.43-.53.12-1.16.18-1.89.18-1.04,0-1.85-.15-2.43-.46-.58-.31-.98-.74-1.23-1.27-.24-.54-.35-1.15-.32-1.85.03-.7.14-1.43.32-2.2l2.23-9.4h0Z"/>
      <path class="cls-2" d="M127.73,282.23c0-1.03.17-2,.5-2.91.33-.91.81-1.7,1.43-2.39.62-.68,1.37-1.22,2.26-1.61.88-.39,1.87-.59,2.96-.59.68,0,1.29.06,1.83.19.54.13,1.03.3,1.47.51l-1.16,2.64c-.3-.12-.62-.23-.94-.33-.33-.1-.72-.15-1.19-.15-1.12,0-2.01.39-2.67,1.16-.66.77-.99,1.81-.99,3.11,0,.77.17,1.4.5,1.87.33.48.95.72,1.84.72.44,0,.87-.05,1.27-.14.41-.09.77-.21,1.09-.34l.25,2.7c-.43.16-.89.31-1.41.44-.52.13-1.13.19-1.84.19-.94,0-1.73-.14-2.38-.41-.65-.27-1.19-.64-1.61-1.1-.43-.46-.73-1-.92-1.63-.19-.62-.29-1.27-.29-1.95Z"/>
      <path class="cls-2" d="M149.09,277.68c-.2-.6-.49-1.12-.87-1.56-.39-.44-.88-.78-1.48-1.02-.6-.24-1.29-.36-2.08-.36-1.07,0-2.03.23-2.86.69-.83.46-1.54,1.06-2.11,1.79-.58.73-1.01,1.54-1.31,2.45-.3.91-.44,1.82-.44,2.73,0,.72.1,1.39.29,1.99.2.6.49,1.12.87,1.55.39.44.87.78,1.46,1.02.59.24,1.29.36,2.09.36,1.1,0,2.08-.23,2.92-.69.84-.46,1.54-1.06,2.1-1.78.56-.73.99-1.55,1.27-2.45.29-.91.43-1.82.43-2.73,0-.73-.1-1.39-.3-1.99ZM145.84,281.49c-.13.52-.32,1-.58,1.44-.26.44-.58.8-.95,1.09-.38.29-.82.43-1.32.43-.64,0-1.07-.21-1.32-.64-.24-.43-.36-1.02-.36-1.77,0-.47.06-.96.19-1.49.13-.52.32-1,.58-1.44.26-.44.57-.8.95-1.09.38-.29.82-.43,1.32-.43.64,0,1.08.21,1.32.64.24.42.36,1.02.36,1.77,0,.47-.06.97-.19,1.49Z"/>
      <path class="cls-2" d="M156.45,270.02c-.38-.28-.8-.42-1.27-.42-.32,0-.62.06-.9.18-.28.12-.53.29-.74.49-.21.21-.38.45-.51.73-.13.28-.19.58-.19.9,0,.58.19,1.01.57,1.28.38.28.8.42,1.27.42.32,0,.62-.06.9-.18.28-.12.52-.28.74-.49.21-.21.38-.45.51-.73.13-.28.19-.58.19-.9,0-.57-.19-1-.57-1.28ZM152.52,275.05l-2.84,11.95h3.36l2.86-11.95h-3.39Z"/>
      <path class="cls-2" d="M158.33,275.6c.25-.07.54-.16.85-.26.31-.1.66-.19,1.05-.27.38-.08.82-.15,1.29-.21.48-.05,1.02-.08,1.62-.08,1.77,0,3,.52,3.67,1.55.67,1.03.79,2.44.35,4.22l-1.55,6.45h-3.38l1.5-6.31c.09-.39.16-.78.22-1.15.05-.37.05-.69-.01-.98-.06-.28-.2-.51-.42-.68-.22-.17-.56-.26-1.01-.26s-.88.05-1.34.14l-2.2,9.24h-3.38l2.75-11.4Z"/>
    </g>
  </g>
</svg>