<?xml version="1.0" encoding="UTF-8"?>
<svg id="AdobeStock_4058991_Image" data-name="AdobeStock_4058991 Image" xmlns="http://www.w3.org/2000/svg" xmlns:xlink="http://www.w3.org/1999/xlink" viewBox="0 0 532.93 186.5">
  <defs>
    <style>
      .cls-1 {
        fill: url(#Dégradé_sans_nom_2);
      }

      .cls-1, .cls-2, .cls-3 {
        stroke-width: 0px;
      }

      .cls-2 {
        fill: url(#Dégradé_sans_nom_2-2);
      }

      .cls-3 {
        fill: #fff;
      }
    </style>
    <radialGradient id="Dégradé_sans_nom_2" data-name="Dégradé sans nom 2" cx="-35.06" cy="-35.7" fx="-35.06" fy="-35.7" r="1104.85" gradientTransform="translate(10.97 -13.79) rotate(3.58) scale(.84 1) skewX(1.27)" gradientUnits="userSpaceOnUse">
      <stop offset="0" stop-color="#6a747e"/>
      <stop offset="1" stop-color="#95a7c0"/>
    </radialGradient>
    <radialGradient id="Dégradé_sans_nom_2-2" data-name="Dégradé sans nom 2" cx="-23.87" cy="-36.28" fx="-23.87" fy="-36.28" r="1104.85" gradientTransform="translate(32.5 -10.8) rotate(5.77) scale(.52 1) skewX(8.02)" xlink:href="#Dégradé_sans_nom_2"/>
  </defs>
  <rect class="cls-1" x="65.42" y="12.4" width="399.22" height="91.52" transform="translate(-2.68 13.95) rotate(-3)"/>
  <rect class="cls-2" x="75.08" y="85.98" width="269.42" height="91.52" transform="translate(-6.61 11.16) rotate(-3)"/>
  <g>
    <path class="cls-3" d="M77.38,50.85l20.93-1.1c14.67-.77,25.17,7.24,25.89,20.84.71,13.6-8.89,22.66-23.57,23.43l-20.93,1.1-2.32-44.27ZM99.6,84.05c7.53-.39,12.35-5.15,11.95-12.8-.4-7.65-5.7-11.88-13.22-11.48l-7.9.41,1.27,24.28,7.9-.41Z"/>
    <path class="cls-3" d="M166.96,80.84l.51,9.68-35.54,1.86-2.32-44.27,34.72-1.82.51,9.68-22.32,1.17.39,7.46,19.67-1.03.49,9.36-19.67,1.03.42,8.09,23.15-1.21Z"/>
    <path class="cls-3" d="M193.16,77.37l-6.83.36.62,11.76-12.52.66-2.32-44.27,20.24-1.06c12.08-.63,19.99,5.23,20.52,15.35.34,6.51-2.57,11.49-7.93,14.43l10.28,13.41-13.41.7-8.65-11.34ZM192.1,54.73l-6.96.37.68,12.96,6.96-.37c5.19-.27,7.65-2.81,7.44-6.86-.22-4.11-2.93-6.38-8.12-6.11Z"/>
    <path class="cls-3" d="M261.02,41.22l2.32,44.27-10.31.54-20.78-22.56,1.24,23.59-12.27.64-2.32-44.27,10.31-.54,20.78,22.56-1.24-23.59,12.27-.64Z"/>
    <path class="cls-3" d="M269.87,40.76l12.52-.66,2.32,44.27-12.52.66-2.32-44.27Z"/>
    <path class="cls-3" d="M328.66,72.36l.51,9.67-35.54,1.86-2.32-44.27,34.72-1.82.51,9.67-22.32,1.17.39,7.46,19.67-1.03.49,9.36-19.67,1.03.42,8.09,23.14-1.21ZM306.11,35.24l-12.39-8.99,12.01-.63,8.98,9.17-8.6.45Z"/>
    <path class="cls-3" d="M354.86,68.9l-6.83.36.62,11.76-12.52.66-2.32-44.27,20.24-1.06c12.08-.63,20,5.23,20.53,15.35.34,6.51-2.57,11.48-7.93,14.43l10.28,13.41-13.41.7-8.65-11.34ZM353.8,46.25l-6.96.36.68,12.96,6.96-.36c5.19-.27,7.65-2.81,7.44-6.86-.22-4.11-2.93-6.38-8.12-6.11Z"/>
    <path class="cls-3" d="M417.95,67.68l.51,9.68-35.54,1.86-2.32-44.27,34.72-1.82.51,9.68-22.32,1.17.39,7.46,19.67-1.03.49,9.36-19.67,1.03.42,8.09,23.14-1.21Z"/>
    <path class="cls-3" d="M118.04,146.81l.51,9.68-35.54,1.86-2.32-44.27,34.72-1.82.51,9.68-22.32,1.17.39,7.46,19.67-1.03.49,9.36-19.67,1.03.42,8.09,23.14-1.21ZM100.3,109.44l-8.6.45,7.97-10.06,12.02-.63-11.39,10.24Z"/>
    <path class="cls-3" d="M133.13,121.29l-13.6.71-.52-9.93,39.65-2.08.52,9.93-13.53.71,1.8,34.34-12.52.66-1.8-34.34Z"/>
    <path class="cls-3" d="M192.66,143.98l-18.72.98-3.03,8.78-12.77.67,17.22-45.29,12.33-.65,21.92,43.24-13.03.68-3.93-8.42ZM188.51,134.94l-6.43-13.87-4.95,14.46,11.38-.6Z"/>
    <path class="cls-3" d="M251.6,121.55c.53,10.05-6.73,16.71-18.81,17.35l-7.71.4.61,11.57-12.52.66-2.32-44.27,20.24-1.06c12.08-.63,20,5.23,20.53,15.35ZM238.95,122.21c-.22-4.11-2.93-6.38-8.12-6.11l-6.96.36.68,12.96,6.96-.36c5.19-.27,7.65-2.81,7.44-6.86Z"/>
    <path class="cls-3" d="M294.16,137.58l.51,9.67-35.54,1.86-2.32-44.27,34.72-1.82.51,9.67-22.32,1.17.39,7.46,19.67-1.03.49,9.36-19.67,1.03.42,8.09,23.15-1.21Z"/>
  </g>
</svg>