<?xml version="1.0" encoding="UTF-8"?>
<svg id="Calque_1" data-name="Calque 1" xmlns="http://www.w3.org/2000/svg" version="1.1" viewBox="0 0 177.6 182.1">
  <defs>
    <style>
      .cls-1 {
        fill: #818d9d;
        stroke-width: 0px;
      }
    </style>
  </defs>
  <g>
    <g>
      <g>
        <path class="cls-1" d="M41.2,47.2c.5,0,.9-.2,1.3-.5,5.2-4.2,11.8-6.8,19-6.6,6.3.1,12.3,2.2,17.3,6.1,2.6,2,6.4,2.1,8.9-.2,3.2-2.9,2.9-7.8-.4-10.3-7.4-5.8-16.2-8.9-25.6-9.1-14.2-.3-27,6.5-35,17.1-1,1.3,0,3.2,1.6,3.2l12.7.2h0Z"/>
        <path class="cls-1" d="M120,56.1c-2.6-2.6-6.9-2.6-9.5,0-1.4,1.4-4,4.5-8.5,10-7,8.5-18.7,22.6-23.2,26.2-4.4,3.4-9.7,6.6-18.3,6.5s-16.1-4-21.4-9.9c-.4-.4-.9-.7-1.5-.7l-11.7-.2c-1.6,0-2.6,1.7-1.8,3,7.3,12.5,20.7,21,36.2,21.2s21.1-4.8,26.8-9.3c5.3-4.1,14.6-15.2,25.4-28.2,3.3-4,6.6-8,7.6-9.1,2.6-2.7,2.6-6.9,0-9.5h0Z"/>
      </g>
      <circle class="cls-1" cx="28.5" cy="67.4" r="16.3"/>
    </g>
    <g>
      <path class="cls-1" d="M148.1,91.4c-.5,0-.9.2-1.3.5-5.1,4.3-11.7,7-18.9,7s-12.4-2-17.4-5.7c-2.7-2-6.4-2-8.9.3-3.1,3-2.7,7.8.6,10.3,7.5,5.6,16.4,8.6,25.7,8.6,14.2,0,26.9-7,34.7-17.7,1-1.3,0-3.2-1.7-3.2h-12.8Z"/>
      <path class="cls-1" d="M69.1,83.9c2.7,2.6,7,2.5,9.5-.2,1.4-1.4,3.9-4.6,8.3-10.1,6.8-8.6,18.3-23,22.8-26.6,4.4-3.5,9.6-6.8,18.2-6.8s16.2,3.7,21.6,9.5c.4.4.9.7,1.5.7h11.7c1.6,0,2.6-1.7,1.7-3.1-7.5-12.3-21.1-20.6-36.5-20.6s-21,5.2-26.6,9.8c-5.2,4.2-14.3,15.5-24.9,28.7-3.2,4-6.5,8.1-7.5,9.2-2.6,2.7-2.5,7,.2,9.5h0Z"/>
    </g>
  </g>
  <g>
    <path class="cls-1" d="M28.3,137.6c-.8-.8-1.7-1.4-2.5-1.8-.9-.4-1.8-.6-2.7-.6-1.5,0-2.7.5-3.5,1.4-.9.9-1.3,2.1-1.3,3.6s.4,2.6,1.3,3.5,2,1.3,3.4,1.3,1.8-.2,2.6-.6c.9-.4,1.9-1,2.9-1.8l-.3,9.4c-1,.4-2,.7-2.9.9-1,.2-2,.3-2.9.3s-2.4-.1-3.5-.4-2.1-.7-3.1-1.2c-2.2-1.3-3.9-2.9-5-4.8-1.1-1.9-1.7-4.2-1.7-6.7s.3-3.6,1-5.2c.6-1.6,1.6-3,2.8-4.2,1.2-1.2,2.7-2.2,4.3-2.8,1.6-.6,3.4-.9,5.3-.9s2,.1,3,.3,1.9.5,2.9.9v9.3h0Z"/>
    <path class="cls-1" d="M58.2,140.2c0,1.8-.3,3.5-1,5.1s-1.6,3-2.9,4.2c-1.3,1.2-2.7,2.2-4.3,2.8-1.6.6-3.4,1-5.2,1s-3.6-.3-5.3-1-3.1-1.6-4.3-2.8c-1.2-1.2-2.2-2.6-2.8-4.2s-1-3.3-1-5.2.3-3.6,1-5.2c.6-1.6,1.6-3,2.8-4.2,1.3-1.2,2.7-2.2,4.3-2.8,1.6-.6,3.4-1,5.3-1s3.6.3,5.3,1,3.1,1.6,4.3,2.8c1.2,1.2,2.2,2.6,2.8,4.2.6,1.6,1,3.3,1,5.2h0ZM44.8,144.9c1.3,0,2.3-.4,3.1-1.3s1.2-2,1.2-3.4-.4-2.6-1.2-3.5-1.8-1.3-3.1-1.3-2.3.4-3.1,1.3c-.8.9-1.2,2-1.2,3.5s.4,2.6,1.2,3.4c.8.9,1.8,1.3,3.1,1.3Z"/>
    <g>
      <path class="cls-1" d="M61.9,152.7v-25h8.8l7.8,13.1c0-.6-.2-1.2-.2-1.9,0-.7,0-1.6,0-2.8v-8.4h8.7v25h-8.9l-7.7-13c0,.6.2,1.2.2,1.8,0,.6,0,1.4,0,2.2v9h-8.7Z"/>
      <path class="cls-1" d="M78.5,152.7v-25h8.8l7.8,13.1c0-.6-.2-1.2-.2-1.9,0-.7,0-1.6,0-2.8v-8.4h8.7v25h-8.9l-7.7-13c0,.6.2,1.2.2,1.8s0,1.4,0,2.2v9h-8.7Z"/>
    </g>
    <path class="cls-1" d="M108.8,152.7v-25h16.7v6.8h-7.9v2.4h7.2v6.4h-7.2v2.6h8.1v6.8h-17Z"/>
    <path class="cls-1" d="M147.8,137.6c-.8-.8-1.7-1.4-2.5-1.8-.9-.4-1.8-.6-2.7-.6-1.5,0-2.7.5-3.5,1.4-.9.9-1.3,2.1-1.3,3.6s.4,2.6,1.3,3.5,2,1.3,3.4,1.3,1.8-.2,2.6-.6c.9-.4,1.9-1,2.9-1.8l-.3,9.4c-1,.4-2,.7-2.9.9-1,.2-2,.3-2.9.3s-2.4-.1-3.5-.4-2.1-.7-3.1-1.2c-2.2-1.3-3.9-2.9-5-4.8-1.1-1.9-1.7-4.2-1.7-6.7s.3-3.6,1-5.2c.6-1.6,1.6-3,2.8-4.2,1.2-1.2,2.7-2.2,4.3-2.8s3.4-.9,5.3-.9,2,.1,3,.3,1.9.5,2.9.9v9.3h0Z"/>
    <path class="cls-1" d="M155,152.7v-16.8h-5v-8.2h19v8.2h-5v16.8h-9Z"/>
  </g>
</svg>