<?xml version="1.0" encoding="UTF-8"?>
<svg id="AdobeStock_4058991_Image" data-name="AdobeStock_4058991 Image" xmlns="http://www.w3.org/2000/svg" viewBox="0 0 122.67 77.32">
  <defs>
    <style>
      .cls-1 {
        fill: #fff;
        stroke-width: 0px;
      }
    </style>
  </defs>
  <path class="cls-1" d="M109.97,77.32H12.69c-7,0-12.69-5.69-12.69-12.69V12.69C0,5.69,5.69,0,12.69,0h97.28c7,0,12.69,5.69,12.69,12.69v51.93c0,7-5.69,12.69-12.69,12.69ZM12.69,1.75C6.66,1.75,1.75,6.66,1.75,12.69v51.93c0,6.04,4.91,10.95,10.95,10.95h97.28c6.04,0,10.95-4.91,10.95-10.95V12.69c0-6.04-4.91-10.95-10.95-10.95H12.69Z"/>
  <g>
    <path class="cls-1" d="M59.69,53.71c.14.13.3.25.45.37-2.93,1.95-6.46,3.09-10.25,3.09-10.22,0-18.51-8.29-18.51-18.51s8.29-18.51,18.51-18.51c3.79,0,7.31,1.14,10.25,3.09-.15.12-.3.24-.45.37-4.36,3.79-6.86,9.28-6.86,15.04s2.5,11.25,6.86,15.04Z"/>
    <path class="cls-1" d="M72.77,20.15c-3.79,0-7.31,1.14-10.25,3.09.15.12.3.24.45.37,4.36,3.79,6.86,9.28,6.86,15.04s-2.5,11.25-6.86,15.04c-.14.13-.3.25-.45.37,2.93,1.95,6.46,3.09,10.25,3.09,10.22,0,18.51-8.29,18.51-18.51s-8.29-18.51-18.51-18.51Z"/>
    <path class="cls-1" d="M61.33,24.12c-.24.19-.47.38-.7.58-3.9,3.39-6.37,8.39-6.37,13.96s2.47,10.57,6.37,13.96c.23.2.46.39.7.58.24-.19.47-.38.7-.58,3.9-3.39,6.37-8.39,6.37-13.96s-2.47-10.57-6.37-13.96c-.23-.2-.46-.39-.7-.58"/>
  </g>
</svg>