<?xml version="1.0" encoding="UTF-8"?>
<svg id="Layer_1" data-name="Layer 1" xmlns="http://www.w3.org/2000/svg" xmlns:xlink="http://www.w3.org/1999/xlink" viewBox="0 0 545 228.2">
  <defs>
    <style>
      .cls-1 {
        font-size: 117.83px;
      }

      .cls-2 {
        letter-spacing: 0em;
      }

      .cls-3 {
        font-size: 60.51px;
      }

      .cls-4 {
        fill: url(#_ÂÁ_Ï_ÌÌ_È_ËÂÌÚ_89-2);
      }

      .cls-4, .cls-5, .cls-6, .cls-7 {
        stroke-width: 0px;
      }

      .cls-8 {
        font-family: Montserrat-ExtraBold, Montserrat;
        font-weight: 700;
      }

      .cls-8, .cls-5 {
        fill: #fff;
      }

      .cls-9 {
        letter-spacing: 0em;
      }

      .cls-10 {
        letter-spacing: -.03em;
      }

      .cls-6 {
        fill: url(#_ÂÁ_Ï_ÌÌ_È_ËÂÌÚ_89);
      }

      .cls-7 {
        fill: #231f20;
      }

      .cls-11 {
        font-size: 93.66px;
      }
    </style>
    <linearGradient id="_ÂÁ_Ï_ÌÌ_È_ËÂÌÚ_89" data-name="¡ÂÁ˚ÏˇÌÌ˚È „‡‰ËÂÌÚ 89" x1="416.34" y1="69.2" x2="541" y2="69.2" gradientUnits="userSpaceOnUse">
      <stop offset="0" stop-color="#39bcc5"/>
      <stop offset="1" stop-color="#8084c0"/>
    </linearGradient>
    <linearGradient id="_ÂÁ_Ï_ÌÌ_È_ËÂÌÚ_89-2" data-name="¡ÂÁ˚ÏˇÌÌ˚È „‡‰ËÂÌÚ 89" x1="438.97" y1="63.81" x2="517.43" y2="63.81" xlink:href="#_ÂÁ_Ï_ÌÌ_È_ËÂÌÚ_89"/>
  </defs>
  <rect class="cls-7" x="13.11" y="60.85" width="92.86" height="104.8" transform="translate(-5.84 3.27) rotate(-3)"/>
  <rect class="cls-7" x="101.91" y="76.25" width="320.34" height="104.8" transform="translate(-6.37 13.89) rotate(-3)"/>
  <rect class="cls-7" x="7.42" y="108.25" width="469.53" height="104.8" transform="translate(-8.07 12.89) rotate(-3)"/>
  <text class="cls-8" transform="translate(24.92 161.37) rotate(-3)"><tspan class="cls-1" x="0" y="0">3</tspan><tspan class="cls-11" x="71.05" y="-15.11"> </tspan><tspan class="cls-3" x="98.3" y="-15.11">RAISONS </tspan><tspan class="cls-3"><tspan x="0" y="45.4">DE M</tspan><tspan class="cls-10" x="165.97" y="45.4">A</tspan><tspan class="cls-9" x="211.41" y="45.4">T</tspan><tspan class="cls-2" x="249.23" y="45.4">CHER </tspan></tspan></text>
  <path class="cls-5" d="M419.17,120.47V50.01c0-10.45,8.47-18.92,18.92-18.92h49.98c10.45,0,18.92,8.47,18.92,18.92v43.12c0,10.45-8.47,18.92-18.92,18.92h-44.58c-3.51,0-6.92,1.2-9.65,3.41l-9.36,7.55c-2.14,1.72-5.32.2-5.32-2.54Z"/>
  <path class="cls-5" d="M447.87,48.83c-3.55-.2-6.8.94-9.21,2.99-.45.38-1.1.38-1.55,0-2.41-2.05-5.66-3.19-9.21-2.99-6.43.36-11.67,5.53-11.56,11.97.18,11.36,15.33,20.24,20.11,22.77.9.47,1.97.47,2.87,0,4.79-2.52,19.93-11.41,20.11-22.77.1-6.44-5.13-11.61-11.56-11.97Z"/>
  <g>
    <path class="cls-6" d="M426.92,134.6c-1.55,0-3.11-.34-4.58-1.05-3.7-1.77-6-5.42-6-9.52V34.29c0-16.82,13.68-30.5,30.5-30.5h63.66c16.82,0,30.5,13.68,30.5,30.5v54.92c0,16.82-13.68,30.5-30.5,30.5h-56.78c-3,0-5.94,1.04-8.27,2.92l-11.92,9.62c-1.93,1.56-4.25,2.35-6.61,2.35ZM446.84,16.58c-9.76,0-17.71,7.94-17.71,17.7v85.07l8.28-6.68c4.61-3.71,10.4-5.76,16.31-5.76h56.78c9.76,0,17.71-7.94,17.71-17.71v-54.92c0-9.76-7.94-17.7-17.71-17.7h-63.66Z"/>
    <path class="cls-4" d="M478.2,96.96c-1.77,0-3.55-.42-5.16-1.28-10.14-5.35-33.74-19.97-34.06-40.25-.21-13.12,10.19-23.98,23.66-24.73,5.62-.3,11.02,1.06,15.56,3.9,4.54-2.84,9.94-4.19,15.56-3.9h0c13.47.75,23.87,11.61,23.66,24.73-.32,20.28-23.92,34.91-34.06,40.25-1.62.85-3.39,1.28-5.17,1.28ZM464.2,43.45c-.28,0-.56,0-.85.02-6.59.37-11.68,5.53-11.58,11.75.17,10.76,13.61,21.79,26.43,28.71,12.82-6.92,26.27-17.95,26.43-28.71.1-6.22-4.99-11.39-11.58-11.75-3.6-.2-6.99.88-9.53,3.04-3.09,2.62-7.56,2.63-10.65,0-2.34-2-5.4-3.07-8.69-3.07Z"/>
  </g>
</svg>