<?xml version="1.0" encoding="UTF-8"?>
<svg id="Layer_1" data-name="Layer 1" xmlns="http://www.w3.org/2000/svg" xmlns:xlink="http://www.w3.org/1999/xlink" viewBox="0 0 911 386">
  <defs>
    <style>
      .cls-1 {
        fill: url(#Dégradé_sans_nom_2);
      }

      .cls-1, .cls-2 {
        stroke-width: 0px;
      }

      .cls-2 {
        fill: #fff;
      }
    </style>
    <radialGradient id="Dégradé_sans_nom_2" data-name="Dégradé sans nom 2" cx="95.79" cy="-66.63" fx="95.79" fy="-66.63" r="1866.02" gradientTransform="translate(0 -24.46) scale(1 .82)" gradientUnits="userSpaceOnUse">
      <stop offset="0" stop-color="#6a747e"/>
      <stop offset="1" stop-color="#95a7c0"/>
    </radialGradient>
  </defs>
  <rect class="cls-1" width="911" height="386" rx="38.64" ry="38.64"/>
  <g>
    <path class="cls-2" d="M104.75,104.16l-.06-26.52-13.15,21.95h-3.32l-13.15-21.61v26.18h-7.09v-40.01h6.12l15.89,26.52,15.6-26.52h6.12l.06,40.01h-7.03Z"/>
    <path class="cls-2" d="M119.38,88.9c0-9.15,6.86-15.6,16.23-15.6s16.29,6.46,16.29,15.6-6.8,15.66-16.29,15.66-16.23-6.52-16.23-15.66ZM144.7,88.9c0-5.83-3.89-9.55-9.09-9.55s-9.03,3.72-9.03,9.55,3.89,9.55,9.03,9.55,9.09-3.72,9.09-9.55Z"/>
    <path class="cls-2" d="M191.17,88.9c0,9.49-6.57,15.66-15.49,15.66-4.17,0-7.72-1.43-10.12-4.34v3.94h-6.8v-42.41h7.14v15.6c2.46-2.74,5.89-4.06,9.77-4.06,8.92,0,15.49,6.12,15.49,15.6ZM183.91,88.9c0-5.83-3.89-9.55-9.03-9.55s-9.09,3.72-9.09,9.55,3.94,9.55,9.09,9.55,9.03-3.72,9.03-9.55Z"/>
    <path class="cls-2" d="M197,64.32c0-2.4,1.94-4.29,4.57-4.29s4.57,1.77,4.57,4.12c0,2.52-1.89,4.46-4.57,4.46s-4.57-1.89-4.57-4.29ZM197.97,73.64h7.14v30.52h-7.14v-30.52Z"/>
    <path class="cls-2" d="M214.49,61.75h7.14v42.41h-7.14v-42.41Z"/>
    <path class="cls-2" d="M259.59,91.18h-23.95c.86,4.46,4.57,7.32,9.89,7.32,3.43,0,6.12-1.09,8.29-3.31l3.83,4.4c-2.74,3.26-7.03,4.97-12.29,4.97-10.23,0-16.86-6.57-16.86-15.66s6.69-15.6,15.78-15.6,15.43,6.23,15.43,15.78c0,.57-.06,1.43-.11,2.11ZM235.58,86.44h17.32c-.57-4.4-3.94-7.43-8.63-7.43s-8,2.97-8.69,7.43Z"/>
    <path class="cls-2" d="M288.57,87.7v16.46h-6.4v-30.41h6.4v5.54c.91-1.87,2.29-3.33,4.14-4.4,1.85-1.07,3.84-1.6,5.97-1.6,4.8,0,8.06,1.98,9.77,5.94,3.01-3.96,6.76-5.94,11.26-5.94,3.43,0,6.2,1.05,8.32,3.14,2.12,2.1,3.17,5.13,3.17,9.09v18.63h-6.4v-16.69c0-5.6-2.32-8.4-6.97-8.4-2.17,0-4.07.7-5.69,2.09-1.62,1.39-2.47,3.42-2.54,6.09v16.92h-6.4v-16.69c0-2.9-.51-5.02-1.54-6.37-1.03-1.35-2.65-2.03-4.86-2.03s-4.13.73-5.77,2.2c-1.64,1.47-2.46,3.61-2.46,6.43Z"/>
    <path class="cls-2" d="M365.56,100.07c-3.05,3.03-6.86,4.54-11.43,4.54s-8.38-1.51-11.43-4.54c-3.05-3.03-4.57-6.74-4.57-11.12s1.52-8.09,4.57-11.12c3.05-3.03,6.86-4.54,11.43-4.54s8.38,1.51,11.43,4.54c3.05,3.03,4.57,6.74,4.57,11.12s-1.52,8.09-4.57,11.12ZM347.24,96.13c1.81,1.85,4.11,2.77,6.89,2.77s5.08-.92,6.89-2.77c1.81-1.85,2.71-4.24,2.71-7.17s-.91-5.33-2.71-7.17c-1.81-1.85-4.11-2.77-6.89-2.77s-5.08.92-6.89,2.77c-1.81,1.85-2.71,4.24-2.71,7.17s.9,5.33,2.71,7.17Z"/>
    <path class="cls-2" d="M383.79,87.7v16.46h-6.4v-30.41h6.4v5.54c1.03-1.87,2.45-3.33,4.26-4.4,1.81-1.07,3.76-1.6,5.86-1.6,3.43,0,6.2,1.05,8.32,3.14,2.11,2.1,3.17,5.13,3.17,9.09v18.63h-6.4v-16.69c0-5.6-2.33-8.4-6.97-8.4-2.21,0-4.13.73-5.77,2.2-1.64,1.47-2.46,3.61-2.46,6.43Z"/>
    <path class="cls-2" d="M442.61,91.76h-23.84c.15,2.21,1.16,3.99,3.03,5.34,1.87,1.35,4,2.03,6.4,2.03,3.81,0,6.71-1.2,8.69-3.6l3.66,4c-3.28,3.39-7.54,5.09-12.8,5.09-4.27,0-7.9-1.42-10.89-4.26-2.99-2.84-4.49-6.65-4.49-11.43s1.52-8.58,4.57-11.4c3.05-2.82,6.64-4.23,10.78-4.23s7.65,1.25,10.55,3.74c2.9,2.5,4.34,5.94,4.34,10.32v4.4ZM418.77,86.73h17.43c0-2.55-.8-4.52-2.4-5.89-1.6-1.37-3.57-2.06-5.92-2.06s-4.45.71-6.32,2.14-2.8,3.36-2.8,5.8Z"/>
    <path class="cls-2" d="M453.13,116.28c-2.78,0-5.3-1.01-7.55-3.03l2.92-5.2c1.33,1.26,2.71,1.89,4.14,1.89s2.59-.51,3.49-1.54c.89-1.03,1.34-2.15,1.34-3.37,0-.53-4.1-10.96-12.29-31.27h6.86l9.09,22.41,9.09-22.41h6.86l-14.75,36.12c-.88,1.98-2.13,3.54-3.77,4.69-1.64,1.14-3.45,1.71-5.43,1.71Z"/>
  </g>
  <g>
    <path class="cls-2" d="M76.33,358.11l-3.55-5.09c-.22.02-.45.02-.67.02h-3.92v5.06h-3.23v-17.38h7.15c4.57,0,7.4,2.33,7.4,6.18,0,2.63-1.34,4.57-3.7,5.49l4,5.71h-3.48ZM71.96,343.46h-3.77v6.93h3.77c2.83,0,4.29-1.29,4.29-3.48s-1.46-3.45-4.29-3.45Z"/>
    <path class="cls-2" d="M95.22,352.47h-10.4c.37,1.94,1.99,3.18,4.29,3.18,1.49,0,2.66-.47,3.6-1.44l1.66,1.91c-1.19,1.42-3.05,2.16-5.34,2.16-4.44,0-7.32-2.86-7.32-6.8s2.9-6.78,6.85-6.78,6.7,2.71,6.7,6.85c0,.25-.02.62-.05.92ZM84.79,350.41h7.52c-.25-1.91-1.71-3.23-3.75-3.23s-3.48,1.29-3.77,3.23Z"/>
    <path class="cls-2" d="M97.16,351.48c0-3.97,2.98-6.78,7.17-6.78,2.58,0,4.64,1.07,5.66,3.08l-2.38,1.39c-.79-1.27-1.99-1.84-3.3-1.84-2.28,0-4.02,1.59-4.02,4.15s1.74,4.15,4.02,4.15c1.32,0,2.51-.57,3.3-1.84l2.38,1.39c-1.02,1.99-3.08,3.1-5.66,3.1-4.2,0-7.17-2.83-7.17-6.8Z"/>
    <path class="cls-2" d="M111.39,351.48c0-3.97,2.98-6.78,7.05-6.78s7.08,2.81,7.08,6.78-2.95,6.8-7.08,6.8-7.05-2.83-7.05-6.8ZM122.39,351.48c0-2.53-1.69-4.15-3.95-4.15s-3.92,1.61-3.92,4.15,1.69,4.15,3.92,4.15,3.95-1.61,3.95-4.15Z"/>
    <path class="cls-2" d="M150.67,350.51v7.6h-3.1v-7.2c0-2.36-1.09-3.5-2.98-3.5-2.04,0-3.45,1.34-3.45,3.97v6.73h-3.1v-7.2c0-2.36-1.09-3.5-2.98-3.5-2.06,0-3.45,1.34-3.45,3.97v6.73h-3.1v-13.26h2.95v1.69c.99-1.19,2.53-1.84,4.34-1.84,1.94,0,3.55.72,4.47,2.21,1.07-1.37,2.85-2.21,4.96-2.21,3.2,0,5.44,1.81,5.44,5.81Z"/>
    <path class="cls-2" d="M176.82,350.51v7.6h-3.1v-7.2c0-2.36-1.09-3.5-2.98-3.5-2.04,0-3.45,1.34-3.45,3.97v6.73h-3.1v-7.2c0-2.36-1.09-3.5-2.98-3.5-2.06,0-3.45,1.34-3.45,3.97v6.73h-3.1v-13.26h2.95v1.69c.99-1.19,2.53-1.84,4.34-1.84,1.94,0,3.55.72,4.47,2.21,1.07-1.37,2.85-2.21,4.96-2.21,3.2,0,5.44,1.81,5.44,5.81Z"/>
    <path class="cls-2" d="M191.89,350.34v7.77h-2.93v-1.61c-.74,1.14-2.18,1.79-4.17,1.79-3.03,0-4.94-1.66-4.94-3.97s1.49-3.95,5.51-3.95h3.43v-.2c0-1.81-1.09-2.88-3.3-2.88-1.49,0-3.03.5-4.02,1.32l-1.22-2.26c1.42-1.09,3.48-1.64,5.61-1.64,3.82,0,6.03,1.81,6.03,5.64ZM188.79,353.96v-1.54h-3.2c-2.11,0-2.68.79-2.68,1.76,0,1.12.94,1.84,2.53,1.84s2.83-.7,3.35-2.06Z"/>
    <path class="cls-2" d="M208.93,350.51v7.6h-3.1v-7.2c0-2.36-1.17-3.5-3.15-3.5-2.21,0-3.7,1.34-3.7,4v6.7h-3.1v-13.26h2.95v1.71c1.02-1.22,2.63-1.86,4.57-1.86,3.18,0,5.54,1.81,5.54,5.81Z"/>
    <path class="cls-2" d="M225.98,339.69v18.42h-2.98v-1.71c-1.04,1.27-2.58,1.89-4.39,1.89-3.85,0-6.7-2.68-6.7-6.8s2.86-6.78,6.7-6.78c1.71,0,3.23.57,4.27,1.79v-6.8h3.1ZM222.93,351.48c0-2.53-1.71-4.15-3.95-4.15s-3.95,1.61-3.95,4.15,1.71,4.15,3.95,4.15,3.95-1.61,3.95-4.15Z"/>
    <path class="cls-2" d="M242.47,352.47h-10.4c.37,1.94,1.99,3.18,4.29,3.18,1.49,0,2.66-.47,3.6-1.44l1.66,1.91c-1.19,1.42-3.05,2.16-5.34,2.16-4.44,0-7.32-2.86-7.32-6.8s2.9-6.78,6.85-6.78,6.7,2.71,6.7,6.85c0,.25-.02.62-.05.92ZM232.05,350.41h7.52c-.25-1.91-1.71-3.23-3.75-3.23s-3.48,1.29-3.77,3.23ZM236.34,343.04h-2.68l3.35-3.4h3.65l-4.32,3.4Z"/>
    <path class="cls-2" d="M266.43,351.48c0,4.12-2.86,6.8-6.73,6.8-1.69,0-3.18-.57-4.25-1.79v6.43h-3.1v-18.07h2.95v1.74c1.04-1.27,2.58-1.89,4.39-1.89,3.87,0,6.73,2.68,6.73,6.78ZM263.28,351.48c0-2.53-1.69-4.15-3.92-4.15s-3.95,1.61-3.95,4.15,1.71,4.15,3.95,4.15,3.92-1.61,3.92-4.15Z"/>
    <path class="cls-2" d="M268.3,351.48c0-3.97,2.98-6.78,7.05-6.78s7.08,2.81,7.08,6.78-2.95,6.8-7.08,6.8-7.05-2.83-7.05-6.8ZM279.3,351.48c0-2.53-1.69-4.15-3.95-4.15s-3.92,1.61-3.92,4.15,1.69,4.15,3.92,4.15,3.95-1.61,3.95-4.15Z"/>
    <path class="cls-2" d="M298.24,344.85v13.26h-2.96v-1.69c-.99,1.22-2.56,1.86-4.27,1.86-3.4,0-5.71-1.86-5.71-5.86v-7.57h3.1v7.15c0,2.41,1.14,3.55,3.1,3.55,2.16,0,3.62-1.34,3.62-4v-6.7h3.1Z"/>
    <path class="cls-2" d="M309.99,344.7v2.95c-.27-.05-.5-.07-.72-.07-2.36,0-3.85,1.39-3.85,4.1v6.43h-3.1v-13.26h2.95v1.94c.89-1.39,2.51-2.09,4.72-2.09Z"/>
    <path class="cls-2" d="M332.59,339.69v18.42h-2.98v-1.71c-1.04,1.27-2.58,1.89-4.39,1.89-3.85,0-6.7-2.68-6.7-6.8s2.86-6.78,6.7-6.78c1.71,0,3.23.57,4.27,1.79v-6.8h3.1ZM329.53,351.48c0-2.53-1.71-4.15-3.95-4.15s-3.95,1.61-3.95,4.15,1.71,4.15,3.95,4.15,3.95-1.61,3.95-4.15Z"/>
    <path class="cls-2" d="M349.08,352.47h-10.4c.37,1.94,1.99,3.18,4.29,3.18,1.49,0,2.66-.47,3.6-1.44l1.66,1.91c-1.19,1.42-3.05,2.16-5.34,2.16-4.44,0-7.32-2.86-7.32-6.8s2.9-6.78,6.85-6.78,6.7,2.71,6.7,6.85c0,.25-.02.62-.05.92ZM338.65,350.41h7.52c-.25-1.91-1.71-3.23-3.75-3.23s-3.48,1.29-3.77,3.23Z"/>
    <path class="cls-2" d="M350.59,356.79l1.19-2.36c1.17.77,2.95,1.32,4.62,1.32,1.96,0,2.78-.55,2.78-1.46,0-2.53-8.19-.15-8.19-5.44,0-2.51,2.26-4.15,5.83-4.15,1.76,0,3.77.42,4.96,1.14l-1.19,2.36c-1.27-.75-2.53-.99-3.8-.99-1.89,0-2.78.62-2.78,1.49,0,2.68,8.19.3,8.19,5.49,0,2.48-2.28,4.1-6.01,4.1-2.21,0-4.42-.65-5.61-1.49Z"/>
    <path class="cls-2" d="M371.75,339.69h3.1v18.42h-3.1v-18.42Z"/>
    <path class="cls-2" d="M378.5,340.8c0-1.04.84-1.86,1.99-1.86s1.99.77,1.99,1.79c0,1.09-.82,1.94-1.99,1.94s-1.99-.82-1.99-1.86ZM378.92,344.85h3.1v13.26h-3.1v-13.26Z"/>
    <path class="cls-2" d="M398.51,344.85l-5.69,13.26h-3.2l-5.68-13.26h3.23l4.12,9.83,4.25-9.83h2.98Z"/>
    <path class="cls-2" d="M408.12,344.7v2.95c-.27-.05-.5-.07-.72-.07-2.36,0-3.85,1.39-3.85,4.1v6.43h-3.1v-13.26h2.95v1.94c.89-1.39,2.51-2.09,4.72-2.09Z"/>
    <path class="cls-2" d="M421.78,350.34v7.77h-2.93v-1.61c-.74,1.14-2.18,1.79-4.17,1.79-3.03,0-4.94-1.66-4.94-3.97s1.49-3.95,5.51-3.95h3.43v-.2c0-1.81-1.09-2.88-3.3-2.88-1.49,0-3.03.5-4.02,1.32l-1.22-2.26c1.42-1.09,3.48-1.64,5.61-1.64,3.82,0,6.03,1.81,6.03,5.64ZM418.68,353.96v-1.54h-3.2c-2.11,0-2.68.79-2.68,1.76,0,1.12.94,1.84,2.53,1.84s2.83-.7,3.35-2.06Z"/>
    <path class="cls-2" d="M425.33,340.8c0-1.04.84-1.86,1.99-1.86s1.99.77,1.99,1.79c0,1.09-.82,1.94-1.99,1.94s-1.99-.82-1.99-1.86ZM425.76,344.85h3.1v13.26h-3.1v-13.26Z"/>
    <path class="cls-2" d="M431.42,356.79l1.19-2.36c1.17.77,2.95,1.32,4.62,1.32,1.96,0,2.78-.55,2.78-1.46,0-2.53-8.19-.15-8.19-5.44,0-2.51,2.26-4.15,5.83-4.15,1.76,0,3.77.42,4.96,1.14l-1.19,2.36c-1.27-.75-2.53-.99-3.8-.99-1.89,0-2.78.62-2.78,1.49,0,2.68,8.19.3,8.19,5.49,0,2.48-2.28,4.1-6.01,4.1-2.21,0-4.42-.65-5.61-1.49Z"/>
    <path class="cls-2" d="M444.63,351.48c0-3.97,2.98-6.78,7.05-6.78s7.08,2.81,7.08,6.78-2.95,6.8-7.08,6.8-7.05-2.83-7.05-6.8ZM455.63,351.48c0-2.53-1.69-4.15-3.95-4.15s-3.92,1.61-3.92,4.15,1.69,4.15,3.92,4.15,3.95-1.61,3.95-4.15Z"/>
    <path class="cls-2" d="M474.79,350.51v7.6h-3.1v-7.2c0-2.36-1.17-3.5-3.15-3.5-2.21,0-3.7,1.34-3.7,4v6.7h-3.1v-13.26h2.95v1.71c1.02-1.22,2.63-1.86,4.57-1.86,3.18,0,5.54,1.81,5.54,5.81Z"/>
    <path class="cls-2" d="M477.23,356.79l1.19-2.36c1.17.77,2.95,1.32,4.62,1.32,1.96,0,2.78-.55,2.78-1.46,0-2.53-8.19-.15-8.19-5.44,0-2.51,2.26-4.15,5.83-4.15,1.76,0,3.77.42,4.96,1.14l-1.19,2.36c-1.27-.75-2.53-.99-3.8-.99-1.89,0-2.78.62-2.78,1.49,0,2.68,8.19.3,8.19,5.49,0,2.48-2.28,4.1-6.01,4.1-2.21,0-4.42-.65-5.61-1.49Z"/>
    <path class="cls-2" d="M511.22,344.85v13.26h-2.95v-1.69c-.99,1.22-2.56,1.86-4.27,1.86-3.4,0-5.71-1.86-5.71-5.86v-7.57h3.1v7.15c0,2.41,1.14,3.55,3.1,3.55,2.16,0,3.62-1.34,3.62-4v-6.7h3.1Z"/>
    <path class="cls-2" d="M515.3,339.69h3.1v18.42h-3.1v-18.42Z"/>
    <path class="cls-2" d="M531.09,357.39c-.75.6-1.86.89-2.98.89-2.9,0-4.57-1.54-4.57-4.47v-6.38h-2.18v-2.48h2.18v-3.03h3.1v3.03h3.55v2.48h-3.55v6.31c0,1.29.64,1.99,1.84,1.99.65,0,1.27-.17,1.74-.55l.87,2.21Z"/>
    <path class="cls-2" d="M541.32,344.7v2.95c-.27-.05-.5-.07-.72-.07-2.36,0-3.85,1.39-3.85,4.1v6.43h-3.1v-13.26h2.95v1.94c.89-1.39,2.51-2.09,4.72-2.09Z"/>
    <path class="cls-2" d="M554.98,350.34v7.77h-2.93v-1.61c-.74,1.14-2.18,1.79-4.17,1.79-3.03,0-4.94-1.66-4.94-3.97s1.49-3.95,5.51-3.95h3.43v-.2c0-1.81-1.09-2.88-3.3-2.88-1.49,0-3.03.5-4.02,1.32l-1.22-2.26c1.42-1.09,3.48-1.64,5.61-1.64,3.82,0,6.03,1.81,6.03,5.64ZM551.87,353.96v-1.54h-3.2c-2.11,0-2.68.79-2.68,1.76,0,1.12.94,1.84,2.53,1.84s2.83-.7,3.35-2.06Z"/>
    <path class="cls-2" d="M558.28,349.91h6.83v2.58h-6.83v-2.58Z"/>
    <path class="cls-2" d="M576.18,344.7v2.95c-.27-.05-.5-.07-.72-.07-2.36,0-3.85,1.39-3.85,4.1v6.43h-3.1v-13.26h2.95v1.94c.89-1.39,2.51-2.09,4.72-2.09Z"/>
    <path class="cls-2" d="M589.84,350.34v7.77h-2.93v-1.61c-.74,1.14-2.18,1.79-4.17,1.79-3.03,0-4.94-1.66-4.94-3.97s1.49-3.95,5.51-3.95h3.43v-.2c0-1.81-1.09-2.88-3.3-2.88-1.49,0-3.03.5-4.02,1.32l-1.22-2.26c1.42-1.09,3.48-1.64,5.61-1.64,3.82,0,6.03,1.81,6.03,5.64ZM586.74,353.96v-1.54h-3.2c-2.11,0-2.68.79-2.68,1.76,0,1.12.94,1.84,2.53,1.84s2.83-.7,3.35-2.06Z"/>
    <path class="cls-2" d="M607.89,351.48c0,4.12-2.86,6.8-6.73,6.8-1.69,0-3.18-.57-4.25-1.79v6.43h-3.1v-18.07h2.95v1.74c1.04-1.27,2.58-1.89,4.39-1.89,3.87,0,6.73,2.68,6.73,6.78ZM604.74,351.48c0-2.53-1.69-4.15-3.92-4.15s-3.95,1.61-3.95,4.15,1.71,4.15,3.95,4.15,3.92-1.61,3.92-4.15Z"/>
    <path class="cls-2" d="M610.43,340.8c0-1.04.84-1.86,1.99-1.86s1.99.77,1.99,1.79c0,1.09-.82,1.94-1.99,1.94s-1.99-.82-1.99-1.86ZM610.85,344.85h3.1v13.26h-3.1v-13.26Z"/>
    <path class="cls-2" d="M631.01,339.69v18.42h-2.98v-1.71c-1.04,1.27-2.58,1.89-4.39,1.89-3.85,0-6.7-2.68-6.7-6.8s2.86-6.78,6.7-6.78c1.71,0,3.23.57,4.27,1.79v-6.8h3.1ZM627.96,351.48c0-2.53-1.71-4.15-3.95-4.15s-3.95,1.61-3.95,4.15,1.71,4.15,3.95,4.15,3.95-1.61,3.95-4.15Z"/>
    <path class="cls-2" d="M647.5,352.47h-10.4c.37,1.94,1.99,3.18,4.29,3.18,1.49,0,2.66-.47,3.6-1.44l1.66,1.91c-1.19,1.42-3.05,2.16-5.34,2.16-4.44,0-7.32-2.86-7.32-6.8s2.9-6.78,6.85-6.78,6.7,2.71,6.7,6.85c0,.25-.02.62-.05.92ZM637.07,350.41h7.52c-.25-1.91-1.71-3.23-3.75-3.23s-3.48,1.29-3.77,3.23Z"/>
    <path class="cls-2" d="M649.02,356.79l1.19-2.36c1.17.77,2.95,1.32,4.62,1.32,1.96,0,2.78-.55,2.78-1.46,0-2.53-8.19-.15-8.19-5.44,0-2.51,2.26-4.15,5.83-4.15,1.76,0,3.77.42,4.96,1.14l-1.19,2.36c-1.27-.75-2.53-.99-3.8-.99-1.89,0-2.78.62-2.78,1.49,0,2.68,8.19.3,8.19,5.49,0,2.48-2.28,4.1-6.01,4.1-2.21,0-4.42-.65-5.61-1.49Z"/>
  </g>
  <g>
    <path class="cls-2" d="M67.49,136.16l-1.74,3.95h-3.13l7.65-17.36h3.13l7.65,17.36h-3.13l-1.74-3.95h-8.69ZM74.99,133.45l-3.15-7.15-3.15,7.15h6.31Z"/>
    <path class="cls-2" d="M88.92,140.3c-1.84,0-3.42-.62-4.74-1.87-1.33-1.25-1.99-2.88-1.99-4.9s.69-3.66,2.07-4.93c1.38-1.27,3.07-1.9,5.05-1.9s3.67.69,5.04,2.06l-1.64,2.01c-1.14-.99-2.29-1.49-3.45-1.49s-2.17.39-3.02,1.16-1.28,1.76-1.28,2.98.42,2.25,1.27,3.09c.84.84,1.88,1.27,3.12,1.27s2.4-.56,3.49-1.69l1.64,1.79c-1.61,1.62-3.46,2.43-5.56,2.43Z"/>
    <path class="cls-2" d="M100.79,129.13v6.7c0,.63.17,1.13.5,1.5.33.37.79.56,1.39.56s1.17-.29,1.71-.87l1.14,1.96c-.98.88-2.06,1.32-3.24,1.32s-2.19-.41-3.03-1.23-1.25-1.92-1.25-3.32v-6.63h-1.66v-2.24h1.66v-4.15h2.78v4.15h3.48v2.24h-3.48Z"/>
    <path class="cls-2" d="M116.98,134.05v-7.15h2.78v13.21h-2.78v-2.41c-.45.81-1.06,1.45-1.85,1.91-.79.46-1.63.7-2.54.7-1.49,0-2.69-.46-3.61-1.37s-1.38-2.23-1.38-3.95v-8.1h2.78v7.25c0,2.43,1.01,3.65,3.03,3.65.96,0,1.8-.32,2.51-.96.71-.64,1.07-1.57,1.07-2.79Z"/>
    <path class="cls-2" d="M136.07,134.72h-10.35c.07.96.5,1.73,1.32,2.32.81.59,1.74.88,2.78.88,1.66,0,2.91-.52,3.77-1.56l1.59,1.74c-1.42,1.47-3.28,2.21-5.56,2.21-1.85,0-3.43-.62-4.73-1.85s-1.95-2.89-1.95-4.97.66-3.73,1.99-4.95c1.32-1.23,2.88-1.84,4.68-1.84s3.32.54,4.58,1.63c1.26,1.08,1.89,2.58,1.89,4.48v1.91ZM125.72,132.53h7.57c0-1.11-.35-1.96-1.04-2.56-.7-.6-1.55-.89-2.57-.89s-1.93.31-2.74.93c-.81.62-1.22,1.46-1.22,2.52Z"/>
    <path class="cls-2" d="M141.91,140.11h-2.78v-18.42h2.78v18.42Z"/>
    <path class="cls-2" d="M148.71,140.11h-2.78v-18.42h2.78v18.42Z"/>
    <path class="cls-2" d="M165.03,134.72h-10.35c.07.96.5,1.73,1.32,2.32.81.59,1.74.88,2.78.88,1.66,0,2.91-.52,3.77-1.56l1.59,1.74c-1.42,1.47-3.28,2.21-5.56,2.21-1.85,0-3.43-.62-4.73-1.85s-1.95-2.89-1.95-4.97.66-3.73,1.99-4.95c1.32-1.23,2.88-1.84,4.68-1.84s3.32.54,4.58,1.63c1.26,1.08,1.89,2.58,1.89,4.48v1.91ZM154.67,132.53h7.57c0-1.11-.35-1.96-1.04-2.56-.7-.6-1.55-.89-2.57-.89s-1.93.31-2.74.93c-.81.62-1.22,1.46-1.22,2.52Z"/>
    <path class="cls-2" d="M170.86,132.96v7.15h-2.78v-13.21h2.78v2.41c.4-.81,1-1.45,1.8-1.91.8-.46,1.67-.7,2.59-.7,2.09,0,3.5.86,4.25,2.58,1.31-1.72,2.94-2.58,4.89-2.58,1.49,0,2.69.46,3.61,1.37.92.91,1.38,2.23,1.38,3.95v8.09h-2.78v-7.25c0-2.43-1.01-3.65-3.03-3.65-.94,0-1.77.3-2.47.91-.7.6-1.07,1.49-1.11,2.64v7.35h-2.78v-7.25c0-1.26-.22-2.18-.67-2.77-.45-.59-1.15-.88-2.11-.88s-1.8.32-2.51.96c-.71.64-1.07,1.57-1.07,2.79Z"/>
    <path class="cls-2" d="M205.55,134.72h-10.35c.07.96.5,1.73,1.32,2.32.81.59,1.74.88,2.78.88,1.66,0,2.91-.52,3.77-1.56l1.59,1.74c-1.42,1.47-3.28,2.21-5.56,2.21-1.85,0-3.43-.62-4.73-1.85s-1.95-2.89-1.95-4.97.66-3.73,1.99-4.95c1.32-1.23,2.88-1.84,4.68-1.84s3.32.54,4.58,1.63c1.26,1.08,1.89,2.58,1.89,4.48v1.91ZM195.2,132.53h7.57c0-1.11-.35-1.96-1.04-2.56-.7-.6-1.55-.89-2.57-.89s-1.93.31-2.74.93c-.81.62-1.22,1.46-1.22,2.52Z"/>
    <path class="cls-2" d="M211.39,132.96v7.15h-2.78v-13.21h2.78v2.41c.45-.81,1.06-1.45,1.85-1.91.79-.46,1.63-.7,2.54-.7,1.49,0,2.69.46,3.61,1.37.92.91,1.38,2.23,1.38,3.95v8.09h-2.78v-7.25c0-2.43-1.01-3.65-3.03-3.65-.96,0-1.8.32-2.51.96-.71.64-1.07,1.57-1.07,2.79Z"/>
    <path class="cls-2" d="M227.9,129.13v6.7c0,.63.17,1.13.5,1.5.33.37.79.56,1.39.56s1.17-.29,1.71-.87l1.14,1.96c-.98.88-2.06,1.32-3.24,1.32s-2.19-.41-3.03-1.23-1.25-1.92-1.25-3.32v-6.63h-1.66v-2.24h1.66v-4.15h2.78v4.15h3.48v2.24h-3.48Z"/>
    <path class="cls-2" d="M241.31,122.8c0-1.04.84-1.86,1.99-1.86s1.99.77,1.99,1.79c0,1.09-.82,1.94-1.99,1.94s-1.99-.82-1.99-1.86ZM241.73,126.85h3.1v13.26h-3.1v-13.26Z"/>
    <path class="cls-2" d="M261.96,132.51v7.6h-3.1v-7.2c0-2.36-1.17-3.5-3.15-3.5-2.21,0-3.7,1.34-3.7,4v6.7h-3.1v-13.26h2.95v1.71c1.02-1.22,2.63-1.86,4.57-1.86,3.18,0,5.54,1.81,5.54,5.81Z"/>
    <path class="cls-2" d="M279.02,121.69v18.42h-2.98v-1.71c-1.04,1.27-2.58,1.89-4.39,1.89-3.85,0-6.7-2.68-6.7-6.8s2.86-6.78,6.7-6.78c1.71,0,3.23.57,4.27,1.79v-6.8h3.1ZM275.97,133.48c0-2.53-1.71-4.15-3.95-4.15s-3.95,1.61-3.95,4.15,1.71,4.15,3.95,4.15,3.95-1.61,3.95-4.15Z"/>
    <path class="cls-2" d="M282.68,122.8c0-1.04.84-1.86,1.99-1.86s1.99.77,1.99,1.79c0,1.09-.82,1.94-1.99,1.94s-1.99-.82-1.99-1.86ZM283.1,126.85h3.1v13.26h-3.1v-13.26Z"/>
    <path class="cls-2" d="M288.76,138.79l1.19-2.36c1.17.77,2.95,1.32,4.62,1.32,1.96,0,2.78-.55,2.78-1.46,0-2.53-8.19-.15-8.19-5.44,0-2.51,2.26-4.15,5.83-4.15,1.76,0,3.77.42,4.96,1.14l-1.19,2.36c-1.27-.75-2.53-.99-3.8-.99-1.89,0-2.78.62-2.78,1.49,0,2.68,8.19.3,8.19,5.49,0,2.48-2.28,4.1-6.01,4.1-2.21,0-4.42-.65-5.61-1.49Z"/>
    <path class="cls-2" d="M317.14,133.48c0,4.12-2.86,6.8-6.73,6.8-1.69,0-3.18-.57-4.25-1.79v6.43h-3.1v-18.07h2.95v1.74c1.04-1.27,2.58-1.89,4.39-1.89,3.87,0,6.73,2.68,6.73,6.78ZM313.99,133.48c0-2.53-1.69-4.15-3.92-4.15s-3.95,1.61-3.95,4.15,1.71,4.15,3.95,4.15,3.92-1.61,3.92-4.15Z"/>
    <path class="cls-2" d="M319.01,133.48c0-3.97,2.98-6.78,7.05-6.78s7.08,2.81,7.08,6.78-2.95,6.8-7.08,6.8-7.05-2.83-7.05-6.8ZM330,133.48c0-2.53-1.69-4.15-3.95-4.15s-3.92,1.61-3.92,4.15,1.69,4.15,3.92,4.15,3.95-1.61,3.95-4.15Z"/>
    <path class="cls-2" d="M349.17,132.51v7.6h-3.1v-7.2c0-2.36-1.17-3.5-3.15-3.5-2.21,0-3.7,1.34-3.7,4v6.7h-3.1v-13.26h2.95v1.71c1.02-1.22,2.63-1.86,4.57-1.86,3.18,0,5.54,1.81,5.54,5.81Z"/>
    <path class="cls-2" d="M352.7,122.8c0-1.04.84-1.86,1.99-1.86s1.99.77,1.99,1.79c0,1.09-.82,1.94-1.99,1.94s-1.99-.82-1.99-1.86ZM353.12,126.85h3.1v13.26h-3.1v-13.26Z"/>
    <path class="cls-2" d="M374.38,133.48c0,4.12-2.86,6.8-6.73,6.8-1.81,0-3.35-.62-4.39-1.89v1.71h-2.95v-18.42h3.1v6.78c1.07-1.19,2.56-1.76,4.25-1.76,3.87,0,6.73,2.66,6.73,6.78ZM371.22,133.48c0-2.53-1.69-4.15-3.92-4.15s-3.95,1.61-3.95,4.15,1.71,4.15,3.95,4.15,3.92-1.61,3.92-4.15Z"/>
    <path class="cls-2" d="M377.33,121.69h3.1v18.42h-3.1v-18.42Z"/>
    <path class="cls-2" d="M396.92,134.47h-10.4c.37,1.94,1.99,3.18,4.29,3.18,1.49,0,2.66-.47,3.6-1.44l1.66,1.91c-1.19,1.42-3.05,2.16-5.34,2.16-4.44,0-7.32-2.86-7.32-6.8s2.9-6.78,6.85-6.78,6.7,2.71,6.7,6.85c0,.25-.02.62-.05.92ZM386.5,132.41h7.52c-.25-1.91-1.71-3.23-3.75-3.23s-3.48,1.29-3.77,3.23Z"/>
    <path class="cls-2" d="M398.91,138.22c0-1.24.92-2.06,2.04-2.06s2.04.82,2.04,2.06-.92,2.06-2.04,2.06-2.04-.87-2.04-2.06Z"/>
    <path class="cls-2" d="M404.97,138.22c0-1.24.92-2.06,2.04-2.06s2.04.82,2.04,2.06-.92,2.06-2.04,2.06-2.04-.87-2.04-2.06Z"/>
    <path class="cls-2" d="M411.03,138.22c0-1.24.92-2.06,2.04-2.06s2.04.82,2.04,2.06-.92,2.06-2.04,2.06-2.04-.87-2.04-2.06Z"/>
    <path class="cls-2" d="M417.09,138.22c0-1.24.92-2.06,2.04-2.06s2.04.82,2.04,2.06-.92,2.06-2.04,2.06-2.04-.87-2.04-2.06Z"/>
    <path class="cls-2" d="M72.95,170.11h-3.28l-6.98-17.36h3.28l5.34,12.96,5.34-12.96h3.28l-6.98,17.36Z"/>
    <path class="cls-2" d="M92,168.33c-1.32,1.32-2.98,1.97-4.97,1.97s-3.64-.66-4.97-1.97c-1.33-1.32-1.99-2.93-1.99-4.83s.66-3.51,1.99-4.83c1.32-1.32,2.98-1.97,4.97-1.97s3.64.66,4.97,1.97c1.32,1.32,1.99,2.93,1.99,4.83s-.66,3.51-1.99,4.83ZM84.04,166.62c.79.8,1.78,1.21,2.99,1.21s2.21-.4,2.99-1.21c.79-.8,1.18-1.84,1.18-3.12s-.39-2.31-1.18-3.12c-.79-.8-1.78-1.2-2.99-1.2s-2.21.4-2.99,1.2-1.18,1.84-1.18,3.12.39,2.31,1.18,3.12Z"/>
    <path class="cls-2" d="M106.38,164.05v-7.15h2.78v13.21h-2.78v-2.41c-.45.81-1.06,1.45-1.85,1.91-.79.46-1.63.7-2.54.7-1.49,0-2.69-.46-3.61-1.37s-1.38-2.23-1.38-3.95v-8.1h2.78v7.25c0,2.43,1.01,3.65,3.03,3.65.96,0,1.8-.32,2.51-.96.71-.64,1.07-1.57,1.07-2.79Z"/>
    <path class="cls-2" d="M122.59,166.16c0,1.26-.46,2.26-1.37,3.02-.91.75-2.08,1.13-3.5,1.13-.96,0-1.96-.17-2.99-.52-1.04-.35-1.95-.83-2.74-1.46l1.34-2.16c1.54,1.16,3.03,1.74,4.47,1.74.63,0,1.13-.14,1.49-.43.36-.29.55-.66.55-1.11,0-.66-.88-1.26-2.63-1.79-.13-.05-.23-.08-.3-.1-2.75-.75-4.12-1.99-4.12-3.72,0-1.23.48-2.21,1.43-2.94.95-.74,2.19-1.11,3.71-1.11s2.96.45,4.32,1.34l-1.04,2.06c-1.08-.71-2.24-1.07-3.5-1.07-.66,0-1.2.12-1.61.36-.41.24-.62.6-.62,1.08,0,.43.21.75.65.94.3.15.72.29,1.25.42.54.13,1.01.26,1.43.4.41.13.82.28,1.21.45.39.17.81.4,1.25.7.89.6,1.34,1.52,1.34,2.78Z"/>
    <path class="cls-2" d="M141.96,166.16c0,1.26-.46,2.26-1.37,3.02-.91.75-2.08,1.13-3.5,1.13-.96,0-1.96-.17-2.99-.52-1.04-.35-1.95-.83-2.74-1.46l1.34-2.16c1.54,1.16,3.03,1.74,4.47,1.74.63,0,1.13-.14,1.49-.43.36-.29.55-.66.55-1.11,0-.66-.88-1.26-2.63-1.79-.13-.05-.23-.08-.3-.1-2.75-.75-4.12-1.99-4.12-3.72,0-1.23.48-2.21,1.43-2.94.95-.74,2.19-1.11,3.71-1.11s2.96.45,4.32,1.34l-1.04,2.06c-1.08-.71-2.24-1.07-3.5-1.07-.66,0-1.2.12-1.61.36-.41.24-.62.6-.62,1.08,0,.43.21.75.65.94.3.15.72.29,1.25.42.54.13,1.01.26,1.43.4.41.13.82.28,1.21.45.39.17.81.4,1.25.7.89.6,1.34,1.52,1.34,2.78Z"/>
    <path class="cls-2" d="M157.4,164.72h-10.35c.07.96.5,1.73,1.32,2.32.81.59,1.74.88,2.78.88,1.66,0,2.91-.52,3.77-1.56l1.59,1.74c-1.42,1.47-3.28,2.21-5.56,2.21-1.85,0-3.43-.62-4.73-1.85s-1.95-2.89-1.95-4.97.66-3.73,1.99-4.95c1.32-1.23,2.88-1.84,4.68-1.84s3.32.54,4.58,1.63c1.26,1.08,1.89,2.58,1.89,4.48v1.91ZM147.05,162.53h7.57c0-1.11-.35-1.96-1.04-2.56-.7-.6-1.55-.89-2.57-.89s-1.93.31-2.74.93c-.81.62-1.22,1.46-1.22,2.52Z"/>
    <path class="cls-2" d="M167.39,159.5c-1.37,0-2.41.45-3.1,1.34-.7.89-1.04,2.09-1.04,3.6v5.66h-2.78v-13.21h2.78v2.66c.45-.83,1.05-1.51,1.83-2.04.77-.53,1.58-.8,2.45-.82l.03,2.81h-.15Z"/>
    <path class="cls-2" d="M182.61,164.72h-10.35c.07.96.5,1.73,1.32,2.32.81.59,1.74.88,2.78.88,1.66,0,2.91-.52,3.77-1.56l1.59,1.74c-1.42,1.47-3.28,2.21-5.56,2.21-1.85,0-3.43-.62-4.73-1.85s-1.95-2.89-1.95-4.97.66-3.73,1.99-4.95c1.32-1.23,2.88-1.84,4.68-1.84s3.32.54,4.58,1.63c1.26,1.08,1.89,2.58,1.89,4.48v1.91ZM172.25,162.53h7.57c0-1.11-.35-1.96-1.04-2.56-.7-.6-1.55-.89-2.57-.89s-1.93.31-2.74.93c-.81.62-1.22,1.46-1.22,2.52Z"/>
    <path class="cls-2" d="M185.24,159.33v-2.38h10.33v2.51l-7.42,8.25h7.82v2.41h-11.22v-2.71l7.23-8.07h-6.73Z"/>
    <path class="cls-2" d="M212.83,159.5c-1.37,0-2.41.45-3.1,1.34-.7.89-1.04,2.09-1.04,3.6v5.66h-2.78v-13.21h2.78v2.66c.45-.83,1.05-1.51,1.83-2.04.77-.53,1.58-.8,2.45-.82l.03,2.81h-.15Z"/>
    <path class="cls-2" d="M228.05,164.72h-10.35c.07.96.5,1.73,1.32,2.32.81.59,1.74.88,2.78.88,1.66,0,2.91-.52,3.77-1.56l1.59,1.74c-1.42,1.47-3.28,2.21-5.56,2.21-1.85,0-3.43-.62-4.73-1.85s-1.95-2.89-1.95-4.97.66-3.73,1.99-4.95c1.32-1.23,2.88-1.84,4.68-1.84s3.32.54,4.58,1.63c1.26,1.08,1.89,2.58,1.89,4.48v1.91ZM217.69,162.53h7.57c0-1.11-.35-1.96-1.04-2.56-.7-.6-1.55-.89-2.57-.89s-1.93.31-2.74.93c-.81.62-1.22,1.46-1.22,2.52Z"/>
    <path class="cls-2" d="M232.12,168.42c-1.24-1.26-1.86-2.91-1.86-4.97s.64-3.69,1.91-4.92c1.27-1.23,2.79-1.84,4.56-1.84s3.18.75,4.26,2.23v-7.25h2.78v18.42h-2.78v-1.99c-1.03,1.46-2.52,2.18-4.5,2.18-1.67,0-3.13-.63-4.37-1.89ZM233.04,163.56c0,1.27.41,2.3,1.22,3.09.81.79,1.76,1.19,2.86,1.19s2.02-.4,2.78-1.2,1.14-1.83,1.14-3.09-.38-2.31-1.14-3.15c-.76-.84-1.7-1.27-2.81-1.27s-2.06.42-2.86,1.27c-.79.84-1.19,1.9-1.19,3.17Z"/>
    <path class="cls-2" d="M247.96,154.26c-.35-.35-.52-.76-.52-1.24s.17-.89.52-1.24.76-.52,1.24-.52.89.17,1.24.52.52.76.52,1.24-.17.89-.52,1.24-.76.52-1.24.52-.89-.17-1.24-.52ZM250.57,170.11h-2.78v-13.21h2.78v13.21Z"/>
    <path class="cls-2" d="M261.52,159.5c-1.37,0-2.41.45-3.1,1.34-.7.89-1.04,2.09-1.04,3.6v5.66h-2.78v-13.21h2.78v2.66c.45-.83,1.05-1.51,1.83-2.04.77-.53,1.58-.8,2.45-.82l.03,2.81h-.15Z"/>
    <path class="cls-2" d="M264.62,154.26c-.35-.35-.52-.76-.52-1.24s.17-.89.52-1.24.76-.52,1.24-.52.89.17,1.24.52.52.76.52,1.24-.17.89-.52,1.24-.76.52-1.24.52-.89-.17-1.24-.52ZM267.23,170.11h-2.78v-13.21h2.78v13.21Z"/>
    <path class="cls-2" d="M283.47,156.9v11.52c0,2.33-.63,4.08-1.9,5.25s-2.89,1.75-4.88,1.75-3.78-.62-5.39-1.86l1.32-2.11c1.29.98,2.59,1.46,3.91,1.46s2.36-.34,3.13-1.02,1.15-1.76,1.15-3.25v-1.69c-.41.78-1,1.4-1.78,1.86-.77.46-1.63.7-2.59.7-1.75,0-3.2-.61-4.32-1.84-1.13-1.22-1.69-2.75-1.69-4.57s.56-3.34,1.69-4.57c1.12-1.23,2.56-1.84,4.31-1.84s3.17.72,4.26,2.16v-1.96h2.78ZM273.17,162.99c0,1.08.33,2.02,1,2.81.67.79,1.57,1.18,2.71,1.18s2.05-.38,2.76-1.14c.7-.76,1.05-1.71,1.05-2.84s-.36-2.09-1.07-2.88c-.71-.79-1.63-1.18-2.76-1.18s-2.02.41-2.69,1.22c-.67.81-1,1.76-1,2.84Z"/>
    <path class="cls-2" d="M299.79,164.72h-10.35c.07.96.5,1.73,1.32,2.32.81.59,1.74.88,2.78.88,1.66,0,2.91-.52,3.77-1.56l1.59,1.74c-1.42,1.47-3.28,2.21-5.56,2.21-1.85,0-3.43-.62-4.73-1.85s-1.95-2.89-1.95-4.97.66-3.73,1.99-4.95c1.32-1.23,2.88-1.84,4.68-1.84s3.32.54,4.58,1.63c1.26,1.08,1.89,2.58,1.89,4.48v1.91ZM289.43,162.53h7.57c0-1.11-.35-1.96-1.04-2.56-.7-.6-1.55-.89-2.57-.89s-1.93.31-2.74.93c-.81.62-1.22,1.46-1.22,2.52ZM294.82,155.16h-2.53l2.63-3.6,2.93,1.22-3.03,2.38Z"/>
    <path class="cls-2" d="M313.15,170.11l-5.31-13.21h2.88l4.02,9.98,4.02-9.98h2.88l-5.31,13.21h-3.18Z"/>
    <path class="cls-2" d="M336.14,164.72h-10.35c.07.96.5,1.73,1.32,2.32.81.59,1.74.88,2.78.88,1.66,0,2.91-.52,3.77-1.56l1.59,1.74c-1.42,1.47-3.28,2.21-5.56,2.21-1.85,0-3.43-.62-4.73-1.85s-1.95-2.89-1.95-4.97.66-3.73,1.99-4.95c1.32-1.23,2.88-1.84,4.68-1.84s3.32.54,4.58,1.63c1.26,1.08,1.89,2.58,1.89,4.48v1.91ZM325.78,162.53h7.57c0-1.11-.35-1.96-1.04-2.56-.7-.6-1.55-.89-2.57-.89s-1.93.31-2.74.93c-.81.62-1.22,1.46-1.22,2.52Z"/>
    <path class="cls-2" d="M346.12,159.5c-1.37,0-2.41.45-3.1,1.34-.7.89-1.04,2.09-1.04,3.6v5.66h-2.78v-13.21h2.78v2.66c.45-.83,1.05-1.51,1.83-2.04.77-.53,1.58-.8,2.45-.82l.03,2.81h-.15Z"/>
    <path class="cls-2" d="M358.46,166.16c0,1.26-.46,2.26-1.37,3.02-.91.75-2.08,1.13-3.5,1.13-.96,0-1.96-.17-2.99-.52-1.04-.35-1.95-.83-2.74-1.46l1.34-2.16c1.54,1.16,3.03,1.74,4.47,1.74.63,0,1.13-.14,1.49-.43.36-.29.55-.66.55-1.11,0-.66-.88-1.26-2.63-1.79-.13-.05-.23-.08-.3-.1-2.75-.75-4.12-1.99-4.12-3.72,0-1.23.48-2.21,1.43-2.94.95-.74,2.19-1.11,3.71-1.11s2.96.45,4.32,1.34l-1.04,2.06c-1.08-.71-2.24-1.07-3.5-1.07-.66,0-1.2.12-1.61.36-.41.24-.62.6-.62,1.08,0,.43.21.75.65.94.3.15.72.29,1.25.42.54.13,1.01.26,1.43.4.41.13.82.28,1.21.45.39.17.81.4,1.25.7.89.6,1.34,1.52,1.34,2.78Z"/>
    <path class="cls-2" d="M371.2,162.96v7.15h-2.78v-13.21h2.78v2.41c.45-.81,1.06-1.45,1.85-1.91.79-.46,1.63-.7,2.54-.7,1.49,0,2.69.46,3.61,1.37.92.91,1.38,2.23,1.38,3.95v8.09h-2.78v-7.25c0-2.43-1.01-3.65-3.03-3.65-.96,0-1.8.32-2.51.96-.71.64-1.07,1.57-1.07,2.79Z"/>
    <path class="cls-2" d="M395.51,168.33c-1.32,1.32-2.98,1.97-4.97,1.97s-3.64-.66-4.97-1.97c-1.33-1.32-1.99-2.93-1.99-4.83s.66-3.51,1.99-4.83c1.32-1.32,2.98-1.97,4.97-1.97s3.64.66,4.97,1.97c1.32,1.32,1.99,2.93,1.99,4.83s-.66,3.51-1.99,4.83ZM387.55,166.62c.79.8,1.78,1.21,2.99,1.21s2.21-.4,2.99-1.21c.79-.8,1.18-1.84,1.18-3.12s-.39-2.31-1.18-3.12c-.79-.8-1.78-1.2-2.99-1.2s-2.21.4-2.99,1.2-1.18,1.84-1.18,3.12.39,2.31,1.18,3.12Z"/>
    <path class="cls-2" d="M403.88,159.13v6.7c0,.63.17,1.13.5,1.5.33.37.79.56,1.39.56s1.17-.29,1.71-.87l1.14,1.96c-.98.88-2.06,1.32-3.24,1.32s-2.19-.41-3.03-1.23-1.25-1.92-1.25-3.32v-6.63h-1.66v-2.24h1.66v-4.15h2.78v4.15h3.48v2.24h-3.48Z"/>
    <path class="cls-2" d="M417.76,159.5c-1.37,0-2.41.45-3.1,1.34-.7.89-1.04,2.09-1.04,3.6v5.66h-2.78v-13.21h2.78v2.66c.45-.83,1.05-1.51,1.83-2.04.77-.53,1.58-.8,2.45-.82l.03,2.81h-.15Z"/>
    <path class="cls-2" d="M432.98,164.72h-10.35c.07.96.5,1.73,1.32,2.32.81.59,1.74.88,2.78.88,1.66,0,2.91-.52,3.77-1.56l1.59,1.74c-1.42,1.47-3.28,2.21-5.56,2.21-1.85,0-3.43-.62-4.73-1.85s-1.95-2.89-1.95-4.97.66-3.73,1.99-4.95c1.32-1.23,2.88-1.84,4.68-1.84s3.32.54,4.58,1.63c1.26,1.08,1.89,2.58,1.89,4.48v1.91ZM422.63,162.53h7.57c0-1.11-.35-1.96-1.04-2.56-.7-.6-1.55-.89-2.57-.89s-1.93.31-2.74.93c-.81.62-1.22,1.46-1.22,2.52Z"/>
    <path class="cls-2" d="M455.13,164.72h-10.35c.07.96.5,1.73,1.32,2.32.81.59,1.74.88,2.78.88,1.66,0,2.91-.52,3.77-1.56l1.59,1.74c-1.42,1.47-3.28,2.21-5.56,2.21-1.85,0-3.43-.62-4.73-1.85s-1.95-2.89-1.95-4.97.66-3.73,1.99-4.95c1.32-1.23,2.88-1.84,4.68-1.84s3.32.54,4.58,1.63c1.26,1.08,1.89,2.58,1.89,4.48v1.91ZM444.78,162.53h7.57c0-1.11-.35-1.96-1.04-2.56-.7-.6-1.55-.89-2.57-.89s-1.93.31-2.74.93c-.81.62-1.22,1.46-1.22,2.52ZM450.17,155.16h-2.53l2.63-3.6,2.93,1.22-3.03,2.38Z"/>
    <path class="cls-2" d="M463.59,170.3c-1.66,0-3.12-.64-4.37-1.91-1.25-1.27-1.88-2.93-1.88-4.97s.63-3.67,1.89-4.89c1.26-1.23,2.77-1.84,4.54-1.84s3.2.84,4.3,2.51v-2.31h2.78v18.03h-2.78v-6.8c-1.33,1.46-2.82,2.18-4.48,2.18ZM460.12,163.54c0,1.27.41,2.3,1.22,3.09.81.79,1.76,1.19,2.86,1.19s2.02-.4,2.78-1.21c.76-.8,1.14-1.83,1.14-3.09s-.38-2.31-1.14-3.14-1.7-1.25-2.81-1.25-2.06.42-2.86,1.25c-.79.84-1.19,1.89-1.19,3.15Z"/>
    <path class="cls-2" d="M484.11,164.05v-7.15h2.78v13.21h-2.78v-2.41c-.45.81-1.06,1.45-1.85,1.91-.79.46-1.63.7-2.54.7-1.49,0-2.69-.46-3.61-1.37s-1.38-2.23-1.38-3.95v-8.1h2.78v7.25c0,2.43,1.01,3.65,3.03,3.65.96,0,1.8-.32,2.51-.96.71-.64,1.07-1.57,1.07-2.79Z"/>
    <path class="cls-2" d="M491.09,154.26c-.35-.35-.52-.76-.52-1.24s.17-.89.52-1.24.76-.52,1.24-.52.89.17,1.24.52.52.76.52,1.24-.17.89-.52,1.24-.76.52-1.24.52-.89-.17-1.24-.52ZM493.7,170.11h-2.78v-13.21h2.78v13.21Z"/>
    <path class="cls-2" d="M504.79,156.7c1.77,0,3.29.61,4.54,1.84,1.26,1.22,1.89,2.86,1.89,4.89s-.62,3.69-1.87,4.97c-1.25,1.28-2.71,1.91-4.37,1.91s-3.16-.73-4.48-2.18v6.8h-2.78v-18.03h2.78v2.31c1.09-1.67,2.52-2.51,4.3-2.51ZM500.45,163.53c0,1.26.38,2.29,1.14,3.09.76.8,1.69,1.21,2.78,1.21s2.04-.4,2.86-1.19c.81-.79,1.22-1.83,1.22-3.09s-.4-2.32-1.19-3.15-1.75-1.25-2.86-1.25-2.04.42-2.81,1.25-1.14,1.88-1.14,3.14Z"/>
    <path class="cls-2" d="M526.7,164.72h-10.35c.07.96.5,1.73,1.32,2.32.81.59,1.74.88,2.78.88,1.66,0,2.91-.52,3.77-1.56l1.59,1.74c-1.42,1.47-3.28,2.21-5.56,2.21-1.85,0-3.43-.62-4.73-1.85s-1.95-2.89-1.95-4.97.66-3.73,1.99-4.95c1.32-1.23,2.88-1.84,4.68-1.84s3.32.54,4.58,1.63c1.26,1.08,1.89,2.58,1.89,4.48v1.91ZM516.34,162.53h7.57c0-1.11-.35-1.96-1.04-2.56-.7-.6-1.55-.89-2.57-.89s-1.93.31-2.74.93c-.81.62-1.22,1.46-1.22,2.52Z"/>
    <path class="cls-2" d="M71.71,186.7c1.77,0,3.29.61,4.54,1.84,1.26,1.22,1.89,2.86,1.89,4.89s-.62,3.69-1.87,4.97c-1.25,1.28-2.71,1.91-4.37,1.91s-3.16-.73-4.48-2.18v6.8h-2.78v-18.03h2.78v2.31c1.09-1.67,2.52-2.51,4.3-2.51ZM67.36,193.53c0,1.26.38,2.29,1.14,3.09.76.8,1.69,1.21,2.78,1.21s2.04-.4,2.86-1.19c.81-.79,1.22-1.83,1.22-3.09s-.4-2.32-1.19-3.15-1.75-1.25-2.86-1.25-2.04.42-2.81,1.25-1.14,1.88-1.14,3.14Z"/>
    <path class="cls-2" d="M92.37,198.33c-1.32,1.32-2.98,1.97-4.97,1.97s-3.64-.66-4.97-1.97c-1.33-1.32-1.99-2.93-1.99-4.83s.66-3.51,1.99-4.83c1.32-1.32,2.98-1.97,4.97-1.97s3.64.66,4.97,1.97c1.32,1.32,1.99,2.93,1.99,4.83s-.66,3.51-1.99,4.83ZM84.41,196.62c.79.8,1.78,1.21,2.99,1.21s2.21-.4,2.99-1.21c.79-.8,1.18-1.84,1.18-3.12s-.39-2.31-1.18-3.12c-.79-.8-1.78-1.2-2.99-1.2s-2.21.4-2.99,1.2-1.18,1.84-1.18,3.12.39,2.31,1.18,3.12Z"/>
    <path class="cls-2" d="M106.75,194.05v-7.15h2.78v13.21h-2.78v-2.41c-.45.81-1.06,1.45-1.85,1.91-.79.46-1.63.7-2.54.7-1.49,0-2.69-.46-3.61-1.37s-1.38-2.23-1.38-3.95v-8.1h2.78v7.25c0,2.43,1.01,3.65,3.03,3.65.96,0,1.8-.32,2.51-.96.71-.64,1.07-1.57,1.07-2.79Z"/>
    <path class="cls-2" d="M120.48,189.5c-1.37,0-2.41.45-3.1,1.34-.7.89-1.04,2.09-1.04,3.6v5.66h-2.78v-13.21h2.78v2.66c.45-.83,1.05-1.51,1.83-2.04.77-.53,1.58-.8,2.45-.82l.03,2.81h-.15Z"/>
    <path class="cls-2" d="M133.64,185.8v1.09h3.48v2.24h-3.48v10.98h-2.78v-10.98h-1.66v-2.24h1.66v-1.02c0-1.39.42-2.5,1.25-3.32s1.85-1.23,3.03-1.23,2.26.44,3.24,1.32l-1.14,1.96c-.55-.58-1.12-.87-1.71-.87s-1.06.19-1.39.56c-.33.37-.5.87-.5,1.5Z"/>
    <path class="cls-2" d="M139.97,184.26c-.35-.35-.52-.76-.52-1.24s.17-.89.52-1.24.76-.52,1.24-.52.89.17,1.24.52.52.76.52,1.24-.17.89-.52,1.24-.76.52-1.24.52-.89-.17-1.24-.52ZM142.58,200.11h-2.78v-13.21h2.78v13.21Z"/>
    <path class="cls-2" d="M149.38,192.96v7.15h-2.78v-13.21h2.78v2.41c.45-.81,1.06-1.45,1.85-1.91.79-.46,1.63-.7,2.54-.7,1.49,0,2.69.46,3.61,1.37.92.91,1.38,2.23,1.38,3.95v8.09h-2.78v-7.25c0-2.43-1.01-3.65-3.03-3.65-.96,0-1.8.32-2.51.96-.71.64-1.07,1.57-1.07,2.79Z"/>
    <path class="cls-2" d="M173.34,200.11h-2.53v-1.76c-1.09,1.31-2.56,1.96-4.39,1.96-1.38,0-2.51-.39-3.42-1.17-.9-.78-1.35-1.82-1.35-3.12s.48-2.27,1.44-2.92,2.26-.97,3.9-.97h3.6v-.5c0-1.75-.98-2.63-2.93-2.63-1.23,0-2.5.45-3.82,1.34l-1.24-1.74c1.61-1.27,3.43-1.91,5.46-1.91,1.56,0,2.83.39,3.81,1.18.98.79,1.48,2.02,1.48,3.71v8.52ZM170.56,195.19v-1.12h-3.13c-2,0-3,.63-3,1.89,0,.65.25,1.14.75,1.48.5.34,1.19.51,2.07.51s1.66-.25,2.32-.75.99-1.17.99-2.01Z"/>
    <path class="cls-2" d="M180,200.11h-2.78v-18.42h2.78v18.42Z"/>
    <path class="cls-2" d="M184.2,184.26c-.35-.35-.52-.76-.52-1.24s.17-.89.52-1.24.76-.52,1.24-.52.89.17,1.24.52.52.76.52,1.24-.17.89-.52,1.24-.76.52-1.24.52-.89-.17-1.24-.52ZM186.8,200.11h-2.78v-13.21h2.78v13.21Z"/>
    <path class="cls-2" d="M200.24,196.16c0,1.26-.46,2.26-1.37,3.02-.91.75-2.08,1.13-3.5,1.13-.96,0-1.96-.17-2.99-.52-1.04-.35-1.95-.83-2.74-1.46l1.34-2.16c1.54,1.16,3.03,1.74,4.47,1.74.63,0,1.13-.14,1.49-.43.36-.29.55-.66.55-1.11,0-.66-.88-1.26-2.63-1.79-.13-.05-.23-.08-.3-.1-2.75-.75-4.12-1.99-4.12-3.72,0-1.23.48-2.21,1.43-2.94.95-.74,2.19-1.11,3.71-1.11s2.96.45,4.32,1.34l-1.04,2.06c-1.08-.71-2.24-1.07-3.5-1.07-.66,0-1.2.12-1.61.36-.41.24-.62.6-.62,1.08,0,.43.21.75.65.94.3.15.72.29,1.25.42.54.13,1.01.26,1.43.4.41.13.82.28,1.21.45.39.17.81.4,1.25.7.89.6,1.34,1.52,1.34,2.78Z"/>
    <path class="cls-2" d="M215.68,194.72h-10.35c.07.96.5,1.73,1.32,2.32.81.59,1.74.88,2.78.88,1.66,0,2.91-.52,3.77-1.56l1.59,1.74c-1.42,1.47-3.28,2.21-5.56,2.21-1.85,0-3.43-.62-4.73-1.85s-1.95-2.89-1.95-4.97.66-3.73,1.99-4.95c1.32-1.23,2.88-1.84,4.68-1.84s3.32.54,4.58,1.63c1.26,1.08,1.89,2.58,1.89,4.48v1.91ZM205.33,192.53h7.57c0-1.11-.35-1.96-1.04-2.56-.7-.6-1.55-.89-2.57-.89s-1.93.31-2.74.93c-.81.62-1.22,1.46-1.22,2.52Z"/>
    <path class="cls-2" d="M225.66,189.5c-1.37,0-2.41.45-3.1,1.34-.7.89-1.04,2.09-1.04,3.6v5.66h-2.78v-13.21h2.78v2.66c.45-.83,1.05-1.51,1.83-2.04.77-.53,1.58-.8,2.45-.82l.03,2.81h-.15Z"/>
    <path class="cls-2" d="M238.9,200.11l-5.31-13.21h2.88l4.02,9.98,4.02-9.98h2.88l-5.31,13.21h-3.18Z"/>
    <path class="cls-2" d="M260.43,198.33c-1.32,1.32-2.98,1.97-4.97,1.97s-3.64-.66-4.97-1.97c-1.33-1.32-1.99-2.93-1.99-4.83s.66-3.51,1.99-4.83c1.32-1.32,2.98-1.97,4.97-1.97s3.64.66,4.97,1.97c1.32,1.32,1.99,2.93,1.99,4.83s-.66,3.51-1.99,4.83ZM252.47,196.62c.79.8,1.78,1.21,2.99,1.21s2.21-.4,2.99-1.21c.79-.8,1.18-1.84,1.18-3.12s-.39-2.31-1.18-3.12c-.79-.8-1.78-1.2-2.99-1.2s-2.21.4-2.99,1.2-1.18,1.84-1.18,3.12.39,2.31,1.18,3.12Z"/>
    <path class="cls-2" d="M268.8,189.13v6.7c0,.63.17,1.13.5,1.5.33.37.79.56,1.39.56s1.17-.29,1.71-.87l1.14,1.96c-.98.88-2.06,1.32-3.24,1.32s-2.19-.41-3.03-1.23-1.25-1.92-1.25-3.32v-6.63h-1.66v-2.24h1.66v-4.15h2.78v4.15h3.48v2.24h-3.48Z"/>
    <path class="cls-2" d="M282.68,189.5c-1.37,0-2.41.45-3.1,1.34-.7.89-1.04,2.09-1.04,3.6v5.66h-2.78v-13.21h2.78v2.66c.45-.83,1.05-1.51,1.83-2.04.77-.53,1.58-.8,2.45-.82l.03,2.81h-.15Z"/>
    <path class="cls-2" d="M297.9,194.72h-10.35c.07.96.5,1.73,1.32,2.32.81.59,1.74.88,2.78.88,1.66,0,2.91-.52,3.77-1.56l1.59,1.74c-1.42,1.47-3.28,2.21-5.56,2.21-1.85,0-3.43-.62-4.73-1.85s-1.95-2.89-1.95-4.97.66-3.73,1.99-4.95c1.32-1.23,2.88-1.84,4.68-1.84s3.32.54,4.58,1.63c1.26,1.08,1.89,2.58,1.89,4.48v1.91ZM287.54,192.53h7.57c0-1.11-.35-1.96-1.04-2.56-.7-.6-1.55-.89-2.57-.89s-1.93.31-2.74.93c-.81.62-1.22,1.46-1.22,2.52Z"/>
    <path class="cls-2" d="M313.62,200.3c-1.84,0-3.42-.62-4.74-1.87-1.33-1.25-1.99-2.88-1.99-4.9s.69-3.66,2.07-4.93c1.38-1.27,3.07-1.9,5.05-1.9s3.67.69,5.04,2.06l-1.64,2.01c-1.14-.99-2.29-1.49-3.45-1.49s-2.17.39-3.02,1.16-1.28,1.76-1.28,2.98.42,2.25,1.27,3.09c.84.84,1.88,1.27,3.12,1.27s2.4-.56,3.49-1.69l1.64,1.79c-1.61,1.62-3.46,2.43-5.56,2.43Z"/>
    <path class="cls-2" d="M332.84,198.33c-1.32,1.32-2.98,1.97-4.97,1.97s-3.64-.66-4.97-1.97c-1.33-1.32-1.99-2.93-1.99-4.83s.66-3.51,1.99-4.83c1.32-1.32,2.98-1.97,4.97-1.97s3.64.66,4.97,1.97c1.32,1.32,1.99,2.93,1.99,4.83s-.66,3.51-1.99,4.83ZM324.88,196.62c.79.8,1.78,1.21,2.99,1.21s2.21-.4,2.99-1.21c.79-.8,1.18-1.84,1.18-3.12s-.39-2.31-1.18-3.12c-.79-.8-1.78-1.2-2.99-1.2s-2.21.4-2.99,1.2-1.18,1.84-1.18,3.12.39,2.31,1.18,3.12Z"/>
    <path class="cls-2" d="M340.76,192.96v7.15h-2.78v-13.21h2.78v2.41c.4-.81,1-1.45,1.8-1.91.8-.46,1.67-.7,2.59-.7,2.09,0,3.5.86,4.25,2.58,1.31-1.72,2.94-2.58,4.89-2.58,1.49,0,2.69.46,3.61,1.37.92.91,1.38,2.23,1.38,3.95v8.09h-2.78v-7.25c0-2.43-1.01-3.65-3.03-3.65-.94,0-1.77.3-2.47.91-.7.6-1.07,1.49-1.11,2.64v7.35h-2.78v-7.25c0-1.26-.22-2.18-.67-2.77-.45-.59-1.15-.88-2.11-.88s-1.8.32-2.51.96c-.71.64-1.07,1.57-1.07,2.79Z"/>
    <path class="cls-2" d="M365.94,192.96v7.15h-2.78v-13.21h2.78v2.41c.4-.81,1-1.45,1.8-1.91.8-.46,1.67-.7,2.59-.7,2.09,0,3.5.86,4.25,2.58,1.31-1.72,2.94-2.58,4.89-2.58,1.49,0,2.69.46,3.61,1.37.92.91,1.38,2.23,1.38,3.95v8.09h-2.78v-7.25c0-2.43-1.01-3.65-3.03-3.65-.94,0-1.77.3-2.47.91-.7.6-1.07,1.49-1.11,2.64v7.35h-2.78v-7.25c0-1.26-.22-2.18-.67-2.77-.45-.59-1.15-.88-2.11-.88s-1.8.32-2.51.96c-.71.64-1.07,1.57-1.07,2.79Z"/>
    <path class="cls-2" d="M399.04,200.11h-2.53v-1.76c-1.09,1.31-2.56,1.96-4.39,1.96-1.38,0-2.51-.39-3.42-1.17-.9-.78-1.35-1.82-1.35-3.12s.48-2.27,1.44-2.92,2.26-.97,3.9-.97h3.6v-.5c0-1.75-.98-2.63-2.93-2.63-1.23,0-2.5.45-3.82,1.34l-1.24-1.74c1.61-1.27,3.43-1.91,5.46-1.91,1.56,0,2.83.39,3.81,1.18.98.79,1.48,2.02,1.48,3.71v8.52ZM396.26,195.19v-1.12h-3.13c-2,0-3,.63-3,1.89,0,.65.25,1.14.75,1.48.5.34,1.19.51,2.07.51s1.66-.25,2.32-.75.99-1.17.99-2.01Z"/>
    <path class="cls-2" d="M405.69,192.96v7.15h-2.78v-13.21h2.78v2.41c.45-.81,1.06-1.45,1.85-1.91.79-.46,1.63-.7,2.54-.7,1.49,0,2.69.46,3.61,1.37.92.91,1.38,2.23,1.38,3.95v8.09h-2.78v-7.25c0-2.43-1.01-3.65-3.03-3.65-.96,0-1.8.32-2.51.96-.71.64-1.07,1.57-1.07,2.79Z"/>
    <path class="cls-2" d="M419.97,198.42c-1.24-1.26-1.86-2.91-1.86-4.97s.64-3.69,1.91-4.92c1.27-1.23,2.79-1.84,4.56-1.84s3.18.75,4.26,2.23v-7.25h2.78v18.42h-2.78v-1.99c-1.03,1.46-2.52,2.18-4.5,2.18-1.67,0-3.13-.63-4.37-1.89ZM420.89,193.56c0,1.27.41,2.3,1.22,3.09.81.79,1.76,1.19,2.86,1.19s2.02-.4,2.78-1.2,1.14-1.83,1.14-3.09-.38-2.31-1.14-3.15c-.76-.84-1.7-1.27-2.81-1.27s-2.06.42-2.86,1.27c-.79.84-1.19,1.9-1.19,3.17Z"/>
    <path class="cls-2" d="M447.93,194.72h-10.35c.07.96.5,1.73,1.32,2.32.81.59,1.74.88,2.78.88,1.66,0,2.91-.52,3.77-1.56l1.59,1.74c-1.42,1.47-3.28,2.21-5.56,2.21-1.85,0-3.43-.62-4.73-1.85s-1.95-2.89-1.95-4.97.66-3.73,1.99-4.95c1.32-1.23,2.88-1.84,4.68-1.84s3.32.54,4.58,1.63c1.26,1.08,1.89,2.58,1.89,4.48v1.91ZM437.58,192.53h7.57c0-1.11-.35-1.96-1.04-2.56-.7-.6-1.55-.89-2.57-.89s-1.93.31-2.74.93c-.81.62-1.22,1.46-1.22,2.52Z"/>
    <path class="cls-2" d="M451.15,199.76c-.36-.36-.53-.8-.53-1.32s.18-.95.53-1.3.79-.53,1.3-.53.95.18,1.32.53c.36.36.55.79.55,1.3s-.18.95-.55,1.32c-.37.36-.8.55-1.32.55s-.95-.18-1.3-.55Z"/>
    <path class="cls-2" d="M458.1,199.76c-.36-.36-.53-.8-.53-1.32s.18-.95.53-1.3.79-.53,1.3-.53.95.18,1.32.53c.36.36.55.79.55,1.3s-.18.95-.55,1.32c-.37.36-.8.55-1.32.55s-.95-.18-1.3-.55Z"/>
    <path class="cls-2" d="M465.05,199.76c-.36-.36-.53-.8-.53-1.32s.18-.95.53-1.3.79-.53,1.3-.53.95.18,1.32.53c.36.36.55.79.55,1.3s-.18.95-.55,1.32c-.37.36-.8.55-1.32.55s-.95-.18-1.3-.55Z"/>
  </g>
  <g id="tQCE4O">
    <g>
      <path class="cls-2" d="M105.92,263.03c.85,0,1.69,0,2.54,0,.04,0,.08.02.12.02,1.03.04,2.05.13,3.08.28,1.61.23,3.2.58,4.76,1.05,2.49.75,4.84,1.8,7.07,3.13,2.46,1.47,4.67,3.25,6.65,5.31.89.92,1.72,1.9,2.49,2.92,1.53,2.03,2.8,4.21,3.81,6.55.89,2.06,1.55,4.2,1.98,6.4.33,1.7.53,3.42.58,5.15.04,1.4,0,2.8-.13,4.2-.14,1.37-.36,2.74-.68,4.08-.45,1.92-1.08,3.79-1.87,5.6-.86,1.96-1.92,3.81-3.15,5.56-1.5,2.12-3.23,4.03-5.2,5.73-1.87,1.62-3.89,3-6.08,4.15-2.41,1.26-4.94,2.2-7.58,2.81-2.11.49-4.25.74-6.42.81-1.16.04-2.31-.02-3.46-.12-1.42-.12-2.83-.34-4.23-.65-1.12-.25-2.22-.55-3.31-.92-1.67-.57-3.29-1.27-4.84-2.11-.1-.05-.19-.06-.3-.03-.2.06-.39.11-.59.16-2.54.67-5.09,1.34-7.63,2-2.38.62-4.76,1.24-7.13,1.87-.45.12-.9.26-1.37.34,0-.04,0-.08,0-.13.02-.05.04-.1.05-.15.35-1.29.7-2.57,1.06-3.86.66-2.41,1.32-4.82,1.98-7.23.45-1.64.89-3.28,1.35-4.92.05-.18.01-.32-.08-.47-.36-.63-.7-1.28-1.01-1.93-1.04-2.18-1.82-4.45-2.35-6.81-.36-1.63-.59-3.28-.7-4.95-.05-.82-.07-1.65-.06-2.48.02-1.12.09-2.24.23-3.35.23-1.91.63-3.78,1.21-5.62.51-1.63,1.14-3.2,1.9-4.73.97-1.95,2.13-3.78,3.48-5.49,1.35-1.71,2.85-3.26,4.5-4.67,1.4-1.19,2.89-2.24,4.48-3.17,1.69-.99,3.46-1.82,5.3-2.49,1.42-.51,2.88-.92,4.36-1.22,1.43-.29,2.87-.5,4.33-.58.28-.02.56-.03.84-.05ZM107.15,321.35c.66,0,1.33-.02,1.99-.07,1.94-.15,3.83-.5,5.69-1.07,1.59-.48,3.11-1.11,4.58-1.88,2.18-1.15,4.17-2.58,5.96-4.28,1.2-1.14,2.28-2.39,3.25-3.73.92-1.28,1.72-2.62,2.4-4.04.8-1.68,1.42-3.43,1.85-5.24.3-1.28.52-2.58.62-3.9.08-.98.1-1.96.08-2.95-.02-.66-.05-1.32-.12-1.97-.11-1.16-.31-2.3-.57-3.43-.48-2.07-1.21-4.06-2.18-5.95-1.34-2.62-3.08-4.95-5.2-6.99-.95-.92-1.96-1.76-3.04-2.53-2.42-1.72-5.06-3-7.91-3.83-1.36-.4-2.75-.68-4.16-.85-1.2-.14-2.4-.2-3.61-.18-1.04.01-2.08.08-3.11.22-1.64.22-3.24.59-4.81,1.11-2.31.77-4.47,1.83-6.48,3.19-1.8,1.22-3.43,2.64-4.88,4.26-1.33,1.48-2.49,3.09-3.45,4.82-1.21,2.17-2.1,4.46-2.65,6.89-.48,2.1-.72,4.23-.67,6.39.03,1.4.16,2.79.4,4.16.42,2.38,1.15,4.67,2.19,6.85.57,1.19,1.24,2.31,1.95,3.42.09.14.11.26.07.43-.33,1.17-.64,2.34-.96,3.51-.53,1.95-1.06,3.89-1.59,5.84-.04.15-.03.16.12.12.4-.1.81-.21,1.21-.32,2.78-.73,5.55-1.46,8.33-2.19.21-.05.37-.03.54.08.47.29.94.57,1.42.84,2.1,1.16,4.32,2.02,6.65,2.57,2.01.48,4.04.72,6.11.71Z"/>
      <path class="cls-2" d="M90.94,287.88c.01-1.57.29-2.93.92-4.2.36-.72.81-1.37,1.35-1.96.24-.26.48-.53.74-.77.52-.49,1.14-.76,1.85-.8.66-.03,1.33.02,1.99.03.45,0,.77.26,1.02.61.3.42.47.91.66,1.38.7,1.68,1.39,3.36,2.09,5.04.06.14.13.29.19.43.18.42.16.83-.03,1.26-.46,1.05-1.25,1.86-1.99,2.7-.09.1-.18.19-.27.29-.32.36-.35.76-.13,1.18.17.33.37.64.57.95.83,1.28,1.75,2.49,2.8,3.6,1.73,1.81,3.73,3.26,5.99,4.34.56.27,1.13.51,1.7.77.13.06.26.1.4.13.4.09.75-.02,1.02-.33.93-1.06,1.85-2.14,2.67-3.29.33-.47.71-.61,1.27-.47.38.09.73.25,1.08.41,1.02.47,2.03.95,3.03,1.45.93.46,1.87.92,2.8,1.39.09.05.18.11.27.16.24.16.35.39.37.67.06.83-.06,1.64-.26,2.44-.12.47-.24.94-.48,1.37-.34.62-.83,1.1-1.37,1.53-.76.6-1.6,1.08-2.5,1.46-.67.29-1.37.44-2.1.5-1.01.08-2.03.08-3.03-.1-.87-.16-1.71-.46-2.54-.74-1.3-.44-2.58-.93-3.82-1.51-1.29-.6-2.52-1.33-3.69-2.14-2.14-1.49-4.06-3.25-5.81-5.17-1.14-1.25-2.19-2.57-3.17-3.95-.69-.97-1.38-1.93-1.93-2.99-.71-1.35-1.29-2.76-1.54-4.28-.09-.52-.15-1.04-.13-1.41Z"/>
    </g>
  </g>
</svg>