<?xml version="1.0" encoding="UTF-8"?>
<svg id="Layer_1" data-name="Layer 1" xmlns="http://www.w3.org/2000/svg" xmlns:xlink="http://www.w3.org/1999/xlink" version="1.1" viewBox="0 0 283.5 68.6">
  <defs>
    <style>
      .cls-1 {
        fill: url(#linear-gradient);
      }

      .cls-1, .cls-2 {
        stroke-width: 0px;
      }

      .cls-3 {
        isolation: isolate;
      }

      .cls-2 {
        fill: #fff;
      }
    </style>
    <linearGradient id="linear-gradient" x1="-297.2" y1="131.8" x2="779.4" y2="-212.7" gradientTransform="translate(116 63) rotate(2.7) scale(1.1 -1) skewX(.6)" gradientUnits="userSpaceOnUse">
      <stop offset="0" stop-color="#39bcc5"/>
      <stop offset="1" stop-color="#231f20"/>
    </linearGradient>
  </defs>
  <rect class="cls-1" x="1.2" y="7.3" width="281" height="54" transform="translate(-1.6 7.5) rotate(-3)"/>
  <g class="cls-3">
    <g class="cls-3">
      <path class="cls-2" d="M27.2,30.2l5.8-.3,1.4,26.1-5.8.3-13.3-15.7.9,16.3-5.8.3-1.4-26.1,5.4-.3,13.7,16.1-.9-16.8Z"/>
      <path class="cls-2" d="M62.5,50.9c-2.5,2.7-5.7,4.2-9.5,4.4s-7.2-.9-9.9-3.4c-2.8-2.4-4.3-5.6-4.5-9.4-.2-3.8.9-7.1,3.5-9.8,2.5-2.7,5.7-4.2,9.5-4.4s7.2.9,9.9,3.4c2.8,2.4,4.3,5.6,4.5,9.4.2,3.8-1,7.1-3.5,9.8ZM60,41.4c-.1-2.3-1-4.3-2.6-5.8-1.6-1.6-3.5-2.3-5.6-2.2-2.2.1-4,1-5.4,2.8-1.4,1.7-2,3.7-1.9,6.1.1,2.3,1,4.3,2.5,5.8,1.6,1.6,3.5,2.3,5.6,2.2,2.2-.1,4-1,5.4-2.7,1.4-1.7,2-3.7,1.9-6Z"/>
      <path class="cls-2" d="M76.4,32.9c-.5.5-.8,1.1-.7,1.9,0,.8.4,1.3,1.1,1.8.7.4,2.3.9,4.8,1.3,2.5.5,4.5,1.3,5.9,2.4,1.4,1.1,2.2,2.9,2.3,5.2.1,2.3-.7,4.3-2.3,5.8-1.7,1.5-3.9,2.4-6.8,2.5-4.1.2-7.9-1.1-11.4-4l3.2-4.4c2.9,2.3,5.6,3.4,8,3.3,1.1,0,1.9-.3,2.5-.8.6-.5.9-1.1.8-1.9s-.4-1.4-1.1-1.8c-.7-.4-2-.8-3.9-1.2-3.1-.6-5.3-1.4-6.8-2.5-1.5-1.1-2.3-2.9-2.4-5.3-.1-2.5.7-4.4,2.4-5.9,1.7-1.4,3.9-2.2,6.6-2.4,1.7,0,3.5.1,5.3.6,1.8.5,3.3,1.3,4.7,2.3l-2.7,4.4c-2.4-1.6-4.7-2.3-7.2-2.2-1,0-1.7.3-2.3.8Z"/>
      <path class="cls-2" d="M126.8,47.6c-2.5,2.7-5.7,4.2-9.5,4.4s-7.2-.9-9.9-3.4c-2.8-2.4-4.3-5.6-4.5-9.4-.2-3.8.9-7.1,3.5-9.8,2.5-2.7,5.7-4.2,9.5-4.4s7.2.9,9.9,3.4c2.8,2.4,4.3,5.6,4.5,9.4.2,3.8-1,7.1-3.5,9.8ZM124.3,38.1c-.1-2.3-1-4.3-2.6-5.8-1.6-1.6-3.5-2.3-5.6-2.2-2.2.1-4,1-5.4,2.8-1.4,1.7-2,3.7-1.9,6.1.1,2.3,1,4.3,2.5,5.8,1.6,1.6,3.5,2.3,5.6,2.2,2.2-.1,4-1,5.4-2.7,1.4-1.7,2.1-3.7,1.9-6.1Z"/>
      <path class="cls-2" d="M152.4,23.7l.3,5.1-12.1.6.3,5.6,11.5-.6.3,5.1-11.5.6.5,10.2-5.8.3-1.4-26.1,17.9-.9Z"/>
      <path class="cls-2" d="M175.2,22.5l.3,5.1-12.1.6.3,5.6,11.5-.6.3,5.1-11.5.6.5,10.2-5.8.3-1.4-26.1,17.9-.9Z"/>
      <path class="cls-2" d="M201.8,29.8c.2,4.2-1.3,7-4.5,8.4l7.1,9-7.2.4-6.2-8-4,.2.4,8.3-5.8.3-1.4-26.1,9.9-.5c4.1-.2,7,.3,8.8,1.6s2.8,3.4,2.9,6.5ZM194.9,33.2c.7-.7,1-1.7.9-3.1,0-1.4-.5-2.3-1.3-2.8-.8-.5-2.1-.7-4-.6l-4.4.2.4,7.7,4.3-.2c2-.1,3.3-.5,4-1.2Z"/>
      <path class="cls-2" d="M226.1,19.8l.3,5.2-13,.7.3,5.4,11.7-.6.3,5-11.7.6.3,5.4,13.4-.7.3,5.2-19.2,1-1.4-26.1,18.8-1Z"/>
      <path class="cls-2" d="M238.1,24.4c-.5.5-.8,1.1-.7,1.9,0,.8.4,1.3,1.1,1.8.7.4,2.3.9,4.8,1.3,2.5.5,4.5,1.3,5.9,2.4,1.4,1.1,2.2,2.9,2.3,5.2.1,2.3-.7,4.3-2.3,5.8-1.7,1.5-3.9,2.4-6.8,2.5-4.1.2-7.9-1.1-11.4-4l3.2-4.4c2.9,2.3,5.6,3.4,8,3.3,1.1,0,1.9-.3,2.5-.8.6-.5.9-1.1.8-1.9s-.4-1.4-1.1-1.8c-.7-.4-2-.8-3.9-1.2-3.1-.6-5.3-1.4-6.8-2.5-1.5-1.1-2.3-2.9-2.4-5.3-.1-2.5.7-4.4,2.4-5.9s3.9-2.2,6.6-2.4c1.7,0,3.5.1,5.3.6,1.8.5,3.3,1.3,4.7,2.3l-2.7,4.4c-2.4-1.6-4.7-2.3-7.2-2.2-1,0-1.7.3-2.3.8Z"/>
    </g>
  </g>
</svg>