<?xml version="1.0" encoding="UTF-8"?>
<svg id="Calque_1" data-name="Calque 1" xmlns="http://www.w3.org/2000/svg" version="1.1" viewBox="0 0 177.6 97.2">
  <defs>
    <style>
      .cls-1 {
        fill: #fff;
        stroke-width: 0px;
      }
    </style>
  </defs>
  <path class="cls-1" d="M88.8,97.2c-39.7,0-65.8-24.1-79.9-37.1l-3.6-3.3c-2.3-2.1-3.7-5.1-3.7-8.3s1.3-6.1,3.7-8.2l3.6-3.3C22.9,24.1,49.1,0,88.8,0s65.9,24.1,79.9,37.1l3.6,3.3c2.3,2.1,3.7,5.1,3.7,8.2s-1.3,6.2-3.7,8.3l-3.6,3.3c-14,13-40.2,37.1-79.9,37.1ZM88.8,9.1c-36.1,0-60.6,22.5-73.7,34.6l-3.7,3.4c-.6.5-.6,1.1-.6,1.4s0,.9.6,1.4l3.7,3.4c13.1,12.1,37.6,34.6,73.7,34.6s60.6-22.5,73.7-34.6l3.7-3.4c.6-.5.6-1.1.6-1.4s0-.9-.6-1.4c0,0-3.7-3.4-3.7-3.4-13.1-12.1-37.6-34.6-73.7-34.6Z"/>
  <path class="cls-1" d="M88.8,75.8c-15,0-27.2-12.2-27.2-27.2s12.2-27.2,27.2-27.2,27.2,12.2,27.2,27.2-12.2,27.2-27.2,27.2ZM88.8,30.5c-10,0-18.1,8.1-18.1,18.1s8.1,18.1,18.1,18.1,18.1-8.1,18.1-18.1-8.1-18.1-18.1-18.1Z"/>
</svg>