<?xml version="1.0" encoding="UTF-8"?>
<svg id="Layer_1" data-name="Layer 1" xmlns="http://www.w3.org/2000/svg" xmlns:xlink="http://www.w3.org/1999/xlink" viewBox="0 0 247.39 213.54">
  <defs>
    <style>
      .cls-1 {
        fill: none;
        stroke: #fff;
        stroke-miterlimit: 10;
        stroke-width: .5px;
      }

      .cls-2 {
        fill: #ced3d4;
      }

      .cls-2, .cls-3, .cls-4, .cls-5, .cls-6, .cls-7, .cls-8, .cls-9, .cls-10, .cls-11, .cls-12 {
        stroke-width: 0px;
      }

      .cls-2, .cls-3, .cls-4, .cls-7, .cls-9, .cls-10 {
        fill-rule: evenodd;
      }

      .cls-3 {
        fill: #969b9a;
      }

      .cls-4, .cls-5 {
        fill: #b5bbbb;
      }

      .cls-6 {
        fill: #acb1b1;
      }

      .cls-7 {
        fill: #c4c8c8;
      }

      .cls-8 {
        fill: #74798c;
      }

      .cls-9, .cls-11 {
        fill: #fff;
      }

      .cls-10 {
        fill: #dbdfdf;
      }

      .cls-12 {
        fill: url(#Dégradé_sans_nom_14);
      }
    </style>
    <radialGradient id="Dégradé_sans_nom_14" data-name="Dégradé sans nom 14" cx="433.55" cy="192.46" fx="433.55" fy="192.46" r="909.46" gradientTransform="translate(247.39 213.54) rotate(180)" gradientUnits="userSpaceOnUse">
      <stop offset="0" stop-color="#969b9a"/>
      <stop offset="1" stop-color="#fff"/>
    </radialGradient>
  </defs>
  <rect class="cls-12" x="0" y="0" width="247.39" height="213.54" rx="23.26" ry="23.26" transform="translate(247.39 213.54) rotate(-180)"/>
  <g id="Silver">
    <path id="Path" class="cls-8" d="M85.26,56.09c-.7,0-1.34-.03-1.9-.1-.57-.07-1.09-.17-1.57-.31-.48-.14-.95-.32-1.41-.54v-3.19c.63.51,1.35.9,2.15,1.16.8.26,1.56.39,2.28.39.63,0,1.12-.12,1.46-.36.34-.24.51-.61.51-1.11,0-.37-.16-.67-.47-.9s-.72-.43-1.23-.6c-.51-.17-1.08-.37-1.72-.59-.4-.12-.79-.28-1.18-.48-.39-.19-.73-.44-1.03-.73-.3-.3-.54-.66-.72-1.09-.18-.43-.27-.95-.27-1.57,0-.57.1-1.11.31-1.63.21-.52.53-.99.96-1.41s.99-.74,1.67-.98c.68-.24,1.47-.36,2.38-.36.57,0,1.07.03,1.5.1.43.07.85.17,1.25.3.4.13.81.3,1.22.51v3.23c-.32-.26-.67-.51-1.07-.73-.39-.23-.8-.42-1.23-.57-.43-.15-.88-.23-1.35-.25-.41-.01-.79.03-1.14.12-.34.1-.61.25-.81.47-.19.21-.29.49-.29.82,0,.39.12.69.35.91.23.22.56.4.97.55s.88.3,1.39.47c.57.17,1.09.35,1.56.55.48.2.89.45,1.25.76.36.3.63.68.83,1.12.19.44.29.97.29,1.59,0,.83-.19,1.58-.58,2.27-.39.68-.95,1.22-1.68,1.61-.73.39-1.63.59-2.69.59Z"/>
    <path id="Shape" class="cls-8" d="M92.52,55.8v-10.33h3.08l.02,10.33h-3.1ZM92.46,43.9v-2.38h3.19v2.38h-3.19Z"/>
    <polygon id="Path-2" data-name="Path" class="cls-8" points="101.44 55.8 98.38 55.8 98.38 41.37 101.44 41.37 101.44 55.8"/>
    <polygon id="Path-3" data-name="Path" class="cls-8" points="107.67 55.8 103.31 45.32 106.66 45.32 109.82 53.4 109.08 53.42 111.89 45.32 115.14 45.32 110.78 55.8 107.67 55.8"/>
    <path id="Path-4" data-name="Path" class="cls-8" d="M121.76,56.11c-1.05,0-1.98-.22-2.78-.65-.81-.43-1.43-1.06-1.88-1.86-.45-.81-.67-1.77-.67-2.89,0-1.82.45-3.23,1.36-4.23.9-1,2.2-1.5,3.88-1.5,1.16,0,2.09.25,2.8.74.71.5,1.23,1.22,1.56,2.17.33.95.49,2.11.48,3.48h-7.97l-.33-1.97h5.75l-.46.97c-.01-1.12-.17-1.9-.48-2.36-.3-.46-.8-.68-1.49-.68-.39,0-.73.1-1.05.29-.31.19-.55.51-.72.96-.17.45-.26,1.07-.26,1.85,0,.99.24,1.76.71,2.3.48.54,1.24.81,2.29.81.39,0,.77-.04,1.15-.13.38-.09.73-.2,1.07-.32.33-.12.61-.23.85-.33v2.65c-.5.21-1.05.38-1.67.51-.61.13-1.33.2-2.14.2Z"/>
    <path id="Path-5" data-name="Path" class="cls-8" d="M128.66,55.8v-9.37c.19-.17.54-.36,1.03-.57.5-.21,1.07-.41,1.71-.58.64-.17,1.29-.26,1.93-.26s1.16.05,1.53.14c.37.1.66.22.85.37v2.26c-.23-.06-.53-.1-.89-.12-.36-.03-.73-.04-1.12-.05-.39,0-.75,0-1.1.01-.34.01-.63.04-.87.08v8.09h-3.08Z"/>
  </g>
  <g>
    <path class="cls-11" d="M86.24,60.17c.5.22.88.54,1.15.95s.4.9.4,1.47-.13,1.05-.4,1.47-.65.74-1.15.96c-.5.22-1.08.33-1.76.33h-1.75v2.24h-1.44v-7.75h3.19c.67,0,1.26.11,1.76.33ZM85.84,63.74c.32-.27.49-.65.49-1.14s-.16-.88-.49-1.14-.8-.4-1.43-.4h-1.68v3.08h1.68c.63,0,1.1-.13,1.43-.4Z"/>
    <path class="cls-11" d="M94.3,67.6l-1.58-2.27c-.07,0-.17.01-.3.01h-1.75v2.26h-1.44v-7.75h3.19c.67,0,1.26.11,1.76.33.5.22.88.54,1.15.95s.4.9.4,1.47-.14,1.09-.43,1.51c-.28.42-.69.74-1.22.94l1.78,2.55h-1.55ZM93.78,61.46c-.32-.27-.8-.4-1.43-.4h-1.68v3.09h1.68c.63,0,1.1-.13,1.43-.4.32-.27.49-.65.49-1.15s-.16-.88-.49-1.14Z"/>
    <path class="cls-11" d="M98.8,67.19c-.64-.34-1.13-.82-1.5-1.43-.36-.61-.54-1.29-.54-2.04s.18-1.43.54-2.04c.36-.61.86-1.09,1.5-1.43.63-.34,1.35-.52,2.14-.52s1.5.17,2.14.52c.64.34,1.13.82,1.5,1.42.36.61.54,1.29.54,2.05s-.18,1.44-.54,2.05-.86,1.08-1.5,1.42c-.64.34-1.35.52-2.14.52s-1.5-.17-2.14-.52ZM102.34,66.1c.41-.23.74-.56.97-.97.24-.42.35-.88.35-1.4s-.12-.98-.35-1.4c-.24-.42-.56-.74-.97-.97s-.88-.35-1.4-.35-.98.12-1.4.35c-.41.23-.74.56-.97.97-.24.42-.35.88-.35,1.4s.12.98.35,1.4c.24.42.56.74.97.97.41.23.88.35,1.4.35s.98-.12,1.4-.35Z"/>
    <path class="cls-11" d="M108.09,61.05v2.36h3.74v1.22h-3.74v2.97h-1.44v-7.75h5.66v1.21h-4.22Z"/>
    <path class="cls-11" d="M113.7,59.84h1.44v7.75h-1.44v-7.75Z"/>
    <path class="cls-11" d="M117.24,59.84h1.44v6.54h4.05v1.22h-5.49v-7.75Z"/>
  </g>
  <g>
    <path class="cls-8" d="M85.59,186.63l-1.53,3.56h-.99l-1.52-3.56h1.09l.97,2.32.99-2.32h1Z"/>
    <path class="cls-8" d="M86.53,190.02c-.3-.16-.54-.38-.71-.66-.17-.28-.26-.6-.26-.95s.09-.67.26-.95c.17-.28.41-.5.71-.66.3-.16.64-.24,1.01-.24s.71.08,1.01.24.54.38.71.66c.17.28.26.6.26.95s-.09.67-.26.95c-.17.28-.41.5-.71.66-.3.16-.64.24-1.01.24s-.71-.08-1.01-.24ZM88.03,189.3c.15-.08.26-.2.35-.36.08-.15.13-.33.13-.53s-.04-.38-.13-.53-.2-.27-.35-.36c-.15-.08-.31-.13-.49-.13s-.34.04-.49.13c-.15.08-.26.2-.35.36s-.13.33-.13.53.04.38.13.53c.08.15.2.27.35.36.15.09.31.13.49.13s.34-.04.49-.13Z"/>
    <path class="cls-8" d="M90.46,189.83c-.29-.29-.44-.7-.44-1.23v-1.97h1.01v1.94c0,.57.23.85.68.85s.67-.28.67-.85v-1.94h.99v1.97c0,.53-.15.94-.44,1.23-.29.29-.7.43-1.23.43s-.94-.14-1.23-.43Z"/>
    <path class="cls-8" d="M94.46,190.16c-.27-.07-.49-.17-.66-.28l.33-.74c.16.11.34.19.55.25.21.06.42.1.62.1.39,0,.58-.1.58-.29,0-.1-.06-.18-.17-.23-.11-.05-.29-.1-.53-.16-.27-.06-.49-.12-.67-.19-.18-.07-.33-.17-.46-.32-.13-.15-.19-.34-.19-.59,0-.22.06-.41.18-.59.12-.17.3-.31.53-.41.24-.1.52-.15.87-.15.23,0,.46.03.69.08s.43.13.6.23l-.31.75c-.34-.18-.67-.27-.99-.27-.2,0-.35.03-.44.09s-.14.14-.14.23.05.17.16.21c.11.05.28.1.52.15.27.06.5.12.67.19.18.07.33.17.46.32.13.14.2.34.2.59,0,.21-.06.41-.18.58-.12.17-.3.31-.53.41-.24.1-.53.15-.87.15-.29,0-.57-.04-.84-.11Z"/>
    <path class="cls-8" d="M101.68,189.41v.78h-2.86v-3.56h2.79v.78h-1.8v.6h1.58v.75h-1.58v.65h1.86ZM100.41,185.57h.97l-.96.77h-.69l.68-.77Z"/>
    <path class="cls-8" d="M103.01,190.03c-.3-.16-.53-.38-.7-.66-.17-.28-.25-.6-.25-.96s.08-.67.25-.96c.17-.28.4-.5.7-.66.3-.16.63-.24,1-.24.33,0,.62.06.88.17.26.12.48.28.65.5l-.64.58c-.23-.28-.51-.42-.84-.42-.19,0-.37.04-.52.13-.15.08-.27.2-.35.36s-.12.33-.12.53.04.38.12.53c.08.15.2.27.35.36.15.09.32.13.52.13.33,0,.61-.14.84-.42l.64.58c-.17.22-.39.38-.65.5-.26.12-.55.17-.88.17-.37,0-.71-.08-1-.24Z"/>
    <path class="cls-8" d="M106.7,190.02c-.3-.16-.54-.38-.71-.66-.17-.28-.26-.6-.26-.95s.09-.67.26-.95c.17-.28.41-.5.71-.66.3-.16.64-.24,1.01-.24s.71.08,1.01.24.54.38.71.66c.17.28.26.6.26.95s-.09.67-.26.95c-.17.28-.41.5-.71.66-.3.16-.64.24-1.01.24s-.71-.08-1.01-.24ZM108.2,189.3c.15-.08.26-.2.35-.36.08-.15.13-.33.13-.53s-.04-.38-.13-.53-.2-.27-.35-.36c-.15-.08-.31-.13-.49-.13s-.34.04-.49.13c-.15.08-.26.2-.35.36s-.13.33-.13.53.04.38.13.53c.08.15.2.27.35.36.15.09.31.13.49.13s.34-.04.49-.13Z"/>
    <path class="cls-8" d="M113.61,186.63v3.56h-.83l-1.57-1.9v1.9h-.99v-3.56h.83l1.57,1.9v-1.9h.99Z"/>
    <path class="cls-8" d="M115.1,190.02c-.3-.16-.54-.38-.71-.66-.17-.28-.26-.6-.26-.95s.09-.67.26-.95c.17-.28.41-.5.71-.66.3-.16.64-.24,1.01-.24s.71.08,1.01.24.54.38.71.66c.17.28.26.6.26.95s-.09.67-.26.95c-.17.28-.41.5-.71.66-.3.16-.64.24-1.01.24s-.71-.08-1.01-.24ZM116.6,189.3c.15-.08.26-.2.35-.36.08-.15.13-.33.13-.53s-.04-.38-.13-.53-.2-.27-.35-.36c-.15-.08-.31-.13-.49-.13s-.34.04-.49.13c-.15.08-.26.2-.35.36s-.13.33-.13.53.04.38.13.53c.08.15.2.27.35.36.15.09.31.13.49.13s.34-.04.49-.13Z"/>
    <path class="cls-8" d="M121.84,190.19v-1.89s-.93,1.54-.93,1.54h-.45l-.91-1.49v1.84h-.93v-3.56h.83l1.25,2.06,1.22-2.06h.83v3.56s-.92,0-.92,0Z"/>
    <path class="cls-8" d="M123.47,186.63h1.01v3.56h-1.01v-3.56Z"/>
    <path class="cls-8" d="M125.61,190.16c-.27-.07-.49-.17-.66-.28l.33-.74c.16.11.34.19.55.25.21.06.42.1.62.1.39,0,.58-.1.58-.29,0-.1-.06-.18-.17-.23-.11-.05-.29-.1-.53-.16-.27-.06-.49-.12-.67-.19-.18-.07-.33-.17-.46-.32-.13-.15-.19-.34-.19-.59,0-.22.06-.41.18-.59.12-.17.3-.31.53-.41.24-.1.52-.15.87-.15.23,0,.46.03.69.08s.43.13.6.23l-.31.75c-.34-.18-.67-.27-.99-.27-.2,0-.35.03-.44.09s-.14.14-.14.23.05.17.16.21c.11.05.28.1.52.15.27.06.5.12.67.19.18.07.33.17.46.32.13.14.2.34.2.59,0,.21-.06.41-.18.58-.12.17-.3.31-.53.41-.24.1-.53.15-.87.15-.29,0-.57-.04-.84-.11Z"/>
    <path class="cls-8" d="M131.35,189.41v.78h-2.86v-3.56h2.79v.78h-1.8v.6h1.58v.75h-1.58v.65h1.86Z"/>
    <path class="cls-8" d="M134.92,189.39v.8h-3.19v-.63l1.8-2.13h-1.75v-.8h3.07v.63l-1.8,2.13h1.87Z"/>
    <path class="cls-8" d="M84.23,193.71c.24.2.36.47.36.81,0,.22-.06.42-.17.61-.11.19-.29.33-.52.44-.23.11-.52.16-.86.16-.25,0-.5-.03-.75-.09-.25-.06-.46-.15-.63-.26l.36-.76c.14.1.3.17.47.22.17.05.34.08.52.08s.31-.03.41-.1c.1-.07.15-.16.15-.28s-.05-.21-.15-.27-.28-.09-.54-.09h-.97l.18-2.08h2.27v.78h-1.43l-.05.52h.24c.5,0,.87.1,1.11.31Z"/>
    <path class="cls-8" d="M87.12,195.52c-.24-.15-.42-.36-.56-.64-.13-.28-.2-.61-.2-.99s.07-.72.2-.99c.13-.28.32-.49.56-.64.24-.15.51-.22.81-.22s.57.07.81.22c.24.15.42.36.56.64.13.28.2.61.2.99s-.07.71-.2.99c-.13.28-.32.49-.56.64s-.51.22-.81.22-.58-.07-.81-.22ZM88.34,194.67c.1-.16.15-.43.15-.78s-.05-.62-.15-.78c-.1-.16-.23-.25-.4-.25s-.31.08-.41.25c-.1.16-.15.42-.15.78s.05.62.15.78c.1.16.24.25.41.25s.3-.08.4-.25Z"/>
    <path class="cls-8" d="M90.6,195.52c-.24-.15-.42-.36-.56-.64-.13-.28-.2-.61-.2-.99s.07-.72.2-.99c.13-.28.32-.49.56-.64.24-.15.51-.22.81-.22s.57.07.81.22c.24.15.42.36.56.64.13.28.2.61.2.99s-.07.71-.2.99c-.13.28-.32.49-.56.64s-.51.22-.81.22-.58-.07-.81-.22ZM91.82,194.67c.1-.16.15-.43.15-.78s-.05-.62-.15-.78c-.1-.16-.23-.25-.4-.25s-.31.08-.41.25c-.1.16-.15.42-.15.78s.05.62.15.78c.1.16.24.25.41.25s.3-.08.4-.25Z"/>
    <path class="cls-8" d="M94.09,195.52c-.24-.15-.42-.36-.56-.64-.13-.28-.2-.61-.2-.99s.07-.72.2-.99c.13-.28.32-.49.56-.64.24-.15.51-.22.81-.22s.57.07.81.22c.24.15.42.36.56.64.13.28.2.61.2.99s-.07.71-.2.99c-.13.28-.32.49-.56.64s-.51.22-.81.22-.58-.07-.81-.22ZM95.31,194.67c.1-.16.15-.43.15-.78s-.05-.62-.15-.78c-.1-.16-.23-.25-.4-.25s-.31.08-.41.25c-.1.16-.15.42-.15.78s.05.62.15.78c.1.16.24.25.41.25s.3-.08.4-.25Z"/>
    <path class="cls-8" d="M100.73,195.67l-.74-1.1-.73,1.1h-1.15l1.3-1.8-1.24-1.76h1.13l.71,1.03.7-1.03h1.09l-1.24,1.72,1.32,1.84h-1.16Z"/>
    <path class="cls-8" d="M102.88,195.5c-.3-.16-.54-.38-.71-.66-.17-.28-.26-.6-.26-.95s.09-.67.26-.95c.17-.28.41-.5.71-.66.3-.16.64-.24,1.01-.24s.71.08,1.01.24.54.38.71.66c.17.28.26.6.26.95s-.09.67-.26.95c-.17.28-.41.5-.71.66-.3.16-.64.24-1.01.24s-.71-.08-1.01-.24ZM104.38,194.78c.15-.08.26-.2.35-.36.08-.15.13-.33.13-.53s-.04-.38-.13-.53-.2-.27-.35-.36c-.15-.08-.31-.13-.49-.13s-.34.04-.49.13c-.15.08-.26.2-.35.36s-.13.33-.13.53.04.38.13.53c.08.15.2.27.35.36.15.09.31.13.49.13s.34-.04.49-.13Z"/>
    <path class="cls-8" d="M107.41,192.89v.78h1.57v.78h-1.57v1.22h-1.01v-3.56h2.79v.78h-1.79Z"/>
  </g>
  <g>
    <path class="cls-11" d="M90.28,118.5h-2.28v2.93h-4.22v-2.93h-8.09v-2.82l6.87-9.56h4.48l-6.23,8.95h3.11v-2.6h4.09v2.6h2.28v3.43Z"/>
    <path class="cls-11" d="M94.41,120.8c-1.02-.63-1.82-1.54-2.4-2.75-.58-1.2-.86-2.63-.86-4.28s.29-3.07.86-4.28c.58-1.2,1.37-2.12,2.4-2.75,1.02-.63,2.19-.94,3.5-.94s2.46.31,3.48.94c1.02.63,1.82,1.54,2.4,2.75.58,1.2.86,2.63.86,4.28s-.29,3.07-.86,4.28c-.58,1.2-1.37,2.12-2.4,2.75-1.02.63-2.18.94-3.48.94s-2.48-.31-3.5-.94ZM99.65,117.14c.43-.71.65-1.83.65-3.36s-.22-2.65-.65-3.36c-.43-.71-1.01-1.06-1.74-1.06s-1.33.35-1.76,1.06c-.43.71-.65,1.83-.65,3.36s.21,2.65.65,3.36c.43.71,1.02,1.06,1.76,1.06s1.31-.35,1.74-1.06Z"/>
    <path class="cls-11" d="M109.39,120.8c-1.02-.63-1.82-1.54-2.4-2.75-.58-1.2-.86-2.63-.86-4.28s.29-3.07.86-4.28c.58-1.2,1.37-2.12,2.4-2.75,1.02-.63,2.19-.94,3.5-.94s2.46.31,3.48.94c1.02.63,1.82,1.54,2.4,2.75.58,1.2.86,2.63.86,4.28s-.29,3.07-.86,4.28c-.58,1.2-1.37,2.12-2.4,2.75-1.02.63-2.18.94-3.48.94s-2.48-.31-3.5-.94ZM114.63,117.14c.43-.71.65-1.83.65-3.36s-.22-2.65-.65-3.36c-.43-.71-1.01-1.06-1.74-1.06s-1.33.35-1.76,1.06c-.43.71-.65,1.83-.65,3.36s.21,2.65.65,3.36c.43.71,1.02,1.06,1.76,1.06s1.31-.35,1.74-1.06Z"/>
    <path class="cls-11" d="M86.82,124.51c.99.44,1.75,1.08,2.28,1.9.54.82.8,1.79.8,2.91s-.27,2.08-.8,2.9c-.54.82-1.3,1.45-2.28,1.89-.99.44-2.15.67-3.49.67h-2.58v3.87h-4.18v-14.79h6.76c1.34,0,2.5.22,3.49.67ZM85.03,130.92c.44-.37.66-.9.66-1.6s-.22-1.23-.66-1.61-1.08-.57-1.94-.57h-2.32v4.33h2.32c.86,0,1.51-.19,1.94-.56Z"/>
    <path class="cls-11" d="M95.39,137.94c-1.25-.66-2.23-1.58-2.94-2.75-.71-1.17-1.07-2.49-1.07-3.95s.36-2.78,1.07-3.95c.71-1.17,1.69-2.09,2.94-2.75,1.25-.66,2.65-.99,4.22-.99s2.97.33,4.22.99c1.25.66,2.23,1.58,2.94,2.75s1.07,2.49,1.07,3.95-.36,2.78-1.07,3.95c-.71,1.17-1.69,2.09-2.94,2.75s-2.65.99-4.22.99-2.97-.33-4.22-.99ZM101.64,134.94c.61-.35,1.08-.85,1.44-1.49.35-.64.53-1.38.53-2.21s-.18-1.57-.53-2.21c-.35-.64-.83-1.14-1.44-1.49-.61-.35-1.28-.53-2.03-.53s-1.42.18-2.03.53c-.61.35-1.09.85-1.44,1.49-.35.64-.53,1.38-.53,2.21s.18,1.57.53,2.21c.35.64.83,1.14,1.44,1.49.61.35,1.28.53,2.03.53s1.42-.18,2.03-.53Z"/>
    <path class="cls-11" d="M110.03,123.85h4.18v14.79h-4.18v-14.79Z"/>
    <path class="cls-11" d="M131.27,123.85v14.79h-3.44l-6.53-7.88v7.88h-4.1v-14.79h3.44l6.53,7.88v-7.88h4.1Z"/>
    <path class="cls-11" d="M137.38,127.17h-4.54v-3.32h13.25v3.32h-4.52v11.48h-4.18v-11.48Z"/>
    <path class="cls-11" d="M149.32,138.49c-1.13-.3-2.04-.69-2.75-1.18l1.37-3.09c.66.44,1.43.79,2.3,1.06.87.27,1.73.4,2.58.4,1.61,0,2.41-.4,2.41-1.2,0-.42-.23-.74-.69-.94-.46-.2-1.19-.42-2.21-.64-1.11-.24-2.04-.5-2.79-.77s-1.39-.72-1.92-1.32c-.54-.61-.8-1.42-.8-2.45,0-.9.25-1.72.74-2.44.49-.73,1.23-1.3,2.21-1.72.98-.42,2.18-.63,3.6-.63.97,0,1.93.11,2.87.33.94.22,1.78.54,2.49.96l-1.29,3.11c-1.41-.76-2.78-1.14-4.1-1.14-.83,0-1.44.12-1.82.37-.38.25-.57.57-.57.96s.23.69.68.89c.45.2,1.18.4,2.18.61,1.13.24,2.06.5,2.8.77.74.27,1.38.71,1.92,1.31.54.6.81,1.41.81,2.44,0,.89-.25,1.69-.74,2.41-.49.72-1.23,1.29-2.22,1.72-.99.43-2.18.64-3.59.64-1.2,0-2.36-.15-3.49-.44Z"/>
  </g>
  <g>
    <path class="cls-11" d="M78.29,99.96c-.77-.43-1.38-1.01-1.82-1.77-.44-.75-.66-1.6-.66-2.53s.22-1.78.66-2.53c.44-.75,1.05-1.34,1.82-1.77s1.65-.64,2.61-.64c.72,0,1.39.12,2,.36.61.24,1.13.59,1.55,1.05l-.65.65c-.76-.77-1.72-1.15-2.87-1.15-.77,0-1.47.18-2.1.53-.63.35-1.12.83-1.48,1.44-.36.61-.53,1.3-.53,2.05s.18,1.44.53,2.05c.36.61.85,1.09,1.48,1.44.63.35,1.33.53,2.1.53,1.17,0,2.12-.39,2.87-1.17l.65.65c-.43.46-.95.82-1.56,1.06-.62.25-1.28.37-2,.37-.96,0-1.83-.21-2.6-.64Z"/>
    <path class="cls-11" d="M88.07,99.95c-.78-.43-1.39-1.02-1.83-1.77-.44-.75-.66-1.59-.66-2.53s.22-1.78.66-2.53c.44-.75,1.05-1.34,1.83-1.77s1.65-.65,2.62-.65,1.83.21,2.6.64,1.38,1.02,1.82,1.77c.44.75.67,1.6.67,2.53s-.22,1.78-.67,2.53c-.44.75-1.05,1.34-1.82,1.77-.77.43-1.64.64-2.6.64s-1.83-.22-2.62-.65ZM92.77,99.16c.62-.35,1.11-.83,1.46-1.44.35-.62.53-1.3.53-2.06s-.18-1.45-.53-2.06c-.35-.62-.84-1.1-1.46-1.44-.62-.35-1.31-.52-2.08-.52s-1.46.17-2.09.52c-.62.35-1.11.83-1.47,1.44-.36.62-.53,1.3-.53,2.06s.18,1.45.53,2.06c.36.62.85,1.1,1.47,1.44.62.35,1.32.52,2.09.52s1.46-.17,2.08-.52Z"/>
    <path class="cls-11" d="M108.17,90.8v9.71h-.99v-7.77l-3.82,6.54h-.49l-3.82-6.49v7.73h-.99v-9.71h.85l4.22,7.2,4.18-7.2h.85Z"/>
    <path class="cls-11" d="M117.88,91.69c.7.59,1.05,1.41,1.05,2.44s-.35,1.85-1.05,2.44c-.7.59-1.67.88-2.91.88h-2.61v3.07h-1.03v-9.71h3.64c1.24,0,2.21.3,2.91.89ZM117.15,95.91c.51-.42.76-1.02.76-1.78s-.25-1.39-.76-1.81c-.51-.42-1.24-.63-2.21-.63h-2.58v4.86h2.58c.96,0,1.7-.21,2.21-.63Z"/>
    <path class="cls-11" d="M122.73,91.69h-3.41v-.89h7.85v.89h-3.41v8.82h-1.03v-8.82Z"/>
    <path class="cls-11" d="M135.67,99.63v.89h-6.87v-9.71h6.66v.89h-5.63v3.46h5.02v.87h-5.02v3.61h5.84Z"/>
    <path class="cls-11" d="M139.06,99.51c-.7-.72-1.05-1.77-1.05-3.15v-5.56h1.03v5.52c0,1.13.25,1.97.76,2.53.51.55,1.24.83,2.21.83s1.71-.28,2.22-.83c.51-.56.76-1.4.76-2.53v-5.52h1v5.56c0,1.38-.35,2.43-1.05,3.15-.7.72-1.68,1.08-2.93,1.08s-2.24-.36-2.94-1.08Z"/>
    <path class="cls-11" d="M155.71,100.51l-2.22-3.12c-.25.03-.51.04-.78.04h-2.61v3.08h-1.03v-9.71h3.64c1.24,0,2.21.3,2.91.89s1.05,1.41,1.05,2.44c0,.76-.19,1.4-.58,1.92-.38.52-.93.9-1.64,1.13l2.37,3.33h-1.12ZM154.89,95.92c.51-.43.76-1.02.76-1.79s-.25-1.39-.76-1.81c-.51-.42-1.24-.63-2.21-.63h-2.58v4.87h2.58c.96,0,1.7-.21,2.21-.64Z"/>
  </g>
  <g>
    <path class="cls-11" d="M89.88,166.14v1.77l-3.52,8.2h-3.08l3.36-7.73h-2.62v1.54h-2.41v-3.77h8.26Z"/>
    <path class="cls-11" d="M92.62,175.7c-.66-.41-1.18-1-1.56-1.79-.38-.78-.56-1.71-.56-2.78s.19-2,.56-2.79c.38-.78.89-1.38,1.56-1.79.66-.41,1.42-.61,2.28-.61s1.6.2,2.26.61c.66.41,1.18,1,1.56,1.79.37.78.56,1.71.56,2.79s-.19,2-.56,2.78c-.38.78-.9,1.38-1.56,1.79-.66.41-1.42.61-2.26.61s-1.61-.2-2.28-.61ZM96.03,173.31c.28-.46.42-1.19.42-2.19s-.14-1.73-.42-2.19c-.28-.46-.66-.69-1.13-.69s-.87.23-1.15.69c-.28.46-.42,1.19-.42,2.19s.14,1.73.42,2.19c.28.46.66.69,1.15.69s.85-.23,1.13-.69Z"/>
    <path class="cls-11" d="M106.52,175.7c-.66-.41-1.18-1-1.56-1.79-.38-.78-.56-1.71-.56-2.78s.19-2,.56-2.79c.38-.78.89-1.38,1.56-1.79.66-.41,1.42-.61,2.28-.61s1.6.2,2.26.61c.66.41,1.18,1,1.56,1.79.37.78.56,1.71.56,2.79s-.19,2-.56,2.78c-.38.78-.9,1.38-1.56,1.79s-1.42.61-2.26.61-1.61-.2-2.28-.61ZM109.93,173.31c.28-.46.42-1.19.42-2.19s-.14-1.73-.42-2.19c-.28-.46-.66-.69-1.13-.69s-.87.23-1.15.69c-.28.46-.42,1.19-.42,2.19s.14,1.73.42,2.19c.28.46.66.69,1.15.69s.85-.23,1.13-.69Z"/>
    <path class="cls-11" d="M116.27,175.7c-.66-.41-1.18-1-1.56-1.79-.38-.78-.56-1.71-.56-2.78s.19-2,.56-2.79c.38-.78.89-1.38,1.56-1.79.66-.41,1.42-.61,2.28-.61s1.6.2,2.26.61c.66.41,1.18,1,1.56,1.79.37.78.56,1.71.56,2.79s-.19,2-.56,2.78c-.38.78-.9,1.38-1.56,1.79s-1.42.61-2.26.61-1.61-.2-2.28-.61ZM119.68,173.31c.28-.46.42-1.19.42-2.19s-.14-1.73-.42-2.19c-.28-.46-.66-.69-1.13-.69s-.87.23-1.15.69c-.28.46-.42,1.19-.42,2.19s.14,1.73.42,2.19c.28.46.66.69,1.15.69s.85-.23,1.13-.69Z"/>
    <path class="cls-11" d="M126.03,175.7c-.66-.41-1.18-1-1.56-1.79-.38-.78-.56-1.71-.56-2.78s.19-2,.56-2.79c.38-.78.89-1.38,1.56-1.79.66-.41,1.42-.61,2.28-.61s1.6.2,2.26.61c.66.41,1.18,1,1.56,1.79.37.78.56,1.71.56,2.79s-.19,2-.56,2.78c-.38.78-.9,1.38-1.56,1.79s-1.42.61-2.26.61-1.61-.2-2.28-.61ZM129.44,173.31c.28-.46.42-1.19.42-2.19s-.14-1.73-.42-2.19c-.28-.46-.66-.69-1.13-.69s-.87.23-1.15.69c-.28.46-.42,1.19-.42,2.19s.14,1.73.42,2.19c.28.46.66.69,1.15.69s.85-.23,1.13-.69Z"/>
    <path class="cls-11" d="M144.62,176.11l-2.07-3.09-2.04,3.09h-3.22l3.63-5.04-3.48-4.93h3.18l1.99,2.88,1.97-2.88h3.05l-3.48,4.81,3.7,5.16h-3.25Z"/>
    <path class="cls-11" d="M150.65,175.64c-.84-.45-1.5-1.06-1.98-1.85-.48-.79-.72-1.68-.72-2.66s.24-1.88.72-2.66c.48-.79,1.14-1.41,1.98-1.85s1.79-.67,2.84-.67,2,.22,2.84.67,1.5,1.06,1.98,1.85c.48.79.72,1.68.72,2.66s-.24,1.88-.72,2.66c-.48.79-1.14,1.41-1.98,1.85-.84.45-1.79.67-2.84.67s-2-.22-2.84-.67ZM154.86,173.62c.41-.24.73-.57.97-1,.24-.43.36-.93.36-1.49s-.12-1.06-.36-1.49c-.24-.43-.56-.77-.97-1-.41-.24-.86-.36-1.37-.36s-.96.12-1.37.36c-.41.24-.73.57-.97,1-.24.43-.36.93-.36,1.49s.12,1.06.36,1.49.56.77.97,1,.86.36,1.37.36.96-.12,1.37-.36Z"/>
    <path class="cls-11" d="M163.33,168.32v2.19h4.4v2.18h-4.4v3.42h-2.82v-9.97h7.82v2.18h-5Z"/>
  </g>
  <g>
    <path class="cls-11" d="M80.4,151.57h-3.85l-.83,1.85h-.76l3.16-6.92h.72l3.16,6.92h-.77l-.83-1.85ZM80.14,150.98l-1.66-3.72-1.66,3.72h3.32Z"/>
    <path class="cls-11" d="M90.41,147.13c.5.42.75,1,.75,1.74s-.25,1.32-.75,1.73c-.5.42-1.19.63-2.08.63h-1.86v2.18h-.73v-6.92h2.59c.88,0,1.57.21,2.08.63ZM89.88,150.14c.36-.3.54-.72.54-1.27s-.18-.99-.54-1.29c-.36-.3-.89-.45-1.57-.45h-1.84v3.46h1.84c.69,0,1.21-.15,1.57-.45Z"/>
    <path class="cls-11" d="M96.73,151.57h-3.85l-.83,1.85h-.76l3.16-6.92h.72l3.16,6.92h-.77l-.83-1.85ZM96.47,150.98l-1.66-3.72-1.66,3.72h3.32Z"/>
    <path class="cls-11" d="M104.21,153.42l-1.58-2.22c-.18.02-.36.03-.55.03h-1.86v2.19h-.73v-6.92h2.59c.88,0,1.57.21,2.08.63.5.42.75,1,.75,1.74,0,.54-.14,1-.41,1.37-.27.37-.66.64-1.17.81l1.69,2.37h-.8ZM103.62,150.15c.36-.3.54-.73.54-1.27s-.18-.99-.54-1.29c-.36-.3-.89-.45-1.57-.45h-1.84v3.47h1.84c.69,0,1.21-.15,1.57-.46Z"/>
    <path class="cls-11" d="M107.87,147.13h-2.43v-.63h5.59v.63h-2.43v6.29h-.73v-6.29Z"/>
    <path class="cls-11" d="M112.2,146.5h.73v6.92h-.73v-6.92Z"/>
    <path class="cls-11" d="M119.91,153.42l-1.58-2.22c-.18.02-.36.03-.55.03h-1.86v2.19h-.73v-6.92h2.59c.88,0,1.57.21,2.08.63.5.42.75,1,.75,1.74,0,.54-.14,1-.41,1.37-.27.37-.66.64-1.17.81l1.69,2.37h-.8ZM119.33,150.15c.36-.3.54-.73.54-1.27s-.18-.99-.54-1.29c-.36-.3-.89-.45-1.57-.45h-1.84v3.47h1.84c.69,0,1.21-.15,1.57-.46Z"/>
    <path class="cls-11" d="M124.92,146.5h2.82c.73,0,1.38.15,1.94.44.56.29.99.7,1.3,1.23.31.52.46,1.12.46,1.79s-.15,1.27-.46,1.79c-.31.52-.74.93-1.3,1.23-.56.29-1.21.44-1.94.44h-2.82v-6.92ZM127.7,152.78c.61,0,1.14-.12,1.59-.36.45-.24.81-.57,1.06-1,.25-.43.38-.91.38-1.47s-.13-1.04-.38-1.47c-.25-.42-.6-.76-1.06-1-.45-.24-.98-.36-1.59-.36h-2.05v5.65h2.05Z"/>
    <path class="cls-11" d="M137.98,152.78v.63h-4.89v-6.92h4.74v.63h-4.01v2.46h3.58v.62h-3.58v2.57h4.16Z"/>
    <path class="cls-11" d="M139.17,149.1c-.1-.11-.15-.23-.15-.39s.05-.28.15-.38c.1-.1.23-.15.37-.15s.27.05.38.15c.11.1.16.23.16.38s-.05.28-.16.39c-.11.11-.23.16-.38.16s-.27-.05-.37-.16ZM139.17,153.31c-.1-.11-.15-.23-.15-.39s.05-.28.15-.38c.1-.1.23-.15.37-.15s.27.05.38.15c.11.1.16.23.16.38s-.05.28-.16.39c-.11.11-.23.16-.38.16s-.27-.05-.37-.16Z"/>
    <path class="cls-11" d="M148.25,149.61c.46.4.7.92.7,1.58,0,.43-.11.82-.33,1.18-.22.36-.56.65-1.01.86-.45.21-1.01.32-1.68.32-.49,0-.97-.06-1.45-.18-.48-.12-.89-.29-1.23-.5l.7-1.47c.28.18.58.33.91.43s.67.15,1,.15.6-.06.81-.19c.2-.13.3-.31.3-.54s-.1-.41-.3-.52c-.2-.12-.55-.18-1.05-.18h-1.88l.35-4.04h4.41v1.51h-2.79l-.09,1.01h.46c.97,0,1.69.2,2.15.59Z"/>
    <path class="cls-11" d="M154.04,153.02c-.55-.3-.98-.72-1.29-1.26-.31-.54-.47-1.14-.47-1.8s.16-1.27.47-1.8c.31-.54.75-.96,1.3-1.26.55-.3,1.17-.45,1.86-.45.51,0,.99.09,1.42.26.43.17.8.42,1.11.75l-.46.46c-.54-.55-1.22-.82-2.05-.82-.55,0-1.04.13-1.49.38-.45.25-.8.59-1.05,1.03-.25.44-.38.92-.38,1.46s.13,1.03.38,1.46c.25.43.6.78,1.05,1.03.45.25.95.38,1.49.38.83,0,1.51-.28,2.05-.83l.46.46c-.3.33-.67.58-1.11.76-.44.17-.91.26-1.43.26-.69,0-1.3-.15-1.85-.45Z"/>
    <path class="cls-11" d="M164.16,151.57h-3.85l-.83,1.85h-.76l3.16-6.92h.72l3.16,6.92h-.77l-.83-1.85ZM163.89,150.98l-1.66-3.72-1.66,3.72h3.32Z"/>
    <path class="cls-11" d="M171.63,153.42l-1.58-2.22c-.18.02-.36.03-.55.03h-1.86v2.19h-.73v-6.92h2.59c.88,0,1.57.21,2.08.63.5.42.75,1,.75,1.74,0,.54-.14,1-.41,1.37-.27.37-.66.64-1.17.81l1.69,2.37h-.8ZM171.05,150.15c.36-.3.54-.73.54-1.27s-.18-.99-.54-1.29c-.36-.3-.89-.45-1.57-.45h-1.84v3.47h1.84c.69,0,1.21-.15,1.57-.46Z"/>
    <path class="cls-11" d="M175.3,147.13h-2.43v-.63h5.59v.63h-2.43v6.29h-.73v-6.29Z"/>
    <path class="cls-11" d="M184.52,152.78v.63h-4.89v-6.92h4.74v.63h-4.01v2.46h3.58v.62h-3.58v2.57h4.16Z"/>
    <path class="cls-11" d="M186.67,153.23c-.47-.16-.84-.38-1.09-.65l.29-.56c.25.25.58.45,1,.61.42.16.84.23,1.29.23.62,0,1.08-.11,1.39-.34.31-.23.46-.52.46-.88,0-.28-.08-.5-.25-.66-.17-.16-.37-.29-.62-.38s-.58-.19-1.02-.29c-.52-.13-.94-.26-1.25-.38-.31-.12-.58-.31-.8-.56-.22-.25-.33-.59-.33-1.02,0-.35.09-.67.28-.95.18-.29.47-.52.85-.69.38-.17.86-.26,1.42-.26.4,0,.78.05,1.16.16.38.11.71.26.98.45l-.25.58c-.29-.19-.6-.33-.93-.43-.33-.1-.65-.14-.97-.14-.61,0-1.06.12-1.37.35-.31.23-.46.54-.46.9,0,.28.08.5.25.67.17.17.38.3.63.39.25.09.59.19,1.02.29.51.13.92.25,1.23.37.31.12.58.31.8.55.22.25.33.58.33,1,0,.35-.09.67-.28.95-.19.29-.48.51-.87.68-.39.17-.87.25-1.43.25-.51,0-1.01-.08-1.48-.25Z"/>
  </g>
  <rect class="cls-1" x="71.97" y="162.29" width="113.38" height="17.53" rx="5.25" ry="5.25"/>
  <g id="silver">
    <path id="Mask" class="cls-6" d="M26.33,46.73v18.71l17.32,9.55,17.32-9.55v-18.71l-17.32-9.55-17.32,9.55ZM43.65,29.84l23.62,13.12v26.25l-23.62,13.12-23.62-13.12v-26.25l23.62-13.12Z"/>
    <polygon id="Path-6" data-name="Path" class="cls-7" points="20.03 42.96 26.49 46.64 26.33 46.73 26.33 65.44 26.36 65.46 20.03 69.21 20.03 42.96"/>
    <polygon id="Path-7" data-name="Path" class="cls-4" points="43.65 29.84 67.28 42.96 60.98 46.73 43.65 37.19 43.65 29.84"/>
    <polygon id="Path-8" data-name="Path" class="cls-3" points="60.98 65.44 67.28 69.21 43.65 82.34 43.65 74.99 60.98 65.44"/>
    <polygon id="Path-9" data-name="Path" class="cls-2" points="43.65 29.84 43.65 37.19 26.37 46.71 26.33 46.69 20.03 43.09 20.03 42.96 43.65 29.84"/>
    <g id="Rectangle">
      <polygon id="Mask-2" data-name="Mask" class="cls-5" points="43.65 47.16 51 51.36 51 59.76 43.65 63.96 36.3 59.76 36.3 51.36 43.65 47.16"/>
      <polygon class="cls-10" points="36.3 51.36 43.65 47.16 43.65 55.56 36.3 57.13 36.3 51.36"/>
      <polygon class="cls-3" points="51 59.76 43.65 55.56 43.65 63.96 51 59.76"/>
      <polygon class="cls-2" points="43.65 47.16 43.65 55.56 51 51.36 43.65 47.16"/>
      <polygon class="cls-7" points="36.3 51.36 43.65 55.56 36.3 59.76 36.3 51.36"/>
    </g>
    <path id="Shape-2" data-name="Shape" class="cls-9" d="M60.98,46.73l.19,18.7,6.09,3.78-6.35-3.39-17.04,9.16-.21,7.35-.2-7.35-17.12-9.55,17.32,9.38,17.06-9.38.27-18.7ZM43.65,29.84l-23,13.3,5.68,3.6-5.92-3.14-.38,25.62v-26.25l23.62-13.12Z"/>
  </g>
</svg>