<?xml version="1.0" encoding="UTF-8"?>
<svg id="Calque_1" data-name="Calque 1" xmlns="http://www.w3.org/2000/svg" xmlns:xlink="http://www.w3.org/1999/xlink" version="1.1" viewBox="0 0 177.6 182.1">
  <defs>
    <style>
      .cls-1 {
        fill: #fdcf7b;
      }

      .cls-1, .cls-2, .cls-3, .cls-4, .cls-5, .cls-6 {
        stroke-width: 0px;
      }

      .cls-1, .cls-3, .cls-4, .cls-5, .cls-6 {
        fill-rule: evenodd;
      }

      .cls-2 {
        fill: #fbbc50;
      }

      .cls-3 {
        fill: #ffde8c;
      }

      .cls-4 {
        fill: #fff4d6;
      }

      .cls-5 {
        fill: url(#_ÅÂÁ_Ï_ÌÌ_È_ËÂÌÚ_10);
      }

      .cls-6 {
        fill: #faa92d;
      }
    </style>
    <linearGradient id="_ÅÂÁ_Ï_ÌÌ_È_ËÂÌÚ_10" data-name="ÅÂÁ˚ÏﬂÌÌ˚È „‡‰ËÂÌÚ 10" x1="-214" y1="512.2" x2="-214" y2="512.2" gradientTransform="translate(96356 164876.7) scale(450 -321.8)" gradientUnits="userSpaceOnUse">
      <stop offset="0" stop-color="#fcedbb"/>
      <stop offset="1" stop-color="#ffde8c"/>
    </linearGradient>
  </defs>
  <g id="Gold">
    <path id="Mask" class="cls-2" d="M29.6,59v64.1l59.4,32.7,59.4-32.7V59l-59.4-32.7L29.6,59ZM89,1.1l81,45v90l-81,45L8,136.1V46.1L89,1.1Z"/>
    <polygon id="Path" class="cls-1" points="8 46.1 30.2 58.7 29.6 59 29.6 123.2 29.7 123.2 8 136.1 8 46.1"/>
    <polygon id="Path-2" data-name="Path" class="cls-1" points="89 1.1 170 46.1 148.4 59 89 26.3 89 1.1"/>
    <polygon id="Path-3" data-name="Path" class="cls-6" points="148 123.4 170 136.1 89 181.1 89 155.9 148 123.4"/>
    <polygon id="Path-4" data-name="Path" class="cls-5" points="89 1.1 89 26.3 29.6 59 8 46.5 8 46.1 89 1.1"/>
    <g id="Rectangle">
      <polygon id="Mask-2" data-name="Mask" class="cls-2" points="89 42.5 132.2 65.9 132.2 112.7 89 136.1 45.8 112.7 45.8 65.9 89 42.5"/>
      <polygon class="cls-3" points="45.8 65.9 89 42.5 89 89.5 45.8 96.9 45.8 65.9"/>
      <polygon class="cls-6" points="132.2 112.7 89 90.2 89 136.1 132.2 112.7"/>
      <polygon class="cls-1" points="89 42.5 89 89.5 132.2 65.9 89 42.5"/>
      <polygon class="cls-1" points="45.8 65.9 89 89.5 45.8 113.1 45.8 65.9"/>
      <polygon id="Path-7" class="cls-4" points="45.8 112.7 89 89.8 89 42.5 87.5 87.9 46.7 65.9 86.6 89.3 45.8 112.7"/>
    </g>
    <path id="Shape" class="cls-4" d="M148.4,59l.6,64.1,20.9,13-21.8-11.6-58.4,31.4-.7,25.2-.7-25.2-58.7-32.8,59.4,32.2,58.5-32.2.9-64.1ZM89,1.1L10.1,46.7l19.5,12.3-20.3-10.8-1.3,87.8V46.1L89,1.1Z"/>
  </g>
</svg>