<?xml version="1.0" encoding="UTF-8"?>
<svg id="AdobeStock_4058991_Image" data-name="AdobeStock_4058991 Image" xmlns="http://www.w3.org/2000/svg" viewBox="0 0 122.67 77.32">
  <defs>
    <style>
      .cls-1 {
        fill-rule: evenodd;
      }

      .cls-1, .cls-2 {
        fill: #fff;
        stroke-width: 0px;
      }
    </style>
  </defs>
  <path class="cls-2" d="M109.97,77.32H12.69C5.69,77.32,0,71.63,0,64.63V12.69C0,5.69,5.69,0,12.69,0h97.28c7,0,12.69,5.69,12.69,12.69v51.93c0,7-5.69,12.69-12.69,12.69ZM12.69,1.75C6.66,1.75,1.75,6.66,1.75,12.69v51.93c0,6.04,4.91,10.95,10.95,10.95h97.28c6.04,0,10.95-4.91,10.95-10.95V12.69c0-6.04-4.91-10.95-10.95-10.95H12.69Z"/>
  <g>
    <path class="cls-1" d="M28.05,26.75c2.92,0,5.61,1.58,5.24,5.53-.44,4.68-2.96,7.28-6.92,7.3h-3.46c-.5,0-.74.41-.87,1.24l-.67,4.26c-.1.64-.43.96-.92.96h-3.22c-.51,0-.69-.33-.58-1.06l2.66-17.07c.13-.84.45-1.15,1.02-1.15h7.71ZM22.8,35.89h2.62c1.64-.06,2.73-1.2,2.84-3.25.07-1.27-.79-2.17-2.15-2.17h-2.47s-.85,5.41-.85,5.41h0ZM42.06,44.73c.29-.27.59-.41.55-.08l-.1.79c-.05.41.11.63.49.63h2.86c.48,0,.72-.2.84-.94l1.76-11.07c.09-.56-.05-.83-.47-.83h-3.15c-.28,0-.42.16-.5.59l-.12.68c-.06.36-.22.42-.37.06-.53-1.26-1.9-1.83-3.81-1.79-4.42.09-7.39,3.44-7.71,7.74-.25,3.32,2.14,5.93,5.27,5.93,2.28,0,3.3-.68,4.44-1.72h0ZM39.66,43.03c-1.9,0-3.23-1.52-2.95-3.37.28-1.86,2.05-3.37,3.95-3.37s3.23,1.52,2.95,3.37c-.28,1.86-2.05,3.37-3.95,3.37h0ZM54.06,33.2h-2.89c-.6,0-.84.44-.65,1l3.6,10.55-3.55,5.02c-.3.42-.07.8.35.8h3.26c.49,0,.72-.12.97-.48l11.08-15.9c.34-.49.18-1-.38-1h-3.08c-.53,0-.74.21-1.05.65l-4.62,6.71-2.06-6.72c-.13-.41-.43-.63-.99-.63Z"/>
    <path class="cls-1" d="M77.77,26.75c2.92,0,5.61,1.58,5.24,5.53-.44,4.68-2.96,7.28-6.92,7.3h-3.46c-.5,0-.74.41-.87,1.24l-.67,4.26c-.1.64-.43.96-.92.96h-3.22c-.51,0-.69-.33-.58-1.06l2.66-17.07c.13-.84.45-1.15,1.02-1.15h7.71ZM72.53,35.89h2.62c1.64-.06,2.73-1.2,2.84-3.25.07-1.27-.79-2.17-2.15-2.17h-2.47s-.85,5.41-.85,5.41h0ZM91.78,44.73c.29-.27.59-.41.55-.08l-.1.79c-.05.41.11.63.49.63h2.86c.48,0,.72-.2.84-.94l1.76-11.07c.09-.56-.05-.83-.47-.83h-3.15c-.28,0-.42.16-.5.59l-.12.68c-.06.36-.22.42-.37.06-.53-1.26-1.9-1.83-3.81-1.79-4.42.09-7.39,3.44-7.71,7.74-.25,3.32,2.14,5.93,5.27,5.93,2.28,0,3.3-.68,4.44-1.72h0ZM89.38,43.03c-1.9,0-3.23-1.52-2.95-3.37.28-1.86,2.05-3.37,3.95-3.37s3.23,1.52,2.95,3.37c-.28,1.86-2.05,3.37-3.95,3.37h0ZM102.59,46.1h-3.3c-.26,0-.44-.21-.41-.46l2.91-18.39c.04-.25.29-.46.55-.46h3.3c.26,0,.44.21.41.46l-2.91,18.39c-.04.25-.29.46-.55.46Z"/>
  </g>
</svg>