<?xml version="1.0" encoding="UTF-8"?>
<svg id="Calque_1" data-name="Calque 1" xmlns="http://www.w3.org/2000/svg" xmlns:xlink="http://www.w3.org/1999/xlink" version="1.1" viewBox="0 0 177.6 182.1">
  <defs>
    <style>
      .cls-1 {
        fill: url(#_ÅÂÁ_Ï_ÌÌ_È_ËÂÌÚ_9);
      }

      .cls-1, .cls-2, .cls-3, .cls-4, .cls-5, .cls-6, .cls-7 {
        fill-rule: evenodd;
      }

      .cls-1, .cls-2, .cls-3, .cls-4, .cls-5, .cls-6, .cls-7, .cls-8 {
        stroke-width: 0px;
      }

      .cls-2 {
        fill: url(#_ÅÂÁ_Ï_ÌÌ_È_ËÂÌÚ_8);
      }

      .cls-3 {
        fill: #d6dfed;
      }

      .cls-4 {
        fill: #e4edf8;
      }

      .cls-5 {
        fill: #fff;
      }

      .cls-6, .cls-8 {
        fill: #c5d1e1;
      }

      .cls-7 {
        fill: #97a9c2;
      }
    </style>
    <linearGradient id="_ÅÂÁ_Ï_ÌÌ_È_ËÂÌÚ_8" data-name="ÅÂÁ˚ÏﬂÌÌ˚È „‡‰ËÂÌÚ 8" x1="-216.9" y1="511" x2="-216.9" y2="511" gradientTransform="translate(97670 164492.9) scale(450 -321.8)" gradientUnits="userSpaceOnUse">
      <stop offset="0" stop-color="#f3f8fc"/>
      <stop offset="1" stop-color="#e4edf8"/>
    </linearGradient>
    <linearGradient id="_ÅÂÁ_Ï_ÌÌ_È_ËÂÌÚ_9" data-name="ÅÂÁ˚ÏﬂÌÌ˚È „‡‰ËÂÌÚ 9" x1="-225.5" y1="514.7" x2="-225.6" y2="514.7" gradientTransform="translate(54246.6 51282.6) scale(240.2 -99.5)" gradientUnits="userSpaceOnUse">
      <stop offset="0" stop-color="#fff"/>
      <stop offset="1" stop-color="#e4edf8"/>
    </linearGradient>
  </defs>
  <g id="Platinum">
    <path id="Mask" class="cls-8" d="M29.7,58.6v64.9l60.1,33.1,60.1-33.1V58.6l-60.1-33.1L29.7,58.6ZM89.8,0l82,45.5v91.1l-82,45.5L7.8,136.6V45.5L89.8,0Z"/>
    <polygon id="Path" class="cls-3" points="7.8 45.5 29.7 58.6 29.7 123.5 29.8 123.6 7.8 136.6 7.8 45.5"/>
    <polygon id="Path-2" data-name="Path" class="cls-3" points="89.8 0 171.7 45.5 149.9 58.6 89.8 25.5 89.8 0"/>
    <polygon id="Path-3" data-name="Path" class="cls-7" points="149.9 123.5 171.7 136.6 89.8 182.1 89.8 156.6 149.9 123.5"/>
    <polygon id="Path-4" data-name="Path" class="cls-2" points="89.8 0 89.8 25.5 29.7 58.6 7.8 46 7.8 45.5 89.8 0"/>
    <g id="Rectangle">
      <path id="Star-Copy" class="cls-6" d="M88,120.3l-22.9,10.1c-1.2.5-2.6,0-3.1-1.2-.2-.4-.2-.8-.2-1.2l2.5-25.5c.1-1.3-.3-2.6-1.2-3.6l-16.4-17.7c-.9-.9-.8-2.4.1-3.3.3-.3.7-.5,1.1-.6l24.4-4.6c1.4-.3,2.5-1.1,3.2-2.3l12.3-22c.6-1.1,2-1.5,3.2-.9.4.2.7.5.9.9l12.3,22c.7,1.2,1.9,2,3.2,2.3l24.4,4.6c1.3.2,2.1,1.5,1.9,2.7,0,.4-.3.8-.6,1.1l-16.4,17.7c-.9,1-1.3,2.3-1.2,3.6l2.5,25.5c.1,1.3-.8,2.4-2.1,2.5-.4,0-.8,0-1.2-.2l-22.9-10.1c-1.2-.5-2.6-.5-3.8,0Z"/>
      <path id="Shape" class="cls-3" d="M89.7,90.2l-26.5,40.3c-.5-.2-1-.6-1.2-1.2-.2-.4-.2-.8-.2-1.2l2.5-25.5c0-.6,0-1.1-.1-1.7l25.5-10.7ZM89.9,90.1h0s-.2.1-.2.1h0c0,0,.2-.1.2-.1ZM107.4,72.8l24.4,4.6c1,.2,1.7.9,1.9,1.9l-43.7,10.8,15.2-18.4c.6.6,1.4,1,2.3,1.1Z"/>
      <path id="Shape-2" data-name="Shape" class="cls-7" d="M89.9,90.1v29.8c-.7,0-1.4.1-1.9.4l-22.9,10.1c-.8.4-1.7.2-2.4-.3l27.2-40ZM133.6,80.1c0,.4-.3.8-.6,1.1l-16.4,17.7c-.9,1-1.3,2.3-1.2,3.6l2.5,25.5c0,.9-.4,1.8-1.2,2.2l-26.9-40.2,43.7-10.8c0,.3,0,.6,0,.9Z"/>
      <path id="Path-5" data-name="Path" class="cls-4" d="M89.9,47.4v42.8l-43.7-11.1c.1-.4.3-.7.6-1,.3-.3.7-.5,1.1-.6l24.4-4.6c1.4-.3,2.5-1.1,3.2-2.3l12.3-22c.4-.8,1.2-1.2,2.1-1.2Z"/>
      <path id="Path-6" data-name="Path" class="cls-1" d="M74.2,72l15.7,18.1-43.7-11.1c.1-.4.3-.7.6-1,.3-.3.7-.5,1.1-.6l24.4-4.6c.7-.1,1.3-.4,1.9-.8Z"/>
    </g>
    <path id="Shape-3" data-name="Shape" class="cls-5" d="M149.9,58.6l.6,64.9,21.1,13.1-22-11.8-59.1,31.8-.7,25.5-.7-25.5-59.4-33.1,60.1,32.5,59.2-32.5.9-64.9ZM89.8,0L10,46.1l19.7,12.5-20.5-10.9-1.3,88.9V45.5L89.8,0Z"/>
  </g>
</svg>