<?xml version="1.0" encoding="UTF-8"?>
<svg id="Layer_1" data-name="Layer 1" xmlns="http://www.w3.org/2000/svg" xmlns:xlink="http://www.w3.org/1999/xlink" viewBox="0 0 600.99 601">
  <defs>
    <style>
      .cls-1 {
        fill: url(#_ÂÁ_Ï_ÌÌ_È_ËÂÌÚ_89-2);
      }

      .cls-1, .cls-2 {
        stroke-width: 0px;
      }

      .cls-2 {
        fill: url(#_ÂÁ_Ï_ÌÌ_È_ËÂÌÚ_89);
      }
    </style>
    <linearGradient id="_ÂÁ_Ï_ÌÌ_È_ËÂÌÚ_89" data-name="¡ÂÁ˚ÏˇÌÌ˚È „‡‰ËÂÌÚ 89" x1="-196.46" y1="-137.13" x2="722.49" y2="672.1" gradientUnits="userSpaceOnUse">
      <stop offset="0" stop-color="#39bcc5"/>
      <stop offset="1" stop-color="#8084c0"/>
    </linearGradient>
    <linearGradient id="_ÂÁ_Ï_ÌÌ_È_ËÂÌÚ_89-2" data-name="¡ÂÁ˚ÏˇÌÌ˚È „‡‰ËÂÌÚ 89" x1="-211.8" y1="-119.7" x2="707.15" y2="689.52" xlink:href="#_ÂÁ_Ï_ÌÌ_È_ËÂÌÚ_89"/>
  </defs>
  <path class="cls-2" d="M300.5,601C134.81,601,0,466.19,0,300.5S134.81,0,300.5,0s300.49,134.8,300.49,300.5-134.8,300.5-300.49,300.5ZM300.5,36.75c-145.43,0-263.75,118.31-263.75,263.74s118.31,263.75,263.75,263.75,263.74-118.31,263.74-263.75S445.92,36.75,300.5,36.75Z"/>
  <path class="cls-1" d="M406.54,457.97c-9.48,0-17.19-7.71-17.19-17.19v-59.35c0-33.48-19.8-64.01-50.44-77.77-6.87-3.08-11.49-9.4-12.38-16.89-.88-7.56,2.19-14.83,8.22-19.44,14.83-11.45,21.89-29.5,18.84-48.24-3.52-21.55-21.9-38.95-43.7-41.38-14.55-1.66-28.52,2.76-39.36,12.46-10.65,9.53-16.76,23.19-16.76,37.47,0,15.64,7.14,30.12,19.59,39.73,5.99,4.61,9.05,11.86,8.17,19.39-.89,7.5-5.51,13.81-12.37,16.9-30.64,13.76-50.45,44.29-50.45,77.77v59.35c0,9.48-7.72,17.19-17.19,17.19s-17.19-7.71-17.19-17.19v-59.35c0-40.8,20.51-78.16,54.26-100.14-12.46-15.03-19.19-33.69-19.19-53.65,0-24.05,10.28-47.04,28.22-63.09,17.86-15.97,41.91-23.61,66.07-21.01,36.87,4.11,67.91,33.56,73.85,70.03,3.98,24.49-2.73,49-18.09,67.7,33.78,21.98,54.31,59.35,54.31,100.16v59.35c0,9.48-7.72,17.19-17.19,17.19Z"/>
</svg>