<?xml version="1.0" encoding="UTF-8"?>
<svg id="Calque_1" data-name="Calque 1" xmlns="http://www.w3.org/2000/svg" version="1.1" viewBox="0 0 205.4 231.9">
  <defs>
    <style>
      .cls-1 {
        fill: #fff;
        stroke-width: 0px;
      }
    </style>
  </defs>
  <path class="cls-1" d="M182.9,231.9c-3.5,0-6.3-2.8-6.3-6.3v-46.4c0-29-17.1-55.4-43.7-67.4-3-1.4-5.1-4.2-5.5-7.5-.4-3.4,1-6.6,3.7-8.6,13.7-10.6,20.3-27.3,17.5-44.6-3.3-20-20.3-36.1-40.5-38.3-13.4-1.5-26.4,2.6-36.4,11.5-9.9,8.8-15.5,21.4-15.5,34.7s6.6,27.9,18.1,36.8c2.7,2.1,4,5.3,3.6,8.6-.4,3.3-2.4,6.1-5.5,7.5-26.5,11.9-43.7,38.4-43.7,67.4v46.4c0,3.5-2.8,6.3-6.3,6.3s-6.3-2.8-6.3-6.3v-46.4c0-32.3,18.2-61.9,46.7-76.7-12.3-11.2-19.3-26.8-19.3-43.6s7.2-32.8,19.7-44C75.9,3.8,92.7-1.5,109.5.4c25.7,2.9,47.3,23.4,51.4,48.8,3.2,20-3.8,40-18.5,53.4,28.5,14.8,46.7,44.4,46.7,76.7v46.4c0,3.5-2.8,6.3-6.3,6.3Z"/>
</svg>