<?xml version="1.0" encoding="UTF-8"?>
<svg id="Layer_1" data-name="Layer 1" xmlns="http://www.w3.org/2000/svg" xmlns:xlink="http://www.w3.org/1999/xlink" viewBox="0 0 911.04 385.2">
  <defs>
    <style>
      .cls-1, .cls-2 {
        fill: none;
        stroke: #fff;
        stroke-miterlimit: 10;
        stroke-width: 9px;
      }

      .cls-3 {
        fill: url(#Dégradé_sans_nom_2);
      }

      .cls-3, .cls-4 {
        stroke-width: 0px;
      }

      .cls-2 {
        stroke-linecap: square;
      }

      .cls-4 {
        fill: #fff;
      }
    </style>
    <radialGradient id="Dégradé_sans_nom_2" data-name="Dégradé sans nom 2" cx="95.81" cy="-67.12" fx="95.81" fy="-67.12" r="1866.02" gradientTransform="translate(0 -24.46) scale(1 .82)" gradientUnits="userSpaceOnUse">
      <stop offset="0" stop-color="#6a747e"/>
      <stop offset="1" stop-color="#95a7c0"/>
    </radialGradient>
  </defs>
  <rect class="cls-3" x=".02" y="-.4" width="911" height="386" rx="38.64" ry="38.64"/>
  <g>
    <path class="cls-4" d="M432.63,174.61c0,11.34-8.56,18.4-22.18,18.4h-8.7v13.05h-14.12v-49.91h22.82c13.62,0,22.18,7.06,22.18,18.47ZM418.36,174.61c0-4.63-2.92-7.34-8.77-7.34h-7.84v14.62h7.84c5.85,0,8.77-2.71,8.77-7.27Z"/>
    <path class="cls-4" d="M439.54,153.15h13.55v52.91h-13.55v-52.91Z"/>
    <path class="cls-4" d="M502.51,167.41v38.65h-12.91v-4.14c-2.92,3.21-7.06,4.78-11.48,4.78-9.48,0-16.4-5.42-16.4-17.68v-21.61h13.55v19.4c0,5.99,2.35,8.34,6.42,8.34s7.27-2.64,7.27-9.13v-18.61h13.55Z"/>
    <path class="cls-4" d="M508.14,202.7l4.06-9.27c3.57,2.21,8.77,3.56,13.48,3.56s6.06-1,6.06-2.64c0-5.21-22.82.71-22.82-14.76,0-7.27,6.7-12.83,18.82-12.83,5.42,0,11.41,1.14,15.26,3.28l-4.06,9.2c-3.85-2.14-7.7-2.85-11.12-2.85-4.56,0-6.21,1.28-6.21,2.71,0,5.35,22.75-.43,22.75,14.9,0,7.13-6.56,12.69-19.11,12.69-6.56,0-13.33-1.64-17.11-3.99Z"/>
    <path class="cls-4" d="M611.82,167.41v52.48h-13.55v-17.26c-2.64,2.71-6.27,4.06-10.77,4.06-10.48,0-18.97-7.7-18.97-19.96s8.49-19.97,18.97-19.97c5.06,0,8.84,1.43,11.41,4.49v-3.85h12.91ZM598.49,186.73c0-5.85-3.57-9.2-8.13-9.2s-8.13,3.35-8.13,9.2,3.56,9.2,8.13,9.2,8.13-3.35,8.13-9.2Z"/>
    <path class="cls-4" d="M661.16,167.41v38.65h-12.91v-4.14c-2.92,3.21-7.06,4.78-11.48,4.78-9.48,0-16.4-5.42-16.4-17.68v-21.61h13.55v19.4c0,5.99,2.35,8.34,6.42,8.34s7.27-2.64,7.27-9.13v-18.61h13.55Z"/>
    <path class="cls-4" d="M683.7,160.49c0,2-.29,3.57-2.28,8.2l-4.56,10.41h-8.48l3.35-11.62c-2.57-1.21-4.21-3.64-4.21-6.99,0-4.85,3.42-7.99,8.13-7.99s8.06,3.14,8.06,7.99Z"/>
    <path class="cls-4" d="M730.69,167.41v38.65h-12.91v-4.14c-2.92,3.21-7.06,4.78-11.48,4.78-9.48,0-16.4-5.42-16.4-17.68v-21.61h13.55v19.4c0,5.99,2.35,8.34,6.42,8.34s7.27-2.64,7.27-9.13v-18.61h13.55Z"/>
    <path class="cls-4" d="M780.53,183.95v22.1h-13.55v-19.89c0-5.56-2.43-7.91-6.35-7.91-4.35,0-7.7,2.71-7.7,9.13v18.68h-13.55v-38.65h12.91v4.21c3.07-3.21,7.42-4.85,12.26-4.85,9.06,0,15.97,5.21,15.97,17.18Z"/>
    <path class="cls-4" d="M828.88,190.15h-28.09c1.14,3.92,4.49,6.2,9.48,6.2,3.78,0,6.28-1.07,8.91-3.35l7.13,7.42c-3.71,4.14-9.13,6.27-16.47,6.27-13.76,0-22.67-8.48-22.67-20.04s9.05-19.89,21.25-19.89c11.41,0,20.68,7.27,20.68,20.04,0,1-.14,2.28-.21,3.35ZM800.57,183.02h15.83c-.71-4.06-3.71-6.63-7.91-6.63s-7.13,2.57-7.92,6.63Z"/>
    <path class="cls-4" d="M426.28,261.46h-28.09c1.14,3.92,4.49,6.2,9.48,6.2,3.78,0,6.28-1.07,8.91-3.35l7.13,7.42c-3.71,4.13-9.13,6.27-16.47,6.27-13.76,0-22.67-8.49-22.67-20.04s9.06-19.89,21.25-19.89c11.41,0,20.68,7.27,20.68,20.04,0,1-.14,2.28-.21,3.35ZM397.97,254.33h15.83c-.71-4.06-3.71-6.63-7.92-6.63s-7.13,2.57-7.92,6.63ZM408.24,234.08h-9.7l9.56-10.84h13.55l-13.41,10.84Z"/>
    <path class="cls-4" d="M459.44,275.79c-2.35,1.5-5.85,2.21-9.41,2.21-9.91,0-15.69-4.85-15.69-14.76v-12.98h-5.63v-10.12h5.63v-10.05h13.55v10.05h8.84v10.12h-8.84v12.83c0,2.85,1.64,4.42,4.06,4.42,1.5,0,3-.43,4.14-1.21l3.35,9.48Z"/>
    <path class="cls-4" d="M500.87,255.9v21.46h-12.62v-4.99c-1.92,3.71-5.78,5.63-11.41,5.63-9.27,0-14.4-5.21-14.4-11.91,0-7.13,5.21-11.55,17.19-11.55h7.7c-.21-3.92-2.85-6.13-8.2-6.13-3.71,0-7.84,1.28-10.48,3.35l-4.56-9.2c4.42-2.92,10.98-4.49,17.04-4.49,12.55,0,19.75,5.56,19.75,17.83ZM487.32,264.96v-3.35h-5.85c-4.35,0-5.92,1.57-5.92,3.92s1.85,3.92,5.06,3.92c2.99,0,5.63-1.43,6.7-4.49Z"/>
    <path class="cls-4" d="M552.71,258.04c0,12.26-8.48,19.96-18.97,19.96-4.49,0-8.13-1.35-10.77-4.06v17.26h-13.55v-52.48h12.91v3.85c2.57-3.07,6.35-4.49,11.41-4.49,10.48,0,18.97,7.7,18.97,19.97ZM539.02,258.04c0-5.85-3.56-9.2-8.13-9.2s-8.13,3.35-8.13,9.2,3.56,9.2,8.13,9.2,8.13-3.35,8.13-9.2Z"/>
    <path class="cls-4" d="M598.27,261.46h-28.1c1.14,3.92,4.49,6.2,9.48,6.2,3.78,0,6.28-1.07,8.91-3.35l7.13,7.42c-3.71,4.13-9.13,6.27-16.47,6.27-13.76,0-22.68-8.49-22.68-20.04s9.06-19.89,21.25-19.89c11.41,0,20.68,7.27,20.68,20.04,0,1-.14,2.28-.21,3.35ZM569.96,254.33h15.83c-.71-4.06-3.71-6.63-7.92-6.63s-7.13,2.57-7.91,6.63Z"/>
    <path class="cls-4" d="M603.05,270.52c0-4.21,3.35-7.34,8.13-7.34s8.06,3.14,8.06,7.34-3.28,7.49-8.06,7.49-8.13-3.35-8.13-7.49ZM603.12,227.45h16.11l-2.71,31.73h-10.77l-2.64-31.73Z"/>
  </g>
  <g>
    <circle class="cls-2" cx="163.07" cy="286.83" r="19.32"/>
    <circle class="cls-2" cx="298.33" cy="286.83" r="19.32"/>
    <line class="cls-1" x1="298.33" y1="267.51" x2="163.07" y2="267.51"/>
    <polyline class="cls-1" points="148.04 132.25 327.3 151.57 318.71 228.86 158.78 228.86"/>
    <line class="cls-1" x1="158.78" y1="180.55" x2="322.97" y2="190.47"/>
    <line class="cls-1" x1="240.88" y1="228.86" x2="240.88" y2="142.25"/>
    <line class="cls-1" x1="202.23" y1="228.86" x2="195.56" y2="137.37"/>
    <line class="cls-1" x1="279.52" y1="228.86" x2="283.42" y2="146.84"/>
    <polyline class="cls-2" points="163.07 267.51 143.76 93.6 114.77 93.6"/>
  </g>
</svg>