<?xml version="1.0" encoding="UTF-8"?>
<svg id="AdobeStock_4058991_Image" data-name="AdobeStock_4058991 Image" xmlns="http://www.w3.org/2000/svg" viewBox="0 0 122.67 77.32">
  <defs>
    <style>
      .cls-1 {
        fill: #fff;
        stroke-width: 0px;
      }
    </style>
  </defs>
  <path class="cls-1" d="M109.97,77.32H12.69C5.69,77.32,0,71.63,0,64.63V12.69C0,5.69,5.69,0,12.69,0h97.28c7,0,12.69,5.69,12.69,12.69v51.93c0,7-5.69,12.69-12.69,12.69ZM12.69,1.75C6.66,1.75,1.75,6.66,1.75,12.69v51.93c0,6.04,4.91,10.95,10.95,10.95h97.28c6.04,0,10.95-4.91,10.95-10.95V12.69c0-6.04-4.91-10.95-10.95-10.95H12.69Z"/>
  <path class="cls-1" d="M35.66,36.28c0-.63.52-.87,1.37-.87,1.23,0,2.78.37,4.01,1.03v-3.8c-1.34-.53-2.67-.74-4.01-.74-3.28,0-5.47,1.71-5.47,4.58,0,4.46,6.14,3.75,6.14,5.68,0,.74-.65.99-1.55.99-1.34,0-3.06-.55-4.41-1.29v3.85c1.5.65,3.02.92,4.41.92,3.36,0,5.68-1.67,5.68-4.56-.02-4.82-6.18-3.96-6.18-5.77ZM46.59,28.66l-3.95.84-.02,12.95c0,2.39,1.79,4.16,4.19,4.16,1.33,0,2.3-.24,2.83-.53v-3.28c-.52.21-3.07.95-3.07-1.44v-5.74h3.07v-3.44h-3.07l.02-3.51ZM54.68,33.37l-.26-1.2h-3.49v14.15h4.04v-9.59c.95-1.25,2.57-1.02,3.07-.84v-3.72c-.52-.19-2.41-.55-3.36,1.2ZM59.03,32.17h4.06v14.15h-4.06v-14.15ZM59.03,30.94l4.06-.87v-3.28l-4.06.86v3.3ZM71.52,31.9c-1.58,0-2.6.74-3.17,1.26l-.21-1h-3.56v18.85l4.04-.86.02-4.58c.58.42,1.44,1.02,2.86,1.02,2.89,0,5.53-2.33,5.53-7.45-.02-4.69-2.68-7.24-5.51-7.24ZM70.55,43.04c-.95,0-1.52-.34-1.91-.76l-.02-6c.42-.47,1-.79,1.92-.79,1.47,0,2.49,1.65,2.49,3.77s-1,3.78-2.49,3.78ZM89.78,39.3c0-4.14-2.01-7.41-5.84-7.41s-6.18,3.27-6.18,7.37c0,4.87,2.75,7.33,6.69,7.33,1.92,0,3.38-.44,4.48-1.05v-3.23c-1.1.55-2.36.89-3.96.89s-2.96-.55-3.14-2.46h7.91c0-.21.03-1.05.03-1.44ZM81.79,37.77c0-1.83,1.12-2.59,2.13-2.59s2.04.76,2.04,2.59h-4.17Z"/>
</svg>