<?xml version="1.0" encoding="UTF-8"?>
<svg id="AdobeStock_4058991_Image" data-name="AdobeStock_4058991 Image" xmlns="http://www.w3.org/2000/svg" viewBox="0 0 122.67 77.32">
  <defs>
    <style>
      .cls-1 {
        fill: #fff;
        stroke-width: 0px;
      }
    </style>
  </defs>
  <path class="cls-1" d="M109.97,77.32H12.69c-7,0-12.69-5.69-12.69-12.69V12.69C0,5.69,5.69,0,12.69,0h97.28c7,0,12.69,5.69,12.69,12.69v51.93c0,7-5.69,12.69-12.69,12.69ZM12.69,1.75C6.66,1.75,1.75,6.66,1.75,12.69v51.93c0,6.04,4.91,10.95,10.95,10.95h97.28c6.04,0,10.95-4.91,10.95-10.95V12.69c0-6.04-4.91-10.95-10.95-10.95H12.69Z"/>
  <g id="shape">
    <g id="shape-2" data-name="shape">
      <path id="path4163" class="cls-1" d="M60.91,25.18l-5.78,27.03h-6.99l5.78-27.03h6.99ZM90.33,42.64l3.68-10.15,2.12,10.15h-5.8ZM98.14,52.21h6.47l-5.65-27.03h-5.96c-1.34,0-2.48.78-2.98,1.98l-10.49,25.05h7.34l1.46-4.04h8.97s.85,4.04.85,4.04ZM79.88,43.39c.03-7.13-9.86-7.53-9.79-10.72.02-.97.94-2,2.96-2.26,1-.13,3.76-.23,6.9,1.21l1.22-5.73c-1.68-.61-3.85-1.19-6.54-1.19-6.91,0-11.78,3.67-11.81,8.93-.04,3.89,3.47,6.06,6.12,7.36,2.73,1.32,3.64,2.17,3.63,3.36-.02,1.81-2.18,2.62-4.18,2.65-3.52.05-5.56-.95-7.18-1.71l-1.27,5.93c1.64.75,4.65,1.4,7.77,1.43,7.35,0,12.15-3.63,12.18-9.25M50.92,25.18l-11.33,27.03h-7.39l-5.58-21.57c-.34-1.33-.63-1.81-1.66-2.37-1.68-.91-4.46-1.77-6.9-2.3l.16-.78h11.9c1.52,0,2.88,1.01,3.23,2.75l2.95,15.64,7.27-18.4h7.35Z"/>
    </g>
  </g>
</svg>