<?xml version="1.0" encoding="UTF-8"?>
<svg id="AdobeStock_4058991_Image" data-name="AdobeStock_4058991 Image" xmlns="http://www.w3.org/2000/svg" xmlns:xlink="http://www.w3.org/1999/xlink" viewBox="0 0 532.93 186.5">
  <defs>
    <style>
      .cls-1 {
        fill: url(#Dégradé_sans_nom_14-2);
      }

      .cls-1, .cls-2, .cls-3 {
        stroke-width: 0px;
      }

      .cls-2 {
        fill: #fff;
      }

      .cls-3 {
        fill: url(#Dégradé_sans_nom_14);
      }
    </style>
    <radialGradient id="Dégradé_sans_nom_14" data-name="Dégradé sans nom 14" cx="-101.31" cy="-33.53" fx="-101.31" fy="-33.53" r="1104.85" gradientTransform="translate(3.37 -12.49) rotate(3)" gradientUnits="userSpaceOnUse">
      <stop offset="0" stop-color="#a1a2a1"/>
      <stop offset="1" stop-color="#fff"/>
    </radialGradient>
    <radialGradient id="Dégradé_sans_nom_14-2" data-name="Dégradé sans nom 14" cx="-101.31" cy="-33.53" fx="-101.31" fy="-33.53" r="1104.85" gradientTransform="translate(7.03 -14.02) rotate(3)" xlink:href="#Dégradé_sans_nom_14"/>
  </defs>
  <rect class="cls-3" x="2.07" y="12.4" width="476.25" height="91.52" transform="translate(-2.71 12.65) rotate(-3)"/>
  <rect class="cls-1" x="11.61" y="81.46" width="519.29" height="91.52" transform="translate(-6.29 14.37) rotate(-3)"/>
  <g>
    <path class="cls-2" d="M58.98,50.51l-16.65,45.26-12.33.65L8.77,53.14l13.53-.71,13.53,28.21,10.76-29.48,12.39-.65Z"/>
    <path class="cls-2" d="M59.89,72.65c-.7-13.28,9.23-23.56,23.39-24.31s25.11,8.45,25.81,21.73c.7,13.28-9.23,23.57-23.39,24.31-14.17.74-25.11-8.45-25.81-21.73ZM96.44,70.74c-.4-7.65-5.91-12.37-12.62-12.02-6.7.35-11.69,5.62-11.29,13.27.4,7.65,5.91,12.37,12.61,12.02,6.7-.35,11.69-5.62,11.29-13.27Z"/>
    <path class="cls-2" d="M113.51,88.04l3.63-9.45c4.06,2.39,9.71,3.87,14.84,3.6,5.19-.27,7.13-1.83,7.02-3.98-.37-7.02-25.27-.58-26.13-17.02-.41-7.91,5.7-14.69,18.85-15.38,5.75-.3,11.77.71,16.26,3.02l-3.37,9.5c-4.36-2.05-8.59-2.97-12.45-2.77-5.25.28-7.05,2.14-6.94,4.36.35,6.77,25.19.39,26.05,16.71.4,7.72-5.7,14.63-18.85,15.32-7.27.38-14.58-1.2-18.91-3.89Z"/>
    <path class="cls-2" d="M173.82,44.49l12.52-.66,2.32,44.27-12.52.66-2.32-44.27Z"/>
    <path class="cls-2" d="M237.37,41.16l2.32,44.27-10.31.54-20.78-22.56,1.24,23.59-12.27.64-2.32-44.27,10.31-.54,20.78,22.56-1.24-23.59,12.27-.64Z"/>
    <path class="cls-2" d="M259.25,49.72l.51,9.74,19.54-1.02.51,9.67-19.54,1.02.8,15.18-12.52.66-2.32-44.27,34.72-1.82.51,9.68-22.2,1.16Z"/>
    <path class="cls-2" d="M285.33,60.84c-.7-13.28,9.23-23.56,23.39-24.31,14.17-.74,25.11,8.45,25.81,21.73.7,13.28-9.23,23.56-23.39,24.31s-25.11-8.45-25.81-21.73ZM321.88,58.93c-.4-7.65-5.91-12.37-12.61-12.02s-11.69,5.62-11.29,13.27c.4,7.65,5.91,12.37,12.61,12.02s11.69-5.62,11.29-13.27Z"/>
    <path class="cls-2" d="M338.95,76.23l3.63-9.45c4.06,2.39,9.71,3.87,14.84,3.6,5.19-.27,7.13-1.83,7.02-3.98-.37-7.02-25.27-.58-26.13-17.02-.41-7.9,5.7-14.69,18.85-15.38,5.75-.3,11.77.71,16.26,3.02l-3.37,9.5c-4.36-2.05-8.59-2.97-12.45-2.77-5.25.27-7.05,2.15-6.94,4.36.35,6.77,25.19.39,26.05,16.71.4,7.71-5.7,14.63-18.85,15.32-7.27.38-14.58-1.2-18.91-3.89Z"/>
    <path class="cls-2" d="M58.15,130.39c.53,10.05-6.73,16.71-18.81,17.35l-7.71.4.61,11.57-12.52.66-2.32-44.27,20.24-1.06c12.08-.63,20,5.23,20.53,15.35ZM45.51,131.05c-.22-4.11-2.93-6.38-8.12-6.11l-6.96.36.68,12.96,6.96-.37c5.19-.27,7.65-2.81,7.44-6.86Z"/>
    <path class="cls-2" d="M62.88,135.91c-.7-13.28,9.23-23.56,23.39-24.31s25.11,8.45,25.81,21.73c.7,13.28-9.23,23.57-23.39,24.31s-25.11-8.45-25.81-21.73ZM99.43,133.99c-.4-7.65-5.91-12.37-12.61-12.02s-11.69,5.62-11.29,13.27,5.91,12.37,12.61,12.02,11.69-5.62,11.29-13.27Z"/>
    <path class="cls-2" d="M118.4,135.41l-1.29-24.54,12.52-.66,1.27,24.16c.4,7.59,3.72,10.46,8.97,10.18,5.19-.27,8.19-3.47,7.79-11.06l-1.27-24.16,12.33-.65,1.29,24.54c.69,13.22-6.63,21.02-19.72,21.71-13.09.69-21.19-6.31-21.89-19.53Z"/>
    <path class="cls-2" d="M188.26,139.74l-6.83.36.62,11.76-12.52.66-2.32-44.27,20.24-1.06c12.08-.63,20,5.23,20.53,15.35.34,6.51-2.57,11.49-7.93,14.43l10.28,13.41-13.41.7-8.65-11.34ZM187.2,117.09l-6.96.36.68,12.96,6.96-.36c5.19-.27,7.65-2.81,7.44-6.86-.22-4.11-2.93-6.38-8.12-6.11Z"/>
    <path class="cls-2" d="M232.4,104.83l12.52-.66,1.8,34.34,21.12-1.11.52,9.93-33.64,1.76-2.32-44.27Z"/>
    <path class="cls-2" d="M279.78,106.22c.09,1.77-.09,3.17-1.64,7.38l-3.56,9.44-7.52.39,2.43-10.46c-2.33-.96-3.9-3.03-4.06-6-.23-4.3,2.66-7.24,6.84-7.46,4.11-.22,7.29,2.41,7.52,6.71Z"/>
    <path class="cls-2" d="M323.12,134.76l.51,9.68-35.54,1.86-2.32-44.27,34.72-1.82.51,9.67-22.32,1.17.39,7.46,19.67-1.03.49,9.36-19.67,1.03.42,8.09,23.14-1.21Z"/>
    <path class="cls-2" d="M370.38,97.6l2.32,44.27-10.31.54-20.78-22.56,1.24,23.59-12.27.64-2.32-44.27,10.31-.54,20.78,22.56-1.24-23.59,12.27-.64Z"/>
    <path class="cls-2" d="M424.01,94.79l-16.65,45.26-12.33.65-21.23-43.28,13.53-.71,13.53,28.21,10.76-29.48,12.39-.65Z"/>
    <path class="cls-2" d="M424.91,116.94c-.7-13.28,9.23-23.56,23.39-24.31,14.17-.74,25.11,8.45,25.81,21.73.7,13.28-9.23,23.57-23.39,24.31-14.17.74-25.11-8.45-25.81-21.73ZM461.47,115.02c-.4-7.65-5.91-12.37-12.61-12.02-6.7.35-11.69,5.62-11.29,13.27.4,7.65,5.91,12.37,12.62,12.02,6.7-.35,11.69-5.62,11.29-13.27Z"/>
    <path class="cls-2" d="M479.53,91.88l12.52-.66,2.32,44.27-12.52.66-2.32-44.27Z"/>
  </g>
</svg>