<?xml version="1.0" encoding="UTF-8"?>
<svg id="AdobeStock_4058991_Image" data-name="AdobeStock_4058991 Image" xmlns="http://www.w3.org/2000/svg" viewBox="0 0 63.99 64.28">
  <defs>
    <style>
      .cls-1 {
        fill: #fff;
        stroke-width: 0px;
      }
    </style>
  </defs>
  <g id="tQCE4O">
    <g>
      <path class="cls-1" d="M30.89,0c.85,0,1.69,0,2.54,0,.04,0,.08.02.12.02,1.03.04,2.05.13,3.08.28,1.61.23,3.2.58,4.76,1.05,2.49.75,4.84,1.8,7.07,3.13,2.46,1.47,4.67,3.25,6.65,5.31.89.92,1.72,1.9,2.49,2.92,1.53,2.03,2.8,4.21,3.81,6.55.89,2.06,1.55,4.2,1.98,6.4.33,1.7.53,3.42.58,5.15.04,1.4,0,2.8-.13,4.2-.14,1.37-.36,2.74-.68,4.08-.45,1.92-1.08,3.79-1.87,5.6-.86,1.96-1.92,3.81-3.15,5.56-1.5,2.12-3.23,4.03-5.2,5.73-1.87,1.62-3.89,3-6.08,4.15-2.41,1.26-4.94,2.2-7.58,2.81-2.11.49-4.25.74-6.42.81-1.16.04-2.31-.02-3.46-.12-1.42-.12-2.83-.34-4.23-.65-1.12-.25-2.22-.55-3.31-.92-1.67-.57-3.29-1.27-4.84-2.11-.1-.05-.19-.06-.3-.03-.2.06-.39.11-.59.16-2.54.67-5.09,1.34-7.63,2-2.38.62-4.76,1.24-7.13,1.87-.45.12-.9.26-1.37.34,0-.04,0-.08,0-.13.02-.05.04-.1.05-.15.35-1.29.7-2.57,1.06-3.86.66-2.41,1.32-4.82,1.98-7.23.45-1.64.89-3.28,1.35-4.92.05-.18.01-.32-.08-.47-.36-.63-.7-1.28-1.01-1.93-1.04-2.18-1.82-4.45-2.35-6.81-.36-1.63-.59-3.28-.7-4.95-.05-.82-.07-1.65-.06-2.48.02-1.12.09-2.24.23-3.35.23-1.91.63-3.78,1.21-5.62.51-1.63,1.14-3.2,1.9-4.73.97-1.95,2.13-3.78,3.48-5.49,1.35-1.71,2.85-3.26,4.5-4.67,1.4-1.19,2.89-2.24,4.48-3.17,1.69-.99,3.46-1.82,5.3-2.49,1.42-.51,2.88-.92,4.36-1.22,1.43-.29,2.87-.5,4.33-.58C30.32.04,30.6.02,30.89,0ZM32.12,58.32c.66,0,1.33-.02,1.99-.07,1.94-.15,3.83-.5,5.69-1.07,1.59-.48,3.11-1.11,4.58-1.88,2.18-1.15,4.17-2.58,5.96-4.28,1.2-1.14,2.28-2.39,3.25-3.73.92-1.28,1.72-2.62,2.4-4.04.8-1.68,1.42-3.43,1.85-5.24.3-1.28.52-2.58.62-3.9.08-.98.1-1.96.08-2.95-.02-.66-.05-1.32-.12-1.97-.11-1.16-.31-2.3-.57-3.43-.48-2.07-1.21-4.06-2.18-5.95-1.34-2.62-3.08-4.95-5.2-6.99-.95-.92-1.96-1.76-3.04-2.53-2.42-1.72-5.06-3-7.91-3.83-1.36-.4-2.75-.68-4.16-.85-1.2-.14-2.4-.2-3.61-.18-1.04.01-2.08.08-3.11.22-1.64.22-3.24.59-4.81,1.11-2.31.77-4.47,1.83-6.48,3.19-1.8,1.22-3.43,2.64-4.88,4.26-1.33,1.48-2.49,3.09-3.45,4.82-1.21,2.17-2.1,4.46-2.65,6.89-.48,2.1-.72,4.23-.67,6.39.03,1.4.16,2.79.4,4.16.42,2.38,1.15,4.67,2.19,6.85.57,1.19,1.24,2.31,1.95,3.42.09.14.11.26.07.43-.33,1.17-.64,2.34-.96,3.51-.53,1.95-1.06,3.89-1.59,5.84-.04.15-.03.16.12.12.4-.1.81-.21,1.21-.32,2.78-.73,5.55-1.46,8.33-2.19.21-.05.37-.03.54.08.47.29.94.57,1.42.84,2.1,1.16,4.32,2.02,6.65,2.57,2.01.48,4.04.72,6.11.71Z"/>
      <path class="cls-1" d="M15.91,24.85c.01-1.57.29-2.93.92-4.2.36-.72.81-1.37,1.35-1.96.24-.26.48-.53.74-.77.52-.49,1.14-.76,1.85-.8.66-.03,1.33.02,1.99.03.45,0,.77.26,1.02.61.3.42.47.91.66,1.38.7,1.68,1.39,3.36,2.09,5.04.06.14.13.29.19.43.18.42.16.83-.03,1.26-.46,1.05-1.25,1.86-1.99,2.7-.09.1-.18.19-.27.29-.32.36-.35.76-.13,1.18.17.33.37.64.57.95.83,1.28,1.75,2.49,2.8,3.6,1.73,1.81,3.73,3.26,5.99,4.34.56.27,1.13.51,1.7.77.13.06.26.1.4.13.4.09.75-.02,1.02-.33.93-1.06,1.85-2.14,2.67-3.29.33-.47.71-.61,1.27-.47.38.09.73.25,1.08.41,1.02.47,2.03.95,3.03,1.45.93.46,1.87.92,2.8,1.39.09.05.18.11.27.16.24.16.35.39.37.67.06.83-.06,1.64-.26,2.44-.12.47-.24.94-.48,1.37-.34.62-.83,1.1-1.37,1.53-.76.6-1.6,1.08-2.5,1.46-.67.29-1.37.44-2.1.5-1.01.08-2.03.08-3.03-.1-.87-.16-1.71-.46-2.54-.74-1.3-.44-2.58-.93-3.82-1.51-1.29-.6-2.52-1.33-3.69-2.14-2.14-1.49-4.06-3.25-5.81-5.17-1.14-1.25-2.19-2.57-3.17-3.95-.69-.97-1.38-1.93-1.93-2.99-.71-1.35-1.29-2.76-1.54-4.28-.09-.52-.15-1.04-.13-1.41Z"/>
    </g>
  </g>
</svg>