<?xml version="1.0" encoding="utf-8"?>
<!-- Generator: Adobe Illustrator 27.5.0, SVG Export Plug-In . SVG Version: 6.00 Build 0)  -->
<svg version="1.1" id="Calque_1" xmlns="http://www.w3.org/2000/svg" xmlns:xlink="http://www.w3.org/1999/xlink" x="0px" y="0px"
	 viewBox="0 0 530.45 557.21" style="enable-background:new 0 0 530.45 557.21;" xml:space="preserve">
<style type="text/css">
	.st0{fill:#FDFEFF;}
	.st1{fill:#FEFEFF;}
	.st2{fill:#DAE9FD;}
	.st3{fill:#D9E9FD;}
	.st4{fill:#FCFDFF;}
	.st5{fill:#F9FCFF;}
	.st6{fill:#DCEAFD;}
	.st7{fill:#3D8DF4;}
</style>
<path class="st0" d="M9.59,464.02c0-126,0-252,0-378c0.36-2.03,0.57-4.1,1.12-6.07c7.83-28.17,24.01-48.59,53.09-56.98
	c4.59-1.32,9.19-2.63,13.79-3.95c125.33,0,250.67,0,376,0c1.79,0.65,3.57,1.32,5.36,1.94c7.99,2.77,16.66,4.35,23.85,8.5
	c18.59,10.72,31.09,26.58,35.87,47.95c0.73,3.26,1.93,6.41,2.92,9.61c0,125.67,0,251.33,0,377c-0.65,1.26-1.66,2.46-1.89,3.8
	c-4.29,24.84-17.96,43.01-40.1,54.37c-8.06,4.13-17.3,5.96-26,8.83c-49.33,0-98.67,0-148,0c0-47.83-0.01-95.66,0.01-143.49
	c0.01-12.5,0.1-24.99,0.16-37.49c0.28-0.28,0.56-0.56,0.85-0.84c18.65-0.11,37.3-0.22,55.95-0.34c0.97-0.44,1.93-0.88,2.9-1.32
	c-0.58-0.52-1.17-1.04-1.75-1.56c0.97-2.21,2.45-4.34,2.83-6.65c2.42-14.89,4.63-29.81,6.83-44.74c0.94-6.38,1.67-12.79,2.58-19.82
	c-24.08,0-47.13,0-70.35,0c0-19.02,0-37.51,0.01-56c0-0.82,0.09-1.67,0.33-2.45c5.18-17.49,14.61-27.27,34.63-28.44
	c0.71-0.19,1.41-0.39,2.12-0.58c12.21,0,24.43,0,36.64,0c0-21.73,0-42.28,0-63.2c-12.32-1.38-24.35-3.47-36.45-3.89
	c-14.04-0.49-28.19-0.24-42.17,1.06c-13.4,1.25-26.07,5.75-37.13,13.91c-0.35,0.27-0.7,0.55-1.05,0.82
	c-13.27,8.49-22.05,20.57-27.96,34.94c-0.25,0.35-0.5,0.7-0.75,1.04c-0.42,1.32-0.83,2.64-1.25,3.95c-0.25,0.35-0.49,0.7-0.74,1.04
	c-1.09,4.34-2.17,8.68-3.26,13.03c-0.28,0.67-0.55,1.34-0.83,2.01c-0.72,8.18-1.92,16.35-2.06,24.54c-0.32,17.63-0.1,35.27-0.1,52.9
	c0,1.76,0,3.52,0,5.75c-22.03,0-43.4,0-64.85,0c0,24.59,0,48.69,0,72.79c0.29,0.28,0.58,0.57,0.87,0.85
	c2.16,0.06,4.33,0.15,6.49,0.16c18.83,0.07,37.66,0.12,56.48,0.18c0.28,0.28,0.56,0.56,0.85,0.84c0.06,2,0.16,3.99,0.16,5.99
	c0.01,58.33,0.01,116.66,0.01,174.99c-49.67,0-99.33,0-149,0c-10.04-2.5-19.98-4.84-29.08-10.42c-14.63-8.98-25.57-20.9-31.97-36.73
	C12.97,477.49,11.54,470.65,9.59,464.02z"/>
<path class="st0" d="M521.59,87.02c-0.99-3.2-2.19-6.35-2.92-9.61c-4.78-21.38-17.28-37.24-35.87-47.95
	c-7.19-4.15-15.86-5.74-23.85-8.5c-1.8-0.62-3.58-1.29-5.36-1.94c22.67,0,45.33,0,68,0C521.59,41.69,521.59,64.36,521.59,87.02z"/>
<path class="st0" d="M453.59,531.02c8.7-2.88,17.95-4.7,26-8.83c22.15-11.36,35.82-29.53,40.1-54.37c0.23-1.33,1.24-2.53,1.89-3.8
	c0,22.33,0,44.67,0,67C498.92,531.02,476.25,531.02,453.59,531.02z"/>
<path class="st0" d="M77.59,19.02c-4.6,1.31-9.2,2.62-13.79,3.95c-29.08,8.39-45.27,28.81-53.1,56.98
	c-0.55,1.98-0.75,4.05-1.12,6.07c0-22.25,0-44.5,0-67C32.25,19.02,54.92,19.02,77.59,19.02z"/>
<path class="st1" d="M9.59,464.02c1.95,6.63,3.38,13.47,5.96,19.84c6.4,15.84,17.33,27.75,31.97,36.73
	c9.1,5.59,19.04,7.93,29.08,10.42c-22.25,0-44.5,0-67,0C9.59,508.69,9.59,486.36,9.59,464.02z"/>
<path class="st2" d="M362.55,348.87c0.38-0.96,0.77-1.92,1.15-2.88c0.58,0.52,1.17,1.04,1.75,1.56
	C364.49,347.98,363.52,348.43,362.55,348.87z"/>
<path class="st3" d="M340.56,187.88c0.71-0.19,1.41-0.39,2.12-0.58C341.97,187.5,341.26,187.69,340.56,187.88z"/>
<path class="st4" d="M228.57,190.02c-0.28,0.67-0.55,1.34-0.83,2.01C228.02,191.36,228.29,190.69,228.57,190.02z"/>
<path class="st5" d="M263.58,135.18c-0.35,0.27-0.7,0.55-1.05,0.82C262.87,135.73,263.22,135.46,263.58,135.18z"/>
<path class="st4" d="M234.56,170.95c-0.25,0.35-0.5,0.7-0.75,1.04C234.06,171.65,234.31,171.3,234.56,170.95z"/>
<path class="st4" d="M232.56,175.95c-0.25,0.35-0.49,0.7-0.74,1.04C232.07,176.64,232.32,176.3,232.56,175.95z"/>
<path class="st6" d="M160.73,348.01c0.29,0.28,0.58,0.57,0.87,0.85C161.31,348.58,161.02,348.29,160.73,348.01z"/>
<path class="st7" d="M224.57,349.2c0.28,0.28,0.56,0.56,0.85,0.84C225.13,349.76,224.85,349.48,224.57,349.2z"/>
<path class="st7" d="M305.76,350.04c0.28-0.28,0.56-0.56,0.85-0.84C306.32,349.48,306.04,349.76,305.76,350.04z"/>
</svg>
