<?xml version="1.0" encoding="utf-8"?>
<!-- Generator: Adobe Illustrator 27.5.0, SVG Export Plug-In . SVG Version: 6.00 Build 0)  -->
<svg version="1.1" xmlns="http://www.w3.org/2000/svg" xmlns:xlink="http://www.w3.org/1999/xlink" x="0px" y="0px"
	 viewBox="0 0 750 500" style="enable-background:new 0 0 750 500;" xml:space="preserve">
<style type="text/css">
	.st0{fill:#FFFFFF;}
</style>
<g id="BACKGROUND">
</g>
<g id="OBJECTS">
	<g>
		<g>
			<g>
				<circle class="st0" cx="94.69" cy="238.16" r="70.62"/>
			</g>
			<g>
				<path class="st0" d="M142.95,149.68c2.09,0,4.09-0.78,5.68-2.13c22.09-18.77,50.67-30.12,81.86-30.12
					c27.41,0,53.44,8.59,75.35,24.84c11.59,8.6,27.84,8.53,38.28-1.42c13.42-12.79,11.74-33.87-2.41-44.54
					c-32.26-24.32-70.72-37.17-111.22-37.17c-61.59,0-116.22,30.28-149.84,76.73c-4.16,5.75,0.04,13.81,7.14,13.81H142.95z"/>
				<path class="st0" d="M484.6,181.83c-11.64-11.11-30.09-10.7-41.21,0.95c-5.83,6.11-16.86,19.89-35.83,43.71
					c-29.57,37.13-79.07,99.26-98.42,114.83c-18.94,15.25-41.58,29.36-78.65,29.36c-36.88,0-70.1-15.87-93.26-41.12
					c-1.68-1.83-4.02-2.92-6.51-2.92H79.97c-6.8,0-11.04,7.45-7.51,13.26c32.47,53.35,91.14,89.08,158.03,89.08
					c55.59,0,90.77-22.57,115.2-42.24c22.54-18.14,62-66.86,107.46-123.93c13.8-17.33,28.08-35.26,32.39-39.77
					C496.67,211.39,496.24,192.94,484.6,181.83z"/>
			</g>
		</g>
		<g>
			<g>
				<g>
					
						<ellipse transform="matrix(0.1401 -0.9901 0.9901 0.1401 315.9885 863.7648)" class="st0" cx="655.31" cy="249.95" rx="70.62" ry="70.62"/>
				</g>
				<g>
					<path class="st0" d="M607.05,338.43c-2.09,0-4.09,0.78-5.68,2.13c-22.09,18.77-50.67,30.12-81.86,30.12
						c-27.41,0-53.44-8.59-75.35-24.84c-11.59-8.6-27.84-8.53-38.28,1.42c-13.42,12.79-11.74,33.87,2.41,44.54
						c32.26,24.32,70.72,37.17,111.22,37.17c61.59,0,116.22-30.28,149.84-76.73c4.16-5.75-0.04-13.81-7.14-13.81H607.05z"/>
					<path class="st0" d="M265.4,306.28c11.64,11.11,30.09,10.7,41.21-0.95c5.83-6.11,16.86-19.89,35.83-43.71
						c29.57-37.13,79.07-99.26,98.42-114.83c18.94-15.25,41.58-29.36,78.65-29.36c36.88,0,70.1,15.87,93.26,41.12
						c1.68,1.83,4.02,2.92,6.51,2.92h50.75c6.8,0,11.04-7.45,7.51-13.26c-32.47-53.35-91.14-89.08-158.03-89.08
						c-55.59,0-90.77,22.57-115.2,42.24c-22.54,18.14-62,66.86-107.46,123.93c-13.8,17.33-28.08,35.26-32.39,39.77
						C253.33,276.72,253.76,295.17,265.4,306.28z"/>
				</g>
			</g>
		</g>
	</g>
</g>
</svg>
