<?xml version="1.0" encoding="UTF-8"?>
<svg id="Layer_1" data-name="Layer 1" xmlns="http://www.w3.org/2000/svg" xmlns:xlink="http://www.w3.org/1999/xlink" version="1.1" viewBox="0 0 545 228.2">
  <defs>
    <style>
      .cls-1 {
        fill: url(#linear-gradient);
      }

      .cls-1, .cls-2, .cls-3, .cls-4 {
        stroke-width: 0px;
      }

      .cls-2 {
        fill: url(#linear-gradient-2);
      }

      .cls-5 {
        isolation: isolate;
      }

      .cls-3 {
        fill: #fff;
      }

      .cls-4 {
        fill: #231f20;
      }
    </style>
    <linearGradient id="linear-gradient" x1="416.3" y1="159.4" x2="541" y2="159.4" gradientTransform="translate(0 228.6) scale(1 -1)" gradientUnits="userSpaceOnUse">
      <stop offset="0" stop-color="#39bcc5"/>
      <stop offset="1" stop-color="#8084c0"/>
    </linearGradient>
    <linearGradient id="linear-gradient-2" x1="439" y1="164.8" x2="517.4" y2="164.8" gradientTransform="translate(0 228.6) scale(1 -1)" gradientUnits="userSpaceOnUse">
      <stop offset="0" stop-color="#39bcc5"/>
      <stop offset="1" stop-color="#8084c0"/>
    </linearGradient>
  </defs>
  <rect class="cls-4" x="13.1" y="60.8" width="92.9" height="104.8" transform="translate(-5.8 3.3) rotate(-3)"/>
  <rect class="cls-4" x="101.9" y="76.2" width="320.3" height="104.8" transform="translate(-6.4 13.9) rotate(-3)"/>
  <rect class="cls-4" x="7.4" y="108.2" width="469.5" height="104.8" transform="translate(-8.1 12.9) rotate(-3)"/>
  <g class="cls-5">
    <g class="cls-5">
      <path class="cls-3" d="M30.3,94.3l-.8-15.7,50.4-2.6.7,12.7-15.8,20.1c6.6.8,11.9,3.3,15.7,7.5,3.8,4.2,5.9,9.3,6.2,15.1.5,8.6-2.1,15.5-7.7,20.8-5.6,5.2-12.9,8.1-22,8.5-9.1.5-18.5-2.3-28.2-8.2l6.8-15c8.1,5.1,15.1,7.5,21.3,7.1,3.7-.2,6.7-1.3,9-3.2,2.3-1.9,3.4-4.6,3.2-8-.2-3.4-1.7-6-4.5-7.9-2.9-1.9-6.7-2.7-11.6-2.4-2.6.1-6.2,1.1-10.8,2.8l-.7-13.5,14.8-19.4-25.8,1.4Z"/>
    </g>
    <g class="cls-5">
      <path class="cls-3" d="M160.3,110.8c.4,6.8-2.1,11.3-7.3,13.5l11.5,14.5-11.6.6-10.1-13-6.5.3.7,13.5-9.4.5-2.2-42.2,16-.8c6.6-.3,11.3.5,14.2,2.6,2.9,2.1,4.5,5.6,4.8,10.5ZM149.2,116.5c1.1-1.1,1.6-2.8,1.5-5.1-.1-2.3-.8-3.8-2.1-4.6s-3.4-1.1-6.4-.9l-7.1.4.7,12.5,6.9-.4c3.2-.2,5.4-.8,6.5-1.9Z"/>
      <path class="cls-3" d="M201.5,137l-4.4-8.9-17.7.9-3.5,9.3-10,.5,16-43.2,9.1-.5,20.5,41.3-10,.5ZM187.2,108l-4.7,12.5,10.6-.6-5.9-12Z"/>
      <path class="cls-3" d="M214.2,94l9.4-.5,2.2,42.2-9.4.5-2.2-42.2Z"/>
      <path class="cls-3" d="M244.4,100.8c-.9.8-1.3,1.8-1.2,3,0,1.2.7,2.2,1.8,2.8,1.1.7,3.7,1.4,7.8,2.2,4.1.8,7.2,2.1,9.6,4,2.3,1.9,3.6,4.7,3.8,8.5.2,3.8-1.1,6.9-3.8,9.4s-6.4,3.9-11,4.1c-6.7.3-12.8-1.8-18.5-6.5l5.3-7.2c4.8,3.7,9.1,5.5,12.9,5.3,1.7,0,3.1-.5,4-1.3s1.4-1.8,1.3-3.1c0-1.3-.6-2.2-1.7-2.9-1.1-.7-3.2-1.3-6.3-1.9-5-.9-8.7-2.2-11-4-2.4-1.8-3.7-4.6-3.9-8.6-.2-4,1.1-7.2,3.8-9.5,2.8-2.3,6.3-3.6,10.6-3.8,2.8-.1,5.7.2,8.5,1,2.9.8,5.4,2.1,7.6,3.7l-4.4,7.1c-3.8-2.6-7.7-3.8-11.6-3.6-1.6,0-2.8.5-3.7,1.3Z"/>
      <path class="cls-3" d="M310,125.4c-4.1,4.4-9.2,6.8-15.4,7.1-6.2.3-11.6-1.5-16.1-5.4-4.5-3.9-6.9-9-7.2-15.2-.3-6.2,1.5-11.5,5.6-15.9,4.1-4.4,9.2-6.8,15.4-7.1s11.6,1.5,16.1,5.4c4.5,3.9,6.9,9,7.2,15.2.3,6.2-1.5,11.5-5.6,15.9ZM306,110.1c-.2-3.8-1.6-6.9-4.1-9.4-2.6-2.5-5.6-3.7-9.1-3.5-3.5.2-6.4,1.7-8.7,4.5-2.3,2.8-3.3,6.1-3.1,9.8.2,3.8,1.6,6.9,4.1,9.4,2.6,2.5,5.6,3.7,9.1,3.5,3.5-.2,6.4-1.7,8.7-4.4,2.3-2.8,3.3-6,3.1-9.8Z"/>
      <path class="cls-3" d="M352.1,86.7l9.4-.5,2.2,42.2-9.4.5-21.5-25.4,1.4,26.5-9.4.5-2.2-42.2,8.8-.5,22.2,26.1-1.4-27.2Z"/>
      <path class="cls-3" d="M382.2,93.6c-.9.8-1.3,1.8-1.2,3,0,1.2.7,2.2,1.8,2.8,1.1.7,3.7,1.4,7.8,2.2,4.1.8,7.2,2.1,9.6,4,2.3,1.9,3.6,4.7,3.8,8.5.2,3.8-1.1,6.9-3.8,9.4-2.7,2.5-6.4,3.9-11,4.1-6.7.4-12.8-1.8-18.5-6.5l5.3-7.2c4.8,3.7,9.1,5.5,12.9,5.3,1.7,0,3.1-.5,4-1.3s1.4-1.8,1.3-3.1c0-1.3-.6-2.2-1.7-2.9-1.1-.7-3.2-1.3-6.3-1.9-5-.9-8.7-2.2-11-4-2.4-1.8-3.7-4.6-3.9-8.6-.2-4,1.1-7.2,3.8-9.5,2.8-2.3,6.3-3.6,10.6-3.8,2.8-.1,5.7.2,8.5,1,2.9.8,5.4,2.1,7.6,3.7l-4.4,7.1c-3.8-2.6-7.7-3.8-11.6-3.6-1.6,0-2.8.5-3.7,1.3Z"/>
    </g>
    <g class="cls-5">
      <path class="cls-3" d="M62.8,168c4.2,3.5,6.5,8.5,6.8,15.1.3,6.6-1.3,11.9-5.1,15.9-3.7,4-9.6,6.3-17.7,6.7l-14.4.8-2.2-42.2,14.9-.8c7.5-.4,13.4,1.1,17.6,4.6ZM57.2,193.5c2.2-2.3,3.2-5.5,3-9.7-.2-4.1-1.5-7.3-4-9.4s-6-3-10.8-2.8l-5.3.3,1.3,25.7,6-.3c4.3-.2,7.6-1.5,9.8-3.8Z"/>
      <path class="cls-3" d="M107.2,160.2l.4,8.4-21,1.1.5,8.7,18.9-1,.4,8-18.9,1,.5,8.8,21.7-1.1.4,8.3-31.1,1.6-2.2-42.2,30.5-1.6Z"/>
      <path class="cls-3" d="M170.9,172.5l-10.2,23.7-5.6.3-12.6-22.5,1.4,26.6-9.4.5-2.2-42.2,12.8-.7,12.1,22.6,9.7-23.8,12.7-.7,2.2,42.2-9.4.5-1.4-26.6Z"/>
    </g>
    <g class="cls-5">
      <path class="cls-3" d="M228.3,196.2l-4.4-8.9-17.7.9-3.5,9.3-10,.5,16-43.2,9.1-.5,20.5,41.3-10,.5ZM214,167.2l-4.7,12.5,10.6-.6-5.9-12Z"/>
    </g>
    <g class="cls-5">
      <path class="cls-3" d="M259.7,160.4l1.8,34.1-9.4.5-1.8-34.1-12,.6-.4-8.2,33.4-1.7.4,8.2-12,.6Z"/>
    </g>
    <g class="cls-5">
      <path class="cls-3" d="M300.3,184c4.6-.2,8.3-2.3,11.1-6.1l6.4,5.9c-4.5,5.6-10,8.6-16.5,9s-12-1.4-16.4-5.3-6.8-9-7.1-15.2c-.3-6.3,1.5-11.6,5.6-16,4.1-4.4,9.2-6.8,15.4-7.1,6.9-.4,12.9,2,17.8,7l-5.5,7c-3.2-3.5-7-5.2-11.4-5-3.5.2-6.5,1.5-8.9,4-2.4,2.4-3.5,5.6-3.3,9.6.2,3.9,1.6,7,4.1,9.3,2.5,2.3,5.4,3.3,8.8,3.1Z"/>
      <path class="cls-3" d="M349.6,147.5l9.4-.5,2.2,42.2-9.4.5-.9-16.6-16.8.9.9,16.6-9.4.5-2.2-42.2,9.4-.5.9,17.6,16.8-.9-.9-17.6Z"/>
      <path class="cls-3" d="M399.9,144.8l.4,8.4-21,1.1.5,8.7,18.9-1,.4,8-18.9,1,.5,8.8,21.7-1.1.4,8.3-31.1,1.6-2.2-42.2,30.5-1.6Z"/>
      <path class="cls-3" d="M444,156.6c.4,6.8-2.1,11.3-7.3,13.5l11.5,14.5-11.6.6-10.1-13-6.5.3.7,13.5-9.4.5-2.2-42.2,16-.8c6.6-.3,11.3.5,14.2,2.6,2.9,2.1,4.5,5.6,4.8,10.5ZM432.9,162.2c1.1-1.1,1.6-2.8,1.5-5.1s-.8-3.8-2.1-4.6-3.4-1.1-6.4-.9l-7.1.4.7,12.5,6.9-.4c3.2-.2,5.4-.8,6.5-1.9Z"/>
    </g>
  </g>
  <path class="cls-3" d="M419.2,120.5V50c0-10.5,8.5-18.9,18.9-18.9h50c10.5,0,18.9,8.5,18.9,18.9v43.1c0,10.4-8.5,18.9-18.9,18.9h-44.6c-3.5,0-6.9,1.2-9.6,3.4l-9.4,7.6c-2.1,1.7-5.3.2-5.3-2.5h0Z"/>
  <path class="cls-3" d="M447.9,48.8c-3.5-.2-6.8.9-9.2,3-.5.4-1.1.4-1.5,0-2.4-2-5.7-3.2-9.2-3-6.4.4-11.7,5.5-11.6,12,.2,11.4,15.3,20.2,20.1,22.8.9.5,2,.5,2.9,0,4.8-2.5,19.9-11.4,20.1-22.8.1-6.4-5.1-11.6-11.6-12Z"/>
  <g>
    <path class="cls-1" d="M426.9,134.6c-1.5,0-3.1-.3-4.6-1.1-3.7-1.8-6-5.4-6-9.5V34.3c0-16.8,13.7-30.5,30.5-30.5h63.7c16.8,0,30.5,13.7,30.5,30.5v54.9c0,16.8-13.7,30.5-30.5,30.5h-56.8c-3,0-5.9,1-8.3,2.9l-11.9,9.6c-1.9,1.6-4.2,2.4-6.6,2.4ZM446.8,16.6c-9.8,0-17.7,7.9-17.7,17.7v85.1l8.3-6.7c4.6-3.7,10.4-5.8,16.3-5.8h56.8c9.8,0,17.7-7.9,17.7-17.7v-54.9c0-9.8-7.9-17.7-17.7-17.7h-63.7Z"/>
    <path class="cls-2" d="M478.2,97c-1.8,0-3.5-.4-5.2-1.3-10.1-5.3-33.7-20-34.1-40.2-.2-13.1,10.2-24,23.7-24.7,5.6-.3,11,1.1,15.6,3.9,4.5-2.8,9.9-4.2,15.6-3.9h0c13.5.8,23.9,11.6,23.7,24.7-.3,20.3-23.9,34.9-34.1,40.2-1.6.8-3.4,1.3-5.2,1.3h0ZM464.2,43.5c-.3,0-.6,0-.9,0-6.6.4-11.7,5.5-11.6,11.8.2,10.8,13.6,21.8,26.4,28.7,12.8-6.9,26.3-18,26.4-28.7.1-6.2-5-11.4-11.6-11.8-3.6-.2-7,.9-9.5,3-3.1,2.6-7.6,2.6-10.6,0-2.3-2-5.4-3.1-8.7-3.1h0Z"/>
  </g>
</svg>