<?xml version="1.0" encoding="UTF-8"?>
<svg id="Layer_1" data-name="Layer 1" xmlns="http://www.w3.org/2000/svg" xmlns:xlink="http://www.w3.org/1999/xlink" viewBox="0 0 247.39 213.54">
  <defs>
    <style>
      .cls-1 {
        fill: #fdcf7b;
      }

      .cls-1, .cls-2, .cls-3, .cls-4, .cls-5, .cls-6, .cls-7, .cls-8 {
        stroke-width: 0px;
      }

      .cls-1, .cls-3, .cls-4, .cls-5, .cls-6 {
        fill-rule: evenodd;
      }

      .cls-9 {
        fill: none;
        stroke: #fff;
        stroke-miterlimit: 10;
        stroke-width: .5px;
      }

      .cls-2 {
        fill: #fbbc50;
      }

      .cls-3 {
        fill: #ffde8c;
      }

      .cls-4 {
        fill: #fff4d6;
      }

      .cls-5 {
        fill: url(#_ÅÂÁ_Ï_ÌÌ_È_ËÂÌÚ_10);
      }

      .cls-6 {
        fill: #faa92d;
      }

      .cls-7 {
        fill: #fff;
      }

      .cls-8 {
        fill: url(#Dégradé_sans_nom_10);
      }
    </style>
    <radialGradient id="Dégradé_sans_nom_10" data-name="Dégradé sans nom 10" cx="-48.84" cy="-96.39" fx="-48.84" fy="-96.39" r="573.9" gradientTransform="translate(247.39 213.54) rotate(180)" gradientUnits="userSpaceOnUse">
      <stop offset="0" stop-color="#faa92d"/>
      <stop offset="1" stop-color="#f5ebbb"/>
    </radialGradient>
    <linearGradient id="_ÅÂÁ_Ï_ÌÌ_È_ËÂÌÚ_10" data-name="ÅÂÁ˚ÏﬂÌÌ˚È „‡‰ËÂÌÚ 10" x1="-138.28" y1="423.73" x2="-138.31" y2="423.72" gradientTransform="translate(62265.17 136400.52) scale(450 -321.85)" gradientUnits="userSpaceOnUse">
      <stop offset="0" stop-color="#fcedbb"/>
      <stop offset="1" stop-color="#ffde8c"/>
    </linearGradient>
  </defs>
  <rect class="cls-8" x="0" y="0" width="247.39" height="213.54" rx="23.26" ry="23.26" transform="translate(247.39 213.54) rotate(-180)"/>
  <g id="Gold">
    <path id="Mask" class="cls-2" d="M23.88,34.49v18.99l17.59,9.69,17.59-9.69v-18.99l-17.59-9.69-17.59,9.69ZM41.47,17.33l23.98,13.32v26.65l-23.98,13.32-23.98-13.32v-26.65l23.98-13.32Z"/>
    <polygon id="Path" class="cls-1" points="17.49 30.66 24.05 34.4 23.88 34.49 23.88 53.48 23.92 53.5 17.49 57.31 17.49 30.66"/>
    <polygon id="Path-2" data-name="Path" class="cls-1" points="41.47 17.33 65.46 30.66 59.06 34.49 41.47 24.8 41.47 17.33"/>
    <polygon id="Path-3" data-name="Path" class="cls-6" points="58.94 53.54 65.46 57.31 41.47 70.63 41.47 63.17 58.94 53.54"/>
    <polygon id="Path-4" data-name="Path" class="cls-5" points="41.47 17.33 41.47 24.8 23.88 34.49 17.49 30.79 17.49 30.66 41.47 17.33"/>
    <g id="Rectangle">
      <polygon id="Mask-2" data-name="Mask" class="cls-2" points="41.47 29.59 54.26 36.52 54.26 50.38 41.47 57.31 28.68 50.38 28.68 36.52 41.47 29.59"/>
      <polygon class="cls-3" points="28.68 36.52 41.47 29.59 41.47 43.5 28.68 45.7 28.68 36.52"/>
      <polygon class="cls-6" points="54.26 50.38 41.47 43.71 41.47 57.31 54.26 50.38"/>
      <polygon class="cls-1" points="41.47 29.59 41.47 43.5 54.26 36.52 41.47 29.59"/>
      <polygon class="cls-1" points="28.68 36.52 41.47 43.5 28.68 50.51 28.68 36.52"/>
      <polygon id="Path-7" class="cls-4" points="28.68 50.38 41.46 43.59 41.46 29.59 41.02 43.03 28.95 36.52 40.77 43.45 28.68 50.38"/>
    </g>
    <path id="Shape" class="cls-4" d="M59.06,34.49l.19,18.98,6.18,3.84-6.45-3.44-17.3,9.3-.21,7.46-.21-7.46-17.38-9.7,17.59,9.52,17.32-9.52.27-18.98ZM41.47,17.33l-23.35,13.5,5.76,3.65-6.01-3.19-.39,26.01v-26.65l23.98-13.32Z"/>
  </g>
  <g>
    <path class="cls-7" d="M78.18,48.46c.5.22.88.54,1.15.95s.4.9.4,1.47-.13,1.05-.4,1.47-.65.74-1.15.96c-.5.22-1.08.33-1.76.33h-1.75v2.24h-1.44v-7.75h3.19c.67,0,1.26.11,1.76.33ZM77.79,52.03c.32-.27.49-.65.49-1.14s-.16-.88-.49-1.14-.8-.4-1.43-.4h-1.68v3.08h1.68c.63,0,1.1-.13,1.43-.4Z"/>
    <path class="cls-7" d="M86.24,55.88l-1.58-2.27c-.07,0-.17.01-.3.01h-1.75v2.26h-1.44v-7.75h3.19c.67,0,1.26.11,1.76.33.5.22.88.54,1.15.95s.4.9.4,1.47-.14,1.09-.43,1.51c-.28.42-.69.74-1.22.94l1.78,2.55h-1.55ZM85.72,49.74c-.32-.27-.8-.4-1.43-.4h-1.68v3.09h1.68c.63,0,1.1-.13,1.43-.4.32-.27.49-.65.49-1.15s-.16-.88-.49-1.14Z"/>
    <path class="cls-7" d="M90.75,55.48c-.64-.34-1.13-.82-1.5-1.43-.36-.61-.54-1.29-.54-2.04s.18-1.43.54-2.04c.36-.61.86-1.09,1.5-1.43.63-.34,1.35-.52,2.14-.52s1.5.17,2.14.52c.64.34,1.13.82,1.5,1.42.36.61.54,1.29.54,2.05s-.18,1.44-.54,2.05-.86,1.08-1.5,1.42c-.64.34-1.35.52-2.14.52s-1.5-.17-2.14-.52ZM94.28,54.38c.41-.23.74-.56.97-.97.24-.42.35-.88.35-1.4s-.12-.98-.35-1.4c-.24-.42-.56-.74-.97-.97s-.88-.35-1.4-.35-.98.12-1.4.35c-.41.23-.74.56-.97.97-.24.42-.35.88-.35,1.4s.12.98.35,1.4c.24.42.56.74.97.97.41.23.88.35,1.4.35s.98-.12,1.4-.35Z"/>
    <path class="cls-7" d="M100.03,49.33v2.36h3.74v1.22h-3.74v2.97h-1.44v-7.75h5.66v1.21h-4.22Z"/>
    <path class="cls-7" d="M105.65,48.13h1.44v7.75h-1.44v-7.75Z"/>
    <path class="cls-7" d="M109.18,48.13h1.44v6.54h4.05v1.22h-5.5v-7.75Z"/>
  </g>
  <g>
    <path class="cls-7" d="M79.26,175.25l-1.53,3.56h-.99l-1.52-3.56h1.09l.97,2.32.99-2.32h1Z"/>
    <path class="cls-7" d="M80.21,178.64c-.3-.16-.54-.38-.71-.66-.17-.28-.26-.6-.26-.95s.09-.67.26-.95c.17-.28.41-.5.71-.66.3-.16.64-.24,1.01-.24s.71.08,1.01.24c.3.16.54.38.71.66.17.28.26.6.26.95s-.09.67-.26.95c-.17.28-.41.5-.71.66s-.64.24-1.01.24-.71-.08-1.01-.24ZM81.71,177.92c.15-.08.26-.2.35-.36.08-.15.13-.33.13-.53s-.04-.38-.13-.53-.2-.27-.35-.36c-.15-.08-.31-.13-.49-.13s-.34.04-.49.13c-.15.08-.26.2-.35.36s-.13.33-.13.53.04.38.13.53c.08.15.2.27.35.36.15.08.31.13.49.13s.34-.04.49-.13Z"/>
    <path class="cls-7" d="M84.14,178.45c-.29-.29-.44-.7-.44-1.23v-1.97h1.01v1.94c0,.57.23.85.68.85s.67-.28.67-.85v-1.94h.99v1.97c0,.53-.15.94-.44,1.23-.29.29-.7.43-1.23.43s-.94-.14-1.23-.43Z"/>
    <path class="cls-7" d="M88.14,178.78c-.27-.07-.49-.17-.66-.28l.33-.74c.16.11.34.19.55.25.21.06.42.1.62.1.39,0,.58-.1.58-.29,0-.1-.06-.18-.17-.23-.11-.05-.29-.1-.53-.15-.27-.06-.49-.12-.67-.19-.18-.07-.33-.17-.46-.32-.13-.15-.19-.34-.19-.59,0-.22.06-.41.18-.59.12-.17.3-.31.53-.41.24-.1.52-.15.87-.15.23,0,.46.03.69.08s.43.13.6.23l-.31.75c-.34-.18-.67-.27-.99-.27-.2,0-.35.03-.44.09s-.14.14-.14.23.05.17.16.21c.11.05.28.1.52.15.27.06.5.12.67.19.18.07.33.17.46.32.13.14.2.34.2.59,0,.21-.06.41-.18.58s-.3.31-.53.41c-.24.1-.53.16-.87.16-.29,0-.57-.04-.84-.11Z"/>
    <path class="cls-7" d="M95.36,178.03v.78h-2.86v-3.56h2.79v.78h-1.8v.6h1.58v.75h-1.58v.65h1.86ZM94.08,174.19h.97l-.96.77h-.69l.68-.77Z"/>
    <path class="cls-7" d="M96.68,178.65c-.3-.16-.53-.38-.7-.66-.17-.28-.25-.6-.25-.96s.08-.67.25-.96c.17-.28.4-.5.7-.66.3-.16.63-.24,1-.24.33,0,.62.06.88.17.26.12.48.28.65.5l-.64.58c-.23-.28-.51-.42-.84-.42-.19,0-.37.04-.52.13-.15.08-.27.2-.35.36s-.12.33-.12.53.04.38.12.53c.08.15.2.27.35.36.15.08.32.13.52.13.33,0,.61-.14.84-.42l.64.58c-.17.22-.39.38-.65.5-.26.12-.55.17-.88.17-.37,0-.71-.08-1-.24Z"/>
    <path class="cls-7" d="M100.37,178.64c-.3-.16-.54-.38-.71-.66-.17-.28-.26-.6-.26-.95s.09-.67.26-.95c.17-.28.41-.5.71-.66.3-.16.64-.24,1.01-.24s.71.08,1.01.24c.3.16.54.38.71.66.17.28.26.6.26.95s-.09.67-.26.95c-.17.28-.41.5-.71.66s-.64.24-1.01.24-.71-.08-1.01-.24ZM101.87,177.92c.15-.08.26-.2.35-.36.08-.15.13-.33.13-.53s-.04-.38-.13-.53-.2-.27-.35-.36c-.15-.08-.31-.13-.49-.13s-.34.04-.49.13c-.15.08-.26.2-.35.36s-.13.33-.13.53.04.38.13.53c.08.15.2.27.35.36.15.08.31.13.49.13s.34-.04.49-.13Z"/>
    <path class="cls-7" d="M107.28,175.25v3.56h-.83l-1.57-1.9v1.9h-.99v-3.56h.83l1.57,1.9v-1.9h.99Z"/>
    <path class="cls-7" d="M108.78,178.64c-.3-.16-.54-.38-.71-.66-.17-.28-.26-.6-.26-.95s.09-.67.26-.95c.17-.28.41-.5.71-.66.3-.16.64-.24,1.01-.24s.71.08,1.01.24c.3.16.54.38.71.66.17.28.26.6.26.95s-.09.67-.26.95c-.17.28-.41.5-.71.66s-.64.24-1.01.24-.71-.08-1.01-.24ZM110.28,177.92c.15-.08.26-.2.35-.36.08-.15.13-.33.13-.53s-.04-.38-.13-.53-.2-.27-.35-.36c-.15-.08-.31-.13-.49-.13s-.34.04-.49.13c-.15.08-.26.2-.35.36s-.13.33-.13.53.04.38.13.53c.08.15.2.27.35.36.15.08.31.13.49.13s.34-.04.49-.13Z"/>
    <path class="cls-7" d="M115.51,178.81v-1.89s-.93,1.54-.93,1.54h-.45l-.91-1.49v1.84h-.93v-3.56h.83l1.25,2.06,1.22-2.06h.83v3.56s-.92,0-.92,0Z"/>
    <path class="cls-7" d="M117.15,175.25h1.01v3.56h-1.01v-3.56Z"/>
    <path class="cls-7" d="M119.29,178.78c-.27-.07-.49-.17-.66-.28l.33-.74c.16.11.34.19.55.25s.42.1.62.1c.39,0,.58-.1.58-.29,0-.1-.06-.18-.17-.23-.11-.05-.29-.1-.53-.15-.27-.06-.49-.12-.67-.19s-.33-.17-.46-.32c-.13-.15-.19-.34-.19-.59,0-.22.06-.41.18-.59s.3-.31.53-.41.52-.15.87-.15c.23,0,.46.03.69.08.23.05.43.13.6.23l-.31.75c-.34-.18-.67-.27-.99-.27-.2,0-.35.03-.44.09s-.14.14-.14.23.05.17.16.21c.11.05.28.1.52.15.27.06.5.12.67.19.18.07.33.17.46.32.13.14.2.34.2.59,0,.21-.06.41-.18.58s-.3.31-.53.41c-.24.1-.53.16-.86.16-.29,0-.57-.04-.84-.11Z"/>
    <path class="cls-7" d="M125.02,178.03v.78h-2.86v-3.56h2.79v.78h-1.8v.6h1.58v.75h-1.58v.65h1.86Z"/>
    <path class="cls-7" d="M128.6,178.01v.8h-3.19v-.63l1.8-2.13h-1.75v-.8h3.07v.63l-1.8,2.13h1.87Z"/>
    <path class="cls-7" d="M78.22,183.49v.8h-2.77v-.63l1.33-1.25c.13-.12.22-.23.26-.31s.07-.17.07-.26c0-.12-.04-.21-.12-.27s-.19-.1-.34-.1c-.13,0-.25.03-.36.09-.11.06-.2.15-.27.26l-.75-.42c.14-.23.33-.41.58-.54.25-.13.55-.2.89-.2.27,0,.51.04.72.13.21.09.37.21.49.38s.18.36.18.57c0,.19-.04.38-.12.55-.08.17-.24.37-.48.58l-.67.62h1.37Z"/>
    <path class="cls-7" d="M80.96,182.33c.24.2.36.47.36.81,0,.22-.06.42-.17.61-.11.19-.29.33-.52.44s-.52.17-.86.17c-.25,0-.5-.03-.75-.09-.25-.06-.46-.15-.63-.26l.36-.76c.14.1.3.17.47.22.17.05.34.08.52.08s.31-.03.41-.1c.1-.07.15-.16.15-.28s-.05-.21-.15-.27c-.1-.06-.28-.09-.54-.09h-.97l.18-2.08h2.27v.78h-1.43l-.05.52h.24c.5,0,.87.1,1.11.31Z"/>
    <path class="cls-7" d="M83.84,184.14c-.24-.15-.42-.36-.56-.64-.13-.28-.2-.61-.2-.99s.07-.71.2-.99c.13-.28.32-.49.56-.64.24-.15.51-.22.81-.22s.57.07.81.22c.24.15.42.36.56.64.13.28.2.61.2.99s-.07.71-.2.99c-.13.28-.32.49-.56.64-.24.15-.51.22-.81.22s-.58-.07-.81-.22ZM85.06,183.29c.1-.16.15-.42.15-.78s-.05-.62-.15-.78c-.1-.16-.23-.25-.4-.25s-.31.08-.41.25c-.1.16-.15.42-.15.78s.05.62.15.78c.1.16.24.25.41.25s.3-.08.4-.25Z"/>
    <path class="cls-7" d="M87.33,184.14c-.24-.15-.42-.36-.56-.64-.13-.28-.2-.61-.2-.99s.07-.71.2-.99c.13-.28.32-.49.56-.64.24-.15.51-.22.81-.22s.57.07.81.22c.24.15.42.36.56.64.13.28.2.61.2.99s-.07.71-.2.99c-.13.28-.32.49-.56.64-.24.15-.51.22-.81.22s-.58-.07-.81-.22ZM88.54,183.29c.1-.16.15-.42.15-.78s-.05-.62-.15-.78c-.1-.16-.23-.25-.4-.25s-.31.08-.41.25c-.1.16-.15.42-.15.78s.05.62.15.78c.1.16.24.25.41.25s.3-.08.4-.25Z"/>
    <path class="cls-7" d="M90.81,184.14c-.24-.15-.42-.36-.56-.64-.13-.28-.2-.61-.2-.99s.07-.71.2-.99c.13-.28.32-.49.56-.64.24-.15.51-.22.81-.22s.57.07.81.22c.24.15.42.36.56.64.13.28.2.61.2.99s-.07.71-.2.99c-.13.28-.32.49-.56.64-.24.15-.51.22-.81.22s-.58-.07-.81-.22ZM92.03,183.29c.1-.16.15-.42.15-.78s-.05-.62-.15-.78c-.1-.16-.23-.25-.4-.25s-.31.08-.41.25c-.1.16-.15.42-.15.78s.05.62.15.78c.1.16.24.25.41.25s.3-.08.4-.25Z"/>
    <path class="cls-7" d="M97.45,184.29l-.74-1.1-.73,1.1h-1.15l1.3-1.8-1.24-1.76h1.13l.71,1.03.7-1.03h1.09l-1.24,1.72,1.32,1.84h-1.16Z"/>
    <path class="cls-7" d="M99.6,184.12c-.3-.16-.54-.38-.71-.66-.17-.28-.26-.6-.26-.95s.09-.67.26-.95c.17-.28.41-.5.71-.66.3-.16.64-.24,1.01-.24s.71.08,1.01.24c.3.16.54.38.71.66.17.28.26.6.26.95s-.09.67-.26.95c-.17.28-.41.5-.71.66s-.64.24-1.01.24-.71-.08-1.01-.24ZM101.11,183.4c.15-.08.26-.2.35-.36.08-.15.13-.33.13-.53s-.04-.38-.13-.53-.2-.27-.35-.36c-.15-.08-.31-.13-.49-.13s-.34.04-.49.13c-.15.08-.26.2-.35.36s-.13.33-.13.53.04.38.13.53c.08.15.2.27.35.36.15.08.31.13.49.13s.34-.04.49-.13Z"/>
    <path class="cls-7" d="M104.13,181.51v.78h1.57v.78h-1.57v1.22h-1.01v-3.56h2.79v.78h-1.79Z"/>
  </g>
  <g>
    <path class="cls-7" d="M80.95,101.56c.8.4,1.44.97,1.91,1.71.47.74.71,1.58.71,2.53,0,1.04-.27,1.95-.8,2.75-.53.79-1.25,1.41-2.17,1.84-.91.43-1.93.65-3.05.65-2.19,0-3.92-.65-5.18-1.95-1.27-1.3-1.9-3.16-1.9-5.6,0-1.75.34-3.26,1.02-4.52.68-1.26,1.63-2.22,2.85-2.88,1.23-.66,2.65-.98,4.27-.98.88,0,1.71.09,2.49.28.79.19,1.46.47,2.01.83l-1.58,3.11c-.74-.53-1.68-.79-2.82-.79s-2.01.31-2.69.92c-.69.61-1.08,1.49-1.18,2.65.88-.76,2.03-1.14,3.46-1.14.96,0,1.84.2,2.65.6ZM78.79,107.41c.39-.35.58-.82.58-1.42s-.19-1.05-.58-1.4c-.39-.35-.89-.53-1.52-.53s-1.14.18-1.53.54c-.39.36-.59.83-.59,1.41s.19,1.03.58,1.39c.39.36.91.54,1.56.54.61,0,1.11-.18,1.5-.53Z"/>
    <path class="cls-7" d="M87.93,110.08c-1.02-.63-1.82-1.54-2.4-2.75-.58-1.2-.86-2.63-.86-4.28s.29-3.07.86-4.28c.58-1.2,1.37-2.12,2.4-2.75,1.02-.63,2.19-.94,3.5-.94s2.46.31,3.48.94c1.02.63,1.82,1.54,2.4,2.75.58,1.2.86,2.63.86,4.28s-.29,3.07-.86,4.28c-.58,1.2-1.37,2.12-2.4,2.75-1.02.63-2.18.94-3.48.94s-2.48-.31-3.5-.94ZM93.17,106.42c.43-.71.65-1.83.65-3.36s-.22-2.65-.65-3.36c-.43-.71-1.01-1.06-1.74-1.06s-1.33.35-1.76,1.06c-.43.71-.65,1.83-.65,3.36s.21,2.65.65,3.36c.43.71,1.02,1.06,1.76,1.06s1.31-.35,1.74-1.06Z"/>
    <path class="cls-7" d="M102.91,110.08c-1.02-.63-1.82-1.54-2.4-2.75-.58-1.2-.86-2.63-.86-4.28s.29-3.07.86-4.28c.58-1.2,1.37-2.12,2.4-2.75,1.02-.63,2.19-.94,3.5-.94s2.46.31,3.48.94c1.02.63,1.82,1.54,2.4,2.75.58,1.2.86,2.63.86,4.28s-.29,3.07-.86,4.28c-.58,1.2-1.37,2.12-2.4,2.75-1.02.63-2.18.94-3.48.94s-2.48-.31-3.5-.94ZM108.15,106.42c.43-.71.65-1.83.65-3.36s-.22-2.65-.65-3.36c-.43-.71-1.01-1.06-1.74-1.06s-1.33.35-1.76,1.06c-.43.71-.65,1.83-.65,3.36s.21,2.65.65,3.36c.43.71,1.02,1.06,1.76,1.06s1.31-.35,1.74-1.06Z"/>
    <path class="cls-7" d="M81.46,113.79c.99.44,1.75,1.08,2.28,1.9.54.82.8,1.79.8,2.91s-.27,2.08-.8,2.9c-.54.82-1.3,1.45-2.28,1.89-.99.44-2.15.67-3.49.67h-2.58v3.87h-4.18v-14.79h6.76c1.34,0,2.5.22,3.49.67ZM79.66,120.2c.44-.37.66-.91.66-1.6s-.22-1.23-.66-1.61-1.08-.57-1.94-.57h-2.32v4.33h2.32c.86,0,1.51-.19,1.94-.56Z"/>
    <path class="cls-7" d="M90.03,127.22c-1.25-.66-2.23-1.58-2.94-2.75-.71-1.17-1.07-2.49-1.07-3.95s.36-2.78,1.07-3.95c.71-1.17,1.69-2.09,2.94-2.75,1.25-.66,2.65-.99,4.22-.99s2.97.33,4.22.99c1.25.66,2.23,1.58,2.94,2.75.71,1.17,1.07,2.49,1.07,3.95s-.36,2.78-1.07,3.95-1.69,2.09-2.94,2.75c-1.25.66-2.65.99-4.22.99s-2.97-.33-4.22-.99ZM96.27,124.22c.61-.35,1.08-.85,1.44-1.49.35-.64.53-1.38.53-2.21s-.18-1.57-.53-2.21c-.35-.64-.83-1.14-1.44-1.49-.61-.35-1.28-.53-2.03-.53s-1.42.18-2.03.53c-.61.35-1.09.85-1.44,1.49-.35.64-.53,1.38-.53,2.21s.18,1.57.53,2.21c.35.64.83,1.14,1.44,1.49.61.35,1.28.53,2.03.53s1.42-.18,2.03-.53Z"/>
    <path class="cls-7" d="M104.66,113.13h4.18v14.79h-4.18v-14.79Z"/>
    <path class="cls-7" d="M125.9,113.13v14.79h-3.45l-6.53-7.88v7.88h-4.1v-14.79h3.44l6.53,7.88v-7.88h4.1Z"/>
    <path class="cls-7" d="M132.01,116.45h-4.54v-3.32h13.25v3.32h-4.52v11.48h-4.18v-11.48Z"/>
    <path class="cls-7" d="M143.95,127.77c-1.13-.3-2.04-.69-2.75-1.18l1.37-3.09c.66.44,1.43.79,2.3,1.06.87.27,1.73.4,2.58.4,1.61,0,2.41-.4,2.41-1.2,0-.42-.23-.74-.69-.94-.46-.2-1.19-.42-2.21-.64-1.11-.24-2.04-.5-2.79-.77-.75-.27-1.39-.71-1.92-1.32s-.8-1.42-.8-2.45c0-.9.25-1.72.74-2.44.49-.73,1.23-1.3,2.21-1.72s2.18-.63,3.6-.63c.97,0,1.93.11,2.87.33.94.22,1.78.54,2.49.96l-1.29,3.11c-1.41-.76-2.78-1.14-4.1-1.14-.83,0-1.44.12-1.82.37-.38.25-.57.57-.57.96s.23.69.68.89c.45.2,1.18.4,2.18.61,1.13.24,2.06.5,2.8.77.74.27,1.38.71,1.92,1.31.54.6.81,1.41.81,2.44,0,.89-.25,1.69-.74,2.41-.49.72-1.23,1.29-2.22,1.72-.99.43-2.18.64-3.59.64-1.2,0-2.36-.15-3.49-.44Z"/>
  </g>
  <g>
    <path class="cls-7" d="M72.92,89.24c-.77-.43-1.38-1.01-1.82-1.77-.44-.75-.66-1.6-.66-2.53s.22-1.78.66-2.53c.44-.75,1.05-1.34,1.82-1.77s1.65-.64,2.61-.64c.72,0,1.39.12,2,.36.61.24,1.13.59,1.55,1.05l-.65.65c-.76-.77-1.72-1.15-2.87-1.15-.77,0-1.47.18-2.1.53-.63.35-1.12.83-1.48,1.44-.36.61-.53,1.3-.53,2.05s.18,1.44.53,2.05c.36.61.85,1.09,1.48,1.44.63.35,1.33.53,2.1.53,1.17,0,2.12-.39,2.87-1.17l.65.65c-.43.46-.95.82-1.56,1.06-.62.25-1.28.37-2,.37-.96,0-1.83-.21-2.6-.64Z"/>
    <path class="cls-7" d="M82.71,89.23c-.78-.43-1.39-1.02-1.83-1.77-.44-.75-.66-1.59-.66-2.53s.22-1.78.66-2.53c.44-.75,1.05-1.34,1.83-1.77s1.65-.65,2.62-.65,1.83.21,2.6.64,1.38,1.02,1.82,1.77c.44.75.67,1.6.67,2.53s-.22,1.78-.67,2.53c-.44.75-1.05,1.34-1.82,1.77-.77.43-1.64.64-2.6.64s-1.83-.22-2.62-.65ZM87.4,88.44c.62-.35,1.11-.83,1.46-1.44.35-.62.53-1.3.53-2.06s-.18-1.45-.53-2.06c-.35-.62-.84-1.1-1.46-1.44-.62-.35-1.31-.52-2.08-.52s-1.46.17-2.09.52c-.62.35-1.11.83-1.47,1.44-.36.62-.53,1.3-.53,2.06s.18,1.45.53,2.06c.36.62.85,1.1,1.47,1.44.62.35,1.32.52,2.09.52s1.46-.17,2.08-.52Z"/>
    <path class="cls-7" d="M102.8,80.08v9.71h-.99v-7.77l-3.82,6.54h-.49l-3.82-6.49v7.73h-.99v-9.71h.85l4.22,7.2,4.18-7.2h.85Z"/>
    <path class="cls-7" d="M112.52,80.97c.7.59,1.05,1.41,1.05,2.44s-.35,1.85-1.05,2.44c-.7.59-1.67.88-2.91.88h-2.61v3.07h-1.03v-9.71h3.64c1.24,0,2.21.3,2.91.89ZM111.78,85.19c.51-.42.76-1.02.76-1.78s-.25-1.39-.76-1.81c-.51-.42-1.24-.63-2.21-.63h-2.58v4.86h2.58c.96,0,1.7-.21,2.21-.63Z"/>
    <path class="cls-7" d="M117.36,80.97h-3.41v-.89h7.85v.89h-3.41v8.82h-1.03v-8.82Z"/>
    <path class="cls-7" d="M130.31,88.91v.89h-6.87v-9.71h6.66v.89h-5.63v3.46h5.02v.87h-5.02v3.61h5.84Z"/>
    <path class="cls-7" d="M133.69,88.79c-.7-.72-1.05-1.77-1.05-3.15v-5.56h1.03v5.52c0,1.13.25,1.97.76,2.53.51.55,1.24.83,2.21.83s1.71-.28,2.22-.83c.51-.56.76-1.4.76-2.53v-5.52h1v5.56c0,1.38-.35,2.43-1.05,3.15-.7.72-1.68,1.08-2.93,1.08s-2.24-.36-2.94-1.08Z"/>
    <path class="cls-7" d="M150.34,89.79l-2.22-3.12c-.25.03-.51.04-.78.04h-2.61v3.08h-1.03v-9.71h3.64c1.24,0,2.21.3,2.91.89.7.59,1.05,1.41,1.05,2.44,0,.76-.19,1.4-.58,1.92-.38.52-.93.9-1.64,1.13l2.37,3.33h-1.12ZM149.52,85.2c.51-.43.76-1.02.76-1.79s-.25-1.39-.76-1.81c-.51-.42-1.24-.63-2.21-.63h-2.58v4.87h2.58c.96,0,1.7-.21,2.21-.64Z"/>
  </g>
  <g>
    <path class="cls-7" d="M80.47,163.15v2.24h-7.76v-1.77l3.73-3.49c.36-.34.6-.63.73-.88.12-.24.19-.49.19-.73,0-.32-.11-.57-.33-.75s-.54-.27-.95-.27c-.37,0-.71.08-1.02.25-.31.17-.56.41-.76.72l-2.09-1.17c.39-.65.94-1.15,1.64-1.52.7-.37,1.53-.56,2.49-.56.76,0,1.43.12,2.02.37.58.25,1.04.6,1.37,1.06s.49.99.49,1.6c0,.54-.12,1.05-.35,1.53-.23.48-.68,1.02-1.35,1.63l-1.88,1.74h3.85Z"/>
    <path class="cls-7" d="M89,163.15v2.24h-7.76v-1.77l3.73-3.49c.36-.34.6-.63.73-.88.12-.24.19-.49.19-.73,0-.32-.11-.57-.33-.75s-.54-.27-.95-.27c-.37,0-.71.08-1.02.25-.31.17-.56.41-.76.72l-2.09-1.17c.39-.65.94-1.15,1.64-1.52.7-.37,1.53-.56,2.49-.56.76,0,1.43.12,2.02.37.58.25,1.04.6,1.37,1.06s.49.99.49,1.6c0,.54-.12,1.05-.35,1.53-.23.48-.68,1.02-1.35,1.63l-1.88,1.74h3.85Z"/>
    <path class="cls-7" d="M96.66,159.91c.67.57,1,1.33,1,2.28,0,.62-.16,1.18-.48,1.7-.32.52-.8.93-1.45,1.24-.65.31-1.46.46-2.41.46-.7,0-1.4-.09-2.09-.26-.69-.17-1.28-.41-1.77-.73l1.01-2.12c.4.27.84.47,1.32.61s.96.21,1.45.21.87-.09,1.16-.28c.29-.19.43-.44.43-.78s-.14-.58-.43-.75c-.28-.17-.79-.26-1.51-.26h-2.71l.5-5.83h6.35v2.18h-4.02l-.13,1.45h.67c1.4,0,2.43.28,3.1.85Z"/>
    <path class="cls-7" d="M104.74,164.98c-.66-.41-1.18-1-1.56-1.79-.38-.78-.56-1.71-.56-2.78s.19-2,.56-2.78.89-1.38,1.56-1.79c.66-.41,1.42-.61,2.28-.61s1.6.2,2.26.61c.66.41,1.18,1,1.56,1.79.37.78.56,1.71.56,2.78s-.19,2-.56,2.78c-.38.78-.9,1.38-1.56,1.79s-1.42.61-2.26.61-1.61-.2-2.28-.61ZM108.15,162.59c.28-.46.42-1.19.42-2.19s-.14-1.73-.42-2.19c-.28-.46-.66-.69-1.13-.69s-.87.23-1.15.69c-.28.46-.42,1.19-.42,2.19s.14,1.73.42,2.19c.28.46.66.69,1.15.69s.85-.23,1.13-.69Z"/>
    <path class="cls-7" d="M114.5,164.98c-.66-.41-1.18-1-1.56-1.79-.38-.78-.56-1.71-.56-2.78s.19-2,.56-2.78.9-1.38,1.56-1.79c.66-.41,1.42-.61,2.28-.61s1.6.2,2.26.61c.66.41,1.18,1,1.56,1.79s.56,1.71.56,2.78-.19,2-.56,2.78c-.38.78-.89,1.38-1.56,1.79-.67.41-1.42.61-2.26.61s-1.61-.2-2.28-.61ZM117.91,162.59c.28-.46.42-1.19.42-2.19s-.14-1.73-.42-2.19c-.28-.46-.66-.69-1.13-.69s-.87.23-1.15.69c-.28.46-.42,1.19-.42,2.19s.14,1.73.42,2.19c.28.46.66.69,1.15.69s.85-.23,1.13-.69Z"/>
    <path class="cls-7" d="M124.25,164.98c-.66-.41-1.18-1-1.56-1.79-.38-.78-.56-1.71-.56-2.78s.19-2,.56-2.78c.37-.78.89-1.38,1.56-1.79.66-.41,1.42-.61,2.28-.61s1.6.2,2.26.61c.66.41,1.18,1,1.56,1.79s.56,1.71.56,2.78-.19,2-.56,2.78c-.38.78-.9,1.38-1.56,1.79-.66.41-1.42.61-2.26.61s-1.61-.2-2.28-.61ZM127.66,162.59c.28-.46.42-1.19.42-2.19s-.14-1.73-.42-2.19c-.28-.46-.66-.69-1.13-.69s-.87.23-1.15.69c-.28.46-.42,1.19-.42,2.19s.14,1.73.42,2.19.66.69,1.15.69.85-.23,1.13-.69Z"/>
    <path class="cls-7" d="M142.84,165.39l-2.07-3.09-2.04,3.09h-3.22l3.63-5.04-3.48-4.93h3.18l1.99,2.88,1.97-2.88h3.05l-3.48,4.81,3.7,5.16h-3.25Z"/>
    <path class="cls-7" d="M148.87,164.92c-.84-.45-1.5-1.06-1.98-1.85-.48-.79-.72-1.68-.72-2.66s.24-1.87.72-2.66c.48-.79,1.14-1.41,1.98-1.85s1.79-.67,2.84-.67,2,.22,2.84.67,1.5,1.06,1.98,1.85c.48.79.72,1.68.72,2.66s-.24,1.88-.72,2.66c-.48.79-1.14,1.41-1.98,1.85s-1.79.67-2.84.67-2-.22-2.84-.67ZM153.08,162.9c.41-.24.73-.57.97-1,.24-.43.36-.93.36-1.49s-.12-1.06-.36-1.49c-.24-.43-.56-.77-.97-1s-.86-.36-1.37-.36-.96.12-1.37.36c-.41.24-.73.57-.97,1-.24.43-.36.93-.36,1.49s.12,1.06.36,1.49c.24.43.56.77.97,1,.41.24.86.36,1.37.36s.96-.12,1.37-.36Z"/>
    <path class="cls-7" d="M161.55,157.6v2.19h4.4v2.18h-4.4v3.42h-2.82v-9.97h7.82v2.18h-5Z"/>
  </g>
  <g>
    <path class="cls-7" d="M75.04,140.85h-3.85l-.83,1.85h-.76l3.16-6.92h.72l3.16,6.92h-.77l-.83-1.85ZM74.77,140.25l-1.66-3.72-1.66,3.72h3.32Z"/>
    <path class="cls-7" d="M85.04,136.41c.5.42.75,1,.75,1.74s-.25,1.32-.75,1.73c-.5.42-1.19.63-2.08.63h-1.86v2.18h-.73v-6.92h2.59c.88,0,1.57.21,2.08.63ZM84.52,139.42c.36-.3.54-.72.54-1.27s-.18-.99-.54-1.29c-.36-.3-.89-.45-1.57-.45h-1.84v3.46h1.84c.69,0,1.21-.15,1.57-.45Z"/>
    <path class="cls-7" d="M91.36,140.85h-3.85l-.83,1.85h-.76l3.16-6.92h.72l3.16,6.92h-.77l-.83-1.85ZM91.1,140.25l-1.66-3.72-1.66,3.72h3.32Z"/>
    <path class="cls-7" d="M98.84,142.7l-1.58-2.22c-.18.02-.36.03-.55.03h-1.86v2.19h-.73v-6.92h2.59c.88,0,1.57.21,2.08.63.5.42.75,1,.75,1.74,0,.54-.14,1-.41,1.37-.27.37-.66.64-1.17.81l1.69,2.37h-.8ZM98.25,139.43c.36-.3.54-.73.54-1.28s-.18-.99-.54-1.29c-.36-.3-.89-.45-1.57-.45h-1.84v3.47h1.84c.69,0,1.21-.15,1.57-.45Z"/>
    <path class="cls-7" d="M102.5,136.41h-2.43v-.63h5.59v.63h-2.43v6.29h-.73v-6.29Z"/>
    <path class="cls-7" d="M106.83,135.78h.73v6.92h-.73v-6.92Z"/>
    <path class="cls-7" d="M114.54,142.7l-1.58-2.22c-.18.02-.36.03-.55.03h-1.86v2.19h-.73v-6.92h2.59c.88,0,1.57.21,2.08.63.5.42.75,1,.75,1.74,0,.54-.14,1-.41,1.37s-.66.64-1.17.81l1.69,2.37h-.8ZM113.96,139.43c.36-.3.54-.73.54-1.28s-.18-.99-.54-1.29-.89-.45-1.57-.45h-1.84v3.47h1.84c.69,0,1.21-.15,1.57-.45Z"/>
    <path class="cls-7" d="M119.55,135.78h2.82c.73,0,1.38.15,1.94.44.56.29.99.7,1.3,1.23.31.52.46,1.12.46,1.79s-.15,1.27-.46,1.79c-.31.52-.74.93-1.3,1.23-.56.29-1.21.44-1.94.44h-2.82v-6.92ZM122.33,142.06c.61,0,1.14-.12,1.59-.36.45-.24.81-.57,1.06-1,.25-.42.38-.91.38-1.47s-.13-1.04-.38-1.47c-.25-.43-.6-.76-1.06-1-.46-.24-.99-.36-1.59-.36h-2.05v5.65h2.05Z"/>
    <path class="cls-7" d="M132.61,142.06v.63h-4.89v-6.92h4.74v.63h-4.01v2.46h3.58v.62h-3.58v2.57h4.16Z"/>
    <path class="cls-7" d="M133.8,138.38c-.1-.11-.15-.23-.15-.39s.05-.28.15-.38.23-.15.37-.15.27.05.38.15c.11.1.16.23.16.38s-.05.28-.16.39c-.11.11-.23.16-.38.16s-.27-.05-.37-.16ZM133.8,142.59c-.1-.11-.15-.23-.15-.39s.05-.28.15-.38c.1-.1.23-.15.37-.15s.27.05.38.15c.11.1.16.23.16.38s-.05.28-.16.39c-.11.11-.23.16-.38.16s-.27-.05-.37-.16Z"/>
    <path class="cls-7" d="M141.11,135.78v6.92h-1.96v-5.41h-1.28v-1.51h3.24Z"/>
    <path class="cls-7" d="M146.89,138.89c.46.4.7.92.7,1.58,0,.43-.11.82-.33,1.18-.22.36-.56.65-1.01.86-.45.21-1.01.32-1.67.32-.49,0-.97-.06-1.45-.18-.48-.12-.89-.29-1.23-.5l.7-1.47c.28.18.58.33.91.43.33.1.67.15,1,.15s.6-.06.81-.19.3-.31.3-.54-.1-.41-.3-.52c-.2-.12-.55-.18-1.05-.18h-1.88l.35-4.04h4.41v1.51h-2.79l-.09,1.01h.46c.97,0,1.69.2,2.15.59Z"/>
    <path class="cls-7" d="M152.68,142.3c-.55-.3-.98-.72-1.29-1.26-.31-.54-.47-1.14-.47-1.8s.16-1.27.47-1.8.75-.96,1.3-1.26c.55-.3,1.17-.45,1.86-.45.51,0,.99.09,1.42.26.44.17.8.42,1.11.75l-.46.46c-.54-.55-1.22-.82-2.05-.82-.55,0-1.04.13-1.49.38-.45.25-.8.59-1.05,1.03-.25.44-.38.92-.38,1.46s.13,1.03.38,1.46c.25.43.6.78,1.05,1.03.45.25.95.38,1.49.38.83,0,1.51-.28,2.05-.83l.46.46c-.3.33-.67.58-1.11.76-.44.17-.91.26-1.43.26-.69,0-1.3-.15-1.85-.45Z"/>
    <path class="cls-7" d="M162.8,140.85h-3.85l-.83,1.85h-.76l3.16-6.92h.72l3.16,6.92h-.77l-.83-1.85ZM162.53,140.25l-1.66-3.72-1.66,3.72h3.32Z"/>
    <path class="cls-7" d="M170.27,142.7l-1.58-2.22c-.18.02-.36.03-.55.03h-1.86v2.19h-.73v-6.92h2.59c.88,0,1.57.21,2.08.63.5.42.75,1,.75,1.74,0,.54-.14,1-.41,1.37s-.66.64-1.17.81l1.69,2.37h-.8ZM169.69,139.43c.36-.3.54-.73.54-1.28s-.18-.99-.54-1.29-.89-.45-1.57-.45h-1.84v3.47h1.84c.69,0,1.21-.15,1.57-.45Z"/>
    <path class="cls-7" d="M173.94,136.41h-2.43v-.63h5.59v.63h-2.43v6.29h-.73v-6.29Z"/>
    <path class="cls-7" d="M183.16,142.06v.63h-4.89v-6.92h4.74v.63h-4.01v2.46h3.58v.62h-3.58v2.57h4.16Z"/>
    <path class="cls-7" d="M185.31,142.51c-.47-.16-.84-.38-1.09-.65l.29-.56c.25.25.58.45,1,.61s.84.23,1.28.23c.62,0,1.08-.11,1.39-.34.31-.23.46-.52.46-.88,0-.28-.08-.5-.25-.66s-.37-.29-.62-.38c-.24-.09-.58-.19-1.02-.29-.52-.13-.94-.26-1.25-.38-.31-.12-.57-.31-.8-.56-.22-.25-.33-.59-.33-1.02,0-.35.09-.67.28-.95.18-.29.47-.52.85-.69.38-.17.86-.26,1.42-.26.4,0,.78.05,1.16.16.38.11.71.26.98.45l-.25.58c-.29-.19-.6-.33-.93-.43-.33-.1-.65-.14-.97-.14-.61,0-1.06.12-1.37.35-.31.23-.46.54-.46.9,0,.28.08.5.25.67.17.17.38.3.63.39.25.09.59.19,1.02.29.51.13.92.25,1.23.37.31.12.58.31.8.55.22.25.33.58.33,1,0,.35-.09.67-.28.95-.19.29-.48.51-.86.68-.39.17-.87.25-1.43.25-.51,0-1.01-.08-1.48-.25Z"/>
  </g>
  <rect class="cls-9" x="66.6" y="151.57" width="113.38" height="17.53" rx="5.25" ry="5.25"/>
</svg>