<?xml version="1.0" encoding="UTF-8"?>
<svg id="Layer_1" data-name="Layer 1" xmlns="http://www.w3.org/2000/svg" xmlns:xlink="http://www.w3.org/1999/xlink" viewBox="0 0 247.39 213.54">
  <defs>
    <style>
      .cls-1 {
        fill: #121617;
      }

      .cls-1, .cls-2, .cls-3, .cls-4, .cls-5, .cls-6, .cls-7, .cls-8, .cls-9, .cls-10, .cls-11, .cls-12, .cls-13, .cls-14, .cls-15, .cls-16, .cls-17, .cls-18, .cls-19, .cls-20, .cls-21, .cls-22, .cls-23, .cls-24, .cls-25, .cls-26, .cls-27, .cls-28, .cls-29, .cls-30, .cls-31, .cls-32, .cls-33 {
        stroke-width: 0px;
      }

      .cls-2 {
        fill: #886239;
      }

      .cls-34 {
        fill: none;
        stroke: #fff;
        stroke-miterlimit: 10;
        stroke-width: .5px;
      }

      .cls-3 {
        fill: #654117;
      }

      .cls-3, .cls-28, .cls-29, .cls-30 {
        fill-rule: evenodd;
      }

      .cls-4 {
        fill: url(#Dégradé_sans_nom_17-12);
      }

      .cls-5 {
        fill: url(#Dégradé_sans_nom_17-11);
      }

      .cls-6 {
        fill: url(#Dégradé_sans_nom_17-18);
      }

      .cls-7 {
        fill: url(#Dégradé_sans_nom_17-17);
      }

      .cls-8 {
        fill: url(#Dégradé_sans_nom_17-20);
      }

      .cls-9 {
        fill: url(#Dégradé_sans_nom_17-14);
      }

      .cls-10 {
        fill: url(#Dégradé_sans_nom_17-19);
      }

      .cls-11 {
        fill: url(#Dégradé_sans_nom_17-15);
      }

      .cls-12 {
        fill: url(#Dégradé_sans_nom_17-16);
      }

      .cls-13 {
        fill: url(#Dégradé_sans_nom_17-13);
      }

      .cls-14 {
        fill: url(#Dégradé_sans_nom_17-10);
      }

      .cls-15 {
        fill: url(#Dégradé_sans_nom_18-3);
      }

      .cls-16 {
        fill: url(#Dégradé_sans_nom_18-4);
      }

      .cls-17 {
        fill: url(#Dégradé_sans_nom_18-5);
      }

      .cls-18 {
        fill: url(#Dégradé_sans_nom_18-2);
      }

      .cls-19 {
        fill: url(#Dégradé_sans_nom_18-6);
      }

      .cls-20 {
        fill: url(#Dégradé_sans_nom_17-5);
      }

      .cls-21 {
        fill: url(#Dégradé_sans_nom_17-7);
      }

      .cls-22 {
        fill: url(#Dégradé_sans_nom_17-8);
      }

      .cls-23 {
        fill: url(#Dégradé_sans_nom_17-6);
      }

      .cls-24 {
        fill: url(#Dégradé_sans_nom_17-3);
      }

      .cls-25 {
        fill: url(#Dégradé_sans_nom_17-2);
      }

      .cls-26 {
        fill: url(#Dégradé_sans_nom_17-4);
      }

      .cls-27 {
        fill: url(#Dégradé_sans_nom_17-9);
      }

      .cls-28 {
        fill: #f8ba81;
      }

      .cls-29 {
        fill: #a77a4c;
      }

      .cls-30 {
        fill: #c19369;
      }

      .cls-31 {
        fill: #fff;
      }

      .cls-32 {
        fill: url(#Dégradé_sans_nom_18);
      }

      .cls-33 {
        fill: url(#Dégradé_sans_nom_17);
      }
    </style>
    <radialGradient id="Dégradé_sans_nom_17" data-name="Dégradé sans nom 17" cx="-58.4" cy="-45.37" fx="-58.4" fy="-45.37" r="457.53" gradientTransform="translate(247.39 213.54) rotate(180)" gradientUnits="userSpaceOnUse">
      <stop offset="0" stop-color="#f8ba81"/>
      <stop offset="1" stop-color="#a77a4c"/>
    </radialGradient>
    <radialGradient id="Dégradé_sans_nom_17-2" data-name="Dégradé sans nom 17" cx="-41.51" cy="-45.37" fx="-41.51" fy="-45.37" r="457.53" gradientTransform="translate(154.48 41.06) rotate(180)" xlink:href="#Dégradé_sans_nom_17"/>
    <radialGradient id="Dégradé_sans_nom_17-3" data-name="Dégradé sans nom 17" cx="-41.51" cy="-45.37" fx="-41.51" fy="-45.37" r="457.53" gradientTransform="matrix(1,0,0,1,0,0)" xlink:href="#Dégradé_sans_nom_17"/>
    <radialGradient id="Dégradé_sans_nom_17-4" data-name="Dégradé sans nom 17" cx="-41.51" cy="-45.37" fx="-41.51" fy="-45.37" r="457.53" gradientTransform="matrix(1,0,0,1,0,0)" xlink:href="#Dégradé_sans_nom_17"/>
    <radialGradient id="Dégradé_sans_nom_17-5" data-name="Dégradé sans nom 17" cx="-41.51" cy="-45.37" fx="-41.51" fy="-45.37" r="457.53" gradientTransform="matrix(1,0,0,1,0,0)" xlink:href="#Dégradé_sans_nom_17"/>
    <radialGradient id="Dégradé_sans_nom_17-6" data-name="Dégradé sans nom 17" cx="-41.51" cy="-45.37" fx="-41.51" fy="-45.37" r="457.53" gradientTransform="matrix(1,0,0,1,0,0)" xlink:href="#Dégradé_sans_nom_17"/>
    <radialGradient id="Dégradé_sans_nom_17-7" data-name="Dégradé sans nom 17" cx="-41.51" cy="-45.37" fx="-41.51" fy="-45.37" r="457.53" gradientTransform="matrix(1,0,0,1,0,0)" xlink:href="#Dégradé_sans_nom_17"/>
    <radialGradient id="Dégradé_sans_nom_17-8" data-name="Dégradé sans nom 17" cx="-41.51" cy="-45.37" fx="-41.51" fy="-45.37" r="457.53" gradientTransform="matrix(1,0,0,1,0,0)" xlink:href="#Dégradé_sans_nom_17"/>
    <radialGradient id="Dégradé_sans_nom_17-9" data-name="Dégradé sans nom 17" cx="-41.51" cy="-45.37" fx="-41.51" fy="-45.37" r="457.53" gradientTransform="matrix(1,0,0,1,0,0)" xlink:href="#Dégradé_sans_nom_17"/>
    <radialGradient id="Dégradé_sans_nom_17-10" data-name="Dégradé sans nom 17" cx="-41.51" cy="-45.37" fx="-41.51" fy="-45.37" r="457.53" gradientTransform="matrix(1,0,0,1,0,0)" xlink:href="#Dégradé_sans_nom_17"/>
    <radialGradient id="Dégradé_sans_nom_17-11" data-name="Dégradé sans nom 17" cx="-41.51" cy="-45.37" fx="-41.51" fy="-45.37" r="457.53" gradientTransform="matrix(1,0,0,1,0,0)" xlink:href="#Dégradé_sans_nom_17"/>
    <linearGradient id="Dégradé_sans_nom_18" data-name="Dégradé sans nom 18" x1="1.07" y1="-8.34" x2="50.67" y2="25.13" gradientUnits="userSpaceOnUse">
      <stop offset="0" stop-color="#f8ba81"/>
      <stop offset="1" stop-color="#a77a4c"/>
    </linearGradient>
    <linearGradient id="Dégradé_sans_nom_18-2" data-name="Dégradé sans nom 18" x1="4.39" y1="-13.27" x2="53.99" y2="20.21" xlink:href="#Dégradé_sans_nom_18"/>
    <linearGradient id="Dégradé_sans_nom_18-3" data-name="Dégradé sans nom 18" x1="7.61" y1="-18.03" x2="57.21" y2="15.45" xlink:href="#Dégradé_sans_nom_18"/>
    <linearGradient id="Dégradé_sans_nom_18-4" data-name="Dégradé sans nom 18" x1="11.17" y1="-23.3" x2="60.76" y2="10.18" xlink:href="#Dégradé_sans_nom_18"/>
    <linearGradient id="Dégradé_sans_nom_18-5" data-name="Dégradé sans nom 18" x1="15.04" y1="-29.04" x2="64.64" y2="4.44" xlink:href="#Dégradé_sans_nom_18"/>
    <linearGradient id="Dégradé_sans_nom_18-6" data-name="Dégradé sans nom 18" x1="18.51" y1="-34.18" x2="68.11" y2="-.71" xlink:href="#Dégradé_sans_nom_18"/>
    <radialGradient id="Dégradé_sans_nom_17-12" data-name="Dégradé sans nom 17" cx="143.79" cy="10.57" fx="143.79" fy="10.57" r="60.49" gradientTransform="matrix(1,0,0,1,0,0)" xlink:href="#Dégradé_sans_nom_17"/>
    <radialGradient id="Dégradé_sans_nom_17-13" data-name="Dégradé sans nom 17" cx="143.79" cy="10.57" fx="143.79" fy="10.57" r="60.49" gradientTransform="matrix(1,0,0,1,0,0)" xlink:href="#Dégradé_sans_nom_17"/>
    <radialGradient id="Dégradé_sans_nom_17-14" data-name="Dégradé sans nom 17" cx="143.79" cy="10.57" fx="143.79" fy="10.57" r="60.49" gradientTransform="matrix(1,0,0,1,0,0)" xlink:href="#Dégradé_sans_nom_17"/>
    <radialGradient id="Dégradé_sans_nom_17-15" data-name="Dégradé sans nom 17" cx="143.79" cy="10.57" fx="143.79" fy="10.57" r="60.49" gradientTransform="matrix(1,0,0,1,0,0)" xlink:href="#Dégradé_sans_nom_17"/>
    <radialGradient id="Dégradé_sans_nom_17-16" data-name="Dégradé sans nom 17" cx="143.79" cy="10.57" fx="143.79" fy="10.57" r="60.49" gradientTransform="matrix(1,0,0,1,0,0)" xlink:href="#Dégradé_sans_nom_17"/>
    <radialGradient id="Dégradé_sans_nom_17-17" data-name="Dégradé sans nom 17" cx="143.79" cy="10.57" fx="143.79" fy="10.57" r="60.49" gradientTransform="matrix(1,0,0,1,0,0)" xlink:href="#Dégradé_sans_nom_17"/>
    <radialGradient id="Dégradé_sans_nom_17-18" data-name="Dégradé sans nom 17" cx="143.79" cy="10.57" fx="143.79" fy="10.57" r="60.49" gradientTransform="matrix(1,0,0,1,0,0)" xlink:href="#Dégradé_sans_nom_17"/>
    <radialGradient id="Dégradé_sans_nom_17-19" data-name="Dégradé sans nom 17" cx="143.79" cy="10.57" fx="143.79" fy="10.57" r="60.49" gradientTransform="matrix(1,0,0,1,0,0)" xlink:href="#Dégradé_sans_nom_17"/>
    <radialGradient id="Dégradé_sans_nom_17-20" data-name="Dégradé sans nom 17" cx="143.79" cy="10.57" fx="143.79" fy="10.57" r="60.49" gradientTransform="matrix(1,0,0,1,0,0)" xlink:href="#Dégradé_sans_nom_17"/>
  </defs>
  <rect class="cls-33" x="0" y="0" width="247.39" height="213.54" rx="23.26" ry="23.26" transform="translate(247.39 213.54) rotate(-180)"/>
  <rect class="cls-25" x="50.76" y="14.33" width="52.95" height="12.4" rx="3.72" ry="3.72" transform="translate(154.48 41.06) rotate(-180)"/>
  <g>
    <path class="cls-24" d="M98.85,17.53h2.24v5.45h-1.01v-1.57s-1.23,0-1.23,0c-.47,0-.88-.08-1.23-.23-.35-.16-.62-.38-.81-.67-.19-.29-.28-.64-.28-1.03,0-.4.09-.74.28-1.04.19-.29.46-.51.81-.67.35-.16.76-.23,1.23-.23ZM98.9,20.55h1.18s0-2.16,0-2.16h-1.18c-.44,0-.78.09-1,.28-.23.19-.34.45-.34.8,0,.35.11.61.34.8.23.19.56.28,1,.28Z"/>
    <path class="cls-26" d="M92.9,23.06c-.56,0-1.06-.12-1.5-.36-.45-.24-.8-.57-1.05-1s-.38-.9-.38-1.44c0-.53.13-1.01.38-1.44s.6-.76,1.05-1c.45-.24.95-.36,1.5-.36s1.06.12,1.5.36c.45.24.8.58,1.05,1,.25.43.38.91.38,1.44,0,.53-.13,1.01-.38,1.44s-.6.76-1.05,1c-.45.24-.95.36-1.5.36ZM92.9,22.17c.36,0,.69-.08.98-.25.29-.16.52-.39.68-.68.17-.29.25-.62.25-.98,0-.36-.08-.69-.25-.98-.16-.29-.39-.52-.68-.69-.29-.16-.62-.24-.98-.24s-.69.08-.98.24c-.29.16-.52.39-.69.69s-.25.62-.25.98c0,.36.08.69.25.98.17.29.39.52.69.68.29.16.62.25.98.25Z"/>
    <path class="cls-20" d="M86.65,17.53h2.24v5.45h-1.01v-1.57s-1.23,0-1.23,0c-.47,0-.88-.08-1.23-.23-.35-.16-.62-.38-.81-.67-.19-.29-.28-.64-.28-1.03,0-.4.09-.74.28-1.04.19-.29.46-.51.81-.67.35-.16.76-.23,1.23-.23ZM86.69,20.55h1.18s0-2.16,0-2.16h-1.18c-.44,0-.78.09-1,.28-.23.19-.34.45-.34.8,0,.35.11.61.34.8.23.19.56.28,1,.28Z"/>
    <path class="cls-23" d="M80.97,23.06c-.75,0-1.34-.21-1.76-.63s-.63-1.03-.63-1.82v-3.07h1v3.04c0,1.07.46,1.6,1.38,1.6s1.39-.53,1.39-1.6v-3.04h1.01v3.07c0,.79-.21,1.39-.63,1.82-.42.42-1.01.63-1.76.63Z"/>
    <path class="cls-21" d="M77.17,22.98h-3.86v-.86h2.85s0-4.59,0-4.59h1.01v5.45Z"/>
    <path class="cls-22" d="M68.39,22.98h-1.06s2.46-5.45,2.46-5.45h1s2.45,5.45,2.45,5.45h-1.04s-.54-1.26-.54-1.26h-2.72s-.55,1.26-.55,1.26ZM71.32,20.92l-1.02-2.38-1.03,2.38h2.05Z"/>
    <path class="cls-27" d="M66.65,22.98h-1.01v-5.45h1.01v5.45Z"/>
    <path class="cls-14" d="M59.51,22.98l1.25-1.79c-.37-.15-.66-.37-.86-.66-.2-.3-.3-.65-.3-1.06,0-.4.09-.74.28-1.04.19-.29.46-.51.81-.67.35-.16.76-.23,1.23-.23h2.24v5.45h-1.01v-1.59s-1.23,0-1.23,0c-.09,0-.16,0-.21,0l-1.11,1.6h-1.09ZM60.62,19.47c0,.35.11.62.34.81.23.19.56.28,1,.28h1.18s0-2.17,0-2.17h-1.18c-.44,0-.78.09-1,.28-.23.19-.34.45-.34.8Z"/>
    <path class="cls-5" d="M57.46,22.13v-1.5s-2.63,0-2.63,0v-.83h2.63s0-1.42,0-1.42h-2.97v-.85h3.98v5.45h-4.09v-.85h3.08Z"/>
  </g>
  <g id="bronze">
    <path id="Mask" class="cls-2" d="M22.1,36.07v17.64l16.34,9,16.34-9v-17.64l-16.34-9-16.34,9ZM38.44,20.14l22.28,12.38v24.75l-22.28,12.38-22.28-12.38v-24.75l22.28-12.38Z"/>
    <polygon id="Path" class="cls-29" points="16.16 32.52 22.25 35.99 22.1 36.07 22.1 53.71 22.13 53.73 16.16 57.27 16.16 32.52"/>
    <polygon id="Path-2" data-name="Path" class="cls-29" points="38.44 20.14 60.71 32.52 54.77 36.07 38.44 27.07 38.44 20.14"/>
    <polygon id="Path-3" data-name="Path" class="cls-3" points="54.66 53.77 60.71 57.27 38.44 69.65 38.44 62.72 54.66 53.77"/>
    <polygon id="Path-4" data-name="Path" class="cls-30" points="38.44 20.14 38.44 27.07 22.1 36.07 16.16 32.64 16.16 32.52 38.44 20.14"/>
    <path id="Shape" class="cls-28" d="M54.77,36.07l.18,17.63,5.74,3.56-5.99-3.2-16.07,8.64-.2,6.93-.19-6.93-16.14-9.01,16.34,8.84,16.08-8.84.25-17.63ZM38.44,20.14l-21.69,12.54,5.35,3.39-5.58-2.96-.36,24.16v-24.75l22.28-12.38Z"/>
  </g>
  <g id="Bronze">
    <path id="Shape-2" data-name="Shape" class="cls-32" d="M71.74,49.01v-13.8h5.86c1.01,0,1.88.13,2.62.38.74.26,1.31.66,1.73,1.22s.62,1.3.62,2.22c0,.62-.15,1.13-.46,1.53-.3.4-.67.72-1.1.96-.43.24-.83.43-1.2.57l-.37-.72c.76.03,1.42.18,2,.47.57.28,1.02.68,1.35,1.18.32.5.49,1.11.49,1.81,0,.97-.23,1.76-.69,2.37-.46.61-1.08,1.07-1.85,1.37-.77.3-1.63.44-2.57.44h-6.42ZM75.09,46.43h2.81c.34,0,.66-.05.95-.16s.52-.28.7-.54c.18-.26.27-.6.27-1.02,0-.32-.06-.58-.17-.79-.11-.21-.26-.37-.44-.49-.19-.12-.4-.2-.63-.26-.23-.06-.48-.08-.74-.08h-2.75v3.33ZM75.09,40.63h2.69c.23,0,.46-.04.66-.13.21-.09.38-.23.51-.42.13-.19.2-.45.2-.77,0-.57-.15-.96-.46-1.17-.3-.21-.68-.32-1.12-.32h-2.48v2.81Z"/>
    <path id="Path-5" data-name="Path" class="cls-18" d="M85.52,49.01v-9.37c.19-.17.54-.36,1.03-.57.5-.21,1.07-.41,1.71-.58.64-.17,1.29-.26,1.93-.26s1.16.05,1.53.14c.37.1.66.22.85.37v2.26c-.23-.06-.53-.1-.89-.12-.36-.03-.73-.04-1.12-.05-.39,0-.75,0-1.1.01-.34.01-.63.04-.87.08v8.09h-3.08Z"/>
    <path id="Shape-3" data-name="Shape" class="cls-15" d="M99.1,49.32c-1.77,0-3.09-.47-3.98-1.42-.89-.95-1.33-2.33-1.33-4.17,0-1.97.45-3.39,1.36-4.25.9-.86,2.22-1.29,3.96-1.29,1.17,0,2.16.2,2.95.59.79.39,1.39,1,1.8,1.81.41.81.61,1.86.61,3.15,0,1.83-.46,3.22-1.39,4.17-.92.95-2.25,1.42-3.97,1.42ZM99.1,46.86c.51,0,.93-.12,1.27-.36.34-.24.59-.59.77-1.06.17-.46.26-1.03.26-1.71,0-.77-.09-1.38-.26-1.83-.17-.45-.43-.77-.78-.97-.34-.2-.77-.3-1.26-.3-.52,0-.95.1-1.28.31-.33.21-.58.53-.73.98-.16.45-.24,1.05-.24,1.81,0,1.05.18,1.83.55,2.35.37.52.93.78,1.71.78Z"/>
    <path id="Path-6" data-name="Path" class="cls-16" d="M106.59,39.43c.26-.14.61-.28,1.03-.42.43-.14.9-.27,1.41-.38.51-.11,1.02-.2,1.54-.27.52-.07,1-.1,1.44-.1.94,0,1.74.12,2.4.36.66.24,1.17.63,1.52,1.17s.53,1.27.53,2.19v7.04h-3.08v-6.42c0-.26-.04-.5-.11-.72-.08-.22-.19-.41-.34-.57-.15-.16-.36-.28-.62-.37-.26-.09-.58-.13-.95-.13-.32,0-.63.04-.95.11-.32.08-.56.16-.72.24v7.86h-3.08v-9.58Z"/>
    <polygon id="Path-7" data-name="Path" class="cls-17" points="118.76 49.01 118.76 46.57 124.36 40.22 124.67 40.86 118.88 40.86 118.88 38.54 127.08 38.54 127.08 40.94 121.86 47.34 121.76 46.55 127.08 46.55 127.08 49.01 118.76 49.01"/>
    <path id="Path-8" data-name="Path" class="cls-19" d="M134.11,49.32c-1.05,0-1.98-.22-2.78-.65-.81-.43-1.43-1.06-1.88-1.86-.45-.81-.67-1.77-.67-2.89,0-1.82.45-3.23,1.36-4.23.9-1,2.2-1.5,3.88-1.5,1.16,0,2.09.25,2.8.74.71.5,1.23,1.22,1.56,2.17.33.95.49,2.11.48,3.48h-7.97l-.33-1.97h5.75l-.46.97c-.01-1.12-.17-1.9-.48-2.36-.3-.46-.8-.68-1.49-.68-.39,0-.73.1-1.05.29-.31.19-.55.51-.72.96-.17.45-.26,1.07-.26,1.85,0,.99.24,1.76.71,2.3.48.54,1.24.81,2.29.81.39,0,.77-.04,1.15-.13.38-.09.73-.2,1.07-.32s.61-.23.85-.33v2.65c-.5.21-1.05.38-1.67.51-.61.13-1.33.2-2.14.2Z"/>
  </g>
  <g>
    <path class="cls-31" d="M75.96,183.43l-1.53,3.56h-.99l-1.52-3.56h1.09l.97,2.32.99-2.32h1Z"/>
    <path class="cls-31" d="M76.91,186.82c-.3-.16-.54-.38-.71-.66-.17-.28-.26-.6-.26-.95s.09-.67.26-.95c.17-.28.41-.5.71-.66.3-.16.64-.24,1.01-.24s.71.08,1.01.24.54.38.71.66c.17.28.26.6.26.95s-.09.67-.26.95c-.17.28-.41.5-.71.66-.3.16-.64.24-1.01.24s-.71-.08-1.01-.24ZM78.41,186.1c.15-.08.26-.2.35-.36.08-.15.13-.33.13-.53s-.04-.38-.13-.53-.2-.27-.35-.36c-.15-.08-.31-.13-.49-.13s-.34.04-.49.13c-.15.08-.26.2-.35.36s-.13.33-.13.53.04.38.13.53c.08.15.2.27.35.36.15.09.31.13.49.13s.34-.04.49-.13Z"/>
    <path class="cls-31" d="M80.84,186.63c-.29-.29-.44-.7-.44-1.23v-1.97h1.01v1.94c0,.57.23.85.68.85s.67-.28.67-.85v-1.94h.99v1.97c0,.53-.15.94-.44,1.23-.29.29-.7.43-1.23.43s-.94-.14-1.23-.43Z"/>
    <path class="cls-31" d="M84.84,186.95c-.27-.07-.49-.17-.66-.28l.33-.74c.16.11.34.19.55.25.21.06.42.1.62.1.39,0,.58-.1.58-.29,0-.1-.06-.18-.17-.23-.11-.05-.29-.1-.53-.16-.27-.06-.49-.12-.67-.19-.18-.07-.33-.17-.46-.32-.13-.15-.19-.34-.19-.59,0-.22.06-.41.18-.59.12-.17.3-.31.53-.41.24-.1.52-.15.87-.15.23,0,.46.03.69.08s.43.13.6.23l-.31.75c-.34-.18-.67-.27-.99-.27-.2,0-.35.03-.44.09s-.14.14-.14.23.05.17.16.21c.11.05.28.1.52.15.27.06.5.12.67.19.18.07.33.17.46.32.13.14.2.34.2.59,0,.21-.06.41-.18.58-.12.17-.3.31-.53.41-.24.1-.53.15-.87.15-.29,0-.57-.04-.84-.11Z"/>
    <path class="cls-31" d="M92.06,186.21v.78h-2.86v-3.56h2.79v.78h-1.8v.6h1.58v.75h-1.58v.65h1.86ZM90.78,182.36h.97l-.96.77h-.69l.68-.77Z"/>
    <path class="cls-31" d="M93.38,186.82c-.3-.16-.53-.38-.7-.66-.17-.28-.25-.6-.25-.96s.08-.67.25-.96c.17-.28.4-.5.7-.66.3-.16.63-.24,1-.24.33,0,.62.06.88.17.26.12.48.28.65.5l-.64.58c-.23-.28-.51-.42-.84-.42-.19,0-.37.04-.52.13-.15.08-.27.2-.35.36s-.12.33-.12.53.04.38.12.53c.08.15.2.27.35.36.15.09.32.13.52.13.33,0,.61-.14.84-.42l.64.58c-.17.22-.39.38-.65.5-.26.12-.55.17-.88.17-.37,0-.71-.08-1-.24Z"/>
    <path class="cls-31" d="M97.07,186.82c-.3-.16-.54-.38-.71-.66-.17-.28-.26-.6-.26-.95s.09-.67.26-.95c.17-.28.41-.5.71-.66.3-.16.64-.24,1.01-.24s.71.08,1.01.24.54.38.71.66c.17.28.26.6.26.95s-.09.67-.26.95c-.17.28-.41.5-.71.66-.3.16-.64.24-1.01.24s-.71-.08-1.01-.24ZM98.57,186.1c.15-.08.26-.2.35-.36.08-.15.13-.33.13-.53s-.04-.38-.13-.53-.2-.27-.35-.36c-.15-.08-.31-.13-.49-.13s-.34.04-.49.13c-.15.08-.26.2-.35.36s-.13.33-.13.53.04.38.13.53c.08.15.2.27.35.36.15.09.31.13.49.13s.34-.04.49-.13Z"/>
    <path class="cls-31" d="M103.98,183.43v3.56h-.83l-1.57-1.9v1.9h-.99v-3.56h.83l1.57,1.9v-1.9h.99Z"/>
    <path class="cls-31" d="M105.47,186.82c-.3-.16-.54-.38-.71-.66-.17-.28-.26-.6-.26-.95s.09-.67.26-.95c.17-.28.41-.5.71-.66.3-.16.64-.24,1.01-.24s.72.08,1.01.24.54.38.71.66c.17.28.26.6.26.95s-.09.67-.26.95c-.17.28-.41.5-.71.66-.3.16-.64.24-1.01.24s-.71-.08-1.01-.24ZM106.98,186.1c.15-.08.26-.2.35-.36.08-.15.13-.33.13-.53s-.04-.38-.13-.53c-.09-.15-.2-.27-.35-.36-.15-.08-.31-.13-.49-.13s-.34.04-.49.13-.26.2-.35.36c-.09.15-.13.33-.13.53s.04.38.13.53c.08.15.2.27.35.36.15.09.31.13.49.13s.34-.04.49-.13Z"/>
    <path class="cls-31" d="M112.21,186.99v-1.89s-.93,1.54-.93,1.54h-.45l-.91-1.49v1.84h-.93v-3.56h.83l1.25,2.06,1.22-2.06h.83v3.56s-.92,0-.92,0Z"/>
    <path class="cls-31" d="M113.85,183.43h1.01v3.56h-1.01v-3.56Z"/>
    <path class="cls-31" d="M115.99,186.95c-.27-.07-.49-.17-.66-.28l.33-.74c.16.11.34.19.55.25s.42.1.62.1c.39,0,.58-.1.58-.29,0-.1-.06-.18-.17-.23-.11-.05-.29-.1-.53-.16-.27-.06-.49-.12-.67-.19-.18-.07-.33-.17-.46-.32-.13-.15-.19-.34-.19-.59,0-.22.06-.41.18-.59s.3-.31.53-.41.52-.15.87-.15c.23,0,.46.03.69.08.23.05.43.13.6.23l-.31.75c-.34-.18-.67-.27-.99-.27-.2,0-.35.03-.44.09s-.14.14-.14.23.05.17.16.21c.11.05.28.1.52.15.27.06.5.12.67.19.18.07.33.17.46.32.13.14.2.34.2.59,0,.21-.06.41-.18.58-.12.17-.3.31-.53.41-.24.1-.53.15-.86.15-.29,0-.57-.04-.84-.11Z"/>
    <path class="cls-31" d="M121.72,186.21v.78h-2.86v-3.56h2.79v.78h-1.8v.6h1.58v.75h-1.58v.65h1.86Z"/>
    <path class="cls-31" d="M125.29,186.19v.8h-3.19v-.63l1.8-2.13h-1.75v-.8h3.07v.63l-1.8,2.13h1.87Z"/>
    <path class="cls-31" d="M74.61,190.51c.24.2.36.47.36.81,0,.22-.06.42-.17.61-.11.19-.29.33-.52.44-.23.11-.52.16-.86.16-.25,0-.5-.03-.75-.09-.25-.06-.46-.15-.63-.26l.36-.76c.14.1.3.17.47.22.17.05.34.08.52.08s.31-.03.41-.1c.1-.07.15-.16.15-.28s-.05-.21-.15-.27-.28-.09-.54-.09h-.97l.18-2.08h2.27v.78h-1.43l-.05.52h.24c.5,0,.87.1,1.11.31Z"/>
    <path class="cls-31" d="M77.49,192.32c-.24-.15-.42-.36-.56-.64-.13-.28-.2-.61-.2-.99s.07-.72.2-.99c.13-.28.32-.49.56-.64.24-.15.51-.22.81-.22s.57.07.81.22c.24.15.42.36.56.64.13.28.2.61.2.99s-.07.71-.2.99c-.13.28-.32.49-.56.64s-.51.22-.81.22-.58-.07-.81-.22ZM78.71,191.47c.1-.16.15-.43.15-.78s-.05-.62-.15-.78c-.1-.16-.23-.25-.4-.25s-.31.08-.41.25c-.1.16-.15.42-.15.78s.05.62.15.78c.1.16.24.25.41.25s.3-.08.4-.25Z"/>
    <path class="cls-31" d="M80.98,192.32c-.24-.15-.42-.36-.56-.64-.13-.28-.2-.61-.2-.99s.07-.72.2-.99c.13-.28.32-.49.56-.64.24-.15.51-.22.81-.22s.57.07.81.22c.24.15.42.36.56.64.13.28.2.61.2.99s-.07.71-.2.99c-.13.28-.32.49-.56.64s-.51.22-.81.22-.58-.07-.81-.22ZM82.2,191.47c.1-.16.15-.43.15-.78s-.05-.62-.15-.78c-.1-.16-.23-.25-.4-.25s-.31.08-.41.25c-.1.16-.15.42-.15.78s.05.62.15.78c.1.16.24.25.41.25s.3-.08.4-.25Z"/>
    <path class="cls-31" d="M84.46,192.32c-.24-.15-.42-.36-.56-.64-.13-.28-.2-.61-.2-.99s.07-.72.2-.99c.13-.28.32-.49.56-.64.24-.15.51-.22.81-.22s.57.07.81.22c.24.15.42.36.56.64.13.28.2.61.2.99s-.07.71-.2.99c-.13.28-.32.49-.56.64s-.51.22-.81.22-.58-.07-.81-.22ZM85.68,191.47c.1-.16.15-.43.15-.78s-.05-.62-.15-.78c-.1-.16-.23-.25-.4-.25s-.31.08-.41.25c-.1.16-.15.42-.15.78s.05.62.15.78c.1.16.24.25.41.25s.3-.08.4-.25Z"/>
    <path class="cls-31" d="M91.1,192.47l-.74-1.1-.73,1.1h-1.15l1.3-1.8-1.24-1.76h1.13l.71,1.03.7-1.03h1.09l-1.24,1.72,1.32,1.84h-1.16Z"/>
    <path class="cls-31" d="M93.25,192.3c-.3-.16-.54-.38-.71-.66-.17-.28-.26-.6-.26-.95s.09-.67.26-.95c.17-.28.41-.5.71-.66.3-.16.64-.24,1.01-.24s.71.08,1.01.24.54.38.71.66c.17.28.26.6.26.95s-.09.67-.26.95c-.17.28-.41.5-.71.66-.3.16-.64.24-1.01.24s-.71-.08-1.01-.24ZM94.76,191.58c.15-.08.26-.2.35-.36.08-.15.13-.33.13-.53s-.04-.38-.13-.53-.2-.27-.35-.36c-.15-.08-.31-.13-.49-.13s-.34.04-.49.13c-.15.08-.26.2-.35.36s-.13.33-.13.53.04.38.13.53c.08.15.2.27.35.36.15.09.31.13.49.13s.34-.04.49-.13Z"/>
    <path class="cls-31" d="M97.78,189.68v.78h1.57v.78h-1.57v1.22h-1.01v-3.56h2.79v.78h-1.79Z"/>
  </g>
  <g>
    <path class="cls-31" d="M80.87,110.61c.68.78,1.02,1.72,1.02,2.83,0,.9-.24,1.74-.73,2.52-.49.77-1.23,1.4-2.23,1.87-1,.47-2.24.71-3.71.71-1.08,0-2.15-.13-3.2-.39-1.06-.26-1.97-.63-2.75-1.12l1.57-3.26c.6.41,1.27.72,2.02.94.75.22,1.49.33,2.22.33s1.33-.14,1.77-.42.66-.67.66-1.18c0-.99-.78-1.49-2.34-1.49h-1.82v-2.73l2.73-2.95h-6.04v-3.35h11.07v2.71l-3.17,3.41c1.27.26,2.24.78,2.92,1.56Z"/>
    <path class="cls-31" d="M86.55,117.6c-1.02-.63-1.82-1.54-2.4-2.75-.58-1.2-.86-2.63-.86-4.28s.29-3.07.86-4.28c.58-1.2,1.37-2.12,2.4-2.75,1.02-.63,2.19-.94,3.5-.94s2.46.31,3.48.94c1.02.63,1.82,1.54,2.4,2.75.58,1.2.86,2.63.86,4.28s-.29,3.07-.86,4.28c-.58,1.2-1.37,2.12-2.4,2.75-1.02.63-2.18.94-3.48.94s-2.48-.31-3.5-.94ZM91.79,113.93c.43-.71.65-1.83.65-3.36s-.22-2.65-.65-3.36c-.43-.71-1.01-1.06-1.74-1.06s-1.33.35-1.76,1.06c-.43.71-.65,1.83-.65,3.36s.21,2.65.65,3.36c.43.71,1.02,1.06,1.76,1.06s1.31-.35,1.74-1.06Z"/>
    <path class="cls-31" d="M101.53,117.6c-1.02-.63-1.82-1.54-2.4-2.75-.58-1.2-.86-2.63-.86-4.28s.29-3.07.86-4.28c.58-1.2,1.37-2.12,2.4-2.75,1.02-.63,2.19-.94,3.5-.94s2.46.31,3.48.94c1.02.63,1.82,1.54,2.4,2.75.58,1.2.86,2.63.86,4.28s-.29,3.07-.86,4.28c-.58,1.2-1.37,2.12-2.4,2.75-1.02.63-2.18.94-3.48.94s-2.48-.31-3.5-.94ZM106.77,113.93c.43-.71.65-1.83.65-3.36s-.22-2.65-.65-3.36c-.43-.71-1.01-1.06-1.74-1.06s-1.33.35-1.76,1.06c-.43.71-.65,1.83-.65,3.36s.21,2.65.65,3.36c.43.71,1.02,1.06,1.76,1.06s1.31-.35,1.74-1.06Z"/>
    <path class="cls-31" d="M81.09,121.31c.99.44,1.75,1.08,2.28,1.9.54.82.8,1.79.8,2.91s-.27,2.08-.8,2.9c-.54.82-1.3,1.45-2.28,1.89-.99.44-2.15.67-3.49.67h-2.58v3.87h-4.18v-14.79h6.76c1.34,0,2.5.22,3.49.67ZM79.29,127.71c.44-.37.66-.9.66-1.6s-.22-1.23-.66-1.61-1.08-.57-1.94-.57h-2.32v4.33h2.32c.86,0,1.51-.19,1.94-.56Z"/>
    <path class="cls-31" d="M89.66,134.74c-1.25-.66-2.23-1.58-2.94-2.75-.71-1.17-1.07-2.49-1.07-3.95s.36-2.78,1.07-3.95c.71-1.17,1.69-2.09,2.94-2.75,1.25-.66,2.65-.99,4.22-.99s2.97.33,4.22.99c1.25.66,2.23,1.58,2.94,2.75s1.07,2.49,1.07,3.95-.36,2.78-1.07,3.95c-.71,1.17-1.69,2.09-2.94,2.75s-2.65.99-4.22.99-2.97-.33-4.22-.99ZM95.9,131.74c.61-.35,1.08-.85,1.44-1.49.35-.64.53-1.38.53-2.21s-.18-1.57-.53-2.21c-.35-.64-.83-1.14-1.44-1.49-.61-.35-1.28-.53-2.03-.53s-1.42.18-2.03.53c-.61.35-1.09.85-1.44,1.49-.35.64-.53,1.38-.53,2.21s.18,1.57.53,2.21c.35.64.83,1.14,1.44,1.49.61.35,1.28.53,2.03.53s1.42-.18,2.03-.53Z"/>
    <path class="cls-31" d="M104.29,120.64h4.18v14.79h-4.18v-14.79Z"/>
    <path class="cls-31" d="M125.53,120.64v14.79h-3.45l-6.53-7.88v7.88h-4.1v-14.79h3.45l6.53,7.88v-7.88h4.1Z"/>
    <path class="cls-31" d="M131.64,123.96h-4.54v-3.32h13.25v3.32h-4.52v11.48h-4.18v-11.48Z"/>
    <path class="cls-31" d="M143.58,135.29c-1.13-.3-2.04-.69-2.75-1.18l1.37-3.09c.66.44,1.43.79,2.3,1.06.87.27,1.73.4,2.58.4,1.61,0,2.41-.4,2.41-1.2,0-.42-.23-.74-.69-.94-.46-.2-1.19-.42-2.21-.64-1.11-.24-2.04-.5-2.79-.77s-1.39-.72-1.92-1.32c-.54-.61-.8-1.42-.8-2.45,0-.9.25-1.72.74-2.44s1.23-1.3,2.21-1.72c.98-.42,2.18-.63,3.6-.63.97,0,1.93.11,2.87.33s1.78.54,2.49.96l-1.29,3.11c-1.41-.76-2.78-1.14-4.1-1.14-.83,0-1.44.12-1.82.37-.38.25-.57.57-.57.96s.23.69.68.89,1.18.4,2.18.61c1.13.24,2.06.5,2.8.77.74.27,1.38.71,1.92,1.31.54.6.81,1.41.81,2.44,0,.89-.25,1.69-.74,2.41-.49.72-1.23,1.29-2.22,1.72-.99.43-2.18.64-3.59.64-1.2,0-2.36-.15-3.49-.44Z"/>
  </g>
  <g>
    <path class="cls-31" d="M72.55,96.75c-.77-.43-1.38-1.01-1.82-1.77-.44-.75-.66-1.6-.66-2.53s.22-1.78.66-2.53c.44-.75,1.05-1.34,1.82-1.77.78-.43,1.65-.64,2.61-.64.72,0,1.39.12,2,.36.61.24,1.13.59,1.55,1.05l-.65.65c-.76-.77-1.72-1.15-2.87-1.15-.77,0-1.47.18-2.1.53-.63.35-1.12.83-1.48,1.44-.36.61-.53,1.3-.53,2.05s.18,1.44.53,2.05c.36.61.85,1.09,1.48,1.44.63.35,1.33.53,2.1.53,1.17,0,2.12-.39,2.87-1.17l.65.65c-.43.46-.95.82-1.56,1.06-.62.25-1.28.37-2,.37-.96,0-1.83-.21-2.6-.64Z"/>
    <path class="cls-31" d="M82.34,96.75c-.78-.43-1.39-1.02-1.83-1.77-.44-.75-.66-1.59-.66-2.53s.22-1.78.66-2.53c.44-.75,1.05-1.34,1.83-1.77s1.65-.65,2.62-.65,1.83.21,2.6.64,1.38,1.02,1.82,1.77c.44.75.67,1.6.67,2.53s-.22,1.78-.67,2.53c-.44.75-1.05,1.34-1.82,1.77-.77.43-1.64.64-2.6.64s-1.83-.22-2.62-.65ZM87.03,95.96c.62-.35,1.11-.83,1.46-1.44.35-.62.53-1.3.53-2.06s-.18-1.45-.53-2.06c-.35-.62-.84-1.1-1.46-1.44-.62-.35-1.31-.52-2.08-.52s-1.46.17-2.09.52c-.62.35-1.11.83-1.47,1.44s-.53,1.3-.53,2.06.18,1.45.53,2.06.85,1.1,1.47,1.44c.62.35,1.32.52,2.09.52s1.46-.17,2.08-.52Z"/>
    <path class="cls-31" d="M102.43,87.6v9.71h-.99v-7.77l-3.82,6.54h-.49l-3.82-6.49v7.73h-.99v-9.71h.85l4.22,7.2,4.18-7.2h.85Z"/>
    <path class="cls-31" d="M112.15,88.48c.7.59,1.05,1.41,1.05,2.44s-.35,1.85-1.05,2.44c-.7.59-1.67.88-2.91.88h-2.61v3.07h-1.03v-9.71h3.64c1.24,0,2.21.3,2.91.89ZM111.41,92.71c.51-.42.76-1.02.76-1.78s-.25-1.39-.76-1.81c-.51-.42-1.24-.63-2.21-.63h-2.58v4.86h2.58c.96,0,1.7-.21,2.21-.63Z"/>
    <path class="cls-31" d="M116.99,88.48h-3.41v-.89h7.85v.89h-3.41v8.82h-1.03v-8.82Z"/>
    <path class="cls-31" d="M129.94,96.42v.89h-6.87v-9.71h6.66v.89h-5.63v3.46h5.02v.87h-5.02v3.61h5.84Z"/>
    <path class="cls-31" d="M133.32,96.31c-.7-.72-1.05-1.77-1.05-3.15v-5.56h1.03v5.52c0,1.13.25,1.97.76,2.53.51.55,1.24.83,2.21.83s1.71-.28,2.22-.83c.51-.56.76-1.4.76-2.53v-5.52h1v5.56c0,1.38-.35,2.43-1.05,3.15-.7.72-1.68,1.08-2.93,1.08s-2.24-.36-2.94-1.08Z"/>
    <path class="cls-31" d="M149.97,97.31l-2.22-3.12c-.25.03-.51.04-.78.04h-2.61v3.08h-1.03v-9.71h3.64c1.24,0,2.21.3,2.91.89.7.59,1.05,1.41,1.05,2.44,0,.76-.19,1.4-.58,1.92-.38.52-.93.9-1.64,1.13l2.37,3.33h-1.12ZM149.15,92.72c.51-.43.76-1.02.76-1.79s-.25-1.39-.76-1.81c-.51-.42-1.24-.63-2.21-.63h-2.58v4.87h2.58c.96,0,1.7-.21,2.21-.64Z"/>
  </g>
  <g>
    <path class="cls-31" d="M76.67,162.94v9.97h-2.82v-7.79h-1.85v-2.18h4.67Z"/>
    <path class="cls-31" d="M84.99,167.42c.67.57,1,1.33,1,2.28,0,.62-.16,1.18-.48,1.7s-.8.93-1.45,1.24c-.65.31-1.46.46-2.41.46-.7,0-1.4-.09-2.09-.26-.69-.17-1.28-.41-1.77-.73l1.01-2.12c.4.27.84.47,1.32.61s.96.21,1.45.21.87-.09,1.16-.28c.29-.19.43-.44.43-.78s-.14-.58-.43-.75-.79-.26-1.51-.26h-2.71l.5-5.83h6.35v2.18h-4.02l-.13,1.45h.67c1.4,0,2.43.28,3.1.85Z"/>
    <path class="cls-31" d="M93.07,172.49c-.66-.41-1.18-1-1.56-1.79-.38-.78-.56-1.71-.56-2.78s.19-2,.56-2.79c.38-.78.89-1.38,1.56-1.79.66-.41,1.42-.61,2.28-.61s1.6.2,2.26.61c.66.41,1.18,1,1.56,1.79.37.78.56,1.71.56,2.79s-.19,2-.56,2.78c-.38.78-.9,1.38-1.56,1.79s-1.42.61-2.26.61-1.61-.2-2.28-.61ZM96.49,170.11c.28-.46.42-1.19.42-2.19s-.14-1.73-.42-2.19c-.28-.46-.66-.69-1.13-.69s-.87.23-1.15.69c-.28.46-.42,1.19-.42,2.19s.14,1.73.42,2.19c.28.46.66.69,1.15.69s.85-.23,1.13-.69Z"/>
    <path class="cls-31" d="M102.83,172.49c-.66-.41-1.18-1-1.56-1.79-.38-.78-.56-1.71-.56-2.78s.19-2,.56-2.79c.38-.78.89-1.38,1.56-1.79.66-.41,1.42-.61,2.28-.61s1.6.2,2.26.61c.66.41,1.19,1,1.56,1.79.38.78.56,1.71.56,2.79s-.19,2-.56,2.78c-.38.78-.9,1.38-1.56,1.79s-1.42.61-2.26.61-1.61-.2-2.28-.61ZM106.24,170.11c.28-.46.42-1.19.42-2.19s-.14-1.73-.42-2.19c-.28-.46-.66-.69-1.13-.69s-.87.23-1.15.69c-.28.46-.42,1.19-.42,2.19s.14,1.73.42,2.19c.28.46.66.69,1.15.69s.85-.23,1.13-.69Z"/>
    <path class="cls-31" d="M112.59,172.49c-.66-.41-1.18-1-1.56-1.79-.38-.78-.56-1.71-.56-2.78s.19-2,.56-2.79c.37-.78.89-1.38,1.56-1.79.66-.41,1.42-.61,2.28-.61s1.6.2,2.26.61c.66.41,1.18,1,1.56,1.79.38.78.56,1.71.56,2.79s-.19,2-.56,2.78c-.38.78-.9,1.38-1.56,1.79-.66.41-1.42.61-2.26.61s-1.61-.2-2.28-.61ZM116,170.11c.28-.46.42-1.19.42-2.19s-.14-1.73-.42-2.19c-.28-.46-.66-.69-1.13-.69s-.87.23-1.15.69c-.28.46-.42,1.19-.42,2.19s.14,1.73.42,2.19c.28.46.66.69,1.15.69s.85-.23,1.13-.69Z"/>
    <path class="cls-31" d="M131.17,172.91l-2.07-3.09-2.04,3.09h-3.22l3.63-5.04-3.48-4.93h3.18l1.99,2.88,1.97-2.88h3.05l-3.48,4.81,3.7,5.16h-3.25Z"/>
    <path class="cls-31" d="M137.21,172.44c-.84-.45-1.5-1.06-1.98-1.85-.48-.79-.72-1.68-.72-2.66s.24-1.88.72-2.66c.48-.79,1.14-1.41,1.98-1.85s1.79-.67,2.84-.67,2,.22,2.84.67,1.5,1.06,1.98,1.85c.48.79.72,1.68.72,2.66s-.24,1.88-.72,2.66c-.48.79-1.14,1.41-1.98,1.85-.84.45-1.79.67-2.84.67s-2-.22-2.84-.67ZM141.41,170.41c.41-.24.73-.57.97-1,.24-.43.36-.93.36-1.49s-.12-1.06-.36-1.49c-.24-.43-.56-.77-.97-1-.41-.24-.86-.36-1.37-.36s-.96.12-1.37.36c-.41.24-.73.57-.97,1-.24.43-.36.93-.36,1.49s.12,1.06.36,1.49c.24.43.56.77.97,1,.41.24.86.36,1.37.36s.96-.12,1.37-.36Z"/>
    <path class="cls-31" d="M149.89,165.12v2.19h4.4v2.18h-4.4v3.42h-2.82v-9.97h7.82v2.18h-5Z"/>
  </g>
  <g>
    <path class="cls-31" d="M74.67,148.36h-3.85l-.83,1.85h-.76l3.16-6.92h.72l3.16,6.92h-.77l-.83-1.85ZM74.4,147.77l-1.66-3.72-1.66,3.72h3.32Z"/>
    <path class="cls-31" d="M84.67,143.93c.5.42.75,1,.75,1.74s-.25,1.32-.75,1.73c-.5.42-1.19.63-2.08.63h-1.86v2.18h-.73v-6.92h2.59c.88,0,1.57.21,2.08.63ZM84.14,146.94c.36-.3.54-.72.54-1.27s-.18-.99-.54-1.29c-.36-.3-.89-.45-1.57-.45h-1.84v3.46h1.84c.69,0,1.21-.15,1.57-.45Z"/>
    <path class="cls-31" d="M90.99,148.36h-3.85l-.83,1.85h-.76l3.16-6.92h.72l3.16,6.92h-.77l-.83-1.85ZM90.73,147.77l-1.66-3.72-1.66,3.72h3.32Z"/>
    <path class="cls-31" d="M98.47,150.21l-1.58-2.22c-.18.02-.36.03-.55.03h-1.86v2.19h-.73v-6.92h2.59c.88,0,1.57.21,2.08.63.5.42.75,1,.75,1.74,0,.54-.14,1-.41,1.37-.27.37-.66.64-1.17.81l1.69,2.37h-.8ZM97.88,146.94c.36-.3.54-.73.54-1.27s-.18-.99-.54-1.29c-.36-.3-.89-.45-1.57-.45h-1.84v3.47h1.84c.69,0,1.21-.15,1.57-.46Z"/>
    <path class="cls-31" d="M102.13,143.93h-2.43v-.63h5.59v.63h-2.43v6.29h-.73v-6.29Z"/>
    <path class="cls-31" d="M106.46,143.29h.73v6.92h-.73v-6.92Z"/>
    <path class="cls-31" d="M114.17,150.21l-1.58-2.22c-.18.02-.36.03-.55.03h-1.86v2.19h-.73v-6.92h2.59c.88,0,1.57.21,2.08.63.5.42.75,1,.75,1.74,0,.54-.14,1-.41,1.37-.27.37-.66.64-1.17.81l1.69,2.37h-.8ZM113.59,146.94c.36-.3.54-.73.54-1.27s-.18-.99-.54-1.29-.89-.45-1.57-.45h-1.84v3.47h1.84c.69,0,1.21-.15,1.57-.46Z"/>
    <path class="cls-31" d="M119.18,143.29h2.82c.73,0,1.38.15,1.94.44.56.29.99.7,1.3,1.23s.46,1.12.46,1.79-.15,1.27-.46,1.79-.74.93-1.3,1.23c-.56.29-1.21.44-1.94.44h-2.82v-6.92ZM121.96,149.58c.61,0,1.14-.12,1.59-.36.45-.24.81-.57,1.06-1,.25-.43.38-.91.38-1.47s-.13-1.04-.38-1.47c-.25-.42-.6-.76-1.06-1-.46-.24-.99-.36-1.59-.36h-2.05v5.65h2.05Z"/>
    <path class="cls-31" d="M132.24,149.58v.63h-4.89v-6.92h4.74v.63h-4.01v2.46h3.58v.62h-3.58v2.57h4.16Z"/>
    <path class="cls-31" d="M133.43,145.89c-.1-.11-.15-.23-.15-.39s.05-.28.15-.38c.1-.1.23-.15.37-.15s.27.05.38.15c.11.1.16.23.16.38s-.05.28-.16.39-.23.16-.38.16-.27-.05-.37-.16ZM133.43,150.1c-.1-.11-.15-.23-.15-.39s.05-.28.15-.38.23-.15.37-.15.27.05.38.15c.11.1.16.23.16.38s-.05.28-.16.39c-.11.11-.23.16-.38.16s-.27-.05-.37-.16Z"/>
    <path class="cls-31" d="M140.74,143.29v6.92h-1.96v-5.41h-1.28v-1.51h3.24Z"/>
    <path class="cls-31" d="M146.31,149.82c-.55-.3-.98-.72-1.29-1.26s-.47-1.14-.47-1.8.16-1.27.47-1.8.75-.96,1.3-1.26c.55-.3,1.17-.45,1.86-.45.51,0,.99.09,1.42.26.44.17.8.42,1.11.75l-.46.46c-.54-.55-1.22-.82-2.05-.82-.55,0-1.04.13-1.49.38s-.8.59-1.05,1.03c-.25.44-.38.92-.38,1.46s.13,1.03.38,1.46c.25.43.6.78,1.05,1.03s.95.38,1.49.38c.83,0,1.51-.28,2.05-.83l.46.46c-.3.33-.67.58-1.11.76-.44.17-.91.26-1.43.26-.69,0-1.3-.15-1.85-.45Z"/>
    <path class="cls-31" d="M156.42,148.36h-3.85l-.83,1.85h-.76l3.16-6.92h.72l3.16,6.92h-.77l-.83-1.85ZM156.16,147.77l-1.66-3.72-1.66,3.72h3.32Z"/>
    <path class="cls-31" d="M163.9,150.21l-1.58-2.22c-.18.02-.36.03-.55.03h-1.86v2.19h-.73v-6.92h2.59c.88,0,1.57.21,2.08.63.5.42.75,1,.75,1.74,0,.54-.14,1-.41,1.37-.27.37-.66.64-1.17.81l1.69,2.37h-.8ZM163.31,146.94c.36-.3.54-.73.54-1.27s-.18-.99-.54-1.29-.89-.45-1.57-.45h-1.84v3.47h1.84c.69,0,1.21-.15,1.57-.46Z"/>
    <path class="cls-31" d="M167.56,143.93h-2.43v-.63h5.59v.63h-2.43v6.29h-.73v-6.29Z"/>
    <path class="cls-31" d="M176.79,149.58v.63h-4.89v-6.92h4.74v.63h-4.01v2.46h3.58v.62h-3.58v2.57h4.16Z"/>
  </g>
  <rect class="cls-34" x="66.23" y="159.09" width="113.38" height="17.53" rx="5.25" ry="5.25"/>
  <rect class="cls-1" x="145.15" y="12.48" width="58.3" height="12.4" rx="3.72" ry="3.72"/>
  <g>
    <path class="cls-4" d="M153.03,15.91c.35.16.62.38.81.67.19.29.28.64.28,1.04s-.09.74-.28,1.03c-.19.29-.46.52-.81.67-.35.16-.76.23-1.23.23h-1.23v1.57h-1.01v-5.45h2.24c.47,0,.88.08,1.23.23ZM152.76,18.42c.23-.19.34-.46.34-.8s-.11-.61-.34-.8c-.23-.19-.56-.28-1-.28h-1.18v2.16h1.18c.44,0,.78-.09,1-.28Z"/>
    <path class="cls-13" d="M156.25,20.84c-.45-.24-.8-.58-1.05-1s-.38-.91-.38-1.44.13-1.01.38-1.44c.25-.43.6-.76,1.05-1,.45-.24.95-.36,1.5-.36s1.06.12,1.5.36c.45.24.8.57,1.05,1s.38.9.38,1.44-.13,1.01-.38,1.44-.6.76-1.05,1c-.45.24-.95.36-1.5.36s-1.06-.12-1.5-.36ZM158.73,20.07c.29-.16.52-.39.69-.68.17-.29.25-.62.25-.98s-.08-.69-.25-.98-.39-.52-.69-.69c-.29-.16-.62-.24-.98-.24s-.69.08-.98.24c-.29.16-.52.39-.68.69-.17.29-.25.62-.25.98s.08.69.25.98c.16.29.39.52.68.68.29.16.62.25.98.25s.69-.08.98-.25Z"/>
    <path class="cls-9" d="M165.24,15.91c.35.16.62.38.81.67.19.29.28.64.28,1.04s-.09.74-.28,1.03c-.19.29-.46.52-.81.67-.35.16-.76.23-1.23.23h-1.23v1.57h-1.01v-5.45h2.24c.47,0,.88.08,1.23.23ZM164.96,18.42c.23-.19.34-.46.34-.8s-.11-.61-.34-.8c-.23-.19-.56-.28-1-.28h-1.18v2.16h1.18c.44,0,.78-.09,1-.28Z"/>
    <path class="cls-11" d="M167.92,20.57c-.42-.42-.63-1.03-.63-1.82v-3.07h1.01v3.04c0,1.07.46,1.6,1.39,1.6s1.38-.53,1.38-1.6v-3.04h1v3.07c0,.79-.21,1.39-.63,1.82s-1,.63-1.76.63-1.34-.21-1.76-.63Z"/>
    <path class="cls-12" d="M173.48,15.68h1.01v4.59h2.85v.86h-3.86v-5.45Z"/>
    <path class="cls-7" d="M181.71,19.86h-2.72l-.54,1.26h-1.04l2.45-5.45h1l2.46,5.45h-1.06l-.55-1.26ZM181.38,19.07l-1.03-2.38-1.02,2.38h2.05Z"/>
    <path class="cls-6" d="M184.01,15.68h1.01v5.45h-1.01v-5.45Z"/>
    <path class="cls-10" d="M190.05,21.12l-1.11-1.6s-.12,0-.21,0h-1.23v1.59h-1.01v-5.45h2.24c.47,0,.88.08,1.23.23.35.16.62.38.81.67.19.29.28.64.28,1.04s-.1.76-.3,1.06c-.2.3-.49.52-.86.66l1.25,1.79h-1.09ZM189.69,16.81c-.23-.19-.56-.28-1-.28h-1.18v2.17h1.18c.44,0,.78-.09,1-.28.23-.19.34-.46.34-.81s-.11-.61-.34-.8Z"/>
    <path class="cls-8" d="M196.26,20.28v.85h-4.09v-5.45h3.98v.85h-2.97v1.42h2.63v.83h-2.63v1.5h3.08Z"/>
  </g>
</svg>