<?xml version="1.0" encoding="UTF-8"?>
<svg id="Layer_1" data-name="Layer 1" xmlns="http://www.w3.org/2000/svg" xmlns:xlink="http://www.w3.org/1999/xlink" viewBox="0 0 247.39 213.54">
  <defs>
    <style>
      .cls-1 {
        fill: url(#_ÅÂÁ_Ï_ÌÌ_È_ËÂÌÚ_3);
      }

      .cls-1, .cls-2, .cls-3, .cls-4, .cls-5, .cls-6, .cls-7, .cls-8, .cls-9, .cls-10 {
        stroke-width: 0px;
      }

      .cls-1, .cls-2, .cls-3, .cls-5, .cls-6, .cls-8, .cls-9 {
        fill-rule: evenodd;
      }

      .cls-2 {
        fill: url(#_ÅÂÁ_Ï_ÌÌ_È_ËÂÌÚ_2);
      }

      .cls-3 {
        fill: #cad6e4;
      }

      .cls-4, .cls-8 {
        fill: #b7c8d8;
      }

      .cls-5 {
        fill: #dae6f2;
      }

      .cls-11 {
        fill: none;
        stroke: #fff;
        stroke-miterlimit: 10;
        stroke-width: .5px;
      }

      .cls-6 {
        fill: #8aa0b9;
      }

      .cls-7, .cls-12 {
        fill: url(#Dégradé_sans_nom_2);
      }

      .cls-9, .cls-10 {
        fill: #fff;
      }
    </style>
    <radialGradient id="Dégradé_sans_nom_2" data-name="Dégradé sans nom 2" cx="-71.39" cy="-64.46" fx="-71.39" fy="-64.46" r="329.12" gradientTransform="translate(247.39 213.54) rotate(-180)" gradientUnits="userSpaceOnUse">
      <stop offset="0" stop-color="#636f79"/>
      <stop offset="1" stop-color="#8aa0b9"/>
    </radialGradient>
    <linearGradient id="_ÅÂÁ_Ï_ÌÌ_È_ËÂÌÚ_3" data-name="ÅÂÁ˚ÏﬂÌÌ˚È „‡‰ËÂÌÚ 3" x1="-141.21" y1="423.74" x2="-141.23" y2="423.72" gradientTransform="translate(63579.17 136400.52) scale(450 -321.85)" gradientUnits="userSpaceOnUse">
      <stop offset="0" stop-color="#ecf3f9"/>
      <stop offset="1" stop-color="#dae6f2"/>
    </linearGradient>
    <linearGradient id="_ÅÂÁ_Ï_ÌÌ_È_ËÂÌÚ_2" data-name="ÅÂÁ˚ÏﬂÌÌ˚È „‡‰ËÂÌÚ 2" x1="-150.04" y1="427.18" x2="-150.07" y2="427.19" gradientTransform="translate(36083.33 42538.95) scale(240.22 -99.49)" gradientUnits="userSpaceOnUse">
      <stop offset="0" stop-color="#fff"/>
      <stop offset="1" stop-color="#dae6f2"/>
    </linearGradient>
  </defs>
  <rect class="cls-7" x="0" y="0" width="247.39" height="213.54" rx="23.26" ry="23.26" transform="translate(247.39 213.54) rotate(180)"/>
  <rect class="cls-12" x="0" y="0" width="247.39" height="213.54" rx="23.26" ry="23.26" transform="translate(247.39 213.54) rotate(180)"/>
  <g id="Platinum">
    <path id="Mask" class="cls-4" d="M22.85,33.67v21.02l19.47,10.73,19.47-10.73v-21.02l-19.47-10.73-19.47,10.73ZM42.32,14.68l26.55,14.75v29.5l-26.55,14.75-26.55-14.75v-29.5l26.55-14.75Z"/>
    <polygon id="Path" class="cls-3" points="15.77 29.43 22.85 33.67 22.85 54.69 22.89 54.71 15.77 58.93 15.77 29.43"/>
    <polygon id="Path-2" data-name="Path" class="cls-3" points="42.32 14.68 68.87 29.43 61.79 33.67 42.32 22.94 42.32 14.68"/>
    <polygon id="Path-3" data-name="Path" class="cls-6" points="61.79 54.69 68.87 58.93 42.32 73.68 42.32 65.42 61.79 54.69"/>
    <polygon id="Path-4" data-name="Path" class="cls-1" points="42.32 14.68 42.32 22.94 22.85 33.67 15.77 29.57 15.77 29.43 42.32 14.68"/>
    <g id="Rectangle">
      <path id="Star-Copy" class="cls-8" d="M41.74,53.67l-7.42,3.28c-.38.17-.83,0-1-.38-.05-.12-.07-.25-.06-.38l.81-8.26c.04-.43-.1-.85-.39-1.17l-5.32-5.74c-.28-.31-.26-.78.04-1.06.1-.1.23-.16.37-.19l7.89-1.48c.44-.08.82-.36,1.04-.75l3.98-7.12c.2-.36.66-.49,1.03-.29.12.07.22.17.29.29l3.98,7.12c.22.39.6.66,1.04.75l7.89,1.48c.41.08.68.47.6.88-.03.14-.09.27-.19.37l-5.32,5.74c-.29.32-.44.74-.39,1.17l.81,8.26c.04.41-.26.78-.68.82-.13.01-.26,0-.38-.06l-7.42-3.28c-.39-.17-.84-.17-1.23,0Z"/>
      <path id="Shape" class="cls-3" d="M42.3,43.9l-8.59,13.04c-.17-.07-.31-.21-.39-.39-.05-.12-.07-.25-.06-.38l.81-8.26c.02-.18,0-.37-.05-.54l8.27-3.48ZM42.38,43.86h-.01s-.06.04-.06.04l.02-.03h.06ZM48.03,38.28l7.89,1.48c.32.06.55.31.6.6l-14.15,3.5,4.91-5.96c.21.19.46.32.74.37Z"/>
      <path id="Shape-2" data-name="Shape" class="cls-6" d="M42.37,43.88l-.04,9.66c-.2,0-.4.05-.59.13l-7.42,3.28c-.26.12-.56.07-.77-.1l8.82-12.97ZM56.53,40.64c-.03.14-.09.27-.19.37l-5.32,5.74c-.29.32-.44.74-.39,1.17l.81,8.26c.03.3-.13.58-.38.73l-8.7-13.03,14.16-3.51c.02.09.02.18,0,.28Z"/>
      <path id="Path-5" data-name="Path" class="cls-5" d="M42.37,30.02v13.86l-14.17-3.6c.04-.12.11-.24.21-.33.1-.1.23-.16.37-.19l7.89-1.48c.44-.08.82-.36,1.04-.75l3.98-7.12c.14-.25.4-.39.68-.39Z"/>
      <path id="Path-6" data-name="Path" class="cls-2" d="M37.29,38.01l5.08,5.87-14.17-3.6c.04-.12.11-.24.21-.33.1-.1.23-.16.37-.19l7.89-1.48c.23-.04.44-.14.62-.27Z"/>
    </g>
    <path id="Shape-3" data-name="Shape" class="cls-9" d="M61.79,33.67l.21,21.01,6.84,4.25-7.14-3.81-19.15,10.3-.23,8.26-.23-8.26-19.24-10.74,19.47,10.54,19.17-10.54.3-21.01ZM42.32,14.68l-25.85,14.95,6.38,4.04-6.65-3.53-.43,28.79v-29.5l26.55-14.75Z"/>
  </g>
  <g id="Platinum-2" data-name="Platinum">
    <path id="Shape-4" data-name="Shape" class="cls-4" d="M80.57,39.59v4.53h-3.35v-13.81h6.21c1.62,0,2.89.37,3.81,1.1.92.73,1.39,1.86,1.39,3.4s-.46,2.71-1.39,3.54c-.92.83-2.19,1.24-3.81,1.24h-2.86ZM80.57,37h2.44c.36,0,.67-.05.92-.14.26-.1.46-.23.61-.41.15-.18.27-.39.34-.63.08-.24.11-.5.11-.78,0-.33-.04-.62-.11-.87s-.19-.47-.34-.66c-.15-.19-.36-.34-.61-.43-.26-.1-.56-.14-.92-.14h-2.44v4.08Z"/>
    <polygon id="Path-7" data-name="Path" class="cls-4" points="93.93 44.13 90.87 44.13 90.87 29.69 93.93 29.69 93.93 44.13"/>
    <path id="Path-8" data-name="Path" class="cls-4" d="M100.7,44.44c-.64,0-1.23-.06-1.79-.18-.56-.12-1.05-.31-1.47-.58s-.75-.64-.98-1.1c-.23-.46-.35-1.04-.35-1.73,0-.65.13-1.21.4-1.7.27-.48.68-.86,1.23-1.12.55-.26,1.25-.39,2.09-.39.47,0,.92.05,1.37.14.44.1.84.23,1.19.39s.63.35.84.54l.12,1.49c-.28-.17-.61-.3-.99-.39-.39-.1-.8-.14-1.24-.14-.68,0-1.17.1-1.48.3-.31.2-.47.51-.47.94,0,.26.08.5.23.7s.36.37.61.48c.26.11.52.17.8.17.7,0,1.2-.05,1.48-.14.28-.1.42-.29.42-.58v-3.85c0-.64-.2-1.09-.61-1.38-.41-.28-.98-.42-1.73-.42-.61,0-1.22.11-1.83.32-.61.21-1.11.47-1.5.78v-2.73c.36-.22.91-.43,1.67-.62.75-.19,1.6-.29,2.54-.29.33,0,.7.03,1.1.08.4.06.8.16,1.2.3.4.14.77.36,1.11.63.34.28.61.63.82,1.06.21.43.31.96.31,1.59l-.02,4.95c0,.59-.2,1.07-.6,1.44-.4.37-.98.63-1.73.8s-1.66.25-2.72.25Z"/>
    <path id="Path-9" data-name="Path" class="cls-4" d="M112.79,44.54c-1.21,0-2.12-.29-2.71-.86-.59-.57-.89-1.38-.89-2.43v-5.24h-1.53v-2.36h1.53v-2.88h3.23v2.88h2.3v2.36h-2.3v4.85c0,.36.08.62.23.8.15.17.41.26.77.26.21,0,.43-.04.68-.12s.46-.19.62-.31v2.65c-.29.15-.6.26-.94.32s-.67.09-.98.09Z"/>
    <path id="Shape-5" data-name="Shape" class="cls-4" d="M117.12,44.13v-10.33h3.09l.02,10.33h-3.11ZM117.06,32.22v-2.38h3.19v2.38h-3.19Z"/>
    <path id="Path-10" data-name="Path" class="cls-4" d="M122.98,34.54c.26-.14.61-.28,1.04-.42s.9-.27,1.41-.38c.51-.11,1.02-.2,1.54-.27.52-.07,1-.1,1.44-.1.94,0,1.74.12,2.4.36.66.24,1.17.63,1.52,1.17s.53,1.27.53,2.19v7.04h-3.09v-6.42c0-.26-.04-.5-.11-.72-.08-.22-.19-.41-.34-.57-.15-.16-.36-.28-.62-.37-.26-.09-.58-.13-.95-.13-.32,0-.64.04-.95.11-.32.08-.56.16-.72.24v7.87h-3.09v-9.59Z"/>
    <path id="Path-11" data-name="Path" class="cls-4" d="M140.52,44.44c-.97,0-1.82-.15-2.57-.46-.75-.3-1.33-.77-1.74-1.4-.41-.63-.62-1.45-.62-2.45v-6.48h3.09v6.23c0,.66.15,1.16.45,1.48.3.32.77.49,1.42.49s1.14-.16,1.43-.49c.29-.32.43-.82.43-1.48v-6.23h2.9v6.48c0,1.49-.43,2.58-1.28,3.27-.86.69-2.02,1.04-3.5,1.04Z"/>
    <path id="Shape-6" data-name="Shape" class="cls-4" d="M157.77,37.09v7.04h-3.09v-6.42c0-.26-.04-.5-.11-.72-.08-.22-.19-.41-.34-.57-.15-.16-.36-.28-.62-.37-.26-.09-.58-.13-.95-.13-.32,0-.61.04-.88.11-.27.08-.49.16-.65.24v7.87h-3.09v-9.59c.26-.14.61-.28,1.04-.42s.9-.27,1.41-.38c.51-.11,1.02-.2,1.54-.27.52-.07,1-.1,1.44-.1.94,0,1.73.12,2.37.36.64.24,1.13.63,1.45,1.17s.49,1.27.49,2.19ZM154.6,35.24c.43-.37.95-.7,1.55-.98.61-.28,1.25-.5,1.93-.66.68-.16,1.3-.24,1.88-.24.94,0,1.73.12,2.37.36.64.24,1.13.63,1.45,1.17s.49,1.27.49,2.19v7.04h-3.09v-6.42c0-.26-.04-.5-.11-.72-.08-.22-.19-.41-.34-.57-.15-.16-.36-.28-.62-.37-.26-.09-.58-.13-.95-.13-.32,0-.61.04-.88.13-.27.09-.49.2-.65.34l-3.02-1.14Z"/>
  </g>
  <g>
    <path class="cls-10" d="M83.21,49.91c.5.22.88.54,1.15.95.27.41.4.9.4,1.47s-.13,1.05-.4,1.47c-.27.42-.65.74-1.15.96-.5.22-1.08.33-1.76.33h-1.75v2.24h-1.44v-7.75h3.19c.67,0,1.26.11,1.76.33ZM82.82,53.48c.32-.27.49-.65.49-1.14s-.16-.88-.49-1.14-.8-.4-1.43-.4h-1.68v3.08h1.68c.63,0,1.1-.13,1.43-.4Z"/>
    <path class="cls-10" d="M91.27,57.33l-1.58-2.27c-.07,0-.17.01-.3.01h-1.75v2.26h-1.44v-7.75h3.19c.67,0,1.26.11,1.76.33.5.22.88.54,1.15.95.27.41.4.9.4,1.47s-.14,1.09-.43,1.51c-.28.42-.69.74-1.22.94l1.78,2.55h-1.55ZM90.75,51.2c-.32-.27-.8-.4-1.43-.4h-1.68v3.09h1.68c.63,0,1.1-.13,1.43-.4.32-.27.49-.65.49-1.15s-.16-.88-.49-1.14Z"/>
    <path class="cls-10" d="M95.78,56.93c-.64-.34-1.13-.82-1.5-1.43-.36-.61-.54-1.29-.54-2.04s.18-1.43.54-2.04c.36-.61.86-1.09,1.5-1.43.63-.34,1.35-.52,2.14-.52s1.5.17,2.14.52c.63.34,1.13.82,1.5,1.42.36.61.54,1.29.54,2.05s-.18,1.44-.54,2.05c-.36.61-.86,1.08-1.5,1.42-.64.34-1.35.52-2.14.52s-1.5-.17-2.14-.52ZM99.31,55.83c.41-.23.74-.56.97-.97.24-.42.35-.88.35-1.4s-.12-.98-.35-1.4c-.24-.42-.56-.74-.97-.97s-.88-.35-1.4-.35-.98.12-1.4.35c-.41.23-.74.56-.97.97-.24.42-.36.88-.36,1.4s.12.98.36,1.4c.24.42.56.74.97.97.41.23.88.35,1.4.35s.98-.12,1.4-.35Z"/>
    <path class="cls-10" d="M105.06,50.79v2.36h3.74v1.22h-3.74v2.97h-1.44v-7.75h5.66v1.21h-4.22Z"/>
    <path class="cls-10" d="M110.68,49.58h1.44v7.75h-1.44v-7.75Z"/>
    <path class="cls-10" d="M114.21,49.58h1.44v6.54h4.05v1.22h-5.5v-7.75Z"/>
  </g>
  <g>
    <path class="cls-10" d="M82.73,98.45v15.31h-4.33v-11.96h-2.84v-3.35h7.17Z"/>
    <path class="cls-10" d="M88.28,113.13c-1.02-.63-1.82-1.54-2.4-2.75-.58-1.2-.86-2.63-.86-4.28s.29-3.07.86-4.28c.58-1.2,1.37-2.12,2.4-2.75s2.19-.94,3.5-.94,2.46.31,3.48.94c1.02.63,1.82,1.54,2.4,2.75.58,1.2.86,2.63.86,4.28s-.29,3.07-.86,4.28c-.58,1.2-1.37,2.12-2.4,2.75-1.02.63-2.18.94-3.48.94s-2.48-.31-3.5-.94ZM93.52,109.46c.43-.71.65-1.83.65-3.36s-.22-2.65-.65-3.36c-.43-.71-1.01-1.06-1.74-1.06s-1.33.35-1.76,1.06c-.43.71-.65,1.83-.65,3.36s.21,2.65.65,3.36c.43.71,1.02,1.06,1.76,1.06s1.31-.35,1.74-1.06Z"/>
    <path class="cls-10" d="M103.27,113.13c-1.02-.63-1.82-1.54-2.4-2.75-.58-1.2-.86-2.63-.86-4.28s.29-3.07.86-4.28c.58-1.2,1.37-2.12,2.4-2.75,1.02-.63,2.19-.94,3.5-.94s2.46.31,3.48.94,1.82,1.54,2.4,2.75c.58,1.2.86,2.63.86,4.28s-.29,3.07-.86,4.28c-.58,1.2-1.37,2.12-2.4,2.75s-2.18.94-3.48.94-2.48-.31-3.5-.94ZM108.51,109.46c.43-.71.64-1.83.64-3.36s-.22-2.65-.64-3.36c-.43-.71-1.01-1.06-1.74-1.06s-1.33.35-1.76,1.06c-.43.71-.64,1.83-.64,3.36s.21,2.65.64,3.36c.43.71,1.02,1.06,1.76,1.06s1.31-.35,1.74-1.06Z"/>
    <path class="cls-10" d="M118.25,113.13c-1.02-.63-1.82-1.54-2.4-2.75-.58-1.2-.86-2.63-.86-4.28s.29-3.07.86-4.28c.58-1.2,1.37-2.12,2.4-2.75,1.02-.63,2.19-.94,3.5-.94s2.46.31,3.48.94,1.82,1.54,2.4,2.75c.58,1.2.86,2.63.86,4.28s-.29,3.07-.86,4.28c-.58,1.2-1.37,2.12-2.4,2.75s-2.18.94-3.48.94-2.48-.31-3.5-.94ZM123.49,109.46c.43-.71.64-1.83.64-3.36s-.22-2.65-.64-3.36c-.43-.71-1.01-1.06-1.74-1.06s-1.33.35-1.76,1.06c-.43.71-.64,1.83-.64,3.36s.21,2.65.64,3.36c.43.71,1.02,1.06,1.76,1.06s1.31-.35,1.74-1.06Z"/>
    <path class="cls-10" d="M87.15,116.84c.99.44,1.75,1.08,2.28,1.9s.8,1.79.8,2.91-.27,2.08-.8,2.9c-.54.82-1.3,1.45-2.28,1.89-.99.44-2.15.67-3.49.67h-2.58v3.87h-4.18v-14.79h6.76c1.34,0,2.5.22,3.49.67ZM85.35,123.24c.44-.37.66-.91.66-1.6s-.22-1.23-.66-1.61-1.08-.57-1.94-.57h-2.32v4.33h2.32c.86,0,1.51-.19,1.94-.56Z"/>
    <path class="cls-10" d="M95.72,130.27c-1.25-.66-2.23-1.58-2.94-2.75-.71-1.17-1.07-2.49-1.07-3.95s.36-2.78,1.07-3.95c.71-1.17,1.69-2.09,2.94-2.75,1.25-.66,2.65-.99,4.22-.99s2.97.33,4.22.99c1.25.66,2.23,1.58,2.94,2.75.71,1.17,1.07,2.49,1.07,3.95s-.36,2.78-1.07,3.95-1.69,2.09-2.94,2.75c-1.25.66-2.65.99-4.22.99s-2.97-.33-4.22-.99ZM101.97,127.27c.61-.35,1.08-.85,1.44-1.49.35-.64.53-1.38.53-2.21s-.18-1.57-.53-2.21c-.35-.64-.83-1.14-1.44-1.49-.61-.35-1.28-.53-2.03-.53s-1.42.18-2.03.53c-.61.35-1.09.85-1.44,1.49-.35.64-.53,1.38-.53,2.21s.18,1.57.53,2.21c.35.64.83,1.14,1.44,1.49.61.35,1.28.53,2.03.53s1.42-.18,2.03-.53Z"/>
    <path class="cls-10" d="M110.36,116.17h4.18v14.79h-4.18v-14.79Z"/>
    <path class="cls-10" d="M131.59,116.17v14.79h-3.45l-6.53-7.88v7.88h-4.1v-14.79h3.44l6.53,7.88v-7.88h4.1Z"/>
    <path class="cls-10" d="M137.7,119.49h-4.54v-3.32h13.25v3.32h-4.52v11.48h-4.18v-11.48Z"/>
    <path class="cls-10" d="M149.64,130.82c-1.13-.3-2.04-.69-2.75-1.18l1.37-3.09c.66.44,1.43.79,2.3,1.06.87.27,1.73.4,2.58.4,1.61,0,2.41-.4,2.41-1.2,0-.42-.23-.74-.69-.94-.46-.2-1.19-.42-2.21-.64-1.11-.24-2.04-.5-2.79-.77-.75-.27-1.39-.71-1.92-1.32s-.8-1.42-.8-2.45c0-.9.25-1.72.74-2.44.49-.73,1.23-1.3,2.21-1.72s2.18-.63,3.6-.63c.97,0,1.93.11,2.87.33.94.22,1.78.54,2.49.96l-1.29,3.11c-1.41-.76-2.78-1.14-4.1-1.14-.83,0-1.44.12-1.82.37-.38.25-.57.57-.57.96s.23.69.68.89c.45.2,1.18.4,2.18.61,1.13.24,2.06.5,2.8.77.74.27,1.38.71,1.92,1.31.54.6.81,1.41.81,2.44,0,.89-.25,1.69-.74,2.41-.49.72-1.23,1.29-2.22,1.72-.99.43-2.18.64-3.59.64-1.2,0-2.36-.15-3.49-.44Z"/>
  </g>
  <g>
    <path class="cls-10" d="M78.62,92.28c-.77-.43-1.38-1.01-1.82-1.77-.44-.75-.66-1.6-.66-2.53s.22-1.78.66-2.53c.44-.75,1.05-1.34,1.82-1.77.78-.43,1.65-.64,2.61-.64.72,0,1.39.12,2,.36.61.24,1.13.59,1.55,1.05l-.65.65c-.76-.77-1.72-1.15-2.87-1.15-.77,0-1.47.18-2.1.53-.63.35-1.12.83-1.48,1.44-.36.61-.53,1.3-.53,2.05s.18,1.44.53,2.05c.36.61.85,1.09,1.48,1.44s1.33.53,2.1.53c1.17,0,2.12-.39,2.87-1.17l.65.65c-.43.46-.95.82-1.56,1.06-.61.25-1.28.37-2,.37-.96,0-1.83-.21-2.6-.64Z"/>
    <path class="cls-10" d="M88.4,92.28c-.78-.43-1.39-1.02-1.83-1.77-.44-.75-.66-1.59-.66-2.53s.22-1.78.66-2.53c.44-.75,1.05-1.34,1.83-1.77s1.65-.65,2.62-.65,1.83.21,2.6.64,1.38,1.02,1.82,1.77c.44.75.67,1.6.67,2.53s-.22,1.78-.67,2.53c-.44.75-1.05,1.34-1.82,1.77-.77.43-1.64.64-2.6.64s-1.83-.22-2.62-.65ZM93.1,91.49c.62-.35,1.11-.83,1.46-1.44s.53-1.3.53-2.06-.18-1.45-.53-2.06-.84-1.1-1.46-1.44c-.62-.35-1.31-.52-2.08-.52s-1.46.17-2.09.52c-.62.35-1.12.83-1.47,1.44-.36.62-.53,1.3-.53,2.06s.18,1.45.53,2.06c.36.62.85,1.1,1.47,1.44.62.35,1.32.52,2.09.52s1.46-.17,2.08-.52Z"/>
    <path class="cls-10" d="M108.5,83.13v9.71h-.98v-7.77l-3.82,6.54h-.49l-3.82-6.49v7.73h-.99v-9.71h.85l4.22,7.2,4.18-7.2h.85Z"/>
    <path class="cls-10" d="M118.21,84.01c.7.59,1.06,1.41,1.06,2.44s-.35,1.85-1.06,2.44c-.7.59-1.67.88-2.91.88h-2.61v3.07h-1.03v-9.71h3.64c1.24,0,2.21.3,2.91.89ZM117.48,88.24c.51-.42.76-1.02.76-1.78s-.25-1.39-.76-1.81c-.51-.42-1.24-.63-2.21-.63h-2.58v4.86h2.58c.96,0,1.7-.21,2.21-.63Z"/>
    <path class="cls-10" d="M123.05,84.01h-3.41v-.89h7.85v.89h-3.41v8.82h-1.03v-8.82Z"/>
    <path class="cls-10" d="M136,91.95v.89h-6.87v-9.71h6.66v.89h-5.63v3.46h5.02v.87h-5.02v3.61h5.84Z"/>
    <path class="cls-10" d="M139.38,91.84c-.7-.72-1.06-1.77-1.06-3.15v-5.56h1.03v5.52c0,1.13.25,1.97.76,2.53.51.55,1.24.83,2.21.83s1.71-.28,2.22-.83c.51-.56.76-1.4.76-2.53v-5.52h1v5.56c0,1.38-.35,2.43-1.05,3.15-.7.72-1.68,1.08-2.93,1.08s-2.24-.36-2.94-1.08Z"/>
    <path class="cls-10" d="M156.04,92.84l-2.22-3.12c-.25.03-.51.04-.78.04h-2.61v3.08h-1.03v-9.71h3.64c1.24,0,2.21.3,2.91.89s1.06,1.41,1.06,2.44c0,.76-.19,1.4-.58,1.92-.38.52-.93.9-1.64,1.13l2.37,3.33h-1.12ZM155.22,88.25c.51-.43.76-1.02.76-1.79s-.25-1.39-.76-1.81c-.51-.42-1.24-.63-2.21-.63h-2.58v4.87h2.58c.96,0,1.7-.21,2.21-.64Z"/>
  </g>
  <g>
    <path class="cls-10" d="M87.86,166.53h-1.48v1.91h-2.75v-1.91h-5.27v-1.84l4.47-6.22h2.92l-4.06,5.83h2.02v-1.69h2.66v1.69h1.48v2.24Z"/>
    <path class="cls-10" d="M90.55,168.02c-.66-.41-1.18-1-1.56-1.79-.38-.78-.56-1.71-.56-2.78s.19-2,.56-2.78.89-1.38,1.56-1.79c.66-.41,1.42-.61,2.28-.61s1.6.2,2.26.61c.66.41,1.18,1,1.56,1.79.37.78.56,1.71.56,2.78s-.19,2-.56,2.78c-.38.78-.9,1.38-1.56,1.79-.66.41-1.42.61-2.26.61s-1.61-.2-2.28-.61ZM93.96,165.64c.28-.46.42-1.19.42-2.19s-.14-1.73-.42-2.19c-.28-.46-.66-.69-1.13-.69s-.87.23-1.15.69c-.28.46-.42,1.19-.42,2.19s.14,1.73.42,2.19.66.69,1.15.69.85-.23,1.13-.69Z"/>
    <path class="cls-10" d="M100.31,168.02c-.66-.41-1.18-1-1.56-1.79-.38-.78-.56-1.71-.56-2.78s.19-2,.56-2.78.89-1.38,1.56-1.79c.66-.41,1.42-.61,2.28-.61s1.6.2,2.26.61c.66.41,1.18,1,1.56,1.79s.56,1.71.56,2.78-.19,2-.56,2.78c-.38.78-.89,1.38-1.56,1.79-.66.41-1.42.61-2.26.61s-1.61-.2-2.28-.61ZM103.72,165.64c.28-.46.42-1.19.42-2.19s-.14-1.73-.42-2.19c-.28-.46-.66-.69-1.13-.69s-.87.23-1.15.69c-.28.46-.42,1.19-.42,2.19s.14,1.73.42,2.19c.28.46.66.69,1.15.69s.85-.23,1.13-.69Z"/>
    <path class="cls-10" d="M114.21,168.02c-.66-.41-1.18-1-1.56-1.79-.38-.78-.56-1.71-.56-2.78s.19-2,.56-2.78.89-1.38,1.56-1.79c.66-.41,1.42-.61,2.28-.61s1.6.2,2.26.61c.66.41,1.18,1,1.56,1.79.37.78.56,1.71.56,2.78s-.19,2-.56,2.78c-.38.78-.9,1.38-1.56,1.79-.66.41-1.42.61-2.26.61s-1.61-.2-2.28-.61ZM117.62,165.64c.28-.46.42-1.19.42-2.19s-.14-1.73-.42-2.19c-.28-.46-.66-.69-1.13-.69s-.87.23-1.15.69c-.28.46-.42,1.19-.42,2.19s.14,1.73.42,2.19.66.69,1.15.69.85-.23,1.13-.69Z"/>
    <path class="cls-10" d="M123.96,168.02c-.66-.41-1.18-1-1.56-1.79-.38-.78-.56-1.71-.56-2.78s.19-2,.56-2.78.89-1.38,1.56-1.79c.66-.41,1.42-.61,2.28-.61s1.6.2,2.26.61c.66.41,1.18,1,1.56,1.79.37.78.56,1.71.56,2.78s-.19,2-.56,2.78c-.38.78-.9,1.38-1.56,1.79-.66.41-1.42.61-2.26.61s-1.61-.2-2.28-.61ZM127.37,165.64c.28-.46.42-1.19.42-2.19s-.14-1.73-.42-2.19c-.28-.46-.66-.69-1.13-.69s-.87.23-1.15.69c-.28.46-.42,1.19-.42,2.19s.14,1.73.42,2.19.66.69,1.15.69.85-.23,1.13-.69Z"/>
    <path class="cls-10" d="M133.72,168.02c-.66-.41-1.18-1-1.56-1.79-.38-.78-.56-1.71-.56-2.78s.19-2,.56-2.78.89-1.38,1.56-1.79c.66-.41,1.42-.61,2.28-.61s1.6.2,2.26.61c.66.41,1.18,1,1.56,1.79s.56,1.71.56,2.78-.19,2-.56,2.78c-.38.78-.89,1.38-1.56,1.79-.66.41-1.42.61-2.26.61s-1.61-.2-2.28-.61ZM137.13,165.64c.28-.46.42-1.19.42-2.19s-.14-1.73-.42-2.19c-.28-.46-.66-.69-1.13-.69s-.87.23-1.15.69c-.28.46-.42,1.19-.42,2.19s.14,1.73.42,2.19c.28.46.66.69,1.15.69s.85-.23,1.13-.69Z"/>
    <path class="cls-10" d="M152.31,168.44l-2.07-3.09-2.04,3.09h-3.22l3.63-5.04-3.48-4.93h3.18l1.99,2.88,1.97-2.88h3.05l-3.48,4.81,3.7,5.16h-3.25Z"/>
    <path class="cls-10" d="M158.34,167.97c-.84-.45-1.5-1.06-1.98-1.85-.48-.79-.72-1.68-.72-2.66s.24-1.87.72-2.66c.48-.79,1.14-1.41,1.98-1.85s1.79-.67,2.84-.67,2,.22,2.84.67,1.5,1.06,1.98,1.85c.48.79.72,1.68.72,2.66s-.24,1.88-.72,2.66c-.48.79-1.14,1.41-1.98,1.85s-1.79.67-2.84.67-2-.22-2.84-.67ZM162.55,165.94c.41-.24.73-.57.97-1,.24-.43.36-.93.36-1.49s-.12-1.06-.36-1.49c-.24-.43-.56-.77-.97-1-.41-.24-.86-.36-1.37-.36s-.96.12-1.37.36c-.41.24-.73.57-.97,1-.24.43-.36.93-.36,1.49s.12,1.06.36,1.49c.24.43.56.77.97,1,.41.24.86.36,1.37.36s.96-.12,1.37-.36Z"/>
    <path class="cls-10" d="M171.02,160.65v2.19h4.4v2.18h-4.4v3.42h-2.82v-9.97h7.82v2.18h-5Z"/>
  </g>
  <g>
    <path class="cls-10" d="M80.73,143.89h-3.85l-.83,1.85h-.76l3.16-6.92h.72l3.16,6.92h-.77l-.83-1.85ZM80.46,143.3l-1.66-3.72-1.66,3.72h3.32Z"/>
    <path class="cls-10" d="M90.73,139.46c.5.42.75,1,.75,1.74s-.25,1.32-.75,1.73c-.5.42-1.19.63-2.08.63h-1.86v2.18h-.73v-6.92h2.59c.88,0,1.57.21,2.08.63ZM90.21,142.47c.36-.3.54-.72.54-1.27s-.18-.99-.54-1.29c-.36-.3-.89-.45-1.57-.45h-1.84v3.46h1.84c.69,0,1.21-.15,1.57-.45Z"/>
    <path class="cls-10" d="M97.06,143.89h-3.85l-.83,1.85h-.76l3.16-6.92h.72l3.16,6.92h-.77l-.83-1.85ZM96.79,143.3l-1.66-3.72-1.66,3.72h3.32Z"/>
    <path class="cls-10" d="M104.53,145.74l-1.58-2.22c-.18.02-.36.03-.55.03h-1.86v2.19h-.73v-6.92h2.59c.88,0,1.57.21,2.08.63.5.42.75,1,.75,1.74,0,.54-.14,1-.41,1.37s-.66.64-1.17.81l1.69,2.37h-.8ZM103.95,142.47c.36-.3.54-.73.54-1.28s-.18-.99-.54-1.29c-.36-.3-.89-.45-1.57-.45h-1.84v3.47h1.84c.69,0,1.21-.15,1.57-.45Z"/>
    <path class="cls-10" d="M108.2,139.46h-2.43v-.63h5.59v.63h-2.43v6.29h-.73v-6.29Z"/>
    <path class="cls-10" d="M112.53,138.82h.73v6.92h-.73v-6.92Z"/>
    <path class="cls-10" d="M120.24,145.74l-1.58-2.22c-.18.02-.36.03-.55.03h-1.86v2.19h-.73v-6.92h2.59c.88,0,1.57.21,2.08.63.5.42.75,1,.75,1.74,0,.54-.14,1-.41,1.37s-.66.64-1.17.81l1.69,2.37h-.8ZM119.65,142.47c.36-.3.54-.73.54-1.28s-.18-.99-.54-1.29c-.36-.3-.89-.45-1.57-.45h-1.84v3.47h1.84c.69,0,1.21-.15,1.57-.45Z"/>
    <path class="cls-10" d="M125.25,138.82h2.82c.73,0,1.38.15,1.94.44.56.29.99.7,1.3,1.23.31.52.46,1.12.46,1.79s-.16,1.27-.46,1.79c-.31.52-.75.93-1.3,1.23-.56.29-1.21.44-1.94.44h-2.82v-6.92ZM128.02,145.11c.61,0,1.14-.12,1.59-.36.46-.24.81-.57,1.06-1,.25-.42.38-.91.38-1.47s-.13-1.04-.38-1.47c-.25-.43-.6-.76-1.06-1-.45-.24-.98-.36-1.59-.36h-2.05v5.65h2.05Z"/>
    <path class="cls-10" d="M138.3,145.11v.63h-4.89v-6.92h4.74v.63h-4.01v2.46h3.58v.62h-3.58v2.57h4.16Z"/>
    <path class="cls-10" d="M139.5,141.42c-.1-.11-.15-.23-.15-.39s.05-.28.15-.38.23-.15.37-.15.27.05.38.15c.11.1.16.23.16.38s-.05.28-.16.39c-.11.11-.23.16-.38.16s-.27-.05-.37-.16ZM139.5,145.63c-.1-.11-.15-.23-.15-.39s.05-.28.15-.38c.1-.1.23-.15.37-.15s.27.05.38.15c.11.1.16.23.16.38s-.05.28-.16.39c-.11.11-.23.16-.38.16s-.27-.05-.37-.16Z"/>
    <path class="cls-10" d="M148.71,142.3c.31.35.46.78.46,1.28,0,.41-.11.79-.33,1.14s-.56.63-1.01.84c-.45.21-1.01.32-1.68.32-.49,0-.97-.06-1.45-.18-.48-.12-.89-.29-1.24-.5l.71-1.47c.27.18.57.33.91.43.34.1.67.15,1,.15s.6-.06.8-.19c.2-.12.3-.3.3-.53,0-.45-.35-.67-1.06-.67h-.82v-1.24l1.24-1.33h-2.73v-1.51h5v1.23l-1.43,1.54c.57.12,1.01.35,1.32.71Z"/>
    <path class="cls-10" d="M151.27,145.46c-.46-.28-.82-.7-1.08-1.24s-.39-1.19-.39-1.93.13-1.39.39-1.93.62-.96,1.08-1.24c.46-.28.99-.43,1.58-.43s1.11.14,1.57.43c.46.28.82.7,1.08,1.24.26.54.39,1.19.39,1.93s-.13,1.39-.39,1.93c-.26.54-.62.96-1.08,1.24-.46.28-.98.43-1.57.43s-1.12-.14-1.58-.43ZM153.64,143.8c.19-.32.29-.83.29-1.52s-.1-1.2-.29-1.52c-.19-.32-.46-.48-.79-.48s-.6.16-.8.48c-.19.32-.29.83-.29,1.52s.1,1.2.29,1.52c.19.32.46.48.8.48s.59-.16.79-.48Z"/>
    <path class="cls-10" d="M161.1,145.35c-.55-.3-.98-.72-1.29-1.26-.31-.54-.47-1.14-.47-1.8s.16-1.27.47-1.8c.31-.54.75-.96,1.3-1.26.55-.3,1.17-.45,1.86-.45.51,0,.99.09,1.42.26.44.17.8.42,1.11.75l-.46.46c-.54-.55-1.22-.82-2.05-.82-.55,0-1.04.13-1.49.38-.45.25-.8.59-1.05,1.03-.25.44-.38.92-.38,1.46s.13,1.03.38,1.46c.25.43.6.78,1.05,1.03.45.25.95.38,1.49.38.83,0,1.51-.28,2.05-.83l.46.46c-.3.33-.67.58-1.11.76s-.91.26-1.43.26c-.69,0-1.3-.15-1.85-.45Z"/>
    <path class="cls-10" d="M171.22,143.89h-3.85l-.83,1.85h-.76l3.16-6.92h.72l3.16,6.92h-.77l-.83-1.85ZM170.95,143.3l-1.66-3.72-1.66,3.72h3.32Z"/>
    <path class="cls-10" d="M178.69,145.74l-1.58-2.22c-.18.02-.36.03-.55.03h-1.86v2.19h-.73v-6.92h2.59c.88,0,1.57.21,2.08.63.5.42.75,1,.75,1.74,0,.54-.14,1-.41,1.37s-.66.64-1.17.81l1.69,2.37h-.8ZM178.11,142.47c.36-.3.54-.73.54-1.28s-.18-.99-.54-1.29c-.36-.3-.89-.45-1.57-.45h-1.84v3.47h1.84c.69,0,1.21-.15,1.57-.45Z"/>
    <path class="cls-10" d="M182.36,139.46h-2.43v-.63h5.59v.63h-2.43v6.29h-.73v-6.29Z"/>
    <path class="cls-10" d="M191.58,145.11v.63h-4.89v-6.92h4.74v.63h-4.01v2.46h3.58v.62h-3.58v2.57h4.16Z"/>
    <path class="cls-10" d="M193.73,145.56c-.47-.16-.84-.38-1.09-.65l.29-.56c.25.25.58.45,1,.61s.84.23,1.29.23c.62,0,1.08-.11,1.39-.34.31-.23.46-.52.46-.88,0-.28-.08-.5-.25-.66-.17-.16-.37-.29-.62-.38-.24-.09-.58-.19-1.02-.29-.52-.13-.94-.26-1.25-.38-.31-.12-.57-.31-.8-.56-.22-.25-.33-.59-.33-1.02,0-.35.09-.67.28-.95.18-.29.47-.52.85-.69.38-.17.86-.26,1.42-.26.4,0,.78.05,1.16.16s.71.26.98.45l-.25.58c-.29-.19-.6-.33-.93-.43-.33-.1-.65-.14-.97-.14-.61,0-1.06.12-1.37.35-.31.23-.46.54-.46.9,0,.28.08.5.25.67.17.17.38.3.63.39.25.09.59.19,1.02.29.51.13.92.25,1.23.37.31.12.58.31.8.55.22.25.33.58.33,1,0,.35-.09.67-.28.95s-.48.51-.86.68c-.39.17-.87.25-1.43.25-.51,0-1.01-.08-1.48-.25Z"/>
  </g>
  <g>
    <path class="cls-10" d="M84.54,178.3l-1.53,3.56h-.99l-1.52-3.56h1.09l.97,2.32.99-2.32h1Z"/>
    <path class="cls-10" d="M85.49,181.69c-.3-.16-.54-.38-.71-.66-.17-.28-.26-.6-.26-.95s.09-.67.26-.95c.17-.28.41-.5.71-.66.3-.16.64-.24,1.01-.24s.72.08,1.01.24c.3.16.54.38.71.66.17.28.26.6.26.95s-.09.67-.26.95c-.17.28-.41.5-.71.66-.3.16-.64.24-1.01.24s-.71-.08-1.01-.24ZM86.99,180.97c.15-.08.26-.2.35-.36.08-.15.13-.33.13-.53s-.04-.38-.13-.53c-.09-.15-.2-.27-.35-.36-.15-.08-.31-.13-.49-.13s-.34.04-.49.13-.26.2-.35.36c-.09.15-.13.33-.13.53s.04.38.13.53c.08.15.2.27.35.36s.31.13.49.13.34-.04.49-.13Z"/>
    <path class="cls-10" d="M89.42,181.5c-.29-.29-.44-.7-.44-1.23v-1.97h1.01v1.94c0,.57.23.85.68.85s.67-.28.67-.85v-1.94h.99v1.97c0,.53-.15.94-.44,1.23s-.7.43-1.23.43-.94-.14-1.23-.43Z"/>
    <path class="cls-10" d="M93.42,181.82c-.27-.07-.49-.17-.66-.28l.33-.74c.16.11.34.19.55.25.21.06.42.1.62.1.39,0,.58-.1.58-.29,0-.1-.06-.18-.17-.23-.11-.05-.29-.1-.53-.15-.27-.06-.49-.12-.67-.19-.18-.07-.33-.17-.46-.32-.13-.15-.19-.34-.19-.59,0-.22.06-.41.18-.59s.3-.31.53-.41c.24-.1.52-.15.87-.15.23,0,.46.03.69.08.23.05.43.13.6.23l-.31.75c-.34-.18-.67-.27-.99-.27-.2,0-.35.03-.44.09s-.14.14-.14.23.05.17.16.21c.11.05.28.1.52.15.27.06.5.12.67.19.18.07.33.17.46.32s.2.34.2.59c0,.21-.06.41-.18.58s-.3.31-.53.41c-.24.1-.53.16-.87.16-.29,0-.57-.04-.84-.11Z"/>
    <path class="cls-10" d="M100.64,181.08v.78h-2.86v-3.56h2.79v.78h-1.8v.6h1.58v.75h-1.58v.65h1.86ZM99.36,177.23h.97l-.96.77h-.69l.68-.77Z"/>
    <path class="cls-10" d="M101.96,181.69c-.3-.16-.53-.38-.7-.66-.17-.28-.25-.6-.25-.96s.08-.67.25-.96c.17-.28.4-.5.7-.66.3-.16.63-.24,1-.24.33,0,.62.06.88.17.26.12.48.28.65.5l-.64.58c-.23-.28-.51-.42-.84-.42-.19,0-.37.04-.52.13-.15.08-.27.2-.35.36s-.12.33-.12.53.04.38.12.53c.08.15.2.27.35.36.15.08.32.13.52.13.33,0,.61-.14.84-.42l.64.58c-.17.22-.39.38-.65.5-.26.12-.55.17-.88.17-.37,0-.71-.08-1-.24Z"/>
    <path class="cls-10" d="M105.65,181.69c-.3-.16-.54-.38-.71-.66-.17-.28-.26-.6-.26-.95s.09-.67.26-.95c.17-.28.41-.5.71-.66.3-.16.64-.24,1.01-.24s.72.08,1.01.24c.3.16.54.38.71.66.17.28.26.6.26.95s-.09.67-.26.95c-.17.28-.41.5-.71.66-.3.16-.64.24-1.01.24s-.71-.08-1.01-.24ZM107.15,180.97c.15-.08.26-.2.35-.36.08-.15.13-.33.13-.53s-.04-.38-.13-.53c-.09-.15-.2-.27-.35-.36-.15-.08-.31-.13-.49-.13s-.34.04-.49.13-.26.2-.35.36c-.09.15-.13.33-.13.53s.04.38.13.53c.08.15.2.27.35.36s.31.13.49.13.34-.04.49-.13Z"/>
    <path class="cls-10" d="M112.56,178.3v3.56h-.83l-1.57-1.9v1.9h-.99v-3.56h.83l1.57,1.9v-1.9h.99Z"/>
    <path class="cls-10" d="M114.05,181.69c-.3-.16-.54-.38-.71-.66-.17-.28-.26-.6-.26-.95s.09-.67.26-.95c.17-.28.41-.5.71-.66.3-.16.64-.24,1.01-.24s.71.08,1.01.24c.3.16.54.38.71.66.17.28.26.6.26.95s-.09.67-.26.95c-.17.28-.41.5-.71.66-.3.16-.64.24-1.01.24s-.72-.08-1.01-.24ZM115.56,180.97c.15-.08.26-.2.35-.36.09-.15.13-.33.13-.53s-.04-.38-.13-.53c-.08-.15-.2-.27-.35-.36s-.31-.13-.49-.13-.34.04-.49.13c-.15.08-.26.2-.35.36-.08.15-.13.33-.13.53s.04.38.13.53c.09.15.2.27.35.36.15.08.31.13.49.13s.34-.04.49-.13Z"/>
    <path class="cls-10" d="M120.79,181.86v-1.89s-.93,1.54-.93,1.54h-.45l-.91-1.49v1.84h-.93v-3.56h.83l1.25,2.06,1.22-2.06h.83v3.56s-.92,0-.92,0Z"/>
    <path class="cls-10" d="M122.43,178.3h1.01v3.56h-1.01v-3.56Z"/>
    <path class="cls-10" d="M124.57,181.82c-.27-.07-.49-.17-.66-.28l.33-.74c.16.11.34.19.55.25s.42.1.62.1c.39,0,.58-.1.58-.29,0-.1-.06-.18-.17-.23-.11-.05-.29-.1-.53-.15-.27-.06-.49-.12-.67-.19-.18-.07-.33-.17-.46-.32-.13-.15-.19-.34-.19-.59,0-.22.06-.41.18-.59.12-.17.3-.31.53-.41s.52-.15.87-.15c.23,0,.46.03.69.08.23.05.43.13.6.23l-.31.75c-.34-.18-.67-.27-.99-.27-.2,0-.35.03-.44.09s-.14.14-.14.23.05.17.16.21.28.1.52.15c.27.06.5.12.67.19s.33.17.46.32c.13.14.2.34.2.59,0,.21-.06.41-.18.58s-.3.31-.53.41c-.24.1-.53.16-.86.16-.29,0-.57-.04-.84-.11Z"/>
    <path class="cls-10" d="M130.3,181.08v.78h-2.86v-3.56h2.79v.78h-1.8v.6h1.58v.75h-1.58v.65h1.86Z"/>
    <path class="cls-10" d="M133.87,181.06v.8h-3.19v-.63l1.8-2.13h-1.75v-.8h3.07v.63l-1.8,2.13h1.87Z"/>
    <path class="cls-10" d="M83.19,185.38c.24.2.36.47.36.81,0,.22-.06.42-.17.61-.11.19-.29.33-.52.44-.23.11-.52.17-.86.17-.25,0-.5-.03-.75-.09-.25-.06-.46-.15-.63-.26l.36-.76c.14.1.3.17.47.22.17.05.34.08.52.08s.31-.03.42-.1c.1-.07.15-.16.15-.28s-.05-.21-.15-.27c-.1-.06-.28-.09-.54-.09h-.97l.18-2.08h2.27v.78h-1.43l-.05.52h.24c.5,0,.87.1,1.11.31Z"/>
    <path class="cls-10" d="M84.59,187.19c-.24-.15-.42-.36-.56-.64-.13-.28-.2-.61-.2-.99s.07-.71.2-.99c.13-.28.32-.49.56-.64.24-.15.51-.22.81-.22s.57.07.81.22c.24.15.42.36.56.64.13.28.2.61.2.99s-.07.71-.2.99-.32.49-.56.64c-.24.15-.51.22-.81.22s-.58-.07-.81-.22ZM85.81,186.34c.1-.16.15-.42.15-.78s-.05-.62-.15-.78c-.1-.16-.23-.25-.4-.25s-.31.08-.41.25c-.1.16-.15.42-.15.78s.05.62.15.78c.1.16.24.25.41.25s.3-.08.4-.25Z"/>
    <path class="cls-10" d="M89.56,187.19c-.24-.15-.42-.36-.56-.64-.13-.28-.2-.61-.2-.99s.07-.71.2-.99c.13-.28.32-.49.56-.64.24-.15.51-.22.81-.22s.57.07.81.22c.24.15.42.36.56.64.13.28.2.61.2.99s-.07.71-.2.99-.32.49-.56.64c-.24.15-.51.22-.81.22s-.58-.07-.81-.22ZM90.78,186.34c.1-.16.15-.42.15-.78s-.05-.62-.15-.78c-.1-.16-.23-.25-.4-.25s-.31.08-.41.25c-.1.16-.15.42-.15.78s.05.62.15.78c.1.16.24.25.41.25s.3-.08.4-.25Z"/>
    <path class="cls-10" d="M93.04,187.19c-.24-.15-.42-.36-.56-.64-.13-.28-.2-.61-.2-.99s.07-.71.2-.99c.13-.28.32-.49.56-.64.24-.15.51-.22.81-.22s.57.07.81.22c.24.15.42.36.56.64.13.28.2.61.2.99s-.07.71-.2.99-.32.49-.56.64c-.24.15-.51.22-.81.22s-.58-.07-.81-.22ZM94.26,186.34c.1-.16.15-.42.15-.78s-.05-.62-.15-.78c-.1-.16-.23-.25-.4-.25s-.31.08-.41.25c-.1.16-.15.42-.15.78s.05.62.15.78c.1.16.24.25.41.25s.3-.08.4-.25Z"/>
    <path class="cls-10" d="M96.53,187.19c-.24-.15-.42-.36-.56-.64-.13-.28-.2-.61-.2-.99s.07-.71.2-.99c.13-.28.32-.49.56-.64.24-.15.51-.22.81-.22s.57.07.81.22c.24.15.42.36.56.64.13.28.2.61.2.99s-.07.71-.2.99-.32.49-.56.64c-.24.15-.51.22-.81.22s-.58-.07-.81-.22ZM97.74,186.34c.1-.16.15-.42.15-.78s-.05-.62-.15-.78c-.1-.16-.23-.25-.4-.25s-.31.08-.41.25c-.1.16-.15.42-.15.78s.05.62.15.78c.1.16.24.25.41.25s.3-.08.4-.25Z"/>
    <path class="cls-10" d="M103.16,187.34l-.74-1.1-.73,1.1h-1.15l1.3-1.8-1.24-1.76h1.13l.71,1.03.7-1.03h1.09l-1.24,1.72,1.32,1.84h-1.16Z"/>
    <path class="cls-10" d="M105.32,187.17c-.3-.16-.54-.38-.71-.66-.17-.28-.26-.6-.26-.95s.09-.67.26-.95c.17-.28.41-.5.71-.66.3-.16.64-.24,1.01-.24s.72.08,1.01.24c.3.16.54.38.71.66.17.28.26.6.26.95s-.09.67-.26.95c-.17.28-.41.5-.71.66-.3.16-.64.24-1.01.24s-.71-.08-1.01-.24ZM106.82,186.45c.15-.08.26-.2.35-.36.08-.15.13-.33.13-.53s-.04-.38-.13-.53c-.09-.15-.2-.27-.35-.36-.15-.08-.31-.13-.49-.13s-.34.04-.49.13-.26.2-.35.36c-.09.15-.13.33-.13.53s.04.38.13.53c.08.15.2.27.35.36s.31.13.49.13.34-.04.49-.13Z"/>
    <path class="cls-10" d="M109.85,184.55v.78h1.57v.78h-1.57v1.22h-1.01v-3.56h2.79v.78h-1.79Z"/>
  </g>
  <rect class="cls-11" x="72.29" y="154.62" width="113.38" height="17.53" rx="5.25" ry="5.25"/>
</svg>